<svg xmlns="http://www.w3.org/2000/svg" width="65.519" height="83.827" viewBox="0 0 65.519 83.827">
  <g id="XMLID_1_" transform="translate(-56 -0.1)">
    <g id="XMLID_5931_" transform="translate(56.819 0.919)">
      <path id="XMLID_3864_" d="M179.616,11.634s-1.883-6.518-10.808-6.518V5.1C159.883,5.1,158,11.634,158,11.634Z" transform="translate(-142.116 -5.1)" fill="#35322b"/>
      <path id="XMLID_3844_" d="M311,179.17c4.176,0,6.223-2.751,6.223-5.715S312.949,170,312.31,170Z" transform="translate(-270.061 -142.996)" fill="#fed1c6"/>
      <path id="XMLID_3831_" d="M311,191.258,315.176,187s1.719,4.651-4.176,6.387Z" transform="translate(-270.061 -157.213)" fill="#f2b5a6"/>
      <path id="XMLID_3821_" d="M105.223,179.17c-4.176,0-6.223-2.751-6.223-5.715S103.274,170,103.913,170Z" transform="translate(-92.777 -142.996)" fill="#fed1c6"/>
      <path id="XMLID_3820_" d="M114.484,191.258,110.308,187s-1.719,4.651,4.176,6.387Z" transform="translate(-102.038 -157.213)" fill="#f2b5a6"/>
      <path id="XMLID_3819_" d="M143.389,52.09s3.275-.9,3.275-7.123S141.833,29,127.832,29,109,38.744,109,44.966s3.275,7.123,3.275,7.123" transform="translate(-101.14 -25.086)" fill="#504c43"/>
      <path id="XMLID_3656_" d="M92.605,286.9H82.78v6.223l-18,8.4A6.531,6.531,0,0,0,61,307.452v15.475h53.385V307.452a6.573,6.573,0,0,0-3.783-5.944l-18-8.384Z" transform="translate(-61 -240.753)" fill="#504c43"/>
      <path id="XMLID_3655_" d="M192.393,308.125c0,3.734-2.784,14.9-2.784,14.9h-9.825S177,311.842,177,308.125s2.784-14.9,2.784-14.9V287h9.825v6.223S192.393,304.407,192.393,308.125Z" transform="translate(-158.004 -240.837)" fill="#fed1c6"/>
      <path id="XMLID_3956_" d="M194,287v4.8a33.908,33.908,0,0,0,4.913,1.916,33.908,33.908,0,0,0,4.913-1.916V287Z" transform="translate(-172.22 -240.837)" fill="#f2b5a6"/>
      <path id="XMLID_3654_" d="M182.032,368.7a11.6,11.6,0,0,1-13.068,0L166,376.446v14.9h19v-14.9Z" transform="translate(-148.806 -309.158)" fill="#d8d6c1"/>
      <path id="XMLID_3653_" d="M147.175,325l-9.154,4.274,3.308,3.914-3.308,7.32s-.59,9.825,5.5,14.3h3.652s-2.784-11.185-2.784-14.9,2.784-14.9,2.784-14.9Z" transform="translate(-125.395 -272.614)" fill="#6d6759"/>
      <path id="XMLID_1411_" d="M254,325l9.154,4.274-3.308,3.914,3.308,7.32s.59,9.825-5.5,14.3H254s2.784-11.185,2.784-14.9S254,325,254,325Z" transform="translate(-222.395 -272.614)" fill="#6d6759"/>
      <g id="Grupo_1084706" data-name="Grupo 1084706" transform="translate(3.03 56.283)">
        <path id="XMLID_1410_" d="M134.814,360.59l3.242-7.173a.834.834,0,0,0-.115-.868l-3.161-3.75-1.539.721,3.128,3.7-3.1,6.845a.642.642,0,0,0-.066.295c-.016.393-.508,9.449,5.027,14.345h2.686l-.9-.655C134.716,370.17,134.765,361.8,134.814,360.59Z" transform="translate(-124.399 -348.8)" fill="#35322b"/>
        <path id="XMLID_1409_" d="M273.708,360.59l-3.242-7.173a.834.834,0,0,1,.115-.868l3.161-3.75,1.539.721-3.128,3.7,3.1,6.845a.642.642,0,0,1,.065.295c.016.393.508,9.449-5.027,14.345H267.6l.9-.655C273.806,370.17,273.757,361.8,273.708,360.59Z" transform="translate(-236.797 -348.8)" fill="#35322b"/>
        <path id="XMLID_1407_" d="M79.5,374.853,81.891,385.4l1.6-.36L81.023,374.1l-.753.36A5.664,5.664,0,0,0,79.5,374.853Z" transform="translate(-79.5 -369.957)" fill="#35322b"/>
      </g>
      <path id="XMLID_1383_" d="M160.114,103.937s-.557,11.1-3.93,15.672c-3.439,4.634-11.627,6.927-11.627,6.927s-8.188-2.293-11.627-6.927c-3.373-4.552-3.93-15.672-3.93-15.672,4.372,0,15.557-12.937,15.557-12.937S155.742,103.937,160.114,103.937Z" transform="translate(-117.865 -76.933)" fill="#fed1c6"/>
      <g id="XMLID_1382_" transform="translate(12.446 26.168)">
        <path id="XMLID_3858_" d="M153.3,171.8s.115,6.387-5.568,6.387S142,170,142,170A30.962,30.962,0,0,1,153.3,171.8Z" transform="translate(-141.181 -169.165)" fill="#d8d6c1"/>
        <path id="XMLID_3859_" d="M143.55,174.742c-5.142,0-6.534-5.9-6.55-9.007a.839.839,0,0,1,.819-.835c7.205,0,11.447,1.785,11.627,1.867a.8.8,0,0,1,.491.737,8.537,8.537,0,0,1-2.031,5.535A5.834,5.834,0,0,1,143.55,174.742Zm-4.864-8.171a12.392,12.392,0,0,0,.655,3.029c.835,2.325,2.243,3.5,4.209,3.5a4.247,4.247,0,0,0,3.177-1.2,6.364,6.364,0,0,0,1.539-3.816A31.954,31.954,0,0,0,138.687,166.57Z" transform="translate(-137 -164.9)" fill="#d84861"/>
      </g>
      <g id="XMLID_1381_" transform="translate(28.002 26.185)">
        <path id="XMLID_3848_" d="M237,171.8s-.115,6.387,5.568,6.387S248.3,170,248.3,170A30.962,30.962,0,0,0,237,171.8Z" transform="translate(-236.18 -169.181)" fill="#d8d6c1"/>
        <path id="XMLID_3850_" d="M238.386,174.825a5.886,5.886,0,0,1-4.356-1.687A8.488,8.488,0,0,1,232,167.6a.8.8,0,0,1,.491-.737c.18-.082,4.421-1.867,11.627-1.867a.768.768,0,0,1,.573.246.843.843,0,0,1,.246.59C244.92,168.93,243.528,174.825,238.386,174.825Zm-4.716-6.649a6.469,6.469,0,0,0,1.539,3.816,4.311,4.311,0,0,0,3.177,1.2c1.965,0,3.373-1.179,4.209-3.521a13.211,13.211,0,0,0,.655-3.029A32.325,32.325,0,0,0,233.67,168.177Z" transform="translate(-232 -165)" fill="#d84861"/>
      </g>
      <g id="XMLID_1380_" transform="translate(24.564 27.986)">
        <path id="XMLID_3849_" d="M211,176h4.258v1.638H211Z" transform="translate(-211 -176)" fill="#d84861"/>
      </g>
      <path id="XMLID_1379_" d="M333.09,353.733l-10.48,7.844H320.48L310,353.733V333.1l10.48,7.844h2.129l10.48-7.844Z" transform="translate(-269.225 -279.388)" fill="#d84861"/>
      <path id="XMLID_870_" d="M374,340.86v20.633h2.129l10.48-7.844V333l-10.48,7.86Z" transform="translate(-322.744 -279.304)" fill="#c22945"/>
      <path id="XMLID_1377_" d="M330.568,314c-2.718,0-9.1,3.685-9.1,6.632,0-2.948-6.223-6.632-8.941-6.632L310,317.128l10.48,7.844h2.129l10.48-7.844Z" transform="translate(-269.225 -263.415)" fill="#d8d6c1"/>
      <g id="XMLID_1376_" transform="translate(51.42 57.299)">
        <path id="XMLID_3869_" d="M375,355h1.638v4.258H375Z" transform="translate(-375 -355)" fill="#c5c2a1"/>
      </g>
      <g id="XMLID_1375_" transform="translate(41.739 51.231)">
        <path id="XMLID_3868_" d="M0,0H12.3V1.638H0Z" transform="translate(0.94 0) rotate(35.025)" fill="#c5c2a1"/>
      </g>
      <g id="XMLID_1374_" transform="translate(51.842 51.125)">
        <path id="XMLID_3866_" d="M0,0H1.638V12.282H0Z" transform="translate(10.01 0) rotate(54.609)" fill="#c5c2a1"/>
      </g>
      <path id="XMLID_1373_" d="M407.568,372.3v4.585L402,381.061v-4.585Z" transform="translate(-346.159 -312.168)" fill="#d8d6c1"/>
      <path id="XMLID_3817_" d="M252.55,181.881a5.3,5.3,0,0,0-2.948-.983,6.324,6.324,0,0,0-2.948.95l-.655,2h4.585A1.96,1.96,0,0,0,252.55,181.881Z" transform="translate(-215.705 -152.11)" fill="#ebebdf"/>
      <path id="XMLID_3816_" d="M162,181.881a5.3,5.3,0,0,1,2.948-.983,6.324,6.324,0,0,1,2.948.95l.655,2h-4.585A1.96,1.96,0,0,1,162,181.881Z" transform="translate(-145.461 -152.11)" fill="#ebebdf"/>
      <g id="XMLID_3814_" transform="translate(18.177 28.805)">
        <path id="XMLID_3815_" d="M172,181h1.638v2.948H172Z" transform="translate(-172 -181)" fill="#35322b"/>
      </g>
      <g id="XMLID_3812_" transform="translate(19.16 28.805)">
        <path id="XMLID_3813_" d="M178,181h1.638v2.948H178Z" transform="translate(-178 -181)" fill="#35322b"/>
      </g>
      <g id="XMLID_1405_" transform="translate(33.57 28.805)">
        <path id="XMLID_1406_" d="M266,181h1.638v2.948H266Z" transform="translate(-266 -181)" fill="#35322b"/>
      </g>
      <g id="XMLID_1403_" transform="translate(32.588 28.805)">
        <path id="XMLID_1404_" d="M260,181h1.638v2.948H260Z" transform="translate(-260 -181)" fill="#35322b"/>
      </g>
      <g id="XMLID_1401_" transform="translate(15.884 27.986)">
        <path id="XMLID_1402_" d="M158.655,178.62H158v-1.638h.409A5.854,5.854,0,0,1,161.6,176h.033a5.984,5.984,0,0,1,2.9.835,2.345,2.345,0,0,0,.311.147l-.557,1.539c-.164-.065-.327-.147-.524-.246a4.3,4.3,0,0,0-2.112-.655h-.016a4.366,4.366,0,0,0-2.489.835A.84.84,0,0,1,158.655,178.62Z" transform="translate(-158 -176)" fill="#35322b"/>
      </g>
      <g id="XMLID_1398_" transform="translate(30.672 28.002)">
        <path id="XMLID_1400_" d="M255.129,178.7h-.655a.853.853,0,0,1-.475-.147,4.327,4.327,0,0,0-2.489-.835h-.016a4.24,4.24,0,0,0-2.112.655,3.643,3.643,0,0,1-.524.246l-.557-1.539c.049-.016.2-.1.311-.147a5.623,5.623,0,0,1,6.124.147h.409V178.7Z" transform="translate(-248.3 -176.098)" fill="#35322b"/>
      </g>
      <g id="XMLID_1395_" transform="translate(21.501 38.745)">
        <path id="XMLID_1396_" d="M197.491,245.041A7.083,7.083,0,0,1,192.3,242.8l1.228-1.1a5.55,5.55,0,0,0,3.979,1.687h.049a5.4,5.4,0,0,0,3.914-1.687l1.228,1.1a7.124,7.124,0,0,1-5.126,2.243Z" transform="translate(-192.3 -241.7)" fill="#d84861"/>
      </g>
      <g id="XMLID_1393_" transform="translate(15.459 23.073)">
        <path id="XMLID_1394_" d="M156.235,148.505,155.4,147.1a7.83,7.83,0,0,1,4.012-1.1h.049a8.079,8.079,0,0,1,3.979,1.1l-.835,1.408a6.212,6.212,0,0,0-3.144-.868A6.287,6.287,0,0,0,156.235,148.505Z" transform="translate(-155.4 -146)" fill="#35322b"/>
      </g>
      <g id="XMLID_1391_" transform="translate(29.886 23.073)">
        <path id="XMLID_1392_" d="M250.705,148.5a6.337,6.337,0,0,0-3.226-.868,6.161,6.161,0,0,0-3.144.868L243.5,147.1a8.024,8.024,0,0,1,3.979-1.1,7.823,7.823,0,0,1,4.061,1.1Z" transform="translate(-243.5 -145.998)" fill="#35322b"/>
      </g>
    </g>
    <g id="XMLID_446_" transform="translate(56 0.1)">
      <g id="XMLID_1253_" transform="translate(12.593 52.357)">
        <path id="XMLID_4361_" d="M142.9,351.3h-3.652a.773.773,0,0,1-.491-.164c-6.387-4.683-5.863-14.591-5.846-15.016a.957.957,0,0,1,.066-.295l3.1-6.845-2.98-3.521a.818.818,0,0,1,.278-1.277l9.154-4.274a.8.8,0,0,1,.868.115.853.853,0,0,1,.278.835c-.033.115-2.767,11.119-2.767,14.705s2.735,14.591,2.767,14.705a.831.831,0,0,1-.147.7A.727.727,0,0,1,142.9,351.3Zm-3.373-1.638h2.325c-.688-2.866-2.555-10.939-2.555-14.083,0-2.948,1.621-10.153,2.407-13.444l-6.649,3.1,2.62,3.095a.834.834,0,0,1,.115.868l-3.242,7.173c-.033,1.2-.082,9.367,4.978,13.3Z" transform="translate(-132.899 -319.826)" fill="#272526"/>
      </g>
      <g id="XMLID_1252_" transform="translate(31.612 52.378)">
        <path id="XMLID_4358_" d="M253.5,351.4h-3.652a.807.807,0,0,1-.639-.311.831.831,0,0,1-.147-.7c.033-.115,2.767-11.119,2.767-14.705s-2.735-14.591-2.767-14.705a.82.82,0,0,1,.278-.835.834.834,0,0,1,.868-.115l9.154,4.274a.857.857,0,0,1,.459.573.847.847,0,0,1-.18.7l-2.98,3.521,3.1,6.845a.643.643,0,0,1,.065.295c.033.426.54,10.333-5.846,15.017A.815.815,0,0,1,253.5,351.4Zm-2.6-1.638h2.325c5.076-3.947,5.011-12.1,4.978-13.3l-3.242-7.173a.834.834,0,0,1,.115-.868l2.62-3.095-6.649-3.1c.786,3.292,2.407,10.5,2.407,13.444,0,3.144-1.867,11.217-2.555,14.083Z" transform="translate(-249.04 -319.954)" fill="#272526"/>
      </g>
      <g id="XMLID_1251_" transform="translate(3.824 61.408)">
        <path id="XMLID_4357_" d="M0,0H11.037V1.638H0Z" transform="matrix(0.221, 0.975, -0.975, 0.221, 1.597, 0)" fill="#272526"/>
      </g>
      <g id="XMLID_1250_" transform="translate(20.453 59.722)">
        <path id="XMLID_4356_" d="M187.958,368.272a11.579,11.579,0,0,1-7.058-2.211l1.048-1.261-.524.639.524-.639a10.163,10.163,0,0,0,6.01,1.834,10.045,10.045,0,0,0,6.01-1.834l1.048,1.261A11.579,11.579,0,0,1,187.958,368.272Z" transform="translate(-180.9 -364.8)" fill="#272526"/>
      </g>
      <g id="XMLID_1103_" transform="translate(8.495 30.032)">
        <path id="XMLID_4354_" d="M0,0H5.175V1.638H0Z" transform="matrix(0.7, 0.714, -0.714, 0.7, 1.169, 0)" fill="#272526"/>
      </g>
      <g id="XMLID_1102_" transform="translate(41.736 30.021)">
        <path id="XMLID_4353_" d="M0,0H1.638V5.175H0Z" transform="matrix(0.714, 0.7, -0.7, 0.714, 3.622, 0)" fill="#272526"/>
      </g>
      <g id="XMLID_1100_" transform="translate(22.32 39.564)">
        <path id="XMLID_4352_" d="M197.491,245.041A7.083,7.083,0,0,1,192.3,242.8l1.228-1.1a5.55,5.55,0,0,0,3.979,1.687h.049a5.4,5.4,0,0,0,3.914-1.687l1.228,1.1a7.124,7.124,0,0,1-5.126,2.243Z" transform="translate(-192.3 -241.7)" fill="#272526"/>
      </g>
      <g id="XMLID_1099_" transform="translate(16.277 23.892)">
        <path id="XMLID_4349_" d="M156.235,148.505,155.4,147.1a7.83,7.83,0,0,1,4.012-1.1h.049a8.079,8.079,0,0,1,3.979,1.1l-.835,1.408a6.212,6.212,0,0,0-3.144-.868h-.033A6.418,6.418,0,0,0,156.235,148.505Z" transform="translate(-155.4 -146)" fill="#272526"/>
      </g>
      <g id="XMLID_1098_" transform="translate(18.996 29.624)">
        <path id="XMLID_4348_" d="M172,181h1.638v2.948H172Z" transform="translate(-172 -181)" fill="#272526"/>
      </g>
      <g id="XMLID_1097_" transform="translate(19.978 29.624)">
        <path id="XMLID_4347_" d="M178,181h1.638v2.948H178Z" transform="translate(-178 -181)" fill="#272526"/>
      </g>
      <g id="XMLID_1096_" transform="translate(16.703 28.805)">
        <path id="XMLID_4346_" d="M158.655,178.62H158v-1.638h.409A5.854,5.854,0,0,1,161.6,176h.033a5.984,5.984,0,0,1,2.9.835,2.345,2.345,0,0,0,.311.147l-.557,1.539c-.164-.065-.327-.147-.524-.246a4.3,4.3,0,0,0-2.112-.655h-.016a4.366,4.366,0,0,0-2.489.835A.84.84,0,0,1,158.655,178.62Z" transform="translate(-158 -176)" fill="#272526"/>
      </g>
      <g id="XMLID_1095_" transform="translate(30.704 23.892)">
        <path id="XMLID_4345_" d="M250.705,148.505a6.5,6.5,0,0,0-3.226-.868,6.11,6.11,0,0,0-3.144.868L243.5,147.1a7.913,7.913,0,0,1,8.04,0Z" transform="translate(-243.5 -146)" fill="#272526"/>
      </g>
      <g id="XMLID_1094_" transform="translate(34.389 29.624)">
        <path id="XMLID_4344_" d="M266,181h1.638v2.948H266Z" transform="translate(-266 -181)" fill="#272526"/>
      </g>
      <g id="XMLID_1093_" transform="translate(33.406 29.624)">
        <path id="XMLID_4343_" d="M260,181h1.638v2.948H260Z" transform="translate(-260 -181)" fill="#272526"/>
      </g>
      <g id="XMLID_1092_" transform="translate(31.49 28.821)">
        <path id="XMLID_4342_" d="M255.129,178.7h-.655a.853.853,0,0,1-.475-.147,4.327,4.327,0,0,0-2.489-.835h-.016a4.24,4.24,0,0,0-2.112.655,3.64,3.64,0,0,1-.524.246l-.557-1.539c.049-.016.2-.1.311-.147a5.984,5.984,0,0,1,2.9-.835h.033a5.854,5.854,0,0,1,3.193.983h.409V178.7Z" transform="translate(-248.3 -176.1)" fill="#272526"/>
      </g>
      <g id="XMLID_1085_" transform="translate(6.223 27.004)">
        <g id="XMLID_1087_">
          <path id="XMLID_4341_" d="M101.042,175.808c-4.831,0-7.042-3.39-7.042-6.534,0-3.521,4.6-4.274,5.731-4.274v1.638c-.049,0-4.094.278-4.094,2.636,0,2.26,1.408,4.9,5.4,4.9Z" transform="translate(-94 -165)" fill="#272526"/>
        </g>
        <g id="XMLID_1086_" transform="translate(35.535)">
          <path id="XMLID_4340_" d="M311,175.808V174.17c4,0,5.4-2.637,5.4-4.9,0-2.358-4.061-2.636-4.094-2.636V165c1.13,0,5.732.753,5.732,4.274C318.042,172.418,315.831,175.808,311,175.808Z" transform="translate(-311 -165)" fill="#272526"/>
        </g>
      </g>
      <g id="XMLID_1192_" transform="translate(7.86 3.914)">
        <path id="XMLID_4339_" d="M139.421,48.695l-.442-1.572.213.786-.229-.786c.115-.033,2.686-.9,2.686-6.337.016-6.092-4.782-15.148-18-15.148s-18.013,9.056-18.013,15.148c0,5.437,2.571,6.3,2.686,6.337l-.442,1.572c-.164-.049-3.881-1.146-3.881-7.909C104,34.038,109.24,24,123.651,24S143.3,34.038,143.3,40.785c0,6.763-3.717,7.877-3.881,7.909Z" transform="translate(-104 -24)" fill="#272526"/>
      </g>
      <g id="XMLID_1191_" transform="translate(15.917)">
        <path id="XMLID_4338_" d="M174.816,7.682c-.065-.246-1.867-5.928-10.022-5.928a.279.279,0,0,1-.115-.016c-8.106.049-9.891,5.879-9.907,5.944L153.2,7.223a9.187,9.187,0,0,1,2.26-3.6C157.016,2.016,159.9.1,164.794.1a.361.361,0,0,1,.131.016c4.814.033,7.664,1.916,9.22,3.5a9.556,9.556,0,0,1,2.26,3.6Z" transform="translate(-153.2 -0.1)" fill="#272526"/>
      </g>
      <g id="XMLID_1315_" transform="translate(11.133 14.05)">
        <path id="XMLID_4335_" d="M140.365,123.089a.83.83,0,0,1-.213-.033c-.344-.1-8.5-2.424-12.069-7.238-3.488-4.7-4.061-15.655-4.094-16.114a.766.766,0,0,1,.229-.606.82.82,0,0,1,.59-.262c2.915,0,10.71-7.762,14.935-12.658a.8.8,0,0,1,.622-.278.82.82,0,0,1,.622.278c4.225,4.9,12.036,12.658,14.935,12.658a.793.793,0,0,1,.59.262.9.9,0,0,1,.229.606c-.016.459-.606,11.414-4.094,16.114-3.57,4.814-11.725,7.14-12.069,7.238A.829.829,0,0,1,140.365,123.089Zm-14.689-22.713c.2,2.538,1.015,10.824,3.717,14.476,2.931,3.947,9.662,6.157,10.972,6.567,1.31-.393,8.04-2.62,10.972-6.567,2.7-3.635,3.521-11.938,3.717-14.476-2.063-.491-5.06-2.669-9.121-6.583-2.407-2.325-4.552-4.683-5.568-5.813-1.015,1.13-3.161,3.488-5.568,5.813C130.736,97.707,127.74,99.885,125.676,100.376Z" transform="translate(-123.987 -85.9)" fill="#272526"/>
      </g>
      <g id="XMLID_652_" transform="translate(13.264 26.987)">
        <path id="XMLID_4332_" d="M143.55,174.742c-5.142,0-6.534-5.9-6.55-9.007a.839.839,0,0,1,.819-.835c7.205,0,11.447,1.785,11.627,1.867a.8.8,0,0,1,.491.737,8.537,8.537,0,0,1-2.031,5.535A5.834,5.834,0,0,1,143.55,174.742Zm-4.864-8.171a12.392,12.392,0,0,0,.655,3.029c.835,2.325,2.243,3.5,4.209,3.5a4.247,4.247,0,0,0,3.177-1.2,6.364,6.364,0,0,0,1.539-3.816A31.954,31.954,0,0,0,138.687,166.57Z" transform="translate(-137 -164.9)" fill="#272526"/>
      </g>
      <g id="XMLID_653_" transform="translate(28.821 27.004)">
        <path id="XMLID_4329_" d="M238.386,174.825a5.886,5.886,0,0,1-4.356-1.687A8.488,8.488,0,0,1,232,167.6a.8.8,0,0,1,.491-.737c.18-.082,4.421-1.867,11.627-1.867a.768.768,0,0,1,.573.246.843.843,0,0,1,.246.59C244.92,168.93,243.528,174.825,238.386,174.825Zm-4.716-6.649a6.469,6.469,0,0,0,1.539,3.816,4.311,4.311,0,0,0,3.177,1.2c1.965,0,3.373-1.179,4.209-3.521a13.211,13.211,0,0,0,.655-3.029A32.325,32.325,0,0,0,233.67,168.177Z" transform="translate(-232 -165)" fill="#272526"/>
      </g>
      <g id="XMLID_1316_" transform="translate(25.382 28.805)">
        <path id="XMLID_4328_" d="M211,176h4.258v1.638H211Z" transform="translate(-211 -176)" fill="#272526"/>
      </g>
      <g id="XMLID_2466_" transform="translate(40.775 54.515)">
        <path id="XMLID_4327_" d="M318.428,362.312H316.3a.883.883,0,0,1-.491-.164l-10.48-7.844a.785.785,0,0,1-.327-.655V333h1.638v20.24l9.94,7.435h1.588l9.94-7.435V336.275h1.638V353.65a.785.785,0,0,1-.328.655l-10.5,7.844A.773.773,0,0,1,318.428,362.312Z" transform="translate(-305 -333)" fill="#272526"/>
      </g>
      <g id="XMLID_1320_" transform="translate(40.767 50.568)">
        <path id="XMLID_4324_" d="M318.386,321.526h-2.129a.883.883,0,0,1-.491-.164l-10.48-7.844a.819.819,0,0,1-.327-.557.8.8,0,0,1,.18-.622l2.522-3.128a.807.807,0,0,1,.639-.311,12.171,12.171,0,0,1,5.944,2.358,11.765,11.765,0,0,1,3.013,2.833c1.932-2.767,6.747-5.175,9.089-5.175a.832.832,0,0,1,.639.311l2.522,3.128a.818.818,0,0,1-.147,1.179l-10.48,7.828A.883.883,0,0,1,318.386,321.526Zm-1.85-1.638h1.588l9.58-7.173-1.719-2.129c-2.587.311-7.91,3.586-7.91,5.8a.819.819,0,0,1-1.638,0c0-1.015-1.179-2.44-3.1-3.75a12.353,12.353,0,0,0-4.651-2.047l-1.719,2.129Z" transform="translate(-304.95 -308.9)" fill="#272526"/>
      </g>
      <g id="XMLID_1317_" transform="translate(52.238 58.117)">
        <path id="XMLID_4323_" d="M375,355h1.638v4.258H375Z" transform="translate(-375 -355)" fill="#272526"/>
      </g>
      <g id="XMLID_1319_" transform="translate(42.558 52.05)">
        <path id="XMLID_4322_" d="M0,0H12.3V1.638H0Z" transform="translate(0.94 0) rotate(35.025)" fill="#272526"/>
      </g>
      <g id="XMLID_1321_" transform="translate(52.661 51.944)">
        <path id="XMLID_4321_" d="M0,0H1.638V12.282H0Z" transform="translate(10.01 0) rotate(54.609)" fill="#272526"/>
      </g>
      <g id="XMLID_1105_" transform="translate(55.841 60.134)">
        <path id="XMLID_4318_" d="M397.819,377.71a.892.892,0,0,1-.36-.082.819.819,0,0,1-.459-.737v-4.585a.785.785,0,0,1,.327-.655l5.568-4.176a.838.838,0,0,1,.852-.082.819.819,0,0,1,.459.737v4.585a.785.785,0,0,1-.328.655l-5.568,4.176A.883.883,0,0,1,397.819,377.71Zm.819-4.995v2.538l3.93-2.948v-2.538Z" transform="translate(-397 -367.313)" fill="#272526"/>
      </g>
      <g id="XMLID_3805_" transform="translate(31.605 48.98)">
        <path id="XMLID_3734_" d="M249,299.2h1.638v4.225H249Z" transform="translate(-249 -299.2)" fill="#272526"/>
      </g>
      <g id="XMLID_3306_" transform="translate(0 49.029)">
        <path id="XMLID_3733_" d="M103.162,334.282H56.819a.811.811,0,0,1-.819-.819V317.988a7.407,7.407,0,0,1,4.258-6.681l17.522-8.171V299.5h1.638v4.159a.806.806,0,0,1-.475.737l-18,8.4a5.743,5.743,0,0,0-3.308,5.191v14.656h45.524Z" transform="translate(-56 -299.5)" fill="#272526"/>
      </g>
    </g>
  </g>
</svg>
