<svg xmlns="http://www.w3.org/2000/svg" xmlns:xlink="http://www.w3.org/1999/xlink" width="402" height="395" viewBox="0 0 402 395">
  <defs>
    <clipPath id="clip-path">
      <rect id="Rectángulo_386866" data-name="Rectángulo 386866" width="402" height="395" transform="translate(178 1581)" fill="#01c3fd" opacity="0.35"/>
    </clipPath>
    <clipPath id="clip-path-2">
      <rect id="Rectángulo_386862" data-name="Rectángulo 386862" width="400" height="473" transform="translate(180.471 8048)" fill="#fff" stroke="#707070" stroke-width="1" opacity="0.46"/>
    </clipPath>
    <clipPath id="clip-path-3">
      <rect id="Rectángulo_386798" data-name="Rectángulo 386798" width="26.878" height="58.832" fill="none"/>
    </clipPath>
    <clipPath id="clip-path-5">
      <rect id="Rectángulo_386789" data-name="Rectángulo 386789" width="4.112" height="15.031" transform="translate(7.808 8.787)" fill="none"/>
    </clipPath>
    <clipPath id="clip-path-6">
      <rect id="Rectángulo_386790" data-name="Rectángulo 386790" width="10.084" height="9.69" transform="translate(1.836 0.389)" fill="none"/>
    </clipPath>
    <clipPath id="clip-path-7">
      <rect id="Rectángulo_386791" data-name="Rectángulo 386791" width="11.642" height="10.747" transform="translate(0.278 22.978)" fill="none"/>
    </clipPath>
    <clipPath id="clip-path-8">
      <rect id="Rectángulo_386799" data-name="Rectángulo 386799" width="19.211" height="9.515" transform="translate(26.477 197.786)" fill="#6e40fc"/>
    </clipPath>
    <clipPath id="clip-path-9">
      <rect id="Rectángulo_386811" data-name="Rectángulo 386811" width="378.13" height="268.771" fill="none"/>
    </clipPath>
    <clipPath id="clip-path-11">
      <rect id="Rectángulo_386800" data-name="Rectángulo 386800" width="78.148" height="78.148" transform="translate(2.166 90.764)" fill="#ccbcfe"/>
    </clipPath>
    <clipPath id="clip-path-12">
      <rect id="Rectángulo_386801" data-name="Rectángulo 386801" width="67.496" height="67.496" transform="translate(243.093)" fill="#ccbcfe"/>
    </clipPath>
    <clipPath id="clip-path-13">
      <rect id="Rectángulo_386802" data-name="Rectángulo 386802" width="23.986" height="23.986" transform="translate(111.138 182.99)" fill="none"/>
    </clipPath>
    <clipPath id="clip-path-14">
      <rect id="Rectángulo_386803" data-name="Rectángulo 386803" width="14.968" height="14.967" transform="translate(207.824 142.325)" fill="#ccbcfe"/>
    </clipPath>
    <clipPath id="clip-path-15">
      <rect id="Rectángulo_386804" data-name="Rectángulo 386804" width="30.998" height="30.998" transform="translate(290.491 179.739)" fill="#ccbcfe"/>
    </clipPath>
    <clipPath id="clip-path-17">
      <rect id="Rectángulo_386806" data-name="Rectángulo 386806" width="44.424" height="44.425" transform="translate(333.706 50.89)" fill="#ccbcfe"/>
    </clipPath>
    <clipPath id="clip-path-18">
      <rect id="Rectángulo_386807" data-name="Rectángulo 386807" width="48.408" height="48.408" transform="translate(0 220.363)" fill="#ccbcfe"/>
    </clipPath>
    <clipPath id="clip-path-19">
      <rect id="Rectángulo_386808" data-name="Rectángulo 386808" width="20.977" height="20.977" transform="translate(267.411 214.094)" fill="none"/>
    </clipPath>
    <clipPath id="clip-path-20">
      <rect id="Rectángulo_386809" data-name="Rectángulo 386809" width="44.136" height="44.136" transform="translate(190.7 216.168)" fill="#ccbcfe"/>
    </clipPath>
    <clipPath id="clip-path-21">
      <rect id="Rectángulo_386856" data-name="Rectángulo 386856" width="310.715" height="539.037" fill="none"/>
    </clipPath>
    <clipPath id="clip-path-23">
      <rect id="Rectángulo_386818" data-name="Rectángulo 386818" width="71.334" height="134.64" fill="none"/>
    </clipPath>
    <clipPath id="clip-path-24">
      <rect id="Rectángulo_386819" data-name="Rectángulo 386819" width="109.287" height="208.767" fill="none"/>
    </clipPath>
    <clipPath id="clip-path-25">
      <rect id="Rectángulo_386852" data-name="Rectángulo 386852" width="125.928" height="237.505" fill="none"/>
    </clipPath>
    <clipPath id="clip-path-26">
      <path id="Trazado_835327" data-name="Trazado 835327" d="M0,0H147.213V21.131H0Z" fill="none"/>
    </clipPath>
    <clipPath id="clip-path-27">
      <rect id="Rectángulo_386872" data-name="Rectángulo 386872" width="147.055" height="21.131" fill="none"/>
    </clipPath>
    <clipPath id="clip-path-28">
      <rect id="Rectángulo_386871" data-name="Rectángulo 386871" width="144.235" height="19.221" fill="none"/>
    </clipPath>
    <clipPath id="clip-path-29">
      <rect id="Rectángulo_386853" data-name="Rectángulo 386853" width="144.454" height="278.028" fill="none"/>
    </clipPath>
    <clipPath id="clip-path-30">
      <rect id="Rectángulo_386854" data-name="Rectángulo 386854" width="89.648" height="171.558" fill="none"/>
    </clipPath>
    <clipPath id="clip-path-31">
      <rect id="Rectángulo_386820" data-name="Rectángulo 386820" width="51.22" height="97.853" fill="none"/>
    </clipPath>
    <clipPath id="clip-path-32">
      <rect id="Rectángulo_386861" data-name="Rectángulo 386861" width="151" height="311" transform="translate(398.471 8293)" fill="#fff" stroke="#707070" stroke-width="1" opacity="0.53"/>
    </clipPath>
    <clipPath id="clip-path-33">
      <rect id="Rectángulo_386860" data-name="Rectángulo 386860" width="121.403" height="299.037" fill="none"/>
    </clipPath>
    <clipPath id="clip-path-35">
      <rect id="Rectángulo_386863" data-name="Rectángulo 386863" width="63.181" height="63.181" fill="#ccbcfe"/>
    </clipPath>
  </defs>
  <g id="Enmascarar_grupo_1090643" data-name="Enmascarar grupo 1090643" transform="translate(-178 -1581)" clip-path="url(#clip-path)">
    <path id="Trazado_835171" data-name="Trazado 835171" d="M0,0H404.333V181H0Z" transform="translate(178 1872.183)" fill="#e9eeef"/>
    <g id="Grupo_1093163" data-name="Grupo 1093163" transform="translate(183.213 1661.547)">
      <g id="Grupo_1093160" data-name="Grupo 1093160" transform="translate(-2.279 -14)" opacity="0.84">
        <path id="Trazado_835172" data-name="Trazado 835172" d="M42.452,55.032v4.341H27.97V59.8H67.123v14.19H27.97v.438H42.452v14.19H27.97v.426H67.123v14.19H27.97v.426H42.452v14.19H27.97v.426H67.123v14.19H27.97v.438H42.452v14.19H27.97v.438H67.123v14.19H27.97v.438H42.452v14.19H27.97v.426H67.123v14.19H27.97v.438H42.452v14.19H27.97v.426H67.123V220.2H27.97v.426H42.452v14.19H27.97v.438H67.123v14.19H27.97v.438H42.452v14.19H27.97v.438H67.123V278.7H27.97v.438H42.452v14.19H27.97v.426H67.123v14.19H27.97v.438H42.452v14.19H27.97v.438H67.123V337.2H27.97v.438H42.452v14.19H27.97v.426H67.123v14.19H27.97v.426H42.452v14.19H27.97v.438H67.123v14.19H27.97v.438H42.452v14.19H27.97v.426H67.123v14.19H27.97v.438H42.452v14.19H27.97V440H67.123v14.19H27.97v.426H42.452V468.8H27.97v.426H67.123v5.046h.426v-5.046h48.917v5.046h.426v-5.046h48.917v5.046h.426v-5.046H209.1c.389-.146.778-.28,1.167-.426H190.917v-14.19h43.7c.17-.146.34-.292.511-.426h-19.54V440h32.964c.109-.146.207-.292.316-.438h-8.609v-14.19H257.4c.073-.146.134-.292.207-.438H215.588v-14.19h47.19c.036-.146.085-.292.122-.426H240.259v-14.19h25.072c0-.146.024-.292.036-.438h-.438V381.5h.377l-.036-.438H240.259V366.87h22.47a4.354,4.354,0,0,0-.122-.426H215.576v-14.19h41.731c-.073-.146-.134-.292-.207-.426H240.247v-14.19h8.159l-.328-.438h-32.49v-14.19H234.4c-.17-.146-.353-.292-.535-.438H190.917v-14.19h17.655l-1.24-.438H166.246v-7.283a4.532,4.532,0,0,1-.426-.195v7.466H116.9v-14.19h38.764c-.158-.146-.3-.28-.45-.426H141.587v-14.19h4.584l-.146-.438H116.915V264.5h27.407c0-.146.024-.292.036-.438h-2.772v-14.19h7.2c.085-.146.158-.292.243-.438H116.915v-14.19H163.96l.875-.438H141.6v-14.19h48.9v10.214l.438-.073V220.618h19.808c.146-.146.292-.292.438-.426H166.258V206h48.917v9.46l.438-.62V206h4.45c.049-.146.1-.292.146-.426H190.941v-14.19h31.1c0-.146-.012-.292-.024-.438h-6.408v-14.19h2.408a4.747,4.747,0,0,0-.231-.426H190.941v-14.19h13.776l-.693-.438H166.27v-6.4c-.146-.061-.292-.109-.426-.17v6.566H116.927v-14.19h41.135l-.182-.438H141.6v-14.19H159.74c.109-.146.219-.292.34-.438H116.927v-14.19h48.917v9.873c.146-.061.292-.122.426-.17v-9.7H191.1c.024-.146.036-.292.049-.426h-.207v-3.113a9.051,9.051,0,0,0-.438-1.41v4.523H141.6V106.867h-.426v10.968h-48.9v-14.19h14.226c-.182-.146-.365-.28-.547-.426H67.6V89.03h32.721c.012-.146.036-.292.061-.426h-8.11V74.414h47.081c.316-.134.608-.28.912-.438H116.952V59.786h27.115c-.1-.146-.182-.292-.28-.426h-2.164V57.1c-.146-.109-.28-.207-.426-.316v2.578h-48.9V55.02h-.438v4.341H42.938V55.02H42.5ZM199.38,118.285c-.024-.146-.036-.292-.049-.426h20.087a2.4,2.4,0,0,1-.049.426h-3.782V124.9c-.146.109-.292.219-.438.316v-6.931H199.368ZM42.889,454.538H91.806v14.19H42.889v-14.19Zm49.342,0h48.9v14.19h-48.9v-14.19Zm49.342,0h48.9v14.19h-48.9v-14.19ZM67.561,439.923h48.917v14.19H67.561v-14.19Zm49.342,0H165.82v14.19H116.9v-14.19Zm49.342,0h48.917v14.19H166.246v-14.19ZM42.889,425.307H91.806V439.5H42.889v-14.19Zm49.342,0h48.9V439.5h-48.9v-14.19Zm49.342,0h48.9V439.5h-48.9v-14.19Zm49.342,0h48.917V439.5H190.917v-14.19ZM67.561,410.692h48.917v14.19H67.561v-14.19Zm49.342,0H165.82v14.19H116.9v-14.19Zm49.342,0h48.917v14.19H166.246v-14.19ZM42.89,396.077H91.806v14.19H42.89v-14.19Zm49.342,0h48.9v14.19h-48.9v-14.19Zm49.342,0h48.9v14.19h-48.9v-14.19Zm49.342,0h48.917v14.19H190.917v-14.19ZM67.561,381.461h48.917v14.19H67.561v-14.19Zm49.342,0H165.82v14.19H116.9v-14.19Zm49.342,0h48.917v14.19H166.246v-14.19Zm49.342,0h48.9v14.19H215.576v-14.19h0ZM42.89,366.833H91.806v14.19H42.89v-14.19Zm49.342,0h48.9v14.19h-48.9v-14.19Zm49.342,0h48.9v14.19h-48.9v-14.19Zm49.342,0h48.917v14.19H190.917v-14.19ZM67.561,352.218h48.917v14.19H67.561v-14.19Zm49.343,0H165.82v14.19H116.9v-14.19Zm49.342,0h48.917v14.19H166.246v-14.19ZM42.89,337.6H91.806v14.19H42.89V337.6Zm49.342,0h48.9v14.19h-48.9V337.6Zm49.342,0h48.9v14.19h-48.9V337.6Zm49.342,0h48.917v14.19H190.917V337.6ZM67.561,322.987h48.917v14.19H67.561v-14.19Zm49.342,0H165.82v14.19H116.9v-14.19Zm49.342,0h48.917v14.19H166.246v-14.19ZM42.89,308.371H91.806v14.19H42.89v-14.19Zm49.342,0h48.9v14.19h-48.9v-14.19Zm49.342,0h48.9v14.19h-48.9v-14.19ZM67.561,293.744h48.917v14.19H67.561v-14.19ZM42.89,279.128H91.806v14.19H42.89v-14.19Zm49.342,0h48.9v14.19h-48.9v-14.19ZM67.561,264.513h48.917V278.7H67.561v-14.19ZM42.89,249.9H91.806v14.19H42.89V249.9Zm49.342,0h48.9v14.19h-48.9V249.9ZM67.561,235.282h48.917v14.19H67.561v-14.19ZM42.89,220.666H91.806v14.19H42.89v-14.19Zm49.342,0h48.9v14.19h-48.9v-14.19ZM67.561,206.051h48.917v14.19H67.561v-14.19Zm49.342,0H165.82v14.19H116.9v-14.19ZM42.89,191.435H91.807v14.19H42.89v-14.19Zm49.342,0h48.9v14.19h-48.9v-14.19Zm49.342,0h48.9v14.19h-48.9v-14.19ZM67.561,176.82h48.917v14.19H67.561V176.82Zm49.342,0H165.82v14.19H116.9V176.82Zm49.342,0h48.917v14.19H166.246V176.82ZM42.89,162.2H91.807v14.19H42.89V162.2Zm49.342,0h48.9v14.19h-48.9V162.2Zm49.342,0h48.9v14.19h-48.9V162.2ZM67.561,147.589h48.917v14.19H67.561v-14.19ZM42.89,132.973H91.807v14.19H42.89v-14.19Zm49.342,0h48.9v14.19h-48.9v-14.19ZM67.561,118.358h48.917v14.19H67.561v-14.19ZM42.89,103.742H91.807v14.19H42.89v-14.19Zm0-29.243H91.807v14.19H42.89V74.5ZM67.561,59.884h48.917v14.19H67.561Z" transform="translate(-27.97 -55.02)" fill="#a3cbde" fill-rule="evenodd"/>
      </g>
      <g id="Grupo_1093161" data-name="Grupo 1093161" transform="translate(179 77.601)">
        <path id="Trazado_835173" data-name="Trazado 835173" d="M168.22,210.871a1.16,1.16,0,1,1,1.16-1.16A1.162,1.162,0,0,1,168.22,210.871Z" transform="translate(20.04 -89.368)" fill="#fff" fill-rule="evenodd"/>
        <path id="Trazado_835174" data-name="Trazado 835174" d="M320.67,187.811a1.16,1.16,0,1,1,1.16-1.16A1.162,1.162,0,0,1,320.67,187.811Z" transform="translate(-286.132 -97.611)" fill="#fff" fill-rule="evenodd"/>
        <path id="Trazado_835175" data-name="Trazado 835175" d="M241.56,124.361a1.16,1.16,0,1,1,1.16-1.16A1.162,1.162,0,0,1,241.56,124.361Z" transform="translate(-113.354 -109.288)" fill="#fff" fill-rule="evenodd"/>
        <path id="Trazado_835176" data-name="Trazado 835176" d="M160.49,253.3a1.16,1.16,0,1,1,1.16-1.16A1.162,1.162,0,0,1,160.49,253.3Z" transform="translate(63.705 -85.56)" fill="#fff" fill-rule="evenodd"/>
        <path id="Trazado_835177" data-name="Trazado 835177" d="M304.22,259.091a1.16,1.16,0,1,1,1.16-1.16A1.162,1.162,0,0,1,304.22,259.091Z" transform="translate(-250.205 -84.494)" fill="#fff" fill-rule="evenodd"/>
        <path id="Trazado_835178" data-name="Trazado 835178" d="M322.24,151.781a1.16,1.16,0,1,1,1.16-1.16A1.162,1.162,0,0,1,322.24,151.781Z" transform="translate(-289.561 -104.242)" fill="#fff" fill-rule="evenodd"/>
        <path id="Trazado_835179" data-name="Trazado 835179" d="M146.78,133.421a1.16,1.16,0,1,1,1.16-1.16A1.162,1.162,0,0,1,146.78,133.421Z" transform="translate(93.648 -107.621)" fill="#fff" fill-rule="evenodd"/>
        <path id="Trazado_835180" data-name="Trazado 835180" d="M347.906,148.291a2.546,2.546,0,1,1,2.546-2.546A2.549,2.549,0,0,1,347.906,148.291Z" transform="translate(-345.36 -105.394)" fill="#fff" fill-rule="evenodd"/>
        <path id="Trazado_835181" data-name="Trazado 835181" d="M299.546,173.161a2.546,2.546,0,1,1,2.546-2.546A2.549,2.549,0,0,1,299.546,173.161Z" transform="translate(-239.74 -100.817)" fill="#fff" fill-rule="evenodd"/>
        <path id="Trazado_835182" data-name="Trazado 835182" d="M208.286,116.373a2.552,2.552,0,1,1,2.546-2.546A2.549,2.549,0,0,1,208.286,116.373Z" transform="translate(-40.426 -111.27)" fill="#fff" fill-rule="evenodd"/>
        <path id="Trazado_835183" data-name="Trazado 835183" d="M170.946,158.091a2.546,2.546,0,1,1,2.546-2.546A2.549,2.549,0,0,1,170.946,158.091Z" transform="translate(25.125 -105.462)" fill="#fff" fill-rule="evenodd"/>
        <path id="Trazado_835185" data-name="Trazado 835185" d="M304.448,261.873a2.552,2.552,0,1,1,2.546-2.546A2.56,2.56,0,0,1,304.448,261.873Z" transform="translate(-250.432 -84.494)" fill="#fff" fill-rule="evenodd"/>
      </g>
      <g id="Grupo_1093162" data-name="Grupo 1093162" transform="translate(143 289.602)">
        <path id="Trazado_835186" data-name="Trazado 835186" d="M168.22,210.871a1.16,1.16,0,1,1,1.16-1.16A1.162,1.162,0,0,1,168.22,210.871Z" transform="translate(20.04 -89.368)" fill="#fff" fill-rule="evenodd"/>
        <path id="Trazado_835187" data-name="Trazado 835187" d="M320.67,187.811a1.16,1.16,0,1,1,1.16-1.16A1.162,1.162,0,0,1,320.67,187.811Z" transform="translate(-286.132 -97.611)" fill="#fff" fill-rule="evenodd"/>
        <path id="Trazado_835188" data-name="Trazado 835188" d="M320.67,187.811a1.16,1.16,0,1,1,1.16-1.16A1.162,1.162,0,0,1,320.67,187.811Z" transform="translate(-106.132 -98.772)" fill="#fff" fill-rule="evenodd"/>
        <path id="Trazado_835189" data-name="Trazado 835189" d="M241.56,124.361a1.16,1.16,0,1,1,1.16-1.16A1.162,1.162,0,0,1,241.56,124.361Z" transform="translate(-113.354 -109.288)" fill="#fff" fill-rule="evenodd"/>
        <path id="Trazado_835190" data-name="Trazado 835190" d="M160.49,253.3a1.16,1.16,0,1,1,1.16-1.16A1.162,1.162,0,0,1,160.49,253.3Z" transform="translate(63.705 -85.56)" fill="#fff" fill-rule="evenodd"/>
        <path id="Trazado_835191" data-name="Trazado 835191" d="M304.22,259.091a1.16,1.16,0,1,1,1.16-1.16A1.162,1.162,0,0,1,304.22,259.091Z" transform="translate(-250.205 -84.494)" fill="#fff" fill-rule="evenodd"/>
        <path id="Trazado_835192" data-name="Trazado 835192" d="M322.24,151.781a1.16,1.16,0,1,1,1.16-1.16A1.162,1.162,0,0,1,322.24,151.781Z" transform="translate(-289.561 -104.242)" fill="#fff" fill-rule="evenodd"/>
        <path id="Trazado_835193" data-name="Trazado 835193" d="M146.78,133.421a1.16,1.16,0,1,1,1.16-1.16A1.162,1.162,0,0,1,146.78,133.421Z" transform="translate(93.648 -107.621)" fill="#fff" fill-rule="evenodd"/>
        <path id="Trazado_835194" data-name="Trazado 835194" d="M347.906,148.291a2.546,2.546,0,1,1,2.546-2.546A2.549,2.549,0,0,1,347.906,148.291Z" transform="translate(-345.36 -105.394)" fill="#fff" fill-rule="evenodd"/>
        <path id="Trazado_835195" data-name="Trazado 835195" d="M299.546,173.161a2.546,2.546,0,1,1,2.546-2.546A2.549,2.549,0,0,1,299.546,173.161Z" transform="translate(-239.74 -100.817)" fill="#fff" fill-rule="evenodd"/>
        <path id="Trazado_835196" data-name="Trazado 835196" d="M208.286,116.373a2.552,2.552,0,1,1,2.546-2.546A2.549,2.549,0,0,1,208.286,116.373Z" transform="translate(-40.426 -111.27)" fill="#fff" fill-rule="evenodd"/>
        <path id="Trazado_835197" data-name="Trazado 835197" d="M208.286,116.373a2.552,2.552,0,1,1,2.546-2.546A2.549,2.549,0,0,1,208.286,116.373Z" transform="translate(18.483 -376.27)" fill="#727997" fill-rule="evenodd" opacity="0.44"/>
        <path id="Trazado_835198" data-name="Trazado 835198" d="M207.254,114.306a1.518,1.518,0,1,1,1.514-1.514A1.516,1.516,0,0,1,207.254,114.306Z" transform="translate(-1.486 -368.788)" fill="#727997" fill-rule="evenodd" opacity="0.44"/>
        <path id="Trazado_835199" data-name="Trazado 835199" d="M208.287,116.376a2.553,2.553,0,1,1,2.547-2.547A2.551,2.551,0,0,1,208.287,116.376Z" transform="translate(26.482 -307.72)" fill="#727997" fill-rule="evenodd" opacity="0.44"/>
        <path id="Trazado_835200" data-name="Trazado 835200" d="M208.286,116.373a2.552,2.552,0,1,1,2.546-2.546A2.549,2.549,0,0,1,208.286,116.373Z" transform="translate(-86.517 -367.27)" fill="#727997" fill-rule="evenodd" opacity="0.44"/>
        <path id="Trazado_835201" data-name="Trazado 835201" d="M207.574,114.947a1.839,1.839,0,1,1,1.834-1.834A1.837,1.837,0,0,1,207.574,114.947Z" transform="translate(-48.806 -395.557)" fill="#727997" fill-rule="evenodd" opacity="0.44"/>
        <path id="Trazado_835202" data-name="Trazado 835202" d="M207.574,114.947a1.839,1.839,0,1,1,1.834-1.834A1.837,1.837,0,0,1,207.574,114.947Z" transform="translate(-204.806 -384.167)" fill="#727997" fill-rule="evenodd" opacity="0.44"/>
        <path id="Trazado_835203" data-name="Trazado 835203" d="M207.574,114.947a1.839,1.839,0,1,1,1.834-1.834A1.837,1.837,0,0,1,207.574,114.947Z" transform="translate(-142.806 -379.167)" fill="#727997" fill-rule="evenodd" opacity="0.44"/>
        <path id="Trazado_835204" data-name="Trazado 835204" d="M208.286,116.373a2.552,2.552,0,1,1,2.546-2.546A2.549,2.549,0,0,1,208.286,116.373Z" transform="translate(-40.426 -28.494)" fill="#fff" fill-rule="evenodd"/>
        <path id="Trazado_835205" data-name="Trazado 835205" d="M208.286,116.373a2.552,2.552,0,1,1,2.546-2.546A2.549,2.549,0,0,1,208.286,116.373Z" transform="translate(12.574 -79.494)" fill="#fff" fill-rule="evenodd"/>
        <path id="Trazado_835206" data-name="Trazado 835206" d="M170.946,158.091a2.546,2.546,0,1,1,2.546-2.546A2.549,2.549,0,0,1,170.946,158.091Z" transform="translate(25.125 -105.462)" fill="#fff" fill-rule="evenodd"/>
        <path id="Trazado_835207" data-name="Trazado 835207" d="M191.056,262.273a2.552,2.552,0,1,1,2.546-2.558A2.552,2.552,0,0,1,191.056,262.273Z" transform="translate(-2.795 -84.42)" fill="#fff" fill-rule="evenodd"/>
        <path id="Trazado_835208" data-name="Trazado 835208" d="M304.448,261.873a2.552,2.552,0,1,1,2.546-2.546A2.56,2.56,0,0,1,304.448,261.873Z" transform="translate(-250.432 -84.494)" fill="#fff" fill-rule="evenodd"/>
      </g>
    </g>
    <g id="Enmascarar_grupo_1090642" data-name="Enmascarar grupo 1090642" transform="translate(-2.471 -6467)" clip-path="url(#clip-path-2)">
      <g id="Grupo_1093176" data-name="Grupo 1093176" transform="translate(184.471 8047.754)">
        <path id="Trazado_835311" data-name="Trazado 835311" d="M6,0H204a6,6,0,0,1,6,6V464.893a6,6,0,0,1-6,6H6a6,6,0,0,1-6-6V6A6,6,0,0,1,6,0Z" transform="translate(157.289 2)" fill="#d5c8fe" opacity="0.74"/>
        <g id="Grupo_1093175" data-name="Grupo 1093175" transform="translate(28.896 27.352)">
          <g id="Grupo_1093164" data-name="Grupo 1093164" transform="translate(196.905 108.273)">
            <path id="Trazado_835209" data-name="Trazado 835209" d="M375.69,210.51l6.23,6.23-6.23,6.237" transform="translate(-375.69 -210.51)" fill="none" stroke="#3a3e44" stroke-linecap="round" stroke-linejoin="round" stroke-width="1"/>
            <path id="Trazado_835210" data-name="Trazado 835210" d="M388.11,210.51l6.23,6.23-6.23,6.237" transform="translate(-380.238 -210.51)" fill="none" stroke="#3a3e44" stroke-linecap="round" stroke-linejoin="round" stroke-width="1"/>
            <path id="Trazado_835211" data-name="Trazado 835211" d="M400.53,210.51l6.23,6.23-6.23,6.237" transform="translate(-384.786 -210.51)" fill="none" stroke="#3a3e44" stroke-linecap="round" stroke-linejoin="round" stroke-width="1"/>
          </g>
          <g id="Grupo_1093165" data-name="Grupo 1093165" transform="translate(325.784 55.882)">
            <path id="Trazado_835212" data-name="Trazado 835212" d="M538.01,91.56l6.23,6.237-6.23,6.23" transform="translate(-538.01 -91.56)" fill="none" stroke="#3a3e44" stroke-linecap="round" stroke-linejoin="round" stroke-width="1"/>
            <path id="Trazado_835213" data-name="Trazado 835213" d="M550.43,91.56l6.23,6.237-6.23,6.23" transform="translate(-542.558 -91.56)" fill="none" stroke="#3a3e44" stroke-linecap="round" stroke-linejoin="round" stroke-width="1"/>
            <path id="Trazado_835214" data-name="Trazado 835214" d="M562.85,91.56l6.23,6.237-6.23,6.23" transform="translate(-547.106 -91.56)" fill="none" stroke="#3a3e44" stroke-linecap="round" stroke-linejoin="round" stroke-width="1"/>
          </g>
          <g id="Grupo_1093166" data-name="Grupo 1093166" transform="translate(0 147.044)">
            <path id="Trazado_835215" data-name="Trazado 835215" d="M65.02,39.75l6.237,6.237-6.237,6.23" transform="translate(-65.02 -39.75)" fill="none" stroke="#3a3e44" stroke-linecap="round" stroke-linejoin="round" stroke-width="1"/>
            <path id="Trazado_835216" data-name="Trazado 835216" d="M77.44,39.75l6.237,6.237-6.237,6.23" transform="translate(-69.568 -39.75)" fill="none" stroke="#3a3e44" stroke-linecap="round" stroke-linejoin="round" stroke-width="1"/>
            <path id="Trazado_835217" data-name="Trazado 835217" d="M89.86,39.75,96.1,45.987l-6.237,6.23" transform="translate(-74.116 -39.75)" fill="none" stroke="#3a3e44" stroke-linecap="round" stroke-linejoin="round" stroke-width="1"/>
          </g>
          <g id="Grupo_1093170" data-name="Grupo 1093170" transform="translate(326.087 169.717)">
            <g id="Grupo_1093167" data-name="Grupo 1093167" transform="translate(0 0)">
              <path id="Trazado_835218" data-name="Trazado 835218" d="M590.968,263.481a1.784,1.784,0,1,1-1.787-1.781A1.789,1.789,0,0,1,590.968,263.481Z" transform="translate(-587.4 -261.7)" fill="#12263f"/>
              <path id="Trazado_835219" data-name="Trazado 835219" d="M606.678,263.481a1.784,1.784,0,1,1-1.787-1.781A1.789,1.789,0,0,1,606.678,263.481Z" transform="translate(-593.153 -261.7)" fill="#12263f"/>
              <path id="Trazado_835220" data-name="Trazado 835220" d="M622.378,263.481a1.784,1.784,0,1,1-1.787-1.781A1.789,1.789,0,0,1,622.378,263.481Z" transform="translate(-598.902 -261.7)" fill="#12263f"/>
            </g>
            <g id="Grupo_1093168" data-name="Grupo 1093168" transform="translate(0 8.835)">
              <path id="Trazado_835221" data-name="Trazado 835221" d="M590.968,277.427a1.784,1.784,0,1,1-1.787-1.787A1.784,1.784,0,0,1,590.968,277.427Z" transform="translate(-587.4 -275.64)" fill="#12263f"/>
              <path id="Trazado_835222" data-name="Trazado 835222" d="M606.678,277.427a1.784,1.784,0,1,1-1.787-1.787A1.784,1.784,0,0,1,606.678,277.427Z" transform="translate(-593.153 -275.64)" fill="#12263f"/>
              <path id="Trazado_835223" data-name="Trazado 835223" d="M622.378,277.427a1.784,1.784,0,1,1-1.787-1.787A1.784,1.784,0,0,1,622.378,277.427Z" transform="translate(-598.902 -275.64)" fill="#12263f"/>
            </g>
            <g id="Grupo_1093169" data-name="Grupo 1093169" transform="translate(0 17.67)">
              <path id="Trazado_835224" data-name="Trazado 835224" d="M590.968,291.367a1.784,1.784,0,1,1-1.787-1.787A1.784,1.784,0,0,1,590.968,291.367Z" transform="translate(-587.4 -289.58)" fill="#12263f"/>
              <path id="Trazado_835225" data-name="Trazado 835225" d="M606.678,291.367a1.784,1.784,0,1,1-1.787-1.787A1.784,1.784,0,0,1,606.678,291.367Z" transform="translate(-593.153 -289.58)" fill="#12263f"/>
              <path id="Trazado_835226" data-name="Trazado 835226" d="M622.378,291.367a1.784,1.784,0,1,1-1.787-1.787A1.784,1.784,0,0,1,622.378,291.367Z" transform="translate(-598.902 -289.58)" fill="#12263f"/>
            </g>
          </g>
          <g id="Grupo_1093174" data-name="Grupo 1093174" transform="translate(0 170.774)">
            <g id="Grupo_1093171" data-name="Grupo 1093171" transform="translate(0)">
              <path id="Trazado_835227" data-name="Trazado 835227" d="M28.811,85.261a2.581,2.581,0,1,1-2.581-2.571A2.583,2.583,0,0,1,28.811,85.261Z" transform="translate(-23.65 -82.69)" fill="#3a3e44"/>
              <path id="Trazado_835228" data-name="Trazado 835228" d="M44.522,85.261a2.576,2.576,0,1,1-2.581-2.571A2.583,2.583,0,0,1,44.522,85.261Z" transform="translate(-24.984 -82.69)" fill="#3a3e44"/>
              <path id="Trazado_835229" data-name="Trazado 835229" d="M60.232,85.261a2.576,2.576,0,1,1-2.581-2.571A2.583,2.583,0,0,1,60.232,85.261Z" transform="translate(-26.318 -82.69)" fill="#3a3e44"/>
            </g>
            <g id="Grupo_1093172" data-name="Grupo 1093172" transform="translate(0 12.766)">
              <path id="Trazado_835230" data-name="Trazado 835230" d="M28.811,99.211a2.581,2.581,0,1,1-2.581-2.571A2.583,2.583,0,0,1,28.811,99.211Z" transform="translate(-23.65 -96.64)" fill="#3a3e44"/>
              <path id="Trazado_835231" data-name="Trazado 835231" d="M44.522,99.211a2.576,2.576,0,1,1-2.581-2.571A2.583,2.583,0,0,1,44.522,99.211Z" transform="translate(-24.984 -96.64)" fill="#3a3e44"/>
              <path id="Trazado_835232" data-name="Trazado 835232" d="M60.232,99.211a2.576,2.576,0,1,1-2.581-2.571A2.583,2.583,0,0,1,60.232,99.211Z" transform="translate(-26.318 -96.64)" fill="#3a3e44"/>
            </g>
            <g id="Grupo_1093173" data-name="Grupo 1093173" transform="translate(0 25.522)">
              <path id="Trazado_835233" data-name="Trazado 835233" d="M28.811,113.161a2.581,2.581,0,1,1-2.581-2.581A2.583,2.583,0,0,1,28.811,113.161Z" transform="translate(-23.65 -110.58)" fill="#3a3e44"/>
              <path id="Trazado_835234" data-name="Trazado 835234" d="M44.522,113.161a2.576,2.576,0,1,1-2.581-2.581A2.583,2.583,0,0,1,44.522,113.161Z" transform="translate(-24.984 -110.58)" fill="#3a3e44"/>
              <path id="Trazado_835235" data-name="Trazado 835235" d="M60.232,113.161a2.576,2.576,0,1,1-2.581-2.581A2.583,2.583,0,0,1,60.232,113.161Z" transform="translate(-26.318 -110.58)" fill="#3a3e44"/>
            </g>
          </g>
        </g>
        <path id="Trazado_835312" data-name="Trazado 835312" d="M191.8,263.775a3.3,3.3,0,1,1,3.295-3.31A3.3,3.3,0,0,1,191.8,263.775Z" transform="translate(176.341 71.722)" fill="#fff" fill-rule="evenodd" opacity="0.8"/>
        <path id="Trazado_835313" data-name="Trazado 835313" d="M190.753,261.666A2.248,2.248,0,1,1,193,259.413,2.248,2.248,0,0,1,190.753,261.666Z" transform="translate(167.038 58.54)" fill="#fff" fill-rule="evenodd" opacity="0.8"/>
      </g>
      <g id="Grupo_1093189" data-name="Grupo 1093189" transform="translate(536.186 8288.256)">
        <g id="Grupo_1093188" data-name="Grupo 1093188" clip-path="url(#clip-path-3)">
          <g id="Grupo_1093187" data-name="Grupo 1093187">
            <g id="Grupo_1093186" data-name="Grupo 1093186" clip-path="url(#clip-path-3)">
              <path id="Trazado_835236" data-name="Trazado 835236" d="M24.809.662H2.071c.2,1.72,1.642,9,11.368,9.072,9.745-.068,11.17-7.353,11.37-9.072" fill="#01c3fd"/>
              <path id="Trazado_835237" data-name="Trazado 835237" d="M18.572,23.412V9.525a14.786,14.786,0,0,1-5,.867V10.4c-.046,0-.089,0-.134,0s-.089,0-.135,0v-.008a14.78,14.78,0,0,1-5-.867V23.412a16.952,16.952,0,0,1,4.984-.76v-.008c.051,0,.1,0,.149,0s.1,0,.15,0v.008a16.956,16.956,0,0,1,4.983.76" fill="#01c3fd"/>
              <path id="Trazado_835238" data-name="Trazado 835238" d="M18.584,24.173h-.012v0a16.429,16.429,0,0,0-5.133-.785,16.469,16.469,0,0,0-5.134.783v.006H8.286a11.054,11.054,0,0,0-7.5,9.3h25.3a11.082,11.082,0,0,0-7.5-9.3" fill="#01c3fd"/>
              <g id="Grupo_1093179" data-name="Grupo 1093179" opacity="0.4">
                <g id="Grupo_1093178" data-name="Grupo 1093178">
                  <g id="Grupo_1093177" data-name="Grupo 1093177" clip-path="url(#clip-path-5)">
                    <path id="Trazado_835239" data-name="Trazado 835239" d="M11.92,22.978l-3.988.84L7.808,8.787l4.112,1.291Z" fill="#fff"/>
                  </g>
                </g>
              </g>
              <g id="Grupo_1093182" data-name="Grupo 1093182" opacity="0.4">
                <g id="Grupo_1093181" data-name="Grupo 1093181">
                  <g id="Grupo_1093180" data-name="Grupo 1093180" clip-path="url(#clip-path-6)">
                    <path id="Trazado_835240" data-name="Trazado 835240" d="M8.14.662s-.7,6.126,3.78,9.416C7.843,9.241,5,7.98,3.411,5.385a10.47,10.47,0,0,1-1.575-5Z" fill="#fff"/>
                  </g>
                </g>
              </g>
              <g id="Grupo_1093185" data-name="Grupo 1093185" opacity="0.4">
                <g id="Grupo_1093184" data-name="Grupo 1093184">
                  <g id="Grupo_1093183" data-name="Grupo 1093183" clip-path="url(#clip-path-7)">
                    <path id="Trazado_835241" data-name="Trazado 835241" d="M8.306,33.477s-1.029-6.422,3.614-10.5a12.922,12.922,0,0,0-9.024,4.5C.811,29.69.278,33.725.278,33.725Z" fill="#fff"/>
                  </g>
                </g>
              </g>
              <path id="Trazado_835242" data-name="Trazado 835242" d="M10.712,33.7l2.252,21.75,3.063-21.729-.462-.021Z" fill="#727997"/>
              <path id="Trazado_835243" data-name="Trazado 835243" d="M19.309,23.675V9.221A11.014,11.014,0,0,0,25.5.347L25.518,0H1.36l.017.347A11.016,11.016,0,0,0,7.569,9.221V23.675C.492,26.417.024,33.736.02,33.827L0,34.214H10.486l2.392,24.618,3.464-24.618H26.878l-.019-.387c0-.091-.473-7.41-7.55-10.152M2.07.662H24.809c-.2,1.719-1.626,9-11.37,9.072C3.712,9.666,2.274,2.382,2.07.662M13.44,22.647c-.051,0-.1,0-.15,0v.008a16.989,16.989,0,0,0-4.984.761V9.525a14.781,14.781,0,0,0,5,.867V10.4c.046,0,.088,0,.134,0s.088,0,.134,0v-.007a14.781,14.781,0,0,0,5-.867V23.412a16.943,16.943,0,0,0-4.983-.761v-.008c-.051,0-.1,0-.149,0M13.012,52.59,11.226,34.214H15.6ZM10.689,33.477H.79a11.05,11.05,0,0,1,7.5-9.3h.019v-.006a16.462,16.462,0,0,1,5.133-.783,16.424,16.424,0,0,1,5.133.785v0h.012a11.081,11.081,0,0,1,7.5,9.3Z" fill="#242c33"/>
              <rect id="Rectángulo_386792" data-name="Rectángulo 386792" width="0.727" height="5.945" transform="translate(17.169 11.093)" fill="#242c33"/>
              <rect id="Rectángulo_386793" data-name="Rectángulo 386793" width="0.727" height="1.667" transform="translate(17.169 18.119)" fill="#242c33"/>
              <rect id="Rectángulo_386794" data-name="Rectángulo 386794" width="7.34" height="0.727" transform="translate(6.1 31.865)" fill="#242c33"/>
              <rect id="Rectángulo_386795" data-name="Rectángulo 386795" width="1.935" height="0.727" transform="translate(15.597 31.865)" fill="#242c33"/>
              <rect id="Rectángulo_386796" data-name="Rectángulo 386796" width="1.934" height="0.727" transform="translate(18.573 31.865)" fill="#242c33"/>
            </g>
          </g>
        </g>
      </g>
      <g id="Grupo_1093191" data-name="Grupo 1093191" transform="translate(183.471 8115.754)">
        <g id="Grupo_1093190" data-name="Grupo 1093190" clip-path="url(#clip-path-8)">
          <path id="Trazado_835244" data-name="Trazado 835244" d="M44.773,207.3l-7.891-3.865V201.56l7.754-3.774.915,2.127-4.437,1.99c-.458.229-.984.434-1.4.594.412.16.961.39,1.418.6l4.552,2.082Z" fill="#6e40fc"/>
          <path id="Trazado_835245" data-name="Trazado 835245" d="M34.368,207.3l-7.891-3.865V201.56l7.754-3.774.915,2.127-4.437,1.99c-.458.229-.984.434-1.4.594.412.16.961.39,1.418.6l4.552,2.082Z" fill="#6e40fc"/>
        </g>
      </g>
      <g id="Grupo_1093225" data-name="Grupo 1093225" transform="translate(194.341 8283.588)" opacity="0.65">
        <g id="Grupo_1093224" data-name="Grupo 1093224" clip-path="url(#clip-path-9)">
          <g id="Grupo_1093223" data-name="Grupo 1093223">
            <g id="Grupo_1093222" data-name="Grupo 1093222" clip-path="url(#clip-path-9)">
              <g id="Grupo_1093194" data-name="Grupo 1093194">
                <g id="Grupo_1093193" data-name="Grupo 1093193">
                  <g id="Grupo_1093192" data-name="Grupo 1093192" clip-path="url(#clip-path-11)">
                    <path id="Trazado_835246" data-name="Trazado 835246" d="M80.314,129.838A39.074,39.074,0,1,1,41.24,90.764a39.074,39.074,0,0,1,39.074,39.074" fill="#ccbcfe"/>
                  </g>
                </g>
              </g>
              <g id="Grupo_1093197" data-name="Grupo 1093197" transform="translate(5.499)" opacity="0.5">
                <g id="Grupo_1093196" data-name="Grupo 1093196">
                  <g id="Grupo_1093195" data-name="Grupo 1093195" clip-path="url(#clip-path-12)">
                    <path id="Trazado_835247" data-name="Trazado 835247" d="M310.589,33.748A33.748,33.748,0,1,1,276.84,0a33.749,33.749,0,0,1,33.749,33.748" fill="#ccbcfe"/>
                  </g>
                </g>
              </g>
              <g id="Grupo_1093200" data-name="Grupo 1093200" opacity="0.5">
                <g id="Grupo_1093199" data-name="Grupo 1093199">
                  <g id="Grupo_1093198" data-name="Grupo 1093198" clip-path="url(#clip-path-13)">
                    <path id="Trazado_835248" data-name="Trazado 835248" d="M135.124,194.983a11.993,11.993,0,1,1-11.993-11.992,11.993,11.993,0,0,1,11.993,11.992" fill="#e5e589"/>
                  </g>
                </g>
              </g>
              <g id="Grupo_1093203" data-name="Grupo 1093203" transform="translate(3 9.725)">
                <g id="Grupo_1093202" data-name="Grupo 1093202">
                  <g id="Grupo_1093201" data-name="Grupo 1093201" clip-path="url(#clip-path-14)">
                    <path id="Trazado_835249" data-name="Trazado 835249" d="M222.792,149.808a7.484,7.484,0,1,1-7.484-7.484,7.484,7.484,0,0,1,7.484,7.484" fill="#ccbcfe"/>
                  </g>
                </g>
              </g>
              <g id="Grupo_1093206" data-name="Grupo 1093206" transform="translate(20.098 -12.247)">
                <g id="Grupo_1093205" data-name="Grupo 1093205">
                  <g id="Grupo_1093204" data-name="Grupo 1093204" clip-path="url(#clip-path-15)">
                    <path id="Trazado_835250" data-name="Trazado 835250" d="M321.489,195.237a15.5,15.5,0,1,1-15.5-15.5,15.5,15.5,0,0,1,15.5,15.5" fill="#ccbcfe"/>
                  </g>
                </g>
              </g>
              <g id="Grupo_1093209" data-name="Grupo 1093209" transform="translate(43.215 -393.446)">
                <g id="Grupo_1093208" data-name="Grupo 1093208">
                  <g id="Grupo_1093207" data-name="Grupo 1093207" clip-path="url(#clip-path-15)">
                    <path id="Trazado_835251" data-name="Trazado 835251" d="M321.489,195.237a15.5,15.5,0,1,1-15.5-15.5,15.5,15.5,0,0,1,15.5,15.5" fill="#ccbcfe"/>
                  </g>
                </g>
              </g>
              <g id="Grupo_1093212" data-name="Grupo 1093212" transform="translate(0 56.735)">
                <g id="Grupo_1093211" data-name="Grupo 1093211">
                  <g id="Grupo_1093210" data-name="Grupo 1093210" clip-path="url(#clip-path-17)">
                    <path id="Trazado_835252" data-name="Trazado 835252" d="M378.13,73.1a22.212,22.212,0,1,1-22.212-22.211A22.212,22.212,0,0,1,378.13,73.1" fill="#ccbcfe"/>
                  </g>
                </g>
              </g>
              <g id="Grupo_1093215" data-name="Grupo 1093215">
                <g id="Grupo_1093214" data-name="Grupo 1093214">
                  <g id="Grupo_1093213" data-name="Grupo 1093213" clip-path="url(#clip-path-18)">
                    <path id="Trazado_835253" data-name="Trazado 835253" d="M48.408,244.567a24.2,24.2,0,1,1-24.2-24.2,24.2,24.2,0,0,1,24.2,24.2" fill="#ccbcfe"/>
                  </g>
                </g>
              </g>
              <g id="Grupo_1093218" data-name="Grupo 1093218" transform="translate(51.199 62)" opacity="0.5">
                <g id="Grupo_1093217" data-name="Grupo 1093217">
                  <g id="Grupo_1093216" data-name="Grupo 1093216" clip-path="url(#clip-path-19)">
                    <path id="Trazado_835254" data-name="Trazado 835254" d="M288.388,224.583A10.488,10.488,0,1,1,277.9,214.1a10.488,10.488,0,0,1,10.488,10.488" fill="#e5e589"/>
                  </g>
                </g>
              </g>
              <g id="Grupo_1093221" data-name="Grupo 1093221">
                <g id="Grupo_1093220" data-name="Grupo 1093220">
                  <g id="Grupo_1093219" data-name="Grupo 1093219" clip-path="url(#clip-path-20)">
                    <path id="Trazado_835255" data-name="Trazado 835255" d="M234.836,238.236a22.068,22.068,0,1,1-22.068-22.068,22.068,22.068,0,0,1,22.068,22.068" fill="#ccbcfe"/>
                  </g>
                </g>
              </g>
            </g>
          </g>
        </g>
      </g>
      <g id="Grupo_1093259" data-name="Grupo 1093259" transform="translate(225.471 8075.939)">
        <g id="Grupo_1093258" data-name="Grupo 1093258" clip-path="url(#clip-path-21)">
          <rect id="Rectángulo_386812" data-name="Rectángulo 386812" width="95.189" height="51.642" transform="translate(6.931 367.552)" fill="#54667a"/>
          <rect id="Rectángulo_386813" data-name="Rectángulo 386813" width="2.604" height="51.64" transform="translate(5.627 367.555)" fill="#242c33"/>
          <rect id="Rectángulo_386814" data-name="Rectángulo 386814" width="2.604" height="51.64" transform="translate(100.819 367.555)" fill="#242c33"/>
          <path id="Trazado_835261" data-name="Trazado 835261" d="M11,125.65H1v39.274H104.67V125.65H11Z" transform="translate(1.604 201.524)" fill="#6e40fc"/>
          <g id="Grupo_1093257" data-name="Grupo 1093257">
            <g id="Grupo_1093256" data-name="Grupo 1093256" clip-path="url(#clip-path-21)">
              <path id="Trazado_835262" data-name="Trazado 835262" d="M56.587,123.4c3.682-15.3,6.494-37.162-4.8-53.009A63.974,63.974,0,0,0,36.823,56c-.1,5.161-.518,18.464-2.252,38.214-2.138,24.31-26.164,65.234-28.731,69.546v70.981H78.912l31.837-23.885c-2.786-2.812-54.335-86.747-54.163-87.463" transform="translate(9.367 89.824)" fill="#fff"/>
              <path id="Trazado_835263" data-name="Trazado 835263" d="M123.834,211.211c-.906-.458-.6-.5-1.3-1.213L88.279,235.362H15.209V164.381c2.565-4.312,26.593-45.237,28.728-69.546.214-2.416.4-4.7.573-6.924l9.475.648.143-.88c.1-.628,2.25-15.037-8.252-21.643.1-2.229.169-4.166.219-5.781A1.9,1.9,0,0,1,49.15,58.8a60.979,60.979,0,0,1,12,12.2c11.3,15.85,3.635,47.677-.047,62.972-.172.716-.325,1.357-.469,1.961a10.381,10.381,0,0,1,2.148.156c3.552-7.463,11.043-51.793.49-66.6a65.545,65.545,0,0,0-13.105-13,4.163,4.163,0,0,0-6.7,3.171c-.227,7.4-.776,19.664-2.117,34.939-2.156,24.539-28.288,68.3-28.554,68.744l-.185.31v71.7H0v44.482H108.878V235.362H92.7ZM52.3,86.486l-7.64-.521c.531-6.976.883-12.9,1.112-17.672,7.075,5.262,6.8,15.186,6.528,18.193M106.274,277.24H2.606V237.966H106.274Z" transform="translate(0 89.209)" fill="#242c33"/>
              <rect id="Rectángulo_386815" data-name="Rectángulo 386815" width="44.659" height="1.953" transform="translate(6.445 360.506)" fill="#242c33"/>
              <rect id="Rectángulo_386816" data-name="Rectángulo 386816" width="10.819" height="1.953" transform="translate(54.525 360.506)" fill="#242c33"/>
              <rect id="Rectángulo_386817" data-name="Rectángulo 386817" width="3.091" height="1.953" transform="translate(68.192 360.506)" fill="#242c33"/>
              <path id="Trazado_835264" data-name="Trazado 835264" d="M133.244,1,23.958,209.767v20.7L143.18,1Z" transform="translate(38.425 1.604)" fill="#54667a"/>
              <path id="Trazado_835265" data-name="Trazado 835265" d="M95.291,1,23.958,135.638v38.321L114.5,1Z" transform="translate(38.425 1.604)" fill="#54667a"/>
              <path id="Trazado_835266" data-name="Trazado 835266" d="M215.607,1H168.412L23.958,279.027v6.34A10.845,10.845,0,0,0,34.8,296.212H216.182a10.876,10.876,0,0,0,10.876-10.876V12.452A11.452,11.452,0,0,0,215.607,1" transform="translate(38.425 1.604)" fill="#54667a"/>
              <path id="Trazado_835267" data-name="Trazado 835267" d="M80.37,1H35.161a11.2,11.2,0,0,0-11.2,11.2V135.638L95.292,1Z" transform="translate(38.424 1.604)" fill="#54667a"/>
              <g id="Grupo_1093233" data-name="Grupo 1093233" transform="translate(62.382 2.604)" opacity="0.3">
                <g id="Grupo_1093232" data-name="Grupo 1093232">
                  <g id="Grupo_1093231" data-name="Grupo 1093231" clip-path="url(#clip-path-23)">
                    <path id="Trazado_835268" data-name="Trazado 835268" d="M80.37,1H35.161a11.2,11.2,0,0,0-11.2,11.2V135.638L95.292,1Z" transform="translate(-23.959 -1)" fill="#fff"/>
                  </g>
                </g>
              </g>
              <path id="Trazado_835269" data-name="Trazado 835269" d="M114.5,1,23.958,173.959v35.808L133.244,1Z" transform="translate(38.425 1.604)" fill="#54667a"/>
              <g id="Grupo_1093236" data-name="Grupo 1093236" transform="translate(62.382 2.604)" opacity="0.3">
                <g id="Grupo_1093235" data-name="Grupo 1093235">
                  <g id="Grupo_1093234" data-name="Grupo 1093234" clip-path="url(#clip-path-24)">
                    <path id="Trazado_835270" data-name="Trazado 835270" d="M114.5,1,23.958,173.959v35.808L133.244,1Z" transform="translate(-23.957 -0.999)" fill="#fff"/>
                  </g>
                </g>
              </g>
              <path id="Trazado_835271" data-name="Trazado 835271" d="M143.181,1,23.958,230.468v48.559L168.412,1Z" transform="translate(38.425 1.604)" fill="#54667a"/>
              <path id="Trazado_835272" data-name="Trazado 835272" d="M0,0H175.924V256.644H0Z" transform="translate(75.91 15.222)" fill="#01c3fd"/>
              <path id="Trazado_835274" data-name="Trazado 835274" d="M93.464,112.347a4.221,4.221,0,0,0-4.216-4.216H59.924a4.216,4.216,0,0,0,0,8.431H89.248a4.221,4.221,0,0,0,4.216-4.216" transform="translate(89.348 173.426)" fill="#6e40fc"/>
              <path id="Trazado_835275" data-name="Trazado 835275" d="M231.266,282.685V17.735A17.755,17.755,0,0,0,213.532,0H40.693A17.755,17.755,0,0,0,22.958,17.735v264.95A17.755,17.755,0,0,0,40.693,300.42H213.532a17.755,17.755,0,0,0,17.735-17.735M40.693,297.816a15.149,15.149,0,0,1-15.131-15.131V17.735A15.149,15.149,0,0,1,40.693,2.6H213.532a15.149,15.149,0,0,1,15.131,15.131v264.95a15.149,15.149,0,0,1-15.131,15.131Z" transform="translate(36.821)" fill="#242c33"/>
              <path id="Trazado_835276" data-name="Trazado 835276" d="M28.791,264.433H206.72V5.391H28.791Zm175.325-2.6H31.395V7.995H204.116Z" transform="translate(46.177 8.646)" fill="#242c33"/>
              <path id="Trazado_835277" data-name="Trazado 835277" d="M97.672,113.951a6.828,6.828,0,0,0-6.82-6.819H61.527a6.82,6.82,0,0,0,0,13.639H90.852a6.828,6.828,0,0,0,6.82-6.82m-36.144,4.216a4.216,4.216,0,0,1,0-8.431H90.852a4.216,4.216,0,1,1,0,8.431Z" transform="translate(87.744 171.824)" fill="#242c33"/>
              <rect id="Rectángulo_386821" data-name="Rectángulo 386821" width="1.953" height="42.854" transform="translate(80.6 20.125)" fill="#242c33"/>
              <rect id="Rectángulo_386822" data-name="Rectángulo 386822" width="1.953" height="7.705" transform="translate(80.6 66.437)" fill="#242c33"/>
              <rect id="Rectángulo_386823" data-name="Rectángulo 386823" width="1.953" height="16.238" transform="translate(80.6 84.5)" fill="#242c33"/>
              <rect id="Rectángulo_386824" data-name="Rectángulo 386824" width="1.953" height="1.411" transform="translate(80.6 76.707)" fill="#242c33"/>
              <rect id="Rectángulo_386825" data-name="Rectángulo 386825" width="1.953" height="1.409" transform="translate(80.6 80.558)" fill="#242c33"/>
              <rect id="Rectángulo_386826" data-name="Rectángulo 386826" width="1.953" height="42.854" transform="translate(244.833 67.31)" fill="#242c33"/>
              <rect id="Rectángulo_386827" data-name="Rectángulo 386827" width="1.953" height="42.854" transform="translate(244.833 131.659)" fill="#242c33"/>
              <rect id="Rectángulo_386828" data-name="Rectángulo 386828" width="1.953" height="7.702" transform="translate(244.833 113.622)" fill="#242c33"/>
              <rect id="Rectángulo_386829" data-name="Rectángulo 386829" width="1.953" height="1.411" transform="translate(244.833 127.743)" fill="#242c33"/>
              <rect id="Rectángulo_386830" data-name="Rectángulo 386830" width="23.685" height="1.953" transform="translate(173.227 265.593)" fill="#242c33"/>
              <rect id="Rectángulo_386831" data-name="Rectángulo 386831" width="1.411" height="1.953" transform="translate(170.295 265.593)" fill="#242c33"/>
              <rect id="Rectángulo_386832" data-name="Rectángulo 386832" width="11.053" height="1.953" transform="translate(157.604 265.593)" fill="#242c33"/>
              <g id="Grupo_1093240" data-name="Grupo 1093240" transform="translate(7.384 108.323)">
                <rect id="Rectángulo_386833" data-name="Rectángulo 386833" width="23.685" height="1.953" transform="translate(193.732 19.148)" fill="#242c33"/>
                <rect id="Rectángulo_386834" data-name="Rectángulo 386834" width="11.053" height="1.953" transform="translate(179.044 19.148)" fill="#242c33"/>
                <rect id="Rectángulo_386835" data-name="Rectángulo 386835" width="11.053" height="1.953" transform="translate(165.561 19.148)" fill="#242c33"/>
              </g>
              <g id="Grupo_1093293" data-name="Grupo 1093293" transform="translate(7.384 82.323)">
                <rect id="Rectángulo_386833-2" data-name="Rectángulo 386833" width="23.685" height="1.953" transform="translate(193.732 19.148)" fill="#242c33"/>
                <rect id="Rectángulo_386834-2" data-name="Rectángulo 386834" width="11.053" height="1.953" transform="translate(179.044 19.148)" fill="#242c33"/>
                <rect id="Rectángulo_386835-2" data-name="Rectángulo 386835" width="11.053" height="1.953" transform="translate(165.561 19.148)" fill="#242c33"/>
              </g>
              <g id="Grupo_1093241" data-name="Grupo 1093241" transform="translate(7.384 131.985)">
                <rect id="Rectángulo_386836" data-name="Rectángulo 386836" width="23.685" height="1.953" transform="translate(193.732 19.148)" fill="#242c33"/>
                <rect id="Rectángulo_386837" data-name="Rectángulo 386837" width="11.053" height="1.953" transform="translate(179.044 19.148)" fill="#242c33"/>
                <rect id="Rectángulo_386838" data-name="Rectángulo 386838" width="11.053" height="1.953" transform="translate(165.561 19.148)" fill="#242c33"/>
              </g>
              <g id="Grupo_1093242" data-name="Grupo 1093242" transform="translate(7.384 157.985)">
                <rect id="Rectángulo_386839" data-name="Rectángulo 386839" width="23.685" height="1.953" transform="translate(193.732 19.148)" fill="#242c33"/>
                <rect id="Rectángulo_386840" data-name="Rectángulo 386840" width="11.053" height="1.953" transform="translate(179.044 19.148)" fill="#242c33"/>
                <rect id="Rectángulo_386841" data-name="Rectángulo 386841" width="11.053" height="1.953" transform="translate(165.561 19.148)" fill="#242c33"/>
              </g>
              <g id="Grupo_1093243" data-name="Grupo 1093243" transform="translate(-62.616 108.323)">
                <rect id="Rectángulo_386842" data-name="Rectángulo 386842" width="23.685" height="1.953" transform="translate(193.732 19.148)" fill="#242c33"/>
                <rect id="Rectángulo_386843" data-name="Rectángulo 386843" width="11.053" height="1.953" transform="translate(179.044 19.148)" fill="#242c33"/>
                <rect id="Rectángulo_386844" data-name="Rectángulo 386844" width="11.053" height="1.953" transform="translate(165.561 19.148)" fill="#242c33"/>
              </g>
              <g id="Grupo_1093294" data-name="Grupo 1093294" transform="translate(-62.616 82.323)">
                <rect id="Rectángulo_386842-2" data-name="Rectángulo 386842" width="23.685" height="1.953" transform="translate(193.732 19.148)" fill="#242c33"/>
                <rect id="Rectángulo_386843-2" data-name="Rectángulo 386843" width="11.053" height="1.953" transform="translate(179.044 19.148)" fill="#242c33"/>
                <rect id="Rectángulo_386844-2" data-name="Rectángulo 386844" width="11.053" height="1.953" transform="translate(165.561 19.148)" fill="#242c33"/>
              </g>
              <g id="Grupo_1093244" data-name="Grupo 1093244" transform="translate(-62.616 131.985)">
                <rect id="Rectángulo_386845" data-name="Rectángulo 386845" width="23.685" height="1.953" transform="translate(193.732 19.148)" fill="#242c33"/>
                <rect id="Rectángulo_386846" data-name="Rectángulo 386846" width="11.053" height="1.953" transform="translate(179.044 19.148)" fill="#242c33"/>
                <rect id="Rectángulo_386847" data-name="Rectángulo 386847" width="11.053" height="1.953" transform="translate(165.561 19.148)" fill="#242c33"/>
              </g>
              <g id="Grupo_1093245" data-name="Grupo 1093245" transform="translate(-62.616 157.985)">
                <rect id="Rectángulo_386848" data-name="Rectángulo 386848" width="23.685" height="1.953" transform="translate(193.732 19.148)" fill="#242c33"/>
                <rect id="Rectángulo_386849" data-name="Rectángulo 386849" width="11.053" height="1.953" transform="translate(179.044 19.148)" fill="#242c33"/>
                <rect id="Rectángulo_386850" data-name="Rectángulo 386850" width="11.053" height="1.953" transform="translate(165.561 19.148)" fill="#242c33"/>
              </g>
              <rect id="Rectángulo_386851" data-name="Rectángulo 386851" width="1.953" height="1.409" transform="translate(244.833 124.144)" fill="#242c33"/>
              <path id="Trazado_835278" data-name="Trazado 835278" d="M52.462,76.875A15.483,15.483,0,1,0,67.944,92.358,15.5,15.5,0,0,0,52.462,76.875m0,28.361A12.879,12.879,0,1,1,65.34,92.358a12.894,12.894,0,0,1-12.879,12.879" transform="translate(59.309 123.296)" fill="#242c33"/>
              <g id="Wifi_Icon" data-name="Wifi Icon" transform="translate(379.069 43.532)">
                <g id="Grupo_1093246" data-name="Grupo 1093246" transform="translate(-163 -18)">
                  <path id="Trazado_835279" data-name="Trazado 835279" d="M226.663,62.293a16.947,16.947,0,0,0-13.1,6.066,1.215,1.215,0,0,0,.113,1.753,1.2,1.2,0,0,0,1.71-.159,15.033,15.033,0,0,1,4.418-3.562,14.64,14.64,0,0,1,16.358,1.78,22.324,22.324,0,0,1,1.773,1.768,1.239,1.239,0,0,0,1.752.159,1.22,1.22,0,0,0,.085-1.753A17.076,17.076,0,0,0,228.842,62.4c-.344-.048-.69-.085-1.037-.1-.379-.018-.76,0-1.141,0Z" transform="translate(-213.242 -62.289)" fill="#242c33"/>
                  <path id="Trazado_835280" data-name="Trazado 835280" d="M252.522,101.291a11.989,11.989,0,0,0-8.906,4.347,1.186,1.186,0,0,0,.11,1.746,1.2,1.2,0,0,0,1.727-.168,9.482,9.482,0,0,1,4.734-3.087,9.63,9.63,0,0,1,10,2.768c.1.106.2.22.3.331a1.215,1.215,0,1,0,1.835-1.591,12.2,12.2,0,0,0-3.917-3.072,12.771,12.771,0,0,0-5.882-1.277Z" transform="translate(-239.535 -96.412)" fill="#242c33"/>
                  <path id="Trazado_835281" data-name="Trazado 835281" d="M273.42,144.017a1.214,1.214,0,0,0,.777,1.137,1.2,1.2,0,0,0,1.354-.34,5.148,5.148,0,0,1,1.856-1.379,4.9,4.9,0,0,1,5.68,1.356,1.175,1.175,0,0,0,1.3.388,1.212,1.212,0,0,0,.563-1.948,7.3,7.3,0,0,0-11.236.021,3.389,3.389,0,0,0-.358.738l.064.03Z" transform="translate(-265.901 -130.823)" fill="#242c33"/>
                  <path id="Trazado_835282" data-name="Trazado 835282" d="M303.551,184.707a2.439,2.439,0,1,0-2.431-2.429,2.427,2.427,0,0,0,2.431,2.429Z" transform="translate(-290.126 -165.13)" fill="#242c33"/>
                </g>
              </g>
              <g id="Grupo_1093249" data-name="Grupo 1093249" transform="translate(74.968 13.892)" opacity="0.4">
                <g id="Grupo_1093248" data-name="Grupo 1093248">
                  <g id="Grupo_1093247" data-name="Grupo 1093247" clip-path="url(#clip-path-25)">
                    <path id="Trazado_835283" data-name="Trazado 835283" d="M129.565,5.335,28.791,199.291l.945,43.547L154.718,5.481Z" transform="translate(-28.792 -5.334)" fill="#fff"/>
                  </g>
                </g>
              </g>
              <g id="Grupo_1093295" data-name="Grupo 1093295" transform="translate(93.326 60.131)">
                <g id="Enmascarar_grupo_1090644" data-name="Enmascarar grupo 1090644" clip-path="url(#clip-path-26)">
                  <g id="Grupo_1093290" data-name="Grupo 1093290" transform="translate(0 0)">
                    <g id="Grupo_1093289" data-name="Grupo 1093289" clip-path="url(#clip-path-27)">
                      <g id="Grupo_1093288" data-name="Grupo 1093288" transform="translate(1.91 1.91)" opacity="0.6" style="mix-blend-mode: multiply;isolation: isolate">
                        <g id="Grupo_1093287" data-name="Grupo 1093287">
                          <g id="Grupo_1093286" data-name="Grupo 1093286" clip-path="url(#clip-path-28)">
                            <path id="Trazado_835314" data-name="Trazado 835314" d="M6.592,20.6H140.41c2.872,0,5.2-2.633,5.2-5.9V7.275c0-3.267-2.329-5.9-5.2-5.9H6.592c-2.889,0-5.217,2.633-5.217,5.9v7.42c0,3.268,2.328,5.9,5.217,5.9" transform="translate(-1.375 -1.375)" fill="#ded6d5"/>
                          </g>
                        </g>
                      </g>
                      <path id="Trazado_835315" data-name="Trazado 835315" d="M146.145,5.9v7.42c0,3.267-2.359,5.9-5.269,5.9H5.285C2.359,19.222,0,16.587,0,13.321V5.9C0,2.633,2.359,0,5.285,0H140.876c2.91,0,5.269,2.633,5.269,5.9" transform="translate(0 0)" fill="#fff"/>
                      <g id="Grupo_1093296" data-name="Grupo 1093296">
                        <path id="Trazado_835316" data-name="Trazado 835316" d="M7.889,8.615A.845.845,0,0,0,7.84,8.32a.6.6,0,0,0-.179-.239,1.491,1.491,0,0,0-.356-.208,5.652,5.652,0,0,0-.584-.208A5.2,5.2,0,0,1,6,7.4a2.469,2.469,0,0,1-.57-.347,1.5,1.5,0,0,1-.372-.459A1.266,1.266,0,0,1,4.922,6a1.317,1.317,0,0,1,.142-.609,1.438,1.438,0,0,1,.4-.481,1.9,1.9,0,0,1,.611-.315,2.61,2.61,0,0,1,.789-.113,2.427,2.427,0,0,1,.83.133,1.869,1.869,0,0,1,.621.363,1.556,1.556,0,0,1,.524,1.175H7.889a1.037,1.037,0,0,0-.063-.367A.747.747,0,0,0,7.637,5.5a.871.871,0,0,0-.324-.189,1.385,1.385,0,0,0-.461-.068,1.442,1.442,0,0,0-.435.057.858.858,0,0,0-.306.157.618.618,0,0,0-.181.24.77.77,0,0,0-.058.3A.6.6,0,0,0,6.16,6.5a3.079,3.079,0,0,0,.877.375,5.151,5.151,0,0,1,.8.3A2.281,2.281,0,0,1,8.4,7.55a1.352,1.352,0,0,1,.332.47,1.518,1.518,0,0,1,.11.588,1.392,1.392,0,0,1-.138.621,1.332,1.332,0,0,1-.39.468,1.846,1.846,0,0,1-.614.3,2.938,2.938,0,0,1-.8.1,2.832,2.832,0,0,1-.777-.107,2.205,2.205,0,0,1-.688-.322,1.7,1.7,0,0,1-.49-.539,1.5,1.5,0,0,1-.185-.759H5.7a1,1,0,0,0,.093.446.812.812,0,0,0,.251.3,1.068,1.068,0,0,0,.377.174,1.944,1.944,0,0,0,.47.054,1.167,1.167,0,0,0,.745-.2.645.645,0,0,0,.25-.531" transform="translate(1.852 1.745)" fill="#242c33"/>
                        <path id="Trazado_835317" data-name="Trazado 835317" d="M10.2,9.7a2.061,2.061,0,0,1-.811-.151,1.769,1.769,0,0,1-.613-.411,1.825,1.825,0,0,1-.386-.624,2.188,2.188,0,0,1-.135-.777V7.589A2.486,2.486,0,0,1,8.4,6.721a1.965,1.965,0,0,1,.39-.66,1.7,1.7,0,0,1,.582-.421,1.781,1.781,0,0,1,.724-.149,1.856,1.856,0,0,1,.77.149,1.47,1.47,0,0,1,.54.414,1.8,1.8,0,0,1,.318.635,2.956,2.956,0,0,1,.106.807v.39H9.176a1.394,1.394,0,0,0,.1.435,1.072,1.072,0,0,0,.218.345,1.032,1.032,0,0,0,.329.226,1.057,1.057,0,0,0,.429.082,1.216,1.216,0,0,0,.588-.135,1.361,1.361,0,0,0,.434-.371l.492.47a1.644,1.644,0,0,1-.579.527,2.011,2.011,0,0,1-.438.174A2.143,2.143,0,0,1,10.2,9.7m-.11-3.481a.771.771,0,0,0-.607.263,1.364,1.364,0,0,0-.293.732h1.737V7.15a1.679,1.679,0,0,0-.057-.347.893.893,0,0,0-.146-.3.672.672,0,0,0-.253-.206.849.849,0,0,0-.381-.078" transform="translate(3.215 2.138)" fill="#242c33"/>
                        <path id="Trazado_835318" data-name="Trazado 835318" d="M13.939,9.629a.709.709,0,0,1-.061-.17c-.017-.065-.031-.135-.044-.21a1.65,1.65,0,0,1-.2.176,1.5,1.5,0,0,1-.243.145,1.535,1.535,0,0,1-.289.1,1.514,1.514,0,0,1-.333.036,1.636,1.636,0,0,1-.559-.093,1.283,1.283,0,0,1-.438-.254,1.217,1.217,0,0,1-.286-.385,1.135,1.135,0,0,1-.1-.481,1.278,1.278,0,0,1,.125-.578,1.1,1.1,0,0,1,.36-.42,1.738,1.738,0,0,1,.579-.258,3.183,3.183,0,0,1,.782-.088H13.8V6.88a.721.721,0,0,0-.176-.506.7.7,0,0,0-.536-.189.922.922,0,0,0-.293.043.725.725,0,0,0-.224.117.514.514,0,0,0-.142.174.471.471,0,0,0-.051.218h-.913a.973.973,0,0,1,.119-.463,1.274,1.274,0,0,1,.335-.4A1.761,1.761,0,0,1,12.45,5.6a2.3,2.3,0,0,1,1.323-.017,1.409,1.409,0,0,1,.5.263,1.2,1.2,0,0,1,.327.436,1.5,1.5,0,0,1,.117.61v1.8a2.079,2.079,0,0,0,.153.875v.064Zm-1-.657a1.006,1.006,0,0,0,.295-.042,1.083,1.083,0,0,0,.247-.108.938.938,0,0,0,.193-.156.87.87,0,0,0,.132-.179V7.721h-.492a1.349,1.349,0,0,0-.761.176.571.571,0,0,0-.256.5.654.654,0,0,0,.04.231.492.492,0,0,0,.125.181.588.588,0,0,0,.2.121.831.831,0,0,0,.277.043" transform="translate(4.433 2.138)" fill="#242c33"/>
                        <path id="Trazado_835319" data-name="Trazado 835319" d="M16.735,6.4c-.06-.01-.121-.017-.182-.022s-.125-.007-.19-.007a1.012,1.012,0,0,0-.536.126.782.782,0,0,0-.307.353V9.629h-.913V5.566h.871l.022.454a1.169,1.169,0,0,1,.381-.388.992.992,0,0,1,.535-.142,1.246,1.246,0,0,1,.178.017.787.787,0,0,1,.145.036Z" transform="translate(5.688 2.138)" fill="#242c33"/>
                        <path id="Trazado_835320" data-name="Trazado 835320" d="M18.356,8.975a.9.9,0,0,0,.31-.051.768.768,0,0,0,.251-.142.7.7,0,0,0,.172-.22.651.651,0,0,0,.074-.278h.86a1.307,1.307,0,0,1-.145.552,1.521,1.521,0,0,1-.357.453,1.676,1.676,0,0,1-.52.3,1.774,1.774,0,0,1-.635.111,1.924,1.924,0,0,1-.816-.161,1.636,1.636,0,0,1-.579-.439,1.886,1.886,0,0,1-.343-.649,2.716,2.716,0,0,1-.113-.789V7.533a2.713,2.713,0,0,1,.113-.788,1.911,1.911,0,0,1,.343-.652,1.642,1.642,0,0,1,.577-.44A2.1,2.1,0,0,1,19.034,5.6a1.536,1.536,0,0,1,.518.315,1.458,1.458,0,0,1,.338.484,1.7,1.7,0,0,1,.133.62h-.86a.919.919,0,0,0-.065-.307.773.773,0,0,0-.163-.256.762.762,0,0,0-.249-.174.948.948,0,0,0-.789.051.862.862,0,0,0-.285.3,1.267,1.267,0,0,0-.145.421,2.86,2.86,0,0,0-.039.475v.132a2.883,2.883,0,0,0,.039.482,1.281,1.281,0,0,0,.145.42.838.838,0,0,0,.283.3.851.851,0,0,0,.46.113" transform="translate(6.432 2.138)" fill="#242c33"/>
                        <path id="Trazado_835321" data-name="Trazado 835321" d="M20.576,6.466a1.524,1.524,0,0,1,.5-.382,1.46,1.46,0,0,1,.634-.136,1.7,1.7,0,0,1,.54.082,1.012,1.012,0,0,1,.417.265,1.216,1.216,0,0,1,.267.472,2.317,2.317,0,0,1,.094.7v2.612h-.913V7.465a.8.8,0,0,0-.182-.6.743.743,0,0,0-.535-.175.889.889,0,0,0-.49.132.98.98,0,0,0-.328.357v2.9h-.911V4.319h.911Z" transform="translate(7.658 1.682)" fill="#242c33"/>
                        <path id="Trazado_835322" data-name="Trazado 835322" d="M22.913,8.284a.5.5,0,0,1,.139-.363.518.518,0,0,1,.39-.145.526.526,0,0,1,.395.145.509.509,0,0,1,.139.363.485.485,0,0,1-.139.354.53.53,0,0,1-.395.142.63.63,0,0,1-.224-.038.445.445,0,0,1-.167-.106.44.44,0,0,1-.1-.157.5.5,0,0,1-.036-.2" transform="translate(8.924 3.028)" fill="#242c33"/>
                        <path id="Trazado_835323" data-name="Trazado 835323" d="M24.6,8.284a.5.5,0,0,1,.139-.363.518.518,0,0,1,.39-.145.526.526,0,0,1,.395.145.509.509,0,0,1,.139.363.485.485,0,0,1-.139.354.53.53,0,0,1-.395.142.63.63,0,0,1-.224-.038.445.445,0,0,1-.167-.106.44.44,0,0,1-.1-.157.5.5,0,0,1-.036-.2" transform="translate(9.579 3.028)" fill="#242c33"/>
                        <path id="Trazado_835324" data-name="Trazado 835324" d="M26.281,8.284a.5.5,0,0,1,.139-.363.518.518,0,0,1,.39-.145.526.526,0,0,1,.395.145.509.509,0,0,1,.139.363.485.485,0,0,1-.139.354.53.53,0,0,1-.395.142.63.63,0,0,1-.224-.038.445.445,0,0,1-.167-.106.44.44,0,0,1-.1-.157.5.5,0,0,1-.036-.2" transform="translate(10.235 3.028)" fill="#242c33"/>
                      </g>
                      <path id="Trazado_835325" data-name="Trazado 835325" d="M123.144,5.9v7.42a5.886,5.886,0,0,1-5.882,5.9h-14.55V0h14.55a5.885,5.885,0,0,1,5.882,5.9" transform="translate(23.001 0)" fill="#242c33"/>
                      <path id="Trazado_835326" data-name="Trazado 835326" d="M112.907,4.734a3.844,3.844,0,1,0-.534,5.873l2.605,2.605a.685.685,0,1,0,.97-.968l-2.607-2.607a3.845,3.845,0,0,0-.435-4.9m-.97,4.468a2.474,2.474,0,1,1,0-3.5,2.477,2.477,0,0,1,0,3.5" transform="translate(24.416 1.406)" fill="#fff"/>
                    </g>
                  </g>
                </g>
              </g>
              <g id="Grupo_1093252" data-name="Grupo 1093252" transform="translate(92.382 7.604)" opacity="0.3">
                <g id="Grupo_1093251" data-name="Grupo 1093251">
                  <g id="Grupo_1093250" data-name="Grupo 1093250" clip-path="url(#clip-path-29)">
                    <path id="Trazado_835284" data-name="Trazado 835284" d="M143.181,1,23.958,230.468v48.559L168.412,1Z" transform="translate(-23.957 -0.999)" fill="#fff" opacity="0.71"/>
                  </g>
                </g>
              </g>
              <g id="Grupo_1093255" data-name="Grupo 1093255" transform="translate(75.912 15.032)" opacity="0.4">
                <g id="Grupo_1093254" data-name="Grupo 1093254">
                  <g id="Grupo_1093253" data-name="Grupo 1093253" clip-path="url(#clip-path-30)">
                    <path id="Trazado_835285" data-name="Trazado 835285" d="M118.8,6.424,29.154,177.33V140.952L99.924,5.773Z" transform="translate(-29.154 -5.774)" fill="#fff"/>
                  </g>
                </g>
              </g>
              <g id="Grupo_1093239" data-name="Grupo 1093239" transform="translate(75.912 15.032)" opacity="0.4">
                <g id="Grupo_1093238" data-name="Grupo 1093238">
                  <g id="Grupo_1093237" data-name="Grupo 1093237" clip-path="url(#clip-path-31)">
                    <path id="Trazado_835273" data-name="Trazado 835273" d="M80.374,5.773l-51.22,97.853V5.965Z" transform="translate(-29.154 -5.774)" fill="#fff"/>
                  </g>
                </g>
              </g>
            </g>
          </g>
        </g>
      </g>
      <g id="Enmascarar_grupo_1090641" data-name="Enmascarar grupo 1090641" transform="translate(0 -82)" clip-path="url(#clip-path-32)">
        <g id="Grupo_1093263" data-name="Grupo 1093263" transform="matrix(1, -0.017, 0.017, 1, -143.916, 29.905)">
          <g id="Grupo_1093262" data-name="Grupo 1093262" transform="matrix(1, -0.017, 0.017, 1, 398.124, 8275.411)">
            <path id="Trazado_835286" data-name="Trazado 835286" d="M0,81.888,80.068,79.4l3.169-76.19L2.924,0Z" transform="translate(24.4 236.164)" fill="#54667a"/>
            <path id="Trazado_835287" data-name="Trazado 835287" d="M2.146,47.948,3.884.086,1.687,0,0,46.591Z" transform="translate(24.537 236.123)" fill="#242c33"/>
            <path id="Trazado_835288" data-name="Trazado 835288" d="M0,84.342,2.148,85.7,5.441.086,3.245,0Z" transform="translate(103.293 239.331)" fill="#242c33"/>
            <g id="Grupo_1093261" data-name="Grupo 1093261">
              <g id="Grupo_1093260" data-name="Grupo 1093260" clip-path="url(#clip-path-33)">
                <path id="Trazado_835289" data-name="Trazado 835289" d="M106.023,203.226l11.209-93.245a8.544,8.544,0,0,0-16.424-3.344c-.088.209-.185.646-.257.862a5.777,5.777,0,0,0-1.869-.062l.02-3.848A8.58,8.58,0,0,0,90.2,95a8.564,8.564,0,0,0-7.924,5.244,8.934,8.934,0,0,0-.339,1.088v.292l-.088-.007h0c-.662-.055-1.777-.09-1.777-.09l.024-5.277a8.569,8.569,0,0,0-8.5-8.586,8.842,8.842,0,0,0-8.181,5.149,4.754,4.754,0,0,0-.435,1.13L61.107,93.7l.015-3.047A8.521,8.521,0,0,0,44.1,90l-2.245-.09,1.194-79.873a10.038,10.038,0,0,0-20.076,0l-.325,70.326-.007,0-.075,13.315.04.026a.591.591,0,0,1-.042.07L22.384,124.4l-2.2-.013.156-27.147C20.12,97.583,5.943,119.49,0,134.256c3.665,14.973,29.57,66.393,29.818,66.837l-.912.51-.279.442,77.276,3.276,1.229-1.948Z" transform="translate(2.3 2.199)" fill="#fff"/>
                <path id="Trazado_835290" data-name="Trazado 835290" d="M32.118,203.292c-.251-.444-26.155-51.864-29.82-66.837,5.943-14.766,20.12-36.674,20.346-37.021l-.158,27.147,2.2.013.176-30.614c.015-.022.031-.048.044-.07l-.042-.026.075-13.315.007,0,.325-70.326a10.038,10.038,0,1,1,20.076-.007L44.149,92.108l2.245.09a8.525,8.525,0,0,1,17.026.653L63.4,95.9l1.871.248a4.951,4.951,0,0,1,.435-1.13,8.844,8.844,0,0,1,8.181-5.149,8.569,8.569,0,0,1,8.5,8.586l-.026,5.277s1.115.035,1.779.09h0l.088.007v-.292A8.231,8.231,0,0,1,92.5,97.2a8.581,8.581,0,0,1,8.5,8.586l-.022,3.848a5.789,5.789,0,0,1,1.871.062c.07-.215.169-.653.257-.862a8.546,8.546,0,0,1,16.422,3.344l-11.209,93.245,2.179.29,10.9-93.526a10.261,10.261,0,0,0-18.53-6.277V105.8a10.442,10.442,0,0,0-10.36-10.468A9.867,9.867,0,0,0,84.259,99.5l.007-1.031A10.446,10.446,0,0,0,73.9,88a9.86,9.86,0,0,0-8.632,4.633,10.363,10.363,0,0,0-18.8-5.89l1.069-74.506a12.236,12.236,0,0,0-24.471.007l-.321,69.783h-.007l-.077,13.306c-.794,1.244-1.638,2.553-2.542,3.949-5.89,9.1-13.959,21.575-19.995,36.685l-.13.319.079.336c3.39,14.72,28.286,64.308,30.036,67.591l.334.015Z" fill="#242c33"/>
                <path id="Trazado_835291" data-name="Trazado 835291" d="M9.586.292,1.145,0,0,33.142l87.482,3.03L88.63,3.03,73.906,2.52Z" transform="translate(23.831 203.43)" fill="#6e40fc"/>
                <path id="Trazado_835292" data-name="Trazado 835292" d="M0,35.341,1.222,0,90.9,3.1,89.681,38.443ZM3.342,2.273,2.271,33.217l85.288,2.955L88.63,5.226Z" transform="translate(22.694 202.294)" fill="#242c33"/>
                <path id="Trazado_835293" data-name="Trazado 835293" d="M.712,12.317l-.193-.646c-.064-.213-1.546-5.261.807-8.691A7.287,7.287,0,0,1,7.139.031a7.2,7.2,0,0,1,5.868,1.9c2.959,2.915,2.678,8.056,2.665,8.271l-.044.7ZM11.048,2.465a6.075,6.075,0,0,0-3.786-.792,5.728,5.728,0,0,0-4.575,2.24C1.211,6.062,1.653,9.2,1.939,10.545L14.03,9.4c-.035-1.383-.332-4.479-2.185-6.3a4.662,4.662,0,0,0-.8-.633" transform="translate(27.389 6.086)" fill="#242c33"/>
                <rect id="Rectángulo_386857" data-name="Rectángulo 386857" width="1.65" height="37.71" transform="translate(28.007 232.841) rotate(-88.055)" fill="#242c33"/>
                <rect id="Rectángulo_386858" data-name="Rectángulo 386858" width="1.65" height="9.135" transform="translate(68.582 234.219) rotate(-88.055)" fill="#242c33"/>
                <rect id="Rectángulo_386859" data-name="Rectángulo 386859" width="1.65" height="2.609" transform="matrix(0.034, -0.999, 0.999, 0.034, 80.118, 234.611)" fill="#242c33"/>
              </g>
            </g>
          </g>
        </g>
      </g>
    </g>
    <g id="Grupo_1093271" data-name="Grupo 1093271" opacity="0.64">
      <g id="Gears" transform="translate(180.934 1587.913)">
        <g id="Grupo_1093270" data-name="Grupo 1093270" transform="translate(0 0)">
          <g id="Grupo_1093265" data-name="Grupo 1093265" transform="translate(0 33.744)">
            <path id="Trazado_835294" data-name="Trazado 835294" d="M536.886,123.734l-5.4-1.322.16-9.191,5.437-1.13a22.493,22.493,0,0,1,2.387-5.494l-2.878-4.749,6.612-6.383,4.643,3.046a22.611,22.611,0,0,1,5.576-2.194l1.322-5.4,9.191.16,1.13,5.441a22.491,22.491,0,0,1,5.494,2.387l4.749-2.878,6.383,6.612-3.046,4.643a22.551,22.551,0,0,1,2.194,5.576l5.4,1.322-.16,9.191-5.437,1.13A22.5,22.5,0,0,1,578.257,130l2.878,4.749-6.612,6.383-4.643-3.046a22.549,22.549,0,0,1-5.576,2.194l-1.322,5.4-9.191-.16-1.134-5.437a22.494,22.494,0,0,1-5.494-2.387l-4.749,2.878-6.383-6.612,3.042-4.647a22.551,22.551,0,0,1-2.194-5.576Zm14.6,1.109a9.859,9.859,0,1,0,.246-13.94A9.857,9.857,0,0,0,551.485,124.844Z" transform="translate(-531.49 -90.92)" fill="#b0c5fd"/>
            <g id="Grupo_1093264" data-name="Grupo 1093264" opacity="0.4">
              <path id="Trazado_835295" data-name="Trazado 835295" d="M536.886,123.734l-5.4-1.322.16-9.191,5.437-1.13a22.493,22.493,0,0,1,2.387-5.494l-2.878-4.749,6.612-6.383,4.643,3.046a22.611,22.611,0,0,1,5.576-2.194l1.322-5.4,9.191.16,1.13,5.441a22.491,22.491,0,0,1,5.494,2.387l4.749-2.878,6.383,6.612-3.046,4.643a22.551,22.551,0,0,1,2.194,5.576l5.4,1.322-.16,9.191-5.437,1.13A22.5,22.5,0,0,1,578.257,130l2.878,4.749-6.612,6.383-4.643-3.046a22.549,22.549,0,0,1-5.576,2.194l-1.322,5.4-9.191-.16-1.134-5.437a22.494,22.494,0,0,1-5.494-2.387l-4.749,2.878-6.383-6.612,3.042-4.647a22.551,22.551,0,0,1-2.194-5.576Zm14.6,1.109a9.859,9.859,0,1,0,.246-13.94A9.857,9.857,0,0,0,551.485,124.844Z" transform="translate(-531.49 -90.92)" fill="#b0c5fd"/>
            </g>
          </g>
          <g id="Grupo_1093269" data-name="Grupo 1093269" transform="translate(3.935 0)">
            <g id="Grupo_1093267" data-name="Grupo 1093267" transform="translate(40.732 1.818)">
              <path id="Trazado_835296" data-name="Trazado 835296" d="M488.317,18.664a16.156,16.156,0,0,0-3.934-1.711l-.811-3.9-6.583-.115-.946,3.865a16.075,16.075,0,0,0-3.992,1.572l-3.329-2.182-4.737,4.573,2.063,3.4a16.117,16.117,0,0,0-1.711,3.939l-3.893.811L460.33,35.5l3.865.946a16.078,16.078,0,0,0,1.572,3.992l-2.182,3.328,4.573,4.737,3.4-2.063a16.155,16.155,0,0,0,3.934,1.711l.811,3.9,6.583.115.946-3.865a16.076,16.076,0,0,0,3.992-1.572l3.329,2.182,4.737-4.573-2.063-3.4A16.155,16.155,0,0,0,495.539,37l3.893-.811.115-6.583-3.865-.946a16.073,16.073,0,0,0-1.572-3.992l2.182-3.328L491.719,16.6l-3.4,2.063h0Zm-3.509,8.77a7.062,7.062,0,1,1-9.985-.176A7.058,7.058,0,0,1,484.809,27.433Z" transform="translate(-460.33 -12.94)" fill="#e8505b"/>
              <g id="Grupo_1093266" data-name="Grupo 1093266" opacity="0.8">
                <path id="Trazado_835297" data-name="Trazado 835297" d="M488.317,18.664a16.156,16.156,0,0,0-3.934-1.711l-.811-3.9-6.583-.115-.946,3.865a16.075,16.075,0,0,0-3.992,1.572l-3.329-2.182-4.737,4.573,2.063,3.4a16.117,16.117,0,0,0-1.711,3.939l-3.893.811L460.33,35.5l3.865.946a16.078,16.078,0,0,0,1.572,3.992l-2.182,3.328,4.573,4.737,3.4-2.063a16.155,16.155,0,0,0,3.934,1.711l.811,3.9,6.583.115.946-3.865a16.076,16.076,0,0,0,3.992-1.572l3.329,2.182,4.737-4.573-2.063-3.4A16.155,16.155,0,0,0,495.539,37l3.893-.811.115-6.583-3.865-.946a16.073,16.073,0,0,0-1.572-3.992l2.182-3.328L491.719,16.6l-3.4,2.063h0Zm-3.509,8.77a7.062,7.062,0,1,1-9.985-.176A7.058,7.058,0,0,1,484.809,27.433Z" transform="translate(-460.33 -12.94)" fill="#799dff"/>
              </g>
            </g>
            <g id="Grupo_1093268" data-name="Grupo 1093268">
              <path id="Trazado_835298" data-name="Trazado 835298" d="M605.318,12.923a11.952,11.952,0,0,0-2.9-1.261l-.6-2.866-4.843-.086-.7,2.845a11.863,11.863,0,0,0-2.94,1.155l-2.448-1.6L587.41,14.47l1.519,2.5a11.782,11.782,0,0,0-1.257,2.9l-2.866.6-.086,4.843,2.845.7a11.861,11.861,0,0,0,1.155,2.94l-1.6,2.448,3.365,3.484,2.5-1.519a11.781,11.781,0,0,0,2.9,1.257l.6,2.866,4.843.086.7-2.845a11.866,11.866,0,0,0,2.94-1.155l2.448,1.6,3.484-3.365-1.519-2.5a11.954,11.954,0,0,0,1.261-2.9l2.866-.6.086-4.843-2.845-.7a11.863,11.863,0,0,0-1.155-2.94l1.6-2.448L607.823,11.4l-2.506,1.519h0Zm-2.583,6.452a5.2,5.2,0,1,1-7.349-.131A5.2,5.2,0,0,1,602.734,19.375Z" transform="translate(-584.56 -8.624)" fill="#fff"/>
              <path id="Trazado_835299" data-name="Trazado 835299" d="M616.494,32.347a3.831,3.831,0,0,0-.966-.847,5.175,5.175,0,0,0-3.39-.8,5.232,5.232,0,0,0-2.3.819,5.3,5.3,0,0,0-1.863,2.1,5.337,5.337,0,0,0-.5,3.058,5.3,5.3,0,0,0,4.385,4.544,5.3,5.3,0,0,0,3.075-.393,5.365,5.365,0,0,0,2.166-1.789,5.262,5.262,0,0,0,.9-2.276,5.163,5.163,0,0,0-.684-3.419,3.976,3.976,0,0,0-.815-1,12.322,12.322,0,0,1,.712,1.056,5.158,5.158,0,0,1,.573,3.329,5.034,5.034,0,0,1-.893,2.162,5.088,5.088,0,0,1-2.076,1.683,5.091,5.091,0,0,1-2.915.356,5.03,5.03,0,0,1-4.147-4.295,4.817,4.817,0,0,1,.02-1.515,4.716,4.716,0,0,1,.438-1.384,5.119,5.119,0,0,1,1.752-2.014,5.064,5.064,0,0,1,2.194-.815,5.165,5.165,0,0,1,3.3.692c.7.426,1,.778,1.028.749Z" transform="translate(-598.32 -21.591)" fill="#1e5af9"/>
              <path id="Trazado_835300" data-name="Trazado 835300" d="M605.3,12.8s.053-.025.16-.086l.479-.278,1.887-1.114-.057-.008c.856.9,1.982,2.08,3.345,3.5l-.008-.094c-.487.741-1.032,1.564-1.613,2.44l-.029.045.025.045a11.849,11.849,0,0,1,1.138,2.919l.012.057.057.016c.884.221,1.846.459,2.841.7l-.082-.106q-.043,2.291-.1,4.843l.094-.115c-.888.184-1.867.385-2.87.59l-.074.016-.02.074a12,12,0,0,1-1.249,2.866l-.041.066.041.066c.471.778.987,1.634,1.515,2.506l.021-.164c-1.1,1.056-2.28,2.194-3.488,3.361l.172-.016-2.448-1.609-.074-.045-.074.041a11.918,11.918,0,0,1-2.907,1.142l-.086.02-.02.086c-.217.893-.459,1.863-.7,2.845l.143-.111c-1.535-.029-3.177-.057-4.843-.086l.143.119c-.188-.9-.393-1.883-.6-2.866l-.016-.09-.086-.025a11.863,11.863,0,0,1-2.858-1.241h0l-.078-.049-.078.045q-1.259.762-2.5,1.519l.184.025q-1.707-1.769-3.365-3.484l.016.184c.54-.823,1.073-1.642,1.6-2.448l.049-.074-.045-.078a11.637,11.637,0,0,1-1.142-2.9l-.02-.086-.086-.02c-.962-.233-1.908-.467-2.845-.7l.106.139c.029-1.654.053-3.271.082-4.843l-.11.131,2.866-.6.078-.016.02-.078a11.676,11.676,0,0,1,1.241-2.866l.041-.066-.041-.066c-.52-.856-1.028-1.687-1.523-2.5l-.02.151,3.48-3.374-.143.012c.864.561,1.67,1.089,2.452,1.6l.053.037.057-.033a11.9,11.9,0,0,1,2.911-1.155l.057-.016.012-.057c.25-1.036.475-1.965.688-2.845l-.086.066c1.875.025,3.476.045,4.843.066l-.065-.053c.246,1.142.446,2.084.614,2.862l.008.029.029.008a12.486,12.486,0,0,1,2.215.852c.225.119.4.2.52.274a1.381,1.381,0,0,0,.172.09s-.057-.041-.16-.111-.278-.172-.512-.295a11.553,11.553,0,0,0-2.211-.9l.033.037c-.16-.782-.348-1.724-.577-2.87l-.012-.053h-.053c-1.367-.033-2.968-.066-4.843-.106h-.07l-.016.066c-.217.88-.45,1.81-.708,2.841l.07-.074a11.866,11.866,0,0,0-2.968,1.159h.11c-.778-.508-1.584-1.04-2.444-1.609l-.078-.049-.065.066c-1.105,1.06-2.264,2.178-3.492,3.357l-.07.07.053.086c.491.815.995,1.646,1.515,2.506v-.135A12.037,12.037,0,0,0,587.5,19.71l.1-.094c-.938.192-1.9.393-2.87.594l-.106.02v.111q-.049,2.364-.09,4.843V25.3l.106.029,2.845.7-.107-.106a12.061,12.061,0,0,0,1.167,2.976v-.151c-.524.807-1.06,1.625-1.6,2.448l-.065.1.082.086,3.365,3.488.082.086.1-.061c.827-.5,1.662-1.007,2.5-1.519h-.156a12.083,12.083,0,0,0,2.931,1.273l-.107-.115c.2.983.409,1.961.6,2.866l.025.115h.119c1.666.029,3.312.057,4.843.086h.115l.029-.111c.242-.983.479-1.953.7-2.845l-.107.106a12.162,12.162,0,0,0,2.972-1.171h-.147c.847.549,1.687,1.1,2.448,1.6l.094.061.078-.078c1.208-1.171,2.387-2.313,3.48-3.369l.078-.074-.053-.09c-.528-.872-1.048-1.724-1.523-2.5v.131a12.113,12.113,0,0,0,1.269-2.931l-.094.086c1-.209,1.977-.418,2.866-.6l.09-.02v-.094c.029-1.7.053-3.32.074-4.843v-.086l-.082-.02-2.845-.688.07.074a11.979,11.979,0,0,0-1.175-2.96v.09L611.2,14.8l.033-.049-.041-.045L607.8,11.239l-.029-.029-.033.02c-.8.5-1.417.88-1.842,1.146-.2.127-.356.229-.475.3a1.436,1.436,0,0,0-.16.111Z" transform="translate(-584.54 -8.5)" fill="#1e5af9"/>
            </g>
          </g>
        </g>
      </g>
    </g>
    <g id="Grupo_1093277" data-name="Grupo 1093277" transform="translate(95.634 1445.588)" opacity="0.45">
      <g id="Grupo_1093276" data-name="Grupo 1093276">
        <g id="Grupo_1093275" data-name="Grupo 1093275" clip-path="url(#clip-path-14)">
          <path id="Trazado_835302" data-name="Trazado 835302" d="M222.792,149.808a7.484,7.484,0,1,1-7.484-7.484,7.484,7.484,0,0,1,7.484,7.484" fill="#ccbcfe"/>
        </g>
      </g>
    </g>
    <g id="Grupo_1093278" data-name="Grupo 1093278" transform="translate(351.139 1928.08)">
      <rect id="Rectángulo_386865" data-name="Rectángulo 386865" width="53.722" height="31.398" fill="#fff" stroke="#263238" stroke-linecap="round" stroke-linejoin="round" stroke-width="1"/>
      <path id="Trazado_835303" data-name="Trazado 835303" d="M102.462,196.587,76.026,172.17,48.74,196.587Z" transform="translate(-48.74 -165.189)" fill="#fff" stroke="#263238" stroke-linecap="round" stroke-linejoin="round" stroke-width="1"/>
      <path id="Trazado_835304" data-name="Trazado 835304" d="M102.462,165.6,75.6,181.3,48.74,165.6Z" transform="translate(-48.74 -165.6)" fill="#fff" stroke="#263238" stroke-linecap="round" stroke-linejoin="round" stroke-width="1"/>
    </g>
    <path id="Trazado_835305" data-name="Trazado 835305" d="M9.855,238.921a5.682,5.682,0,0,1,3.45,1.165l13.7-10.275a5.717,5.717,0,1,1,1.883,2.514L15.188,242.6a5.628,5.628,0,0,1,0,4.071l13.7,10.275a5.75,5.75,0,1,1-1.883,2.514l-13.7-10.275a5.713,5.713,0,1,1-3.45-10.264Z" transform="translate(517.067 1371.355)" fill="#263238"/>
    <g id="Grupo_1093281" data-name="Grupo 1093281" transform="translate(505.249 1699.293)">
      <path id="Trazado_835306" data-name="Trazado 835306" d="M86.951,248.2h28.126a8.3,8.3,0,0,1,8.3,8.3v12.81a8.3,8.3,0,0,1-8.3,8.3h0l-.275,12.86-8.832-12.86H86.951a8.3,8.3,0,0,1-8.3-8.3V256.5A8.3,8.3,0,0,1,86.951,248.2Z" transform="translate(-67.628 -248.2)" fill="#fff" stroke="#263238" stroke-linecap="round" stroke-linejoin="round" stroke-width="1"/>
      <g id="Grupo_1093280" data-name="Grupo 1093280" transform="translate(0 6.916)">
        <path id="Trazado_835307" data-name="Trazado 835307" d="M127.924,255.24H104.808a6.821,6.821,0,0,0-6.818,6.818v10.531a6.821,6.821,0,0,0,6.818,6.818h0l.226,10.571,7.26-10.571h15.63a6.821,6.821,0,0,0,6.818-6.818V262.058A6.821,6.821,0,0,0,127.924,255.24Z" transform="translate(-97.99 -255.24)" fill="#263238" stroke="#263238" stroke-linecap="round" stroke-linejoin="round" stroke-width="1"/>
        <g id="Grupo_1093279" data-name="Grupo 1093279" transform="translate(7.28 9.529)">
          <path id="Trazado_835308" data-name="Trazado 835308" d="M106.79,267.484a2.544,2.544,0,1,1,2.544,2.545A2.545,2.545,0,0,1,106.79,267.484Z" transform="translate(-91.052 -264.94)" fill="#01c3fd"/>
          <ellipse id="Elipse_11083" data-name="Elipse 11083" cx="2.544" cy="2.544" rx="2.544" ry="2.544" transform="translate(7.869)" fill="#01c3fd"/>
          <ellipse id="Elipse_11084" data-name="Elipse 11084" cx="2.544" cy="2.544" rx="2.544" ry="2.544" transform="translate(0)" fill="#01c3fd"/>
        </g>
      </g>
    </g>
    <g id="Grupo_1093274" data-name="Grupo 1093274" transform="translate(245.596 1554.057)" opacity="0.45">
      <g id="Grupo_1093273" data-name="Grupo 1093273" transform="translate(2.166 90.764)">
        <g id="Grupo_1093272" data-name="Grupo 1093272" clip-path="url(#clip-path-35)">
          <path id="Trazado_835301" data-name="Trazado 835301" d="M65.347,122.355A31.591,31.591,0,1,1,33.757,90.764a31.591,31.591,0,0,1,31.591,31.591" transform="translate(-2.166 -90.764)" fill="#ccbcfe"/>
        </g>
      </g>
    </g>
    <g id="Grupo_1093282" data-name="Grupo 1093282" transform="translate(204.324 1670.184)">
      <circle id="Elipse_11085" data-name="Elipse 11085" cx="26.526" cy="26.526" r="26.526" transform="translate(37.514 75.028) rotate(-135)" fill="none" stroke="#4c5a67" stroke-linecap="round" stroke-linejoin="round" stroke-width="2"/>
      <ellipse id="Elipse_11086" data-name="Elipse 11086" cx="13.12" cy="26.526" rx="13.12" ry="26.526" transform="translate(24.399 10.981)" fill="none" stroke="#4c5a67" stroke-linecap="round" stroke-linejoin="round" stroke-width="2"/>
      <path id="Trazado_835309" data-name="Trazado 835309" d="M208.05,279.39a26.532,26.532,0,0,1-36.76-.24" transform="translate(-152.276 -260.65)" fill="none" stroke="#4c5a67" stroke-linecap="round" stroke-linejoin="round" stroke-width="2"/>
      <path id="Trazado_835310" data-name="Trazado 835310" d="M171,313.227a26.525,26.525,0,0,1,36.92.262" transform="translate(-151.815 -256.883)" fill="none" stroke="#4c5a67" stroke-linecap="round" stroke-linejoin="round" stroke-width="2"/>
      <line id="Línea_3983" data-name="Línea 3983" x1="53.052" transform="translate(10.993 37.508)" fill="none" stroke="#4c5a67" stroke-linecap="round" stroke-linejoin="round" stroke-width="2"/>
      <line id="Línea_3984" data-name="Línea 3984" y2="53.052" transform="translate(37.519 10.981)" fill="none" stroke="#4c5a67" stroke-linecap="round" stroke-linejoin="round" stroke-width="2"/>
    </g>
  </g>
</svg>
