<svg id="Grupo_1093394" data-name="Grupo 1093394" xmlns="http://www.w3.org/2000/svg" xmlns:xlink="http://www.w3.org/1999/xlink" width="127" height="105" viewBox="0 0 127 105">
  <defs>
    <linearGradient id="linear-gradient" x1="0.5" x2="0.5" y2="1" gradientUnits="objectBoundingBox">
      <stop offset="0" stop-color="#5cd5fa"/>
      <stop offset="1" stop-color="#7d5ce5"/>
    </linearGradient>
  </defs>
  <rect id="Rectángulo_386892" data-name="Rectángulo 386892" width="127" height="105" rx="15" fill="url(#linear-gradient)"/>
  <g id="gusano" transform="translate(27.001 16)">
    <path id="Trazado_835489" data-name="Trazado 835489" d="M382.1,364.355h-9.566V371H382.1a2.587,2.587,0,0,1,2.584,2.583v7.5a3.321,3.321,0,1,0,6.643,0v-7.5A9.237,9.237,0,0,0,382.1,364.355Zm0,0" transform="translate(-319.307 -312.226)" fill="#1fe7a5"/>
    <path id="Trazado_835490" data-name="Trazado 835490" d="M14.643,267.218v-7.935a.757.757,0,0,1,.756-.756h6.227v-6.643H15.4a7.407,7.407,0,0,0-7.4,7.4v7.935a7.407,7.407,0,0,0,7.4,7.4H30.335v-6.643H15.4a.757.757,0,0,1-.756-.756Zm0,0" transform="translate(-6.927 -215.846)" fill="#1fe7a5"/>
    <path id="Trazado_835491" data-name="Trazado 835491" d="M142.759,98.04v19.349c0,12.815-20.424,25.155-25.321,27.93a2.119,2.119,0,0,1-2.094,0A95.258,95.258,0,0,1,103.7,137.5c-4.116-3.259-8.3-7.244-10.932-11.55a16.544,16.544,0,0,1-2.746-8.559V98.04a2.117,2.117,0,0,1,1.963-2.12c4.572-.307,6.164-1.9,6.473-6.471a2.118,2.118,0,0,1,2.118-1.965h31.629a2.117,2.117,0,0,1,2.118,1.965c.309,4.572,1.9,6.164,6.473,6.471a2.117,2.117,0,0,1,1.963,2.12Zm0,0" transform="translate(-77.215 -74.968)" fill="#e3f4ff"/>
    <path id="Trazado_835492" data-name="Trazado 835492" d="M144.924,171.505a93.774,93.774,0,0,1-7.75-5.4c-1.176-.913-2.31-1.85-3.369-2.783-3.182-2.8-7.29-7.006-8.786-11.133a7.962,7.962,0,0,1-.545-2.7V133.839a1.86,1.86,0,0,1,1.157-1.722,11.965,11.965,0,0,0,6.787-6.785,1.86,1.86,0,0,1,1.722-1.157h23.546a1.859,1.859,0,0,1,1.722,1.157,11.966,11.966,0,0,0,6.787,6.785,1.859,1.859,0,0,1,1.157,1.722v15.648a10.22,10.22,0,0,1-1.56,4.883,36.3,36.3,0,0,1-7.772,8.95,88.082,88.082,0,0,1-11.119,8.185,1.86,1.86,0,0,1-1.976,0Zm0,0" transform="translate(-106.736 -106.41)" fill="#bddff4"/>
    <path id="Trazado_835493" data-name="Trazado 835493" d="M176.632,144.981v15.648c0,1.121-.628,5.33-8.7,12.437a85.766,85.766,0,0,1-10.878,8,92.406,92.406,0,0,1-7.6-5.293c-1.1-.852-2.2-1.759-3.282-2.711-5.45-4.8-7.507-8.274-8.267-10.372a6.143,6.143,0,0,1-.434-2.066V144.981a13.762,13.762,0,0,0,7.807-7.8h23.545a13.762,13.762,0,0,0,7.807,7.8Zm0,0" transform="translate(-117.876 -117.55)" fill="#f5c84c"/>
    <path id="Trazado_835494" data-name="Trazado 835494" d="M206.385,228.225c0-4.322-1.988-7.826-4.442-7.826s-4.442,3.5-4.442,7.826,1.989,7.826,4.442,7.826S206.385,232.546,206.385,228.225Zm0,0" transform="translate(-169.315 -188.866)" fill="#c3961c"/>
    <path id="Trazado_835495" data-name="Trazado 835495" d="M223.39,10.825a3.323,3.323,0,0,1-3.321,3.321h-3.086V39.873a9.246,9.246,0,0,1-9.236,9.236h-9.823a13.369,13.369,0,0,1,0-6.643h9.822a2.6,2.6,0,0,0,2.594-2.594V13.755A6.26,6.26,0,0,1,216.592,7.5h3.476a3.321,3.321,0,0,1,3.321,3.321Zm0,0" transform="translate(-169.319 -6.43)" fill="#1fe7a5"/>
    <path id="Trazado_835496" data-name="Trazado 835496" d="M175.411,51.124a17.272,17.272,0,0,0,2.655-8.7V23.071a3.2,3.2,0,0,0-2.964-3.189c-4.026-.272-5.2-1.448-5.473-5.473a3.2,3.2,0,0,0-3.189-2.964h-6.253V8.789H162.2A4.394,4.394,0,1,0,162.2,0h-3.476A7.334,7.334,0,0,0,151.4,7.326v4.119h-6.8a1.073,1.073,0,0,0,0,2.146h6.8v4.962H138.851a1.073,1.073,0,0,0-.994.668,12.72,12.72,0,0,1-7.217,7.217,1.073,1.073,0,0,0-.668.994V43.078c0,1.582.884,6.04,9.065,13.243a87.556,87.556,0,0,0,11.018,8.109,1.074,1.074,0,0,0,1.14,0,87.6,87.6,0,0,0,11.017-8.109c8.182-7.2,9.065-11.661,9.065-13.243V37.665a1.073,1.073,0,0,0-2.146,0v5.413c0,.716-.4,4.647-8.337,11.632a84.345,84.345,0,0,1-10.169,7.541,84.3,84.3,0,0,1-10.169-7.541c-7.935-6.985-8.337-10.916-8.337-11.632V28.135a14.673,14.673,0,0,0,7.437-7.437H151.4V33.443a1.522,1.522,0,0,1-1.521,1.521h-.982c-.958-2.786-2.787-4.5-4.818-4.5-3.093,0-5.515,3.909-5.515,8.9s2.423,8.9,5.515,8.9c2.044,0,3.858-1.712,4.817-4.5h.982a10.321,10.321,0,0,0,10.309-10.309V20.7h1.508a14.67,14.67,0,0,0,7.437,7.437v4.591a1.073,1.073,0,0,0,2.146,0v-5.3a1.073,1.073,0,0,0-.668-.994,12.718,12.718,0,0,1-7.217-7.217,1.072,1.072,0,0,0-.993-.668h-2.213V13.591h6.253a1.045,1.045,0,0,1,1.048.962c.344,5.1,2.368,7.126,7.47,7.47a1.045,1.045,0,0,1,.963,1.048V42.42c0,7.284-7.3,14.56-13.415,19.381a1.073,1.073,0,1,0,1.328,1.686q2.315-1.825,4.274-3.643h6.135a1.512,1.512,0,0,1,1.51,1.51v7.5a4.394,4.394,0,1,0,8.789,0v-7.5a10.311,10.311,0,0,0-9.13-10.231ZM158.04,15.993h-4.5v-4.57h4.5Zm0,6.716h-4.5v-4.57h4.5Zm-4.5,2.146h4.5v4.57h-4.5Zm5.18-22.71H162.2a2.248,2.248,0,1,1,0,4.5h-3.085a1.073,1.073,0,0,0-1.073,1.073V9.277h-4.5V7.326A5.185,5.185,0,0,1,158.722,2.146ZM140.909,41.607a12.629,12.629,0,0,1,0-4.5h4.906v4.5Zm3.167-9c.927,0,1.863.9,2.513,2.358H141.56C142.223,33.485,143.178,32.606,144.076,32.606Zm0,13.506c-.9,0-1.853-.88-2.515-2.358h5.028C145.94,45.2,145,46.111,144.076,46.111Zm3.885-4.5v-4.5h1.915a3.644,3.644,0,0,0,1.651-.395l3.251,3.25a8.119,8.119,0,0,1-4.9,1.641Zm8.348-3.146-3.232-3.231a3.638,3.638,0,0,0,.466-1.786V31.572h4.5v1.871A8.121,8.121,0,0,1,156.308,38.461ZM182.4,61.355v2.162h-4.5V61.355a3.633,3.633,0,0,0-.419-1.7l2.884-3.679a8.116,8.116,0,0,1,2.031,5.376Zm-12.1-3.656a41.35,41.35,0,0,0,3.192-3.708q.3-.395.578-.789h.178a8.1,8.1,0,0,1,4.5,1.361l-2.793,3.562a3.631,3.631,0,0,0-1.712-.427Zm9.853,13.408a2.251,2.251,0,0,1-2.248-2.248v-3.2h4.5v3.2A2.251,2.251,0,0,1,180.147,71.106Zm0,0" transform="translate(-111.449 0)"/>
    <path id="Trazado_835497" data-name="Trazado 835497" d="M47.6,133.281c-3.224,2.252-6.025,3.9-7.407,4.686a1.043,1.043,0,0,1-1.035,0c-4.137-2.344-24.778-14.664-24.778-27V91.618a1.045,1.045,0,0,1,.962-1.048c5.1-.344,7.126-2.368,7.47-7.47a1.045,1.045,0,0,1,1.048-.962H28.71a1.073,1.073,0,0,0,0-2.146H23.861a3.2,3.2,0,0,0-3.189,2.964c-.272,4.025-1.448,5.2-5.473,5.473a3.2,3.2,0,0,0-2.964,3.189v11.893H8.971A8.481,8.481,0,0,0,.5,111.984v7.935a8.482,8.482,0,0,0,8.472,8.472h13.22q.6.555,1.231,1.113A92.611,92.611,0,0,0,38.1,139.833a3.211,3.211,0,0,0,3.151,0c1.415-.8,4.282-2.491,7.577-4.793a1.073,1.073,0,0,0-1.228-1.76ZM16.23,121.748a39.7,39.7,0,0,0,3.772,4.5H13.467v-4.5ZM14.842,119.6H9.288v-7.3H12.3A18.1,18.1,0,0,0,14.842,119.6Zm-2.608-13.944v4.5H8.972a1.813,1.813,0,0,0-.4.045l-3.325-3.325a6.293,6.293,0,0,1,3.724-1.217Zm-8.483,2.757,3.4,3.4c-.005.056-.008.113-.008.17v2.894h-4.5v-2.894a6.288,6.288,0,0,1,1.107-3.569Zm-1.107,11.5v-2.895h4.5v2.895a1.79,1.79,0,0,0,.028.307l-3.353,3.353a6.288,6.288,0,0,1-1.171-3.66Zm2.693,5.173L8.7,121.726a1.818,1.818,0,0,0,.267.022h2.349v4.5H8.972a6.288,6.288,0,0,1-3.633-1.152Zm0,0" transform="translate(-0.5 -68.548)"/>
  </g>
</svg>
