<svg xmlns="http://www.w3.org/2000/svg" xmlns:xlink="http://www.w3.org/1999/xlink" width="77.974" height="77.974" viewBox="0 0 77.974 77.974">
  <defs>
    <clipPath id="clip-path">
      <path id="path3861" d="M0-682.665H43.412v43.412H0Z" transform="translate(0 682.665)"/>
    </clipPath>
  </defs>
  <g id="Grupo_1096431" data-name="Grupo 1096431" transform="translate(-818 -1632.232)">
    <path id="Trazado_835969" data-name="Trazado 835969" d="M77.974,38.987A38.987,38.987,0,1,1,38.987,0,38.988,38.988,0,0,1,77.974,38.987" transform="translate(818 1632.232)" fill="#a88ef9"/>
    <g id="g3855" transform="translate(835.281 2332.179)">
      <g id="g3857" transform="translate(0 -682.665)">
        <g id="g3859" transform="translate(0 0)" clip-path="url(#clip-path)">
          <g id="g3865" transform="translate(0.636 5.723)">
            <path id="path3867" d="M-558.1-545.613h-33.661A4.239,4.239,0,0,1-596-549.852v-29.422l21.07-3.392,21.07,3.392v29.422a4.239,4.239,0,0,1-4.239,4.239" transform="translate(595.999 582.665)" fill="#f9f5f3"/>
          </g>
          <g id="g3869" transform="translate(0.636 0.636)">
            <path id="path3871" d="M-620.525-124.854h-42.14v-4.239a4.239,4.239,0,0,1,4.239-4.239h33.661a4.239,4.239,0,0,1,4.239,4.239Z" transform="translate(662.665 133.333)" fill="#01c3fd"/>
          </g>
          <g id="g3873" transform="translate(0.636 8.233)">
            <path id="path3875" d="M-80.672-446.229v-30.3l-5.478.882v29.422a4.239,4.239,0,0,0,4.239,4.239h5.478a4.239,4.239,0,0,1-4.239-4.239" transform="translate(86.15 476.532)" fill="#e7e7ef"/>
          </g>
          <g id="g3877" transform="translate(0.636 0.636)">
            <path id="path3879" d="M-143.1,0h-5.478a4.239,4.239,0,0,0-4.239,4.239V8.479h5.478V4.239A4.239,4.239,0,0,1-143.1,0" transform="translate(152.817)" fill="#05b5ea"/>
          </g>
          <g id="g3881" transform="translate(27.242 27.867)">
            <path id="path3883" d="M0-74.034c0,2.777,1.8,5.028,4.022,5.028s4.022-2.251,4.022-5.028-1.8-5.028-4.022-5.028S0-76.81,0-74.034" transform="translate(0 79.061)" fill="#b7bcce"/>
          </g>
          <g id="g3885" transform="translate(27.242 27.867)">
            <path id="path3887" d="M-44.421-74.034a5.151,5.151,0,0,1,2.514-4.661,3.323,3.323,0,0,0-1.508-.367c-2.221,0-4.022,2.251-4.022,5.028s1.8,5.028,4.022,5.028a3.323,3.323,0,0,0,1.508-.367,5.151,5.151,0,0,1-2.514-4.661" transform="translate(47.437 79.061)" fill="#868eaf"/>
          </g>
          <g id="g3889" transform="translate(8.203 4.875)">
            <path id="path3891" d="M0,0H16.831" fill="none" stroke="#000" stroke-linecap="round" stroke-linejoin="round" stroke-miterlimit="10" stroke-width="1"/>
          </g>
          <g id="g3893" transform="translate(33.937 4.239)">
            <path id="path3895" d="M-18.728-9.364a.636.636,0,0,1-.636.636A.636.636,0,0,1-20-9.364.636.636,0,0,1-19.364-10a.636.636,0,0,1,.636.636" transform="translate(20 10)"/>
          </g>
          <g id="g3897" transform="translate(29.273 4.239)">
            <path id="path3899" d="M-18.728-9.364a.636.636,0,0,1-.636.636A.636.636,0,0,1-20-9.364.636.636,0,0,1-19.364-10a.636.636,0,0,1,.636.636" transform="translate(20 10)"/>
          </g>
          <g id="g3901" transform="translate(14.217 15.255)">
            <path id="path3903" d="M0,0H1.741V8.146" fill="none" stroke="#000" stroke-linecap="round" stroke-linejoin="round" stroke-miterlimit="10" stroke-width="1"/>
          </g>
          <g id="g3905" transform="translate(35.556 15.255)">
            <path id="path3907" d="M0,0H1.741V8.146" fill="none" stroke="#000" stroke-linecap="round" stroke-linejoin="round" stroke-miterlimit="10" stroke-width="1"/>
          </g>
          <g id="g3909" transform="translate(6.114 14.923)">
            <path id="path3911" d="M-69.378-90.165a2.356,2.356,0,0,1-2.356,2.356,2.356,2.356,0,0,1-2.356-2.356v-3.767a2.356,2.356,0,0,1,2.356-2.356,2.356,2.356,0,0,1,2.356,2.356Z" transform="translate(74.089 96.288)" fill="none" stroke="#000" stroke-linecap="round" stroke-linejoin="round" stroke-miterlimit="10" stroke-width="1"/>
          </g>
          <g id="g3913" transform="translate(19.35 14.923)">
            <path id="path3915" d="M-69.378-90.165a2.356,2.356,0,0,1-2.356,2.356,2.356,2.356,0,0,1-2.356-2.356v-3.767a2.356,2.356,0,0,1,2.356-2.356,2.356,2.356,0,0,1,2.356,2.356Z" transform="translate(74.089 96.288)" fill="none" stroke="#000" stroke-linecap="round" stroke-linejoin="round" stroke-miterlimit="10" stroke-width="1"/>
          </g>
          <g id="g3917" transform="translate(27.453 14.923)">
            <path id="path3919" d="M-69.378-90.165a2.356,2.356,0,0,1-2.356,2.356,2.356,2.356,0,0,1-2.356-2.356v-3.767a2.356,2.356,0,0,1,2.356-2.356,2.356,2.356,0,0,1,2.356,2.356Z" transform="translate(74.089 96.288)" fill="none" stroke="#000" stroke-linecap="round" stroke-linejoin="round" stroke-miterlimit="10" stroke-width="1"/>
          </g>
          <g id="g3921" transform="translate(19.35 28.822)">
            <path id="path3923" d="M0,0H1.741V8.146" fill="none" stroke="#000" stroke-linecap="round" stroke-linejoin="round" stroke-miterlimit="10" stroke-width="1"/>
          </g>
          <g id="g3925" transform="translate(14.217 28.822)">
            <path id="path3927" d="M0,0H1.741V8.146" fill="none" stroke="#000" stroke-linecap="round" stroke-linejoin="round" stroke-miterlimit="10" stroke-width="1"/>
          </g>
          <g id="g3929" transform="translate(6.114 28.489)">
            <path id="path3931" d="M-69.378-81.155v.612a2.356,2.356,0,0,1-2.356,2.356,2.356,2.356,0,0,1-2.356-2.356v-3.767a2.356,2.356,0,0,1,2.356-2.356,2.356,2.356,0,0,1,2.356,2.356v.612" transform="translate(74.089 86.666)" fill="none" stroke="#000" stroke-linecap="round" stroke-linejoin="round" stroke-miterlimit="10" stroke-width="1"/>
          </g>
          <g id="g3933" transform="translate(25.231 32.895)">
            <path id="path3935" d="M-28.875,0h-1.961" transform="translate(30.836 0)" fill="none" stroke="#000" stroke-linecap="round" stroke-linejoin="round" stroke-miterlimit="10" stroke-width="1"/>
          </g>
          <g id="g3937" transform="translate(35.364 32.895)">
            <path id="path3939" d="M-28.469,0H-30.4" transform="translate(30.403 0)" fill="none" stroke="#000" stroke-linecap="round" stroke-linejoin="round" stroke-miterlimit="10" stroke-width="1"/>
          </g>
          <g id="g3941" transform="translate(34.64 28.031)">
            <path id="path3943" d="M0-29.143a2.012,2.012,0,0,0,1.652-1.979" transform="translate(0 31.123)" fill="none" stroke="#000" stroke-linecap="round" stroke-linejoin="round" stroke-miterlimit="10" stroke-width="1"/>
          </g>
          <g id="g3945" transform="translate(26.237 28.031)">
            <path id="path3947" d="M0,0H0A2.012,2.012,0,0,0,1.654,1.979" fill="none" stroke="#000" stroke-linecap="round" stroke-linejoin="round" stroke-miterlimit="10" stroke-width="1"/>
          </g>
          <g id="g3949" transform="translate(26.237 35.778)">
            <path id="path3951" d="M-24.435,0a2.012,2.012,0,0,0-1.659,1.98" transform="translate(26.095)" fill="none" stroke="#000" stroke-linecap="round" stroke-linejoin="round" stroke-miterlimit="10" stroke-width="1"/>
          </g>
          <g id="g3953" transform="translate(34.63 35.778)">
            <path id="path3955" d="M-24.474-29.168h0a2.012,2.012,0,0,0-1.662-1.981" transform="translate(26.136 31.149)" fill="none" stroke="#000" stroke-linecap="round" stroke-linejoin="round" stroke-miterlimit="10" stroke-width="1"/>
          </g>
          <g id="g3957" transform="translate(0.636 0.636)">
            <path id="path3959" d="M-558.1,0h-33.661A4.239,4.239,0,0,0-596,4.239V37.9a4.239,4.239,0,0,0,4.239,4.239H-558.1a4.239,4.239,0,0,0,4.239-4.239V4.239A4.239,4.239,0,0,0-558.1,0Z" transform="translate(595.999)" fill="none" stroke="#000" stroke-linecap="round" stroke-linejoin="round" stroke-miterlimit="10" stroke-width="1"/>
          </g>
          <g id="g3961" transform="translate(27.242 27.867)">
            <path id="path3963" d="M0-74.034c0,2.777,1.8,5.028,4.022,5.028s4.022-2.251,4.022-5.028-1.8-5.028-4.022-5.028S0-76.81,0-74.034Z" transform="translate(0 79.061)" fill="none" stroke="#000" stroke-linecap="round" stroke-linejoin="round" stroke-miterlimit="10" stroke-width="1"/>
          </g>
          <g id="g3965" transform="translate(31.181 9.115)">
            <path id="path3967" d="M0,0H11.425" fill="none" stroke="#000" stroke-linecap="round" stroke-linejoin="round" stroke-miterlimit="10" stroke-width="1"/>
          </g>
          <g id="g3969" transform="translate(0.805 9.115)">
            <path id="path3971" d="M0,0H27.832" fill="none" stroke="#000" stroke-linecap="round" stroke-linejoin="round" stroke-miterlimit="10" stroke-width="1"/>
          </g>
        </g>
      </g>
    </g>
  </g>
</svg>
