<svg xmlns="http://www.w3.org/2000/svg" width="77.974" height="77.974" viewBox="0 0 77.974 77.974">
  <g id="Grupo_1096432" data-name="Grupo 1096432" transform="translate(-1124 -1632.232)">
    <path id="Trazado_835970" data-name="Trazado 835970" d="M77.974,38.987A38.987,38.987,0,1,1,38.987,0,38.988,38.988,0,0,1,77.974,38.987" transform="translate(1124 1632.232)" fill="#a88ef9"/>
    <g id="insecto" transform="translate(1139 1646.479)">
      <g id="Grupo_1093722" data-name="Grupo 1093722" transform="translate(0.816 8.174)">
        <g id="Grupo_1093718" data-name="Grupo 1093718" transform="translate(0.001)">
          <rect id="Rectángulo_387138" data-name="Rectángulo 387138" width="13.078" height="7.422" transform="translate(17.165 31.436)" fill="#5e5e70"/>
          <path id="Trazado_836160" data-name="Trazado 836160" d="M11.8,75.333H52.672A3.269,3.269,0,0,1,55.941,78.6v26.973a3.269,3.269,0,0,1-3.269,3.269H11.8a3.269,3.269,0,0,1-3.269-3.269V78.6A3.269,3.269,0,0,1,11.8,75.333Z" transform="translate(-8.534 -75.333)" fill="#5e5e70"/>
          <path id="Trazado_836161" data-name="Trazado 836161" d="M120.284,459.333h24.521a.817.817,0,0,1,.817.817v1.635a.817.817,0,0,1-.817.817H120.284a.817.817,0,0,1-.817-.817V460.15A.817.817,0,0,1,120.284,459.333Z" transform="translate(-108.841 -422.552)" fill="#5e5e70"/>
        </g>
        <g id="Grupo_1093719" data-name="Grupo 1093719" transform="translate(0.001)">
          <path id="Trazado_836162" data-name="Trazado 836162" d="M175.211,403.525v7.422H162.133v-2.076h2.452V405.6h-2.452v-2.076Z" transform="translate(-147.421 -372.089)" fill="#9797a6"/>
          <path id="Trazado_836163" data-name="Trazado 836163" d="M11.8,75.333H50.22A3.269,3.269,0,0,1,53.489,78.6v26.973a3.269,3.269,0,0,1-3.269,3.269H11.8a3.269,3.269,0,0,1-3.269-3.269V78.6A3.269,3.269,0,0,1,11.8,75.333Z" transform="translate(-8.534 -75.333)" fill="#9797a6"/>
          <path id="Trazado_836164" data-name="Trazado 836164" d="M120.284,459.333h22.069a.817.817,0,0,1,.817.817v1.635a.817.817,0,0,1-.817.817H120.284a.817.817,0,0,1-.817-.817V460.15A.817.817,0,0,1,120.284,459.333Z" transform="translate(-108.841 -422.552)" fill="#9797a6"/>
        </g>
        <path id="Trazado_836165" data-name="Trazado 836165" d="M55.94,102.306V78.6a3.269,3.269,0,0,0-3.27-3.27H11.8a3.269,3.269,0,0,0-3.27,3.27v23.7H55.94Z" transform="translate(-8.532 -75.333)" fill="#bfbfdd"/>
        <path id="Trazado_836166" data-name="Trazado 836166" d="M53.478,102.307V78.6a3.187,3.187,0,0,0-3.1-3.269H11.623a3.187,3.187,0,0,0-3.1,3.269v23.7H53.478Z" transform="translate(-8.521 -75.334)" fill="#f0f0fa"/>
        <g id="Grupo_1093720" data-name="Grupo 1093720" transform="translate(26.157 4.087)">
          <path id="Trazado_836167" data-name="Trazado 836167" d="M282.417,118h5.721a.817.817,0,0,1,.817.817v4.9a.817.817,0,0,1-.817.817h-5.721a.817.817,0,0,1-.817-.817v-4.9A.817.817,0,0,1,282.417,118Z" transform="translate(-281.6 -118)" fill="#00bcd4"/>
          <path id="Trazado_836168" data-name="Trazado 836168" d="M393.351,118h5.721a.817.817,0,0,1,.817.817v4.9a.817.817,0,0,1-.817.817h-5.721a.817.817,0,0,1-.817-.817v-4.9A.817.817,0,0,1,393.351,118Z" transform="translate(-381.908 -118)" fill="#00bcd4"/>
        </g>
        <path id="Trazado_836169" data-name="Trazado 836169" d="M282.417,220.4h16.347a.817.817,0,0,1,.817.817v1.635a.817.817,0,0,1-.817.817H282.417a.817.817,0,0,1-.817-.817v-1.635A.817.817,0,0,1,282.417,220.4Z" transform="translate(-255.443 -206.505)" fill="#02a9f4"/>
        <g id="Grupo_1093721" data-name="Grupo 1093721" transform="translate(8.175 4.904)">
          <ellipse id="Elipse_11142" data-name="Elipse 11142" cx="4.904" cy="5.722" rx="4.904" ry="5.722" transform="translate(0 4.087)" fill="#ff9801"/>
          <circle id="Elipse_11143" data-name="Elipse 11143" cx="2.452" cy="2.452" r="2.452" transform="translate(2.452)" fill="#ff9801"/>
        </g>
      </g>
      <g id="Grupo_1093723" data-name="Grupo 1093723">
        <path id="Trazado_836170" data-name="Trazado 836170" d="M44.955,7.356H14.713V.817a.817.817,0,0,0-1.635,0V7.356H4.087A4.092,4.092,0,0,0,0,11.443V38.416A4.092,4.092,0,0,0,4.087,42.5H17.165v1.635H11.443a.817.817,0,0,0-.817.817v3.269a.817.817,0,0,0,.817.817H37.6a.817.817,0,0,0,.817-.817V44.955a.817.817,0,0,0-.817-.817H31.877V42.5H44.955a4.092,4.092,0,0,0,4.087-4.087V11.443A4.092,4.092,0,0,0,44.955,7.356ZM4.087,8.991h8.991v3.386a3.257,3.257,0,0,0-1.493,5.465l-.072.047L8.426,16.036l.479-.958a.817.817,0,1,0-1.462-.731l-.817,1.635a.817.817,0,0,0,.311,1.066l3.333,2a5.871,5.871,0,0,0-.8,1.386H6.948L4.74,17.491a.817.817,0,0,0-1.307.981l2.452,3.269a.816.816,0,0,0,.654.327H9.047a6.665,6.665,0,0,0-.056.817c0,.088.008.173.011.259L5.418,24.579a.818.818,0,0,0-.514.759v3.269a.817.817,0,0,0,1.635,0V25.892l2.739-1.1A6.145,6.145,0,0,0,9.788,26L8.26,29.059A.817.817,0,0,0,8.413,30l1.635,1.635A.817.817,0,0,0,11.2,30.482L9.986,29.264l.924-1.849a4.333,4.333,0,0,0,5.971,0l.924,1.849-1.218,1.218a.817.817,0,1,0,1.156,1.156L19.377,30a.817.817,0,0,0,.153-.943L18,26a6.145,6.145,0,0,0,.51-1.207l2.739,1.1v2.716a.817.817,0,0,0,1.635,0V25.338a.818.818,0,0,0-.514-.759l-3.584-1.434c0-.087.011-.172.011-.259a6.662,6.662,0,0,0-.056-.817h2.508a.817.817,0,0,0,.654-.327l2.452-3.269a.817.817,0,0,0-1.307-.981l-2.207,2.943H18.319a5.871,5.871,0,0,0-.8-1.386l3.333-2a.817.817,0,0,0,.311-1.066l-.817-1.635a.817.817,0,1,0-1.462.731l.479.958-3.088,1.853-.072-.047a3.257,3.257,0,0,0-1.492-5.465V8.991H44.955a2.455,2.455,0,0,1,2.452,2.452V34.329H1.635V11.443A2.455,2.455,0,0,1,4.087,8.991ZM13.9,17.165A1.635,1.635,0,1,1,15.53,15.53,1.635,1.635,0,0,1,13.9,17.165Zm3.269,5.722c0,2.253-1.466,4.087-3.269,4.087s-3.269-1.834-3.269-4.087S12.092,18.8,13.9,18.8,17.165,20.633,17.165,22.886ZM36.781,47.407H12.26V45.772H36.781Zm-6.539-3.269H18.8V42.5H30.243v1.635Zm14.713-3.269H4.087a2.455,2.455,0,0,1-2.452-2.452V35.964H47.407v2.452A2.455,2.455,0,0,1,44.955,40.868Z"/>
        <path id="Trazado_836171" data-name="Trazado 836171" d="M274.7,127.64h5.722A1.637,1.637,0,0,0,282.057,126v-4.9a1.637,1.637,0,0,0-1.635-1.635H274.7a1.637,1.637,0,0,0-1.635,1.635V126A1.637,1.637,0,0,0,274.7,127.64Zm0-6.539h5.722V126H274.7Z" transform="translate(-246.91 -108.023)"/>
        <path id="Trazado_836172" data-name="Trazado 836172" d="M385.635,127.64h5.722A1.637,1.637,0,0,0,392.991,126v-4.9a1.637,1.637,0,0,0-1.635-1.635h-5.722A1.637,1.637,0,0,0,384,121.1V126A1.637,1.637,0,0,0,385.635,127.64Zm0-6.539h5.722V126h-5.722Z" transform="translate(-347.219 -108.023)"/>
        <path id="Trazado_836173" data-name="Trazado 836173" d="M274.7,226.77h16.347a1.637,1.637,0,0,0,1.635-1.635V223.5a1.637,1.637,0,0,0-1.635-1.635H274.7a1.637,1.637,0,0,0-1.635,1.635v1.635A1.637,1.637,0,0,0,274.7,226.77Zm0-3.27h16.347v1.635H274.7Z" transform="translate(-246.91 -200.615)"/>
        <path id="Trazado_836174" data-name="Trazado 836174" d="M273.884,291.769h7.356a.817.817,0,1,0,0-1.635h-7.356a.817.817,0,0,0,0,1.635Z" transform="translate(-246.911 -262.344)"/>
        <path id="Trazado_836175" data-name="Trazado 836175" d="M273.884,325.9h7.356a.817.817,0,1,0,0-1.635h-7.356a.817.817,0,0,0,0,1.635Z" transform="translate(-246.911 -293.207)"/>
        <path id="Trazado_836176" data-name="Trazado 836176" d="M392.174,290.133h-7.356a.817.817,0,1,0,0,1.635h7.356a.817.817,0,0,0,0-1.635Z" transform="translate(-347.219 -262.343)"/>
        <path id="Trazado_836177" data-name="Trazado 836177" d="M392.174,324.267h-7.356a.817.817,0,1,0,0,1.635h7.356a.817.817,0,0,0,0-1.635Z" transform="translate(-347.219 -293.207)"/>
      </g>
    </g>
  </g>
</svg>
