<svg xmlns="http://www.w3.org/2000/svg" width="77.974" height="77.975" viewBox="0 0 77.974 77.975">
  <g id="Grupo_1096435" data-name="Grupo 1096435" transform="translate(2963 10085.768)">
    <g id="Grupo_1093751" data-name="Grupo 1093751" transform="translate(0 1)">
      <path id="Trazado_836144" data-name="Trazado 836144" d="M77.974,38.987A38.987,38.987,0,1,1,38.987,0,38.988,38.988,0,0,1,77.974,38.987" transform="translate(-2963 -10086.768)" fill="#a88ef9"/>
      <g id="el-robo-de-identidad" transform="translate(-2969.87 -10076.578)">
        <g id="Grupo_1093750" data-name="Grupo 1093750" transform="translate(24.29 5.371)">
          <path id="Trazado_836213" data-name="Trazado 836213" d="M63.465,92.26c0-1.318-1.873-2.686-4.854-3.6a25.629,25.629,0,0,1,.206,3.175.689.689,0,0,1-.483.657,27.192,27.192,0,0,1-16.289,0,.689.689,0,0,1-.483-.657,25.648,25.648,0,0,1,.206-3.175c-2.981.911-4.854,2.279-4.854,3.6,0,2.234,5.452,4.723,13.276,4.723s13.276-2.489,13.276-4.723Z" transform="translate(-36.914 -81.708)" fill="#01c3fd"/>
          <path id="Trazado_836214" data-name="Trazado 836214" d="M112.681,27.637c-.084-3.44-1-7.713-2.638-9.29-.53-.511-.889-.415-2.08.182-.291.146-.593.3-.927.438a4.116,4.116,0,0,1-3.2,0c-.334-.141-.635-.292-.927-.438-1.191-.6-1.55-.692-2.08-.182-1.636,1.577-2.554,5.85-2.638,9.29a25.815,25.815,0,0,0,14.486,0Z" transform="translate(-92.163 -18.016)" fill="#01c3fd"/>
          <path id="Trazado_836215" data-name="Trazado 836215" d="M148.076,281.172H137.924a2.18,2.18,0,0,0,2.17,2,2.149,2.149,0,0,0,.625-.094l-.076-.131a.689.689,0,0,1,1.193-.689l.891,1.543a.689.689,0,1,1-1.193.689l-.115-.2a3.548,3.548,0,0,1-4.877-3.121H114.613a1.064,1.064,0,0,0-1.063,1.063V301.06a1.065,1.065,0,0,0,1.063,1.063h33.463a1.064,1.064,0,0,0,1.063-1.063V282.235a1.064,1.064,0,0,0-1.063-1.063ZM133.734,298.39H117.385a.689.689,0,0,1,0-1.378h16.349a.689.689,0,1,1,0,1.378Zm0-4.036H117.385a.689.689,0,1,1,0-1.378h16.349a.689.689,0,1,1,0,1.378Zm0-4.035H117.385a.689.689,0,1,1,0-1.378h16.349a.689.689,0,1,1,0,1.378Zm0-4.036H117.385a.689.689,0,0,1,0-1.378h16.349a.689.689,0,1,1,0,1.378ZM147.11,296.52a.689.689,0,0,1-.509.224h-9.414a.689.689,0,0,1-.686-.751,5.416,5.416,0,0,1,3.257-4.485,2.94,2.94,0,1,1,4.273,0,5.416,5.416,0,0,1,3.257,4.485.69.69,0,0,1-.178.527Z" transform="translate(-106.006 -255.267)" fill="#dde6fe"/>
        </g>
        <path id="Trazado_836216" data-name="Trazado 836216" d="M66.361,29.9H62.64V22.763a1.961,1.961,0,1,0-1.378,0V29.9H56.2v-3.18a.689.689,0,0,0-1.222-.437L53.9,27.594a.689.689,0,0,0,.921,1.006v1.3H32.9a2.444,2.444,0,0,0-2.441,2.441V51.164A2.444,2.444,0,0,0,32.9,53.605H66.361A2.444,2.444,0,0,0,68.8,51.164V32.339A2.444,2.444,0,0,0,66.361,29.9Zm-4.409-9.55a.583.583,0,1,1-.583.583A.583.583,0,0,1,61.951,20.347Zm5.473,30.817a1.064,1.064,0,0,1-1.063,1.063H32.9a1.064,1.064,0,0,1-1.063-1.063V32.339A1.065,1.065,0,0,1,32.9,31.276H54.827A3.548,3.548,0,0,0,59.7,34.4l.115.2a.689.689,0,1,0,1.193-.689l-.891-1.543a.689.689,0,1,0-1.193.689l.076.131a2.149,2.149,0,0,1-.625.094,2.18,2.18,0,0,1-2.17-2H66.361a1.064,1.064,0,0,1,1.063,1.063V51.164ZM63.842,42.6a5.409,5.409,0,0,0-1.526-.987,2.94,2.94,0,1,0-4.273,0A5.416,5.416,0,0,0,54.785,46.1a.689.689,0,0,0,.686.751h9.414a.689.689,0,0,0,.686-.751,5.4,5.4,0,0,0-1.73-3.5Zm-3.663-4.566A1.562,1.562,0,1,1,58.617,39.6,1.564,1.564,0,0,1,60.179,38.033ZM56.3,45.469a4.041,4.041,0,0,1,7.764,0H56.3Zm-3.589-1.7a.689.689,0,0,1-.689.689H35.669a.689.689,0,1,1,0-1.378H52.018A.689.689,0,0,1,52.707,43.769Zm0-8.071a.689.689,0,0,1-.689.689H35.669a.689.689,0,1,1,0-1.378H52.018A.689.689,0,0,1,52.707,35.7Zm0,12.107a.689.689,0,0,1-.689.689H35.669a.689.689,0,1,1,0-1.378H52.018A.689.689,0,0,1,52.707,47.8Zm0-8.071a.689.689,0,0,1-.689.689H35.669a.689.689,0,1,1,0-1.378H52.018A.689.689,0,0,1,52.707,39.734ZM33.8,28.88a3.639,3.639,0,0,0,3.539-3.405.227.227,0,0,1,.447,0,3.639,3.639,0,0,0,3.539,3.4l.145,0c2.616,0,5.816-2.422,6.751-6.576a.689.689,0,0,0-.816-.825c-7.36,1.571-11.777,1.571-19.693,0a.689.689,0,0,0-.806.827c.952,4.231,4.253,6.661,6.9,6.574Zm12.771-5.819a7.508,7.508,0,0,1-2.041,3.1,4.711,4.711,0,0,1-3.156,1.34,2.294,2.294,0,0,1-2.225-2.236,1.592,1.592,0,0,0-.943-1.227,44.629,44.629,0,0,0,8.366-.979Zm-18.022-.016a51.5,51.5,0,0,0,8.388.988,1.592,1.592,0,0,0-.96,1.234A2.294,2.294,0,0,1,33.755,27.5a4.7,4.7,0,0,1-3.156-1.34,7.513,7.513,0,0,1-2.047-3.118Zm9.014-1.022a28.981,28.981,0,0,0,10.124-1.632c2.921-1.132,4.53-2.719,4.53-4.469,0-2.138-2.35-3.984-6.468-5.1-.472-2.509-1.332-4.868-2.625-6.114s-2.545-.613-3.654-.058c-.272.136-.553.277-.846.4a2.737,2.737,0,0,1-2.123,0c-.293-.124-.574-.265-.846-.4C34.55,4.1,33.294,3.467,32,4.709s-2.153,3.6-2.625,6.114c-4.117,1.116-6.468,2.962-6.468,5.1,0,1.75,1.609,3.337,4.53,4.469a28.981,28.981,0,0,0,10.124,1.632ZM32.961,5.7c.53-.51.889-.414,2.08.182.291.146.593.3.927.438a4.116,4.116,0,0,0,3.2,0c.334-.141.635-.292.927-.438,1.19-.6,1.55-.693,2.08-.182,1.636,1.577,2.554,5.85,2.638,9.29a25.781,25.781,0,0,1-7.243,1.037,25.781,25.781,0,0,1-7.243-1.037C30.407,11.551,31.325,7.278,32.961,5.7ZM24.29,15.922c0-1.318,1.873-2.686,4.854-3.6a25.629,25.629,0,0,0-.206,3.175.689.689,0,0,0,.483.657,27.162,27.162,0,0,0,8.145,1.248,27.162,27.162,0,0,0,8.145-1.248.689.689,0,0,0,.483-.657,25.651,25.651,0,0,0-.206-3.175c2.981.911,4.854,2.279,4.854,3.6,0,2.234-5.452,4.723-13.276,4.723S24.29,18.156,24.29,15.922Zm32.472-.473a.689.689,0,0,1,.689-.689h1.206a.689.689,0,0,1,0,1.378H57.452A.689.689,0,0,1,56.763,15.45Zm3.293,0a.689.689,0,0,1,.689-.689h1.206a.689.689,0,0,1,.689.689V17.3a.689.689,0,1,1-1.378,0V16.139h-.517A.689.689,0,0,1,60.056,15.45Zm-6.587,0a.689.689,0,0,1,.689-.689h1.206a.689.689,0,0,1,0,1.378H54.158A.689.689,0,0,1,53.469,15.45Z" transform="translate(0 0)" fill="#282828"/>
      </g>
    </g>
  </g>
</svg>
