<svg xmlns="http://www.w3.org/2000/svg" width="85" height="65" viewBox="0 0 85 65">
  <g id="Grupo_1093755" data-name="Grupo 1093755" transform="translate(-180 -2261)">
    <rect id="Rectángulo_381814" data-name="Rectángulo 381814" width="85" height="65" rx="7" transform="translate(180 2261)" fill="#1e5af9"/>
    <g id="virus_4_" data-name="virus (4)" transform="translate(197.435 2267.04)">
      <path id="Trazado_836225" data-name="Trazado 836225" d="M97.142,159.3H62.793a1.846,1.846,0,0,0-1.844,1.844V183.47a1.846,1.846,0,0,0,1.844,1.844h34.35a1.846,1.846,0,0,0,1.844-1.844V161.149A1.846,1.846,0,0,0,97.142,159.3Z" transform="translate(-54.901 -143.773)" fill="#b0c5fd"/>
      <path id="Trazado_836226" data-name="Trazado 836226" d="M63.061,183.384V161.063a1.846,1.846,0,0,1,1.844-1.844c-2.181,0-2.64-.109-3.283.422a1.839,1.839,0,0,0-.672,1.422v22.321a1.839,1.839,0,0,0,.672,1.422c.64.528,1.089.422,3.283.422A1.846,1.846,0,0,1,63.061,183.384Z" transform="translate(-54.902 -143.687)" fill="#7f9def"/>
      <path id="Trazado_836227" data-name="Trazado 836227" d="M74.553,134.306H40.2a4.286,4.286,0,0,0-4.281,4.281c0,24.173-.021,22.511.049,22.972a4.288,4.288,0,0,0,4.232,3.63h34.35a4.278,4.278,0,0,0,4.281-4.281V138.587A4.286,4.286,0,0,0,74.553,134.306ZM40.2,162.7a1.8,1.8,0,0,1-1.8-1.8V138.587a1.8,1.8,0,0,1,1.8-1.8h34.35a1.8,1.8,0,0,1,1.8,1.8v22.321a1.8,1.8,0,0,1-1.8,1.8Z" transform="translate(-32.312 -121.211)" fill="#ddd"/>
      <path id="Trazado_836228" data-name="Trazado 836228" d="M38.409,161.559c-.077-.5-.078-23.115,0-23.623a4.288,4.288,0,0,1,4.232-3.63H40.2a4.286,4.286,0,0,0-4.281,4.281c0,24.173-.021,22.511.049,22.972a4.288,4.288,0,0,0,4.232,3.63h2.437A4.288,4.288,0,0,1,38.409,161.559Z" transform="translate(-32.312 -121.211)" fill="#bababa"/>
      <path id="Trazado_836229" data-name="Trazado 836229" d="M54.78,479.02H8.71a1.244,1.244,0,0,0,0,2.486H54.78a1.244,1.244,0,0,0,0-2.486Z" transform="translate(-6.678 -432.316)" fill="#ddd"/>
      <path id="Trazado_836230" data-name="Trazado 836230" d="M54.754,486.015H8.684a1.193,1.193,0,0,1-1.047-.622,1.254,1.254,0,0,0,1.047,1.864h46.07a1.275,1.275,0,0,0,1.048-1.864A1.193,1.193,0,0,1,54.754,486.015Z" transform="translate(-6.653 -438.068)" fill="#bababa"/>
      <path id="Trazado_836231" data-name="Trazado 836231" d="M97.593,159.8H63.243a1.8,1.8,0,0,0-1.8,1.8v1.3h37.94v-1.3A1.8,1.8,0,0,0,97.593,159.8Z" transform="translate(-55.351 -144.223)" fill="#f2f2f2"/>
      <path id="Trazado_836232" data-name="Trazado 836232" d="M65.571,159.8H63.242a1.8,1.8,0,0,0-1.8,1.8v1.3h4.124v-3.1Z" transform="translate(-55.35 -144.223)" fill="#4fe88f"/>
      <path id="Trazado_836233" data-name="Trazado 836233" d="M63.242,159.8a1.8,1.8,0,0,0-1.8,1.8v1.3h2.062v-1.3a1.841,1.841,0,0,1,1.431-1.8Z" transform="translate(-55.35 -144.223)" fill="#368f62"/>
      <path id="Trazado_836234" data-name="Trazado 836234" d="M177.752,16.975a9.493,9.493,0,1,0-15.42,7.415v3.22a1.111,1.111,0,0,0,1.111,1.111h.741A1.111,1.111,0,0,0,165.3,27.61a1.111,1.111,0,0,0,1.111,1.111h.741a1.111,1.111,0,0,0,1.111-1.111,1.111,1.111,0,0,0,1.111,1.111h.741a1.111,1.111,0,0,0,1.111-1.111,1.111,1.111,0,0,0,1.111,1.111h.741a1.111,1.111,0,0,0,1.111-1.111v-3.22A9.475,9.475,0,0,0,177.752,16.975Z" transform="translate(-143.181 -6.753)" fill="#81f0af"/>
      <path id="Trazado_836235" data-name="Trazado 836235" d="M164.325,31.162V26.775a9.5,9.5,0,0,1,1.452-15.788,9.5,9.5,0,0,0-3.4,16.566v3.22a1.111,1.111,0,0,0,1.111,1.111h.741a1.111,1.111,0,0,0,.323-.048A1.105,1.105,0,0,1,164.325,31.162Z" transform="translate(-143.228 -9.916)" fill="#4fe88f"/>
      <g id="Grupo_1093757" data-name="Grupo 1093757" transform="translate(18.636 10.654)">
        <path id="Trazado_836236" data-name="Trazado 836236" d="M272.754,109.278h-4.126a.577.577,0,0,0-.577.577,2.676,2.676,0,1,0,5.28,0A.577.577,0,0,0,272.754,109.278Z" transform="translate(-260.446 -109.278)" fill="#60bd8e"/>
        <path id="Trazado_836237" data-name="Trazado 836237" d="M194.758,109.278h-4.126a.577.577,0,0,0-.577.577,2.676,2.676,0,1,0,5.28,0A.577.577,0,0,0,194.758,109.278Z" transform="translate(-190.055 -109.278)" fill="#60bd8e"/>
        <path id="Trazado_836238" data-name="Trazado 836238" d="M239.455,156.345c-1.681,2.664-1.654,2.543-1.57,2.7a.215.215,0,0,0,.188.111H241.2a.215.215,0,0,0,.175-.34l-1.557-2.468A.215.215,0,0,0,239.455,156.345Z" transform="translate(-233.195 -151.665)" fill="#60bd8e"/>
      </g>
      <g id="Grupo_1093758" data-name="Grupo 1093758" transform="translate(18.636 10.654)">
        <path id="Trazado_836239" data-name="Trazado 836239" d="M270,109.854a.577.577,0,0,1,.577-.577h-1.945a.577.577,0,0,0-.577.577c0,2.2,1.889,3.7,3.613,2.892A3.152,3.152,0,0,1,270,109.854Z" transform="translate(-260.447 -109.277)" fill="#368f62"/>
        <path id="Trazado_836240" data-name="Trazado 836240" d="M192,109.854a.577.577,0,0,1,.577-.577h-1.945a.577.577,0,0,0-.577.577c0,2.2,1.889,3.7,3.613,2.892A3.152,3.152,0,0,1,192,109.854Z" transform="translate(-190.055 -109.277)" fill="#368f62"/>
        <path id="Trazado_836241" data-name="Trazado 836241" d="M239.83,159.04a.214.214,0,0,1,.006-.218l.772-1.224c-.853-1.351-.815-1.354-.973-1.354a.213.213,0,0,0-.181.1c-1.681,2.664-1.654,2.543-1.57,2.7a.215.215,0,0,0,.188.111h1.945A.215.215,0,0,1,239.83,159.04Z" transform="translate(-233.194 -151.665)" fill="#368f62"/>
      </g>
      <path id="Trazado_836242" data-name="Trazado 836242" d="M151.112,227.9l-16.066-9.276a1.929,1.929,0,1,0-3.478-.671,1.929,1.929,0,1,0,2.32,2.677l16.066,9.276a3.522,3.522,0,1,0,1.158-2.005Z" transform="translate(-117.422 -194.585)" fill="#81f0af"/>
      <path id="Trazado_836243" data-name="Trazado 836243" d="M150.3,254.756h0s.2-.454-.368-.782l-15.1-8.721a.373.373,0,0,0-.526.058h0a1.928,1.928,0,0,1-3.433-1.633,1.928,1.928,0,1,0,3.007,2.287l16.066,9.276a1.929,1.929,0,1,0,3.448,1.611A1.93,1.93,0,0,1,150.3,254.756Z" transform="translate(-117.404 -219.92)" fill="#368f62"/>
      <path id="Trazado_836244" data-name="Trazado 836244" d="M133.8,227.815c.024.042.045.085.066.127l.434-.25,15.2-8.775.433-.25c-.027-.039-.053-.079-.077-.12a1.929,1.929,0,1,1,3.555-.551,1.929,1.929,0,1,1-2.321,2.677L135.454,229.7l-.433.25c.027.039.053.079.077.12a3.482,3.482,0,1,1-1.3-2.253Z" transform="translate(-117.397 -194.626)" fill="#81f0af"/>
      <path id="Trazado_836245" data-name="Trazado 836245" d="M153.2,216.616a1.929,1.929,0,1,0-3.342,1.929c.024.042.051.081.077.12l-.433.25-15.2,8.775-.434.25c-.021-.043-.041-.085-.066-.127a1.929,1.929,0,1,0-2.949,2.408,1.928,1.928,0,0,1,3.275-1.812h0a.739.739,0,0,0,.9.143l14.917-8.613a.71.71,0,0,0,.319-.862h0a1.93,1.93,0,0,1,3.125-2A1.942,1.942,0,0,0,153.2,216.616Z" transform="translate(-117.402 -194.625)" fill="#368f62"/>
      <path id="Trazado_836246" data-name="Trazado 836246" d="M263.806,106.944a3.633,3.633,0,0,0,3.369-3.842,1.308,1.308,0,0,0-1.306-1.306h-4.126a1.308,1.308,0,0,0-1.306,1.306A3.633,3.633,0,0,0,263.806,106.944Zm1.906-3.689a1.93,1.93,0,1,1-3.813,0Z" transform="translate(-234.938 -91.871)"/>
      <path id="Trazado_836247" data-name="Trazado 836247" d="M185.811,106.944a3.633,3.633,0,0,0,3.37-3.842,1.308,1.308,0,0,0-1.307-1.306h-4.126a1.308,1.308,0,0,0-1.306,1.306A3.633,3.633,0,0,0,185.811,106.944Zm1.907-3.689a1.93,1.93,0,1,1-3.813,0Z" transform="translate(-164.549 -91.871)"/>
      <path id="Trazado_836248" data-name="Trazado 836248" d="M231.981,149.2l-1.563,2.478a.945.945,0,0,0,.8,1.448h3.127a.945.945,0,0,0,.944-.944c0-.363-.017-.3-1.709-2.982A.944.944,0,0,0,231.981,149.2Zm.8,1.469.63,1H232.15Z" transform="translate(-207.714 -134.258)"/>
      <path id="Trazado_836249" data-name="Trazado 836249" d="M145.936,219.365a2.67,2.67,0,0,0-1.954.855l-4.622-2.668,4.622-2.669a2.659,2.659,0,1,0,3.311-4.091,2.66,2.66,0,1,0-5.2.822l-6.507,3.757-6.508-3.757a2.659,2.659,0,1,0-5.2-.823,2.659,2.659,0,1,0,3.311,4.091l4.622,2.669-4.622,2.669a2.659,2.659,0,1,0-3.311,4.091,2.659,2.659,0,1,0,5.2-.822l6.508-3.758,6.508,3.758a2.662,2.662,0,0,0,2.538,3.448h0a2.663,2.663,0,0,0,2.661-2.626A2.662,2.662,0,0,0,145.936,219.365Zm-19.176-6.146a.731.731,0,0,0-.443.379c-.013.027-.026.054-.041.081a1.2,1.2,0,1,1-1.4-1.743.73.73,0,0,0,.492-.852,1.2,1.2,0,0,1,2.331-.567c.222.827-.413.96-.276,1.558a.73.73,0,0,0,.346.469l6.36,3.672-.856.494C126.948,213.058,127.184,213.089,126.761,213.219Zm.66,9.809a.778.778,0,0,0,.156.649,1.2,1.2,0,1,1-2.211.343.73.73,0,0,0-.492-.852,1.2,1.2,0,1,1,1.444-1.661.73.73,0,0,0,1.021.312c17.326-10,16.311-9.3,16.412-9.745.137-.6-.5-.721-.277-1.558a1.2,1.2,0,0,1,2.331.567.729.729,0,0,0,.492.852,1.2,1.2,0,1,1-1.442,1.666.729.729,0,0,0-1.023-.317C126.506,223.288,127.523,222.586,127.421,223.028Zm18.877.14a.73.73,0,0,0-.492.852,1.2,1.2,0,1,1-2.161-.42.73.73,0,0,0,.107-.573c-.1-.426.16-.176-6.706-4.14l.856-.494c6.389,3.689,6.093,3.62,6.512,3.49a.775.775,0,0,0,.481-.459,1.2,1.2,0,1,1,1.4,1.743Z" transform="translate(-110.521 -187.87)"/>
      <path id="Trazado_836250" data-name="Trazado 836250" d="M48.091,471.548H2.039a1.973,1.973,0,0,0,0,3.944H8.164a.729.729,0,0,0,0-1.459H2.039a.515.515,0,0,1,0-1.026H48.091a.515.515,0,0,1,0,1.026H11.568a.729.729,0,0,0,0,1.459H48.091a1.973,1.973,0,0,0,0-3.944Z" transform="translate(0 -425.573)"/>
      <path id="Trazado_836251" data-name="Trazado 836251" d="M33.55,44.71H67.886A5.015,5.015,0,0,0,72.895,39.7V24.08a.729.729,0,1,0-1.459,0V39.7a3.554,3.554,0,0,1-3.55,3.55H33.55A3.554,3.554,0,0,1,30,39.7V17.388a3.554,3.554,0,0,1,3.55-3.55h7.6a10.137,10.137,0,0,0,.454,1.026H33.55a2.527,2.527,0,0,0-2.524,2.524c0,.654,0,20.678,0,22.312a2.527,2.527,0,0,0,2.524,2.524H67.886A2.527,2.527,0,0,0,70.41,39.7V17.388h0a2.527,2.527,0,0,0-2.524-2.524H59.83a10.107,10.107,0,0,0,.453-1.026h7.6a3.554,3.554,0,0,1,3.55,3.55v3.287a.729.729,0,1,0,1.459,0V17.388a5.015,5.015,0,0,0-5.009-5.009H60.712a10.222,10.222,0,1,0-19.989,0H33.55a5.015,5.015,0,0,0-5.009,5.009V39.7A5.015,5.015,0,0,0,33.55,44.71ZM44.04,17.961H36.607V16.323h5.906A10.317,10.317,0,0,0,44.04,17.961Zm-11.555-.573a1.066,1.066,0,0,1,1.065-1.065h1.6v1.638H32.485Zm35.4,23.377H33.55A1.066,1.066,0,0,1,32.485,39.7V19.42H44.061v1.437A1.843,1.843,0,0,0,45.9,22.7h.741a1.832,1.832,0,0,0,1.111-.374,1.833,1.833,0,0,0,1.112.374,2.619,2.619,0,0,0,1.852-.374,1.831,1.831,0,0,0,1.111.374,2.627,2.627,0,0,0,1.852-.374,2.615,2.615,0,0,0,1.852.374,1.843,1.843,0,0,0,1.841-1.841V19.42H68.951V39.7A1.067,1.067,0,0,1,67.886,40.765ZM58.923,16.323h8.963a1.066,1.066,0,0,1,1.065,1.065v.573H57.4A10.336,10.336,0,0,0,58.923,16.323Zm-8.2-14.864a8.773,8.773,0,0,1,8.763,8.763,8.584,8.584,0,0,1-1.538,4.958c-1.2,1.747-2.028,1.816-2.028,2.457v3.22a.382.382,0,0,1-.382.382h-.741a.382.382,0,0,1-.382-.382.729.729,0,0,0-1.459,0,.382.382,0,0,1-.382.382h-.741a.382.382,0,0,1-.382-.382.729.729,0,1,0-1.459,0,.382.382,0,0,1-.382.382h-.741a.382.382,0,0,1-.382-.382.729.729,0,1,0-1.459,0,.382.382,0,0,1-.382.382H45.9a.382.382,0,0,1-.382-.382c0-3.548.033-3.376-.111-3.607a9.166,9.166,0,0,1-3.455-7.028A8.774,8.774,0,0,1,50.718,1.459Z" transform="translate(-25.653)"/>
    </g>
  </g>
</svg>
