<svg xmlns="http://www.w3.org/2000/svg" xmlns:xlink="http://www.w3.org/1999/xlink" width="127" height="105" viewBox="0 0 127 105">
  <defs>
    <linearGradient id="linear-gradient" x1="0.5" x2="0.5" y2="1" gradientUnits="objectBoundingBox">
      <stop offset="0" stop-color="#5cd5fa"/>
      <stop offset="1" stop-color="#7d5ce5"/>
    </linearGradient>
  </defs>
  <g id="Grupo_1093397" data-name="Grupo 1093397" transform="translate(-1174 -5944)">
    <rect id="Rectángulo_386880" data-name="Rectángulo 386880" width="127" height="105" rx="15" transform="translate(1174 5944)" fill="url(#linear-gradient)"/>
    <g id="sitio-web_2_" data-name="sitio-web (2)" transform="translate(1196.865 5959.226)">
      <g id="Grupo_1094139" data-name="Grupo 1094139" transform="translate(1.497 1.764)">
        <path id="Trazado_836588" data-name="Trazado 836588" d="M49.759,66.4H4.818A2.893,2.893,0,0,1,2,63.435V5.226a2.893,2.893,0,0,1,2.82-2.962H76.249a2.893,2.893,0,0,1,2.82,2.962V63.435a2.893,2.893,0,0,1-2.82,2.962H57.369" transform="translate(-1.395 -1.662)" fill="#fff"/>
        <path id="Trazado_836589" data-name="Trazado 836589" d="M76.351,67.1H57.47a.6.6,0,0,1,0-1.2H76.351a2.3,2.3,0,0,0,2.218-2.36V5.328a2.3,2.3,0,0,0-2.218-2.36H4.919A2.3,2.3,0,0,0,2.7,5.328V63.537A2.3,2.3,0,0,0,4.919,65.9H49.862a.6.6,0,1,1,0,1.2H4.919A3.5,3.5,0,0,1,1.5,63.537V5.328A3.5,3.5,0,0,1,4.919,1.764H76.351a3.5,3.5,0,0,1,3.422,3.564V63.537A3.5,3.5,0,0,1,76.351,67.1Z" transform="translate(-1.497 -1.764)"/>
      </g>
      <g id="Grupo_1094142" data-name="Grupo 1094142" transform="translate(1.498 1.764)">
        <g id="Grupo_1094140" data-name="Grupo 1094140" transform="translate(0.603 0.602)">
          <path id="Trazado_836590" data-name="Trazado 836590" d="M79.069,20.086V5.226a2.894,2.894,0,0,0-2.82-2.962H4.818A2.893,2.893,0,0,0,2,5.226v14.86H79.069Z" transform="translate(-1.998 -2.264)" fill="#66c4b0"/>
        </g>
        <g id="Grupo_1094141" data-name="Grupo 1094141">
          <path id="Trazado_836591" data-name="Trazado 836591" d="M79.171,20.79H2.1a.6.6,0,0,1-.6-.6V5.328A3.5,3.5,0,0,1,4.919,1.764H76.351a3.5,3.5,0,0,1,3.422,3.564v14.86A.6.6,0,0,1,79.171,20.79ZM2.7,19.586H78.569V5.328a2.3,2.3,0,0,0-2.218-2.36H4.919A2.3,2.3,0,0,0,2.7,5.328Z" transform="translate(-1.498 -1.764)"/>
        </g>
      </g>
      <g id="Grupo_1094145" data-name="Grupo 1094145" transform="translate(48.72 35.466)">
        <g id="Grupo_1094143" data-name="Grupo 1094143" transform="translate(0.601 0.601)">
          <path id="Trazado_836592" data-name="Trazado 836592" d="M61.238,48.947l-2,2.188a1.479,1.479,0,0,1-2.175.01l-4.809-5.172a1.479,1.479,0,0,0-2.362.264l-.621,1.07a1.479,1.479,0,0,1-2.671-.245L41.3,32.231a1.479,1.479,0,0,1,1.9-1.886l14.283,5.244a1.479,1.479,0,0,1,.311,2.618L56.08,39.354a1.479,1.479,0,0,0-.219,2.282L61.185,46.9a1.479,1.479,0,0,1,.053,2.049Z" transform="translate(-41.213 -30.252)" fill="#f73c4f"/>
        </g>
        <g id="Grupo_1094144" data-name="Grupo 1094144">
          <path id="Trazado_836593" data-name="Trazado 836593" d="M58.25,52.321a2.089,2.089,0,0,1-1.524-.663l-4.808-5.172a.876.876,0,0,0-1.4.157L49.9,47.713a2.081,2.081,0,0,1-3.759-.345l-5.3-14.833a2.08,2.08,0,0,1,2.675-2.653L57.8,35.126a2.08,2.08,0,0,1,.437,3.685l-1.718,1.146a.876.876,0,0,0-.131,1.353l5.325,5.262a2.075,2.075,0,0,1,.074,2.883l-2,2.188a2.088,2.088,0,0,1-1.528.678H58.25ZM51.283,45a2.057,2.057,0,0,1,1.517.664l4.808,5.172a.869.869,0,0,0,.642.279h0a.87.87,0,0,0,.644-.286l2-2.188a.875.875,0,0,0-.032-1.215l-5.325-5.262a2.081,2.081,0,0,1,.309-3.211l1.718-1.146a.877.877,0,0,0-.185-1.553L43.1,31.012a.877.877,0,0,0-1.128,1.118l5.3,14.832a.856.856,0,0,0,.746.578.841.841,0,0,0,.838-.433l.622-1.071A2.09,2.09,0,0,1,51.283,45ZM61.34,49.049h.012Z" transform="translate(-40.714 -29.752)"/>
        </g>
      </g>
      <g id="Grupo_1094146" data-name="Grupo 1094146" transform="translate(10.09 30.105)">
        <path id="Trazado_836594" data-name="Trazado 836594" d="M38.377,26.5H9.235a.6.6,0,1,1,0-1.2H38.377a.6.6,0,0,1,0,1.2Z" transform="translate(-8.633 -25.301)"/>
      </g>
      <g id="Grupo_1094147" data-name="Grupo 1094147" transform="translate(10.09 37.694)">
        <path id="Trazado_836595" data-name="Trazado 836595" d="M38.377,32.807H9.235a.6.6,0,0,1,0-1.2H38.377a.6.6,0,0,1,0,1.2Z" transform="translate(-8.633 -31.603)"/>
      </g>
      <g id="Grupo_1094153" data-name="Grupo 1094153" transform="translate(14.89 45.819)">
        <g id="Grupo_1094150" data-name="Grupo 1094150">
          <g id="Grupo_1094148" data-name="Grupo 1094148" transform="translate(0.601 0.602)">
            <path id="Trazado_836596" data-name="Trazado 836596" d="M13.184,49.533a31.855,31.855,0,0,1,.259-6.519,15.016,15.016,0,0,0,7.077-.526,15.561,15.561,0,0,0,6.127-3.638,23.75,23.75,0,0,0,3.358,2.078,19.82,19.82,0,0,0,6.831,2.179,12.337,12.337,0,0,0,3.138-.055,21.876,21.876,0,0,1,.211,2.567,31.868,31.868,0,0,1-1.02,8.939h-.009a27.31,27.31,0,0,1-2.321,6.011c-.387.729-.809,1.459-1.292,2.188-.044.074-.1.157-.149.231a26.8,26.8,0,0,1-3.622,4.322A29.949,29.949,0,0,1,26.7,71.225a24.654,24.654,0,0,1-5.178-3.915,27.006,27.006,0,0,1-7.413-12.272" transform="translate(-13.119 -38.85)" fill="#66c4b0"/>
          </g>
          <g id="Grupo_1094149" data-name="Grupo 1094149">
            <path id="Trazado_836597" data-name="Trazado 836597" d="M26.8,71.929a.606.606,0,0,1-.276-.067,25.107,25.107,0,0,1-5.319-4.017A27.707,27.707,0,0,1,13.631,55.3a.6.6,0,1,1,1.159-.321,26.157,26.157,0,0,0,7.251,12,25.676,25.676,0,0,0,4.743,3.649,29.313,29.313,0,0,0,4.672-3.648A26.269,26.269,0,0,0,35,62.754c.053-.074.1-.141.131-.2.452-.683.864-1.382,1.279-2.165a26.867,26.867,0,0,0,2.27-5.88.807.807,0,0,1,.033-.094,31.283,31.283,0,0,0,.976-8.676c-.027-.829-.083-1.485-.129-1.914a13.038,13.038,0,0,1-2.682-.016,20.633,20.633,0,0,1-7.041-2.243,25.961,25.961,0,0,1-3.039-1.834,16.21,16.21,0,0,1-12.731,4.08,31.109,31.109,0,0,0-.175,5.785.6.6,0,0,1-.561.641.618.618,0,0,1-.641-.561,32.6,32.6,0,0,1,.263-6.642.6.6,0,0,1,.253-.411.586.586,0,0,1,.473-.094,14.563,14.563,0,0,0,6.766-.513,14.957,14.957,0,0,0,5.894-3.5.6.6,0,0,1,.784-.039,23.421,23.421,0,0,0,3.264,2.018A19.431,19.431,0,0,0,37,42.611a11.758,11.758,0,0,0,2.988-.053.611.611,0,0,1,.682.5,22.432,22.432,0,0,1,.219,2.645,32.512,32.512,0,0,1-1.04,9.112.6.6,0,0,1-.032.091,28.056,28.056,0,0,1-2.348,6.05c-.433.817-.865,1.549-1.322,2.238-.035.061-.1.161-.161.249a27.493,27.493,0,0,1-3.694,4.4,30.754,30.754,0,0,1-5.174,3.994.6.6,0,0,1-.317.091Z" transform="translate(-12.62 -38.35)"/>
          </g>
        </g>
        <g id="Grupo_1094151" data-name="Grupo 1094151" transform="translate(5.838 8.518)">
          <circle id="Elipse_11149" data-name="Elipse 11149" cx="6.895" cy="6.895" r="6.895" transform="translate(0 13.418) rotate(-76.7)" fill="#fff"/>
          <path id="Trazado_836598" data-name="Trazado 836598" d="M25.634,61.061a7.5,7.5,0,1,1,7.5-7.5A7.505,7.505,0,0,1,25.634,61.061Zm0-13.79a6.293,6.293,0,1,0,6.294,6.292A6.3,6.3,0,0,0,25.634,47.271Z" transform="translate(-17.332 -45.292)"/>
        </g>
        <g id="Grupo_1094152" data-name="Grupo 1094152" transform="translate(10.47 14.014)">
          <path id="Trazado_836599" data-name="Trazado 836599" d="M23.914,55.54a.6.6,0,0,1-.428-.179l-2-2.024a.6.6,0,1,1,.856-.845l1.56,1.582,3.712-3.9a.6.6,0,0,1,.873.83l-4.14,4.349a.6.6,0,0,1-.43.187h-.006Z" transform="translate(-21.315 -49.988)"/>
        </g>
      </g>
      <g id="Grupo_1094154" data-name="Grupo 1094154" transform="translate(8.988 6.773)">
        <path id="Trazado_836600" data-name="Trazado 836600" d="M16.021,10.326a3.9,3.9,0,1,1-3.9-3.9A3.9,3.9,0,0,1,16.021,10.326Z" transform="translate(-7.616 -5.822)" fill="#f7d352"/>
        <path id="Trazado_836601" data-name="Trazado 836601" d="M12.222,14.931a4.5,4.5,0,1,1,4.5-4.5A4.509,4.509,0,0,1,12.222,14.931Zm0-7.8a3.3,3.3,0,1,0,3.3,3.3A3.3,3.3,0,0,0,12.222,7.128Z" transform="translate(-7.718 -5.924)"/>
      </g>
      <g id="Grupo_1094155" data-name="Grupo 1094155" transform="translate(21.965 6.773)">
        <path id="Trazado_836602" data-name="Trazado 836602" d="M26.8,10.326a3.9,3.9,0,1,1-3.9-3.9A3.9,3.9,0,0,1,26.8,10.326Z" transform="translate(-18.393 -5.822)" fill="#f7d352"/>
        <path id="Trazado_836603" data-name="Trazado 836603" d="M23,14.931a4.5,4.5,0,1,1,4.5-4.5A4.508,4.508,0,0,1,23,14.931Zm0-7.8a3.3,3.3,0,1,0,3.3,3.3A3.3,3.3,0,0,0,23,7.128Z" transform="translate(-18.495 -5.924)"/>
      </g>
      <g id="Grupo_1094156" data-name="Grupo 1094156" transform="translate(34.941 6.773)">
        <path id="Trazado_836604" data-name="Trazado 836604" d="M37.573,10.326a3.9,3.9,0,1,1-3.9-3.9A3.9,3.9,0,0,1,37.573,10.326Z" transform="translate(-29.169 -5.822)" fill="#f7d352"/>
        <path id="Trazado_836605" data-name="Trazado 836605" d="M33.774,14.931a4.5,4.5,0,1,1,4.5-4.5A4.508,4.508,0,0,1,33.774,14.931Zm0-7.8a3.3,3.3,0,1,0,3.3,3.3A3.3,3.3,0,0,0,33.774,7.128Z" transform="translate(-29.271 -5.924)"/>
      </g>
    </g>
  </g>
</svg>
