<svg xmlns="http://www.w3.org/2000/svg" width="65.35" height="68.518" viewBox="0 0 65.35 68.518">
  <g id="politica-de-privacidad_1_" data-name="politica-de-privacidad (1)" transform="translate(-7.82 -1.994)">
    <path id="Trazado_837213" data-name="Trazado 837213" d="M70.875,17.438h31.063v43.6H70.875Z" transform="translate(-45.911 -11.245)" fill="#e3e3e3"/>
    <g id="Grupo_1094712" data-name="Grupo 1094712" transform="translate(24.964 6.193)">
      <path id="Trazado_837214" data-name="Trazado 837214" d="M70.875,17.439h3.988v43.6H70.875Z" transform="translate(-70.875 -17.439)" fill="#ccc"/>
    </g>
    <g id="Grupo_1094713" data-name="Grupo 1094713" transform="translate(52.038 6.193)">
      <path id="Trazado_837215" data-name="Trazado 837215" d="M170.458,17.439h3.988v43.6h-3.988Z" transform="translate(-170.458 -17.439)" fill="#d8d8d8"/>
    </g>
    <path id="Trazado_837216" data-name="Trazado 837216" d="M166.538,60.424V72l-2.279-2.674a2.649,2.649,0,0,0-4.032,3.437l5.185,6.083s-1.548,6.53,2.531,10.261h11.531l-1.022-14.028a5.994,5.994,0,0,0-1.734-3.3Z" transform="translate(-110.512 -42.544)" fill="#f1ccb0"/>
    <path id="Trazado_837217" data-name="Trazado 837217" d="M175.934,189.686h17.788v14.1H175.934Z" transform="translate(-122.407 -136.662)" fill="#9eb0c3"/>
    <path id="Trazado_837218" data-name="Trazado 837218" d="M36.23,60.424V72l2.279-2.674a2.649,2.649,0,0,1,4.032,3.437l-5.185,6.083s1.548,6.53-2.531,10.261H23.293l1.022-14.028a5.994,5.994,0,0,1,1.734-3.3Z" transform="translate(-11.266 -42.544)" fill="#f1ccb0"/>
    <g id="Grupo_1094714" data-name="Grupo 1094714" transform="translate(12.027 17.88)">
      <path id="Trazado_837219" data-name="Trazado 837219" d="M30.037,71.783l6.193-6.91V60.424L26.049,71.783a5.994,5.994,0,0,0-1.734,3.3L23.293,89.109h3.988L28.3,75.081A5.993,5.993,0,0,1,30.037,71.783Z" transform="translate(-23.293 -60.424)" fill="#e0b493"/>
    </g>
    <g id="Grupo_1094715" data-name="Grupo 1094715" transform="translate(56.026 17.88)">
      <path id="Trazado_837220" data-name="Trazado 837220" d="M191.318,71.783l-6.193-6.91V60.424l10.181,11.359a5.994,5.994,0,0,1,1.734,3.3l1.022,14.028h-3.988l-1.022-14.028A5.993,5.993,0,0,0,191.318,71.783Z" transform="translate(-185.125 -60.424)" fill="#e0b493"/>
    </g>
    <path id="Trazado_837221" data-name="Trazado 837221" d="M0,0H20.18V6.459H0Z" transform="translate(28.658 53.024) rotate(180)" fill="#9eb0c3"/>
    <g id="Grupo_1094716" data-name="Grupo 1094716" transform="translate(8.478 46.565)">
      <path id="Trazado_837222" data-name="Trazado 837222" d="M10.241,165.929h3.988v6.459H10.241Z" transform="translate(-10.241 -165.929)" fill="#727997"/>
    </g>
    <path id="Trazado_837223" data-name="Trazado 837223" d="M0,0H20.18V6.459H0Z" transform="translate(72.511 53.024) rotate(180)" fill="#9eb0c3"/>
    <path id="Trazado_837224" data-name="Trazado 837224" d="M0,0H17.788V14.1H0Z" transform="translate(27.462 67.121) rotate(180)" fill="#9eb0c3"/>
    <g id="Grupo_1094717" data-name="Grupo 1094717" transform="translate(9.674 53.024)">
      <path id="Trazado_837225" data-name="Trazado 837225" d="M14.64,189.686h3.988v14.1H14.64Z" transform="translate(-14.64 -189.686)" fill="#727997"/>
    </g>
    <g id="Grupo_1094718" data-name="Grupo 1094718" transform="translate(67.328 53.024)">
      <path id="Trazado_837226" data-name="Trazado 837226" d="M226.694,189.686h3.988v14.1h-3.988Z" transform="translate(-226.694 -189.686)" fill="#727997"/>
    </g>
    <g id="Grupo_1094719" data-name="Grupo 1094719" transform="translate(68.524 46.565)">
      <path id="Trazado_837227" data-name="Trazado 837227" d="M231.092,165.929h3.988v6.459h-3.988Z" transform="translate(-231.092 -165.929)" fill="#727997"/>
    </g>
    <g id="Grupo_1094723" data-name="Grupo 1094723" transform="translate(7.82 1.994)">
      <path id="Trazado_837228" data-name="Trazado 837228" d="M103.994,3.674A22.349,22.349,0,0,1,96.773,6.72a1.129,1.129,0,0,0-.9,1.1v8.992a9.482,9.482,0,0,0,3.913,7.675l4.426,3.212a.675.675,0,0,0,.794,0l4.426-3.212a9.482,9.482,0,0,0,3.913-7.675V7.821a1.129,1.129,0,0,0-.9-1.1,22.358,22.358,0,0,1-7.221-3.046,1.118,1.118,0,0,0-1.22,0Z" transform="translate(-71.929 -3.086)" fill="#0fdf40"/>
      <g id="Grupo_1094722" data-name="Grupo 1094722" transform="translate(0)">
        <circle id="Elipse_11156" data-name="Elipse 11156" cx="6.166" cy="6.166" r="6.166" transform="translate(26.509 6.41)" fill="#cecece"/>
        <g id="Grupo_1094721" data-name="Grupo 1094721">
          <path id="Trazado_837229" data-name="Trazado 837229" d="M119.665,36.03l-3.117,3.558-1.022-.825a1.057,1.057,0,1,0-1.333,1.641l2.608,2.105,4.459-5.09a1.057,1.057,0,0,0-1.595-1.389Z" transform="translate(-84.987 -26.513)" fill="#0fdf40"/>
          <g id="Grupo_1094720" data-name="Grupo 1094720">
            <path id="Trazado_837230" data-name="Trazado 837230" d="M13.123,251.007H8.228a.408.408,0,1,0,0,.816h4.895a.408.408,0,1,0,0-.816Z" transform="translate(-7.82 -183.305)" fill="#3f3679"/>
            <path id="Trazado_837231" data-name="Trazado 837231" d="M232.479,251.007h-4.895a.408.408,0,0,0,0,.816h4.895a.408.408,0,1,0,0-.816Z" transform="translate(-167.538 -183.305)" fill="#3f3679"/>
            <path id="Trazado_837232" data-name="Trazado 837232" d="M85.628,251.007h-49.2a.408.408,0,1,0,0,.816h49.2a.408.408,0,1,0,0-.816Z" transform="translate(-28.354 -183.305)" fill="#3f3679"/>
            <path id="Trazado_837233" data-name="Trazado 837233" d="M8.228,67.529H72.762a.408.408,0,0,0,0-.816H71.723V53.432h.788a.408.408,0,0,0,.408-.408V46.565a.408.408,0,0,0-.408-.408H69.342l-1-13.659a6.388,6.388,0,0,0-1.836-3.531L56.434,17.724V6.193a.408.408,0,0,0-.408-.408H49.3a1.552,1.552,0,0,0-.894-.555,22.131,22.131,0,0,1-7.083-2.989,1.528,1.528,0,0,0-1.665,0A22.131,22.131,0,0,1,32.579,5.23a1.551,1.551,0,0,0-.894.555H24.964a.408.408,0,0,0-.408.408V17.724L14.479,28.967a6.391,6.391,0,0,0-1.837,3.54l-.995,13.65H8.478a.408.408,0,0,0-.408.408v6.459a.408.408,0,0,0,.408.408h.788V66.713H8.228a.408.408,0,1,0,0,.816Zm20.43-14.1a.408.408,0,0,0,.408-.408V50.2H51.924v2.822a.408.408,0,0,0,.408.408h.788V66.713H27.87V53.432ZM70.908,66.713H53.935V53.432H70.908Zm1.2-14.1H52.74V46.973H72.1v5.644Zm-15.63-6.459h-.04v-.048ZM65.9,29.511a5.659,5.659,0,0,1,1.631,3.055l.99,13.59H57.592a8.871,8.871,0,0,1-2.548-6.123A14.037,14.037,0,0,1,55.3,36.4a.409.409,0,0,0-.086-.358l-5.185-6.083a2.241,2.241,0,1,1,3.41-2.907l2.279,2.674L60.043,34.8a.408.408,0,0,0,.621-.529l-4.23-4.963V18.947ZM32.167,6.73a.718.718,0,0,1,.581-.7,22.587,22.587,0,0,0,7.359-3.1.713.713,0,0,1,.776,0,22.587,22.587,0,0,0,7.359,3.1.718.718,0,0,1,.581.7v8.992a9.075,9.075,0,0,1-3.745,7.345l-4.427,3.212a.266.266,0,0,1-.314,0l-4.426-3.212a9.075,9.075,0,0,1-3.745-7.345Zm-6.8-.129h5.991c0,.043-.011.085-.011.129v8.992a9.889,9.889,0,0,0,4.081,8l4.426,3.212a1.08,1.08,0,0,0,1.273,0l4.426-3.212a9.889,9.889,0,0,0,4.081-8V6.73c0-.044-.008-.086-.011-.129h5.991V28.352l-1.561-1.831A3.056,3.056,0,0,0,49.4,30.486l5.055,5.93a15.064,15.064,0,0,0-.231,3.643,10.84,10.84,0,0,0,1.389,4.894v1.2H52.331a.408.408,0,0,0-.408.408v2.822H29.066V46.565a.408.408,0,0,0-.408-.408H25.371V45.043a.4.4,0,0,0-.008-.077,10.833,10.833,0,0,0,1.4-4.907,15.062,15.062,0,0,0-.231-3.643l5.055-5.93a3.056,3.056,0,0,0-4.652-3.965l-1.561,1.831V6.6Zm-.856,39.556.04-.048v.048ZM13.455,32.576a5.662,5.662,0,0,1,1.632-3.064l9.469-10.565V29.309l-4.23,4.963a.408.408,0,0,0,.621.529l4.328-5.077,2.279-2.674a2.241,2.241,0,0,1,3.41,2.907l-5.185,6.083a.407.407,0,0,0-.086.358,14.036,14.036,0,0,1,.252,3.636A8.871,8.871,0,0,1,23.4,46.157H12.465Zm-4.569,14.4H28.25v5.644H8.886V46.973Zm1.2,6.459H27.055V66.713H10.082Z" transform="translate(-7.82 -1.994)" fill="#3f3679"/>
            <path id="Trazado_837234" data-name="Trazado 837234" d="M98.294,110.379h15.014a.408.408,0,0,0,0-.816H98.294a.408.408,0,0,0,0,.816Z" transform="translate(-73.399 -80.317)" fill="#3f3679"/>
            <path id="Trazado_837235" data-name="Trazado 837235" d="M113.308,123.369H98.294a.408.408,0,1,0,0,.816h15.014a.408.408,0,1,0,0-.816Z" transform="translate(-73.399 -90.369)" fill="#3f3679"/>
            <path id="Trazado_837236" data-name="Trazado 837236" d="M113.308,137.175H98.294a.408.408,0,0,0,0,.816h15.014a.408.408,0,1,0,0-.816Z" transform="translate(-73.399 -100.422)" fill="#3f3679"/>
            <path id="Trazado_837237" data-name="Trazado 837237" d="M113.308,150.98H98.294a.408.408,0,0,0,0,.816h15.014a.408.408,0,1,0,0-.816Z" transform="translate(-73.399 -110.473)" fill="#3f3679"/>
            <path id="Trazado_837238" data-name="Trazado 837238" d="M110.395,37.216a6.574,6.574,0,1,0-6.574-6.574A6.581,6.581,0,0,0,110.395,37.216Zm0-12.332a5.758,5.758,0,1,1-5.758,5.758A5.765,5.765,0,0,1,110.395,24.885Z" transform="translate(-77.72 -18.067)" fill="#3f3679"/>
            <path id="Trazado_837239" data-name="Trazado 837239" d="M112.845,39.629l2.608,2.105a.407.407,0,0,0,.563-.049l4.459-5.09a1.461,1.461,0,0,0-.14-2.065,1.469,1.469,0,0,0-2.068.14l-2.859,3.263-.717-.579a1.47,1.47,0,0,0-2.062.216,1.461,1.461,0,0,0,.216,2.059Zm.417-1.545a.653.653,0,0,1,.916-.1l1.022.825a.407.407,0,0,0,.563-.049l3.117-3.558h0a.654.654,0,0,1,.919-.061.645.645,0,0,1,.062.913l-4.2,4.8-2.3-1.859a.646.646,0,0,1-.1-.91Z" transform="translate(-83.894 -25.422)" fill="#3f3679"/>
          </g>
        </g>
      </g>
    </g>
  </g>
</svg>
