<svg id="Grupo_1093399" data-name="Grupo 1093399" xmlns="http://www.w3.org/2000/svg" xmlns:xlink="http://www.w3.org/1999/xlink" width="127" height="105" viewBox="0 0 127 105">
  <defs>
    <linearGradient id="linear-gradient" x1="0.5" x2="0.5" y2="1" gradientUnits="objectBoundingBox">
      <stop offset="0" stop-color="#5cd5fa"/>
      <stop offset="1" stop-color="#7d5ce5"/>
    </linearGradient>
  </defs>
  <rect id="Rectángulo_386874" data-name="Rectángulo 386874" width="127" height="105" rx="15" fill="url(#linear-gradient)"/>
  <g id="simpleline" transform="translate(28.012 17)">
    <rect id="Rectángulo_386911" data-name="Rectángulo 386911" width="59.147" height="4.732" rx="2" transform="translate(5.915 65.085)" fill="#534741"/>
    <path id="Trazado_835329" data-name="Trazado 835329" d="M66.147,59.366a2.366,2.366,0,0,1-2.366,2.366H9.366a2.366,2.366,0,1,1,0-4.732h2.366A2.366,2.366,0,0,0,14.1,59.366Z" transform="translate(-1.085 8.085)" fill="#3f312b"/>
    <rect id="Rectángulo_386912" data-name="Rectángulo 386912" width="68.611" height="37.854" rx="4" transform="translate(1.183 17.768)" fill="#f9c33d"/>
    <path id="Trazado_835330" data-name="Trazado 835330" d="M71.611,50.122a4.732,4.732,0,0,1-4.732,4.732H7.732A4.732,4.732,0,0,1,3,50.122V21.732A4.732,4.732,0,0,1,7.732,17h3.549V45.391a4.732,4.732,0,0,0,4.732,4.732Z" transform="translate(-1.817 0.768)" fill="#f7a83e"/>
    <path id="Trazado_835331" data-name="Trazado 835331" d="M44.293,58.464H23L27.732,49H39.561Z" transform="translate(1.842 6.622)" fill="#534741"/>
    <path id="Trazado_835332" data-name="Trazado 835332" d="M44.293,58.464H23L27.732,49h3.549l-1.834,3.679A2.366,2.366,0,0,0,31.564,56.1H43.11Z" transform="translate(1.842 6.622)" fill="#3f312b"/>
    <path id="Trazado_835333" data-name="Trazado 835333" d="M33.378,4.181,13.339,37.3a2.366,2.366,0,0,0,2.094,3.549H55.511A2.366,2.366,0,0,0,57.6,37.3L37.566,4.181a2.461,2.461,0,0,0-4.188,0Z" transform="translate(0.016 -1.791)" fill="#f7616c"/>
    <path id="Trazado_835334" data-name="Trazado 835334" d="M55.511,40.85H15.433A2.366,2.366,0,0,1,13.339,37.3L33.378,4.179a2.472,2.472,0,0,1,4.188,0l1.183,2L22.8,32.57A2.366,2.366,0,0,0,24.9,36.118h32L57.6,37.3a2.366,2.366,0,0,1-2.094,3.549Z" transform="translate(0.016 -1.79)" fill="#f2354d"/>
    <rect id="Rectángulo_386913" data-name="Rectángulo 386913" width="4.732" height="14.195" rx="2" transform="translate(33.122 10.67)" fill="#fff"/>
    <circle id="Elipse_11130" data-name="Elipse 11130" cx="2.366" cy="2.366" r="2.366" transform="translate(33.122 29.597)" fill="#fff"/>
    <path id="Trazado_835335" data-name="Trazado 835335" d="M63.964,56H9.549a3.549,3.549,0,0,0,0,7.1H63.964a3.549,3.549,0,0,0,0-7.1Zm0,4.732H9.549a1.183,1.183,0,1,1,0-2.366H63.964a1.183,1.183,0,1,1,0,2.366Z" transform="translate(-1.268 7.902)"/>
    <path id="Trazado_835336" data-name="Trazado 835336" d="M29.657,56.22l-1.5,3.016A1.183,1.183,0,1,0,30.26,60.3l2.046-4.081H42.67L44.716,60.3a1.183,1.183,0,0,0,1.053.651,1.1,1.1,0,0,0,.532-.13,1.183,1.183,0,0,0,.52-1.585l-1.5-3.016h7.547a1.183,1.183,0,0,0,0-2.366H7.915a3.549,3.549,0,0,1-3.549-3.549V21.915a3.549,3.549,0,0,1,3.549-3.549H20.549a1.183,1.183,0,0,0,0-2.366H7.915A5.915,5.915,0,0,0,2,21.915V50.305A5.915,5.915,0,0,0,7.915,56.22Z" transform="translate(-2 0.585)"/>
    <path id="Trazado_835337" data-name="Trazado 835337" d="M59.137,16H46.5a1.183,1.183,0,1,0,0,2.366H59.137a3.549,3.549,0,0,1,3.549,3.549V50.305a3.549,3.549,0,0,1-3.549,3.549H56.771a1.183,1.183,0,0,0,0,2.366h2.366a5.915,5.915,0,0,0,5.915-5.915V21.915A5.915,5.915,0,0,0,59.137,16Z" transform="translate(5.925 0.585)"/>
    <path id="Trazado_835338" data-name="Trazado 835338" d="M49.183,48a1.183,1.183,0,0,0,0,2.366h2.366a1.183,1.183,0,0,0,0-2.366Z" transform="translate(6.415 6.439)"/>
    <path id="Trazado_835339" data-name="Trazado 835339" d="M12.451,40.39a3.549,3.549,0,0,0,3.17,1.834H55.7a3.549,3.549,0,0,0,3.17-1.834,3.454,3.454,0,0,0,0-3.549L38.76,3.719a3.632,3.632,0,0,0-6.2,0L12.511,36.841a3.454,3.454,0,0,0-.059,3.549ZM14.533,38.1,34.643,4.973a1.278,1.278,0,0,1,2.153,0L56.906,38.1a1.076,1.076,0,0,1,0,1.183,1.183,1.183,0,0,1-1.1.627H15.622a1.183,1.183,0,0,1-1.1-.627,1.076,1.076,0,0,1,.012-1.183Z" transform="translate(-0.172 -1.98)"/>
    <path id="Trazado_835340" data-name="Trazado 835340" d="M32.549,26.561A3.549,3.549,0,0,0,36.1,23.012V13.549a3.549,3.549,0,0,0-7.1,0v9.464A3.549,3.549,0,0,0,32.549,26.561ZM31.366,13.549a1.183,1.183,0,0,1,2.366,0v9.464a1.183,1.183,0,0,1-2.366,0Z" transform="translate(2.939 -0.513)"/>
    <path id="Trazado_835341" data-name="Trazado 835341" d="M32.549,33.1A3.549,3.549,0,1,0,29,29.549,3.549,3.549,0,0,0,32.549,33.1Zm0-4.732a1.183,1.183,0,1,1-1.183,1.183A1.183,1.183,0,0,1,32.549,28.366Z" transform="translate(2.939 2.414)"/>
  </g>
</svg>
