<svg id="Grupo_1093397" data-name="Grupo 1093397" xmlns="http://www.w3.org/2000/svg" xmlns:xlink="http://www.w3.org/1999/xlink" width="127" height="105" viewBox="0 0 127 105">
  <defs>
    <linearGradient id="linear-gradient" x1="0.5" x2="0.5" y2="1" gradientUnits="objectBoundingBox">
      <stop offset="0" stop-color="#5cd5fa"/>
      <stop offset="1" stop-color="#7d5ce5"/>
    </linearGradient>
  </defs>
  <rect id="Rectángulo_386880" data-name="Rectángulo 386880" width="127" height="105" rx="15" fill="url(#linear-gradient)"/>
  <g id="Layer_2" data-name="Layer 2" transform="translate(27 16)">
    <path id="Trazado_835342" data-name="Trazado 835342" d="M15,7.864V39.478a4.864,4.864,0,0,0,4.864,4.864H49.289a4.863,4.863,0,0,1,2.861.93l11.059,8.043a4.864,4.864,0,0,0,7.724-3.934V7.864A4.864,4.864,0,0,0,66.068,3h-46.2A4.864,4.864,0,0,0,15,7.863Z" transform="translate(0.797 -1.784)" fill="#ffbd5a"/>
    <path id="Trazado_835343" data-name="Trazado 835343" d="M19.865,44.341H48.8a117.026,117.026,0,0,0-11.91-20.671c-6.882-9.177-14.591,0-14.591-9.727A18.587,18.587,0,0,1,26.106,3H19.865A4.864,4.864,0,0,0,15,7.864V39.478a4.864,4.864,0,0,0,4.864,4.864Z" transform="translate(0.797 -1.784)" fill="#e4ad5d"/>
    <path id="Trazado_835344" data-name="Trazado 835344" d="M64.843,42.04v-.959C60.709,47.879,53.266,37,53.266,37H43.2a4.864,4.864,0,0,1,2.861.93l11.059,8.043a4.864,4.864,0,0,0,7.724-3.933Z" transform="translate(6.885 5.557)" fill="#e4ad5d"/>
    <g id="Grupo_1093333" data-name="Grupo 1093333" transform="translate(14.582)">
      <path id="Trazado_835345" data-name="Trazado 835345" d="M66.284,2h-46.2A6.087,6.087,0,0,0,14,8.08V39.694a6.087,6.087,0,0,0,6.08,6.08H49.5a3.627,3.627,0,0,1,2.146.7l11.059,8.043A6.08,6.08,0,0,0,72.364,49.6V8.08A6.087,6.087,0,0,0,66.284,2Zm3.648,47.6a3.648,3.648,0,0,1-5.793,2.95l-9.315-6.774h6.6a1.216,1.216,0,0,0,0-2.432H20.081a3.652,3.652,0,0,1-3.648-3.648V8.08a3.652,3.652,0,0,1,3.648-3.648h46.2A3.652,3.652,0,0,1,69.932,8.08Z" transform="translate(-14.002 -2)" fill="#0b1a2c"/>
      <path id="Trazado_835346" data-name="Trazado 835346" d="M54.08,12.432H49.216a1.216,1.216,0,1,1,0-2.432H54.08a1.216,1.216,0,1,1,0,2.432Z" transform="translate(-6.661 -0.273)" fill="#0b1a2c"/>
      <path id="Trazado_835347" data-name="Trazado 835347" d="M48.651,12.432H29.217a1.216,1.216,0,1,1,0-2.432H48.651a1.216,1.216,0,1,1,0,2.432Z" transform="translate(-10.979 -0.273)" fill="#0b1a2c"/>
      <path id="Trazado_835348" data-name="Trazado 835348" d="M25.649,12.432H23.217a1.216,1.216,0,1,1,0-2.432h2.432a1.216,1.216,0,0,1,0,2.432Z" transform="translate(-12.274 -0.273)" fill="#0b1a2c"/>
      <path id="Trazado_835349" data-name="Trazado 835349" d="M53.432,18.432H52.216a1.216,1.216,0,0,1,0-2.432h1.216a1.216,1.216,0,1,1,0,2.432Z" transform="translate(-6.013 1.023)" fill="#0b1a2c"/>
      <path id="Trazado_835350" data-name="Trazado 835350" d="M42.649,30.432H40.217a1.216,1.216,0,1,1,0-2.432h2.432a1.216,1.216,0,0,1,0,2.432Z" transform="translate(-8.604 3.614)" fill="#0b1a2c"/>
      <path id="Trazado_835351" data-name="Trazado 835351" d="M49.512,18.432h-7.3a1.216,1.216,0,1,1,0-2.432h7.3a1.216,1.216,0,0,1,0,2.432Z" transform="translate(-8.172 1.023)" fill="#0b1a2c"/>
      <path id="Trazado_835352" data-name="Trazado 835352" d="M41.456,18.432H23.217a1.216,1.216,0,0,1,0-2.432H41.456a1.216,1.216,0,0,1,0,2.432Z" transform="translate(-12.274 1.023)" fill="#0b1a2c"/>
      <path id="Trazado_835353" data-name="Trazado 835353" d="M56.67,24.432H37.217a1.216,1.216,0,1,1,0-2.432H56.67a1.216,1.216,0,1,1,0,2.432Z" transform="translate(-9.251 2.318)" fill="#0b1a2c"/>
      <path id="Trazado_835354" data-name="Trazado 835354" d="M54.727,30.432H46.216a1.216,1.216,0,1,1,0-2.432h8.511a1.216,1.216,0,0,1,0,2.432Z" transform="translate(-7.308 3.614)" fill="#0b1a2c"/>
    </g>
    <path id="Trazado_835355" data-name="Trazado 835355" d="M26.775,23.116,3.68,62.369A4.862,4.862,0,0,0,7.871,69.7H54.061a4.862,4.862,0,0,0,4.191-7.328l-23.1-39.253a4.862,4.862,0,0,0-8.382,0Z" transform="translate(-1.793 2.042)" fill="#b72d3e"/>
    <path id="Trazado_835356" data-name="Trazado 835356" d="M22.393,28.2,5.055,57.666a67.106,67.106,0,0,0,8.447,3.12c40.124,12.159,32.829-8.511,32.829-8.511C39.234,32.92,29.741,28.285,22.393,28.2Z" transform="translate(-1.351 3.657)" fill="#f73c4f"/>
    <path id="Trazado_835357" data-name="Trazado 835357" d="M26.865,30a4.866,4.866,0,0,0-4.75,5.917L25.386,50.7a1.515,1.515,0,0,0,2.958,0l3.271-14.778A4.866,4.866,0,0,0,26.865,30Z" transform="translate(2.308 4.046)" fill="#f0f0ff"/>
    <ellipse id="Elipse_11131" data-name="Elipse 11131" cx="3.5" cy="4" rx="3.5" ry="4" transform="translate(26 59)" fill="#f0f0ff"/>
    <path id="Trazado_835358" data-name="Trazado 835358" d="M54.278,71.129H8.086a6.08,6.08,0,0,1-5.239-9.161l23.1-39.253a6.078,6.078,0,0,1,10.477,0l23.1,39.253a6.08,6.08,0,0,1-5.239,9.162Zm-23.1-48.978a3.611,3.611,0,0,0-3.142,1.8h0L4.944,63.2a3.646,3.646,0,0,0,3.142,5.5H54.278a3.647,3.647,0,0,0,3.142-5.5l-23.1-39.253a3.61,3.61,0,0,0-3.142-1.8Zm0,33.168a2.683,2.683,0,0,1-2.667-2.14L25.244,38.4a6.082,6.082,0,1,1,11.876,0L33.85,53.179A2.683,2.683,0,0,1,31.182,55.319Zm0-21.883a3.65,3.65,0,0,0-3.563,4.439l3.271,14.777a.3.3,0,0,0,.584,0l3.271-14.777a3.649,3.649,0,0,0-3.563-4.438Zm0,32.83A4.864,4.864,0,1,1,36.046,61.4,4.864,4.864,0,0,1,31.182,66.266Zm0-7.3A2.432,2.432,0,1,0,33.614,61.4,2.432,2.432,0,0,0,31.182,58.97Z" transform="translate(-2.009 1.826)" fill="#0b1a2c"/>
  </g>
</svg>
