<svg id="Grupo_1093396" data-name="Grupo 1093396" xmlns="http://www.w3.org/2000/svg" xmlns:xlink="http://www.w3.org/1999/xlink" width="127" height="105" viewBox="0 0 127 105">
  <defs>
    <linearGradient id="linear-gradient" x1="0.5" x2="0.5" y2="1" gradientUnits="objectBoundingBox">
      <stop offset="0" stop-color="#5cd5fa"/>
      <stop offset="1" stop-color="#7d5ce5"/>
    </linearGradient>
  </defs>
  <rect id="Rectángulo_386884" data-name="Rectángulo 386884" width="127" height="105" rx="15" fill="url(#linear-gradient)"/>
  <g id="spoofing" transform="translate(22.465 17)">
    <g id="Grupo_1093337" data-name="Grupo 1093337" transform="translate(1.231 1.231)">
      <g id="Grupo_1093336" data-name="Grupo 1093336">
        <path id="Trazado_835395" data-name="Trazado 835395" d="M74.329,68.221c0-10.813-6.13-14.78-10.979-14.78A38.427,38.427,0,0,0,53,55.247a13.159,13.159,0,0,0-24.166,0,38.429,38.429,0,0,0-10.353-1.806C13.63,53.441,7.5,57.408,7.5,68.221c0,27.487,4.029,36.286,11.123,36.286,3.429,0,5.762-1.522,8.581-3.874Z" transform="translate(-7.5 -47.3)" fill="#de5791"/>
        <path id="Trazado_835396" data-name="Trazado 835396" d="M74.329,68.221c0-10.813-6.13-14.78-10.979-14.78A38.427,38.427,0,0,0,53,55.247a13.159,13.159,0,0,0-24.166,0,38.429,38.429,0,0,0-10.353-1.806C13.63,53.441,7.5,57.408,7.5,68.221c0,27.487,4.029,36.286,11.123,36.286,3.429,0,5.762-1.522,8.581-3.874Z" transform="translate(-7.5 -47.3)" fill="#de5791"/>
        <path id="Trazado_835397" data-name="Trazado 835397" d="M7.5,76.162c0,27.487,4.029,36.286,11.123,36.286,3.429,0,5.762-1.522,8.581-3.874l4.251-2.924,5.3-26.685L34.562,56.8a13.4,13.4,0,0,0-5.731,6.388c-.871,2.184-11.963-1.663-11.963-1.663-4.494.8-9.368,4.994-9.368,14.637Z" transform="translate(-7.5 -55.24)" fill="#ee3282"/>
      </g>
      <path id="Trazado_835398" data-name="Trazado 835398" d="M54.538,48.86a13.31,13.31,0,0,1,18.435,6.387,38.429,38.429,0,0,1,10.353-1.806c4.849,0,10.979,3.967,10.979,14.78L51.431,97.709,53,71.418C51.251,63.9,52,53.9,54.538,48.86ZM31.4,68.057a2.4,2.4,0,0,0,2.464,2.625H47.2c-1.642-6.831.739-13.251,1.61-15.435a38.429,38.429,0,0,0-10.353-1.806,9.234,9.234,0,0,0-1.61.143c-.545.1-5.444,3.209-5.444,14.473Z" transform="translate(-27.476 -47.3)" fill="#f96cab"/>
      <path id="Trazado_835399" data-name="Trazado 835399" d="M287.1,120.225c1.232-7.882,1.378-14.108-.352-19.98a17.359,17.359,0,0,0-2.008-4.545c.871,2.184,1.628,7.816.6,14.594Z" transform="translate(-239.217 -87.753)" fill="#de5791"/>
      <path id="Trazado_835400" data-name="Trazado 835400" d="M147.257,132.912a5.181,5.181,0,1,1-9.323-4.52Zm4.479,0a5.181,5.181,0,0,0,9.323-4.52Z" transform="translate(-116.082 -115.077)" fill="#f9c8dc"/>
      <path id="Trazado_835401" data-name="Trazado 835401" d="M54.6,228.552l6.532-9.852H54.6c-5.042,0-9.678.945-14.342,13.815.305,4,.864,7.412,3.116,9.816,1.813,1.936,5.521,1.966,7.83-.19C51.207,233.077,51.287,228.552,54.6,228.552Z" transform="translate(-34.883 -190.556)" fill="#f96cab"/>
      <path id="Trazado_835402" data-name="Trazado 835402" d="M148.69,244.24l-21.082.337V216.1l21.082-6.4Z" transform="translate(-107.886 -183.034)" fill="#a2abb8"/>
      <path id="Trazado_835403" data-name="Trazado 835403" d="M206.119,250.925,147.5,257.585V231.9c0-2.128,1.1-3.293,3.265-3.293h11.083l44.27-11.314Z" transform="translate(-124.512 -189.383)" fill="#c8d2dc"/>
      <path id="Trazado_835404" data-name="Trazado 835404" d="M189.493,411.884l-58.609-6.516-3.276,2.748v4.531a2.455,2.455,0,0,0,2.445,2.463H187.03a2.47,2.47,0,0,0,2.463-2.463Z" transform="translate(-107.886 -346.574)" fill="#c8d2dc"/>
      <path id="Trazado_835405" data-name="Trazado 835405" d="M130.053,174.7a2.455,2.455,0,0,0-2.445,2.463v9.688h3.266l3.53-5.583-3.53-6.568Z" transform="translate(-107.886 -153.781)" fill="#c8d2dc"/>
      <path id="Trazado_835406" data-name="Trazado 835406" d="M203.656,174.7H147.5v12.151h2.869l22.4,18.667a3.736,3.736,0,0,0,4.787,0l28.558-23.824v-4.531A2.47,2.47,0,0,0,203.656,174.7Z" transform="translate(-124.512 -153.781)" fill="#e9edf1"/>
      <path id="Trazado_835407" data-name="Trazado 835407" d="M187.44,327.2l-10.863,9.062a3.736,3.736,0,0,1-4.787,0l-9.884-8.235-14.395,12.009-.01,4.053a2.47,2.47,0,0,0,2.463,2.463H206.12v-3.768Z" transform="translate(-124.513 -281.239)" fill="#e9edf1"/>
      <path id="Trazado_835408" data-name="Trazado 835408" d="M119.16,218.7h3.677a1.232,1.232,0,0,1-1.231,1.232,1.231,1.231,0,1,0,0,2.463,1.231,1.231,0,0,1,0,2.463,1.231,1.231,0,0,0,0,2.463,1.232,1.232,0,0,1,1.231,1.231H119.16a8.14,8.14,0,0,1,0-9.852Z" transform="translate(-99.438 -190.556)" fill="#e175a5"/>
    </g>
    <g id="Grupo_1093338" data-name="Grupo 1093338">
      <path id="Trazado_835409" data-name="Trazado 835409" d="M80.375,60.719H46.488a6.42,6.42,0,0,0,.852-6.909,1.232,1.232,0,0,0-1.645-.571L36.371,57.76a1.232,1.232,0,0,0-.571,1.645,6.4,6.4,0,0,0,.849,1.314H32.667a6.4,6.4,0,0,0,.849-1.314,1.231,1.231,0,0,0-.571-1.645l-9.323-4.521a1.231,1.231,0,0,0-1.645.571,6.42,6.42,0,0,0,.885,6.949,3.694,3.694,0,0,0-3.14,3.655v3.552a11.685,11.685,0,0,0-5.745,1.567C11.5,71.02,9.348,73.738,7.4,77.842A1.232,1.232,0,0,0,9.627,78.9c3.73-7.866,7.19-8.491,11.326-8.491h6.532a1.231,1.231,0,0,0,0-2.463h-5.3v-3.53A1.224,1.224,0,0,1,23.4,63.182H80.375a1.233,1.233,0,0,1,1.231,1.231v3.955L53.491,91.823a2.5,2.5,0,0,1-3.209,0l-17.507-14.6A1.231,1.231,0,1,0,31.2,79.109L48.7,93.714a4.966,4.966,0,0,0,6.365,0L81.607,71.576v2.716a1.231,1.231,0,0,0,2.463,0V64.413A3.7,3.7,0,0,0,80.375,60.719ZM45.484,56.078a3.95,3.95,0,0,1-6.753,3.275Zm-21.651,0,6.753,3.275a3.95,3.95,0,0,1-6.753-3.275ZM84.07,79.218v27.888a3.7,3.7,0,0,1-3.694,3.694H23.4a3.567,3.567,0,0,1-2.594-1.1,4.109,4.109,0,0,1-1.083-3.031V96.877a11.921,11.921,0,0,1-7.367,2.593C8,99.47,4.927,96.633,2.966,90.8.97,84.858,0,75.424,0,61.953c0-5.168,1.381-9.413,3.993-12.275a11.211,11.211,0,0,1,8.217-3.737A37.765,37.765,0,0,1,21.9,47.489a15.22,15.22,0,0,1,2.388-3.331A13.9,13.9,0,0,1,34.658,39.8a13.852,13.852,0,0,1,10.358,4.36,15.156,15.156,0,0,1,2.377,3.328,37.763,37.763,0,0,1,9.689-1.547c4.351,0,10.032,2.88,11.725,11a1.231,1.231,0,1,1-2.411.5C65,50.77,60.509,48.4,57.082,48.4a37.327,37.327,0,0,0-9.964,1.743,1.231,1.231,0,0,1-1.544-.742,11.627,11.627,0,0,0-10.915-7.142,11.678,11.678,0,0,0-10.943,7.149,1.234,1.234,0,0,1-1.542.735A37.446,37.446,0,0,0,12.21,48.4c-3.62,0-9.747,2.854-9.747,13.549,0,10.524.59,18.492,1.8,24.168.32-1.028.645-2,.989-2.979a1.231,1.231,0,1,1,2.322.82c-.722,2.044-1.357,4.1-2.055,6.664,2.088,5.7,4.888,6.381,6.839,6.381,2.8,0,4.79-1.135,7.367-3.238V79.027A1.231,1.231,0,0,1,20.953,77.8h6.532a1.231,1.231,0,1,1,0,2.463h-5.3V99.928L36.357,88.105A1.231,1.231,0,1,1,37.935,90l-15.75,13.139v3.556c0,.016,0,.032,0,.048a1.689,1.689,0,0,0,.4,1.254,1.124,1.124,0,0,0,.819.344H80.375a1.233,1.233,0,0,0,1.231-1.231V103.15L65.839,90a1.231,1.231,0,0,1,1.578-1.891l14.19,11.837V79.218a1.231,1.231,0,0,1,2.463,0ZM19.722,74.1a1.231,1.231,0,0,1,1.231-1.231h6.532a1.231,1.231,0,1,1,0,2.463H20.953A1.231,1.231,0,0,1,19.722,74.1Z" transform="translate(0 -39.8)"/>
    </g>
  </g>
</svg>
