<svg id="Grupo_1093395" data-name="Grupo 1093395" xmlns="http://www.w3.org/2000/svg" xmlns:xlink="http://www.w3.org/1999/xlink" width="127" height="105" viewBox="0 0 127 105">
  <defs>
    <linearGradient id="linear-gradient" x1="0.5" x2="0.5" y2="1" gradientUnits="objectBoundingBox">
      <stop offset="0" stop-color="#5cd5fa"/>
      <stop offset="1" stop-color="#7d5ce5"/>
    </linearGradient>
  </defs>
  <rect id="Rectángulo_386890" data-name="Rectángulo 386890" width="127" height="105" rx="15" fill="url(#linear-gradient)"/>
  <g id="Grupo_1093339" data-name="Grupo 1093339" transform="translate(20.288 12.385)">
    <g id="Grupo_1093339-2" data-name="Grupo 1093339" transform="translate(11.998 17.876)">
      <path id="Trazado_835410" data-name="Trazado 835410" d="M95.345,83.443H89.7v3.773a5.252,5.252,0,0,1-5.252,5.252h-9.8a3.746,3.746,0,0,0-3.368,2.105L68.72,99.842a1.83,1.83,0,0,1-3.29,0l-2.567-5.269A3.746,3.746,0,0,0,59.5,92.468H49.7a5.252,5.252,0,0,1-5.252-5.252V83.443H38.806a4.516,4.516,0,0,0-4.5,4.5v42.408a4.516,4.516,0,0,0,4.5,4.5H95.345a4.516,4.516,0,0,0,4.5-4.5V87.946a4.517,4.517,0,0,0-4.5-4.5Z" transform="translate(-34.303 -83.443)" fill="#6cadef"/>
    </g>
    <g id="Grupo_1093340" data-name="Grupo 1093340" transform="translate(8.152 69.289)">
      <path id="Trazado_835411" data-name="Trazado 835411" d="M94.166,230.435H25.685a2.385,2.385,0,0,0-2.378,2.378A5.706,5.706,0,0,0,29,238.5H90.854a5.706,5.706,0,0,0,5.689-5.689A2.384,2.384,0,0,0,94.166,230.435Z" transform="translate(-23.307 -230.435)" fill="#edf4fc"/>
    </g>
    <g id="Grupo_1093341" data-name="Grupo 1093341" transform="translate(15.496 21.373)">
      <path id="Trazado_835412" data-name="Trazado 835412" d="M101.847,93.443H96.206v.275a5.252,5.252,0,0,1-5.252,5.252h-9.8a3.746,3.746,0,0,0-3.368,2.105l-2.567,5.269a1.83,1.83,0,0,1-3.29,0l-2.567-5.269A3.746,3.746,0,0,0,66,98.97H56.2a5.252,5.252,0,0,1-5.252-5.252v-.275H45.308A1.019,1.019,0,0,0,44.3,94.448v42.408a1.019,1.019,0,0,0,1.005,1.005h56.539a1.019,1.019,0,0,0,1.005-1.005V94.448A1.019,1.019,0,0,0,101.847,93.443Z" transform="translate(-44.303 -93.443)" fill="#f5c84c"/>
    </g>
    <g id="Grupo_1093342" data-name="Grupo 1093342" transform="translate(33.25 69.289)">
      <path id="Trazado_835413" data-name="Trazado 835413" d="M95.062,230.435a4.212,4.212,0,0,0,4.176,3.773h14.69a4.212,4.212,0,0,0,4.176-3.773Z" transform="translate(-95.062 -230.435)" fill="#c7d7e5"/>
    </g>
    <g id="Grupo_1093350" data-name="Grupo 1093350" transform="translate(81.929 39.065)">
      <path id="Trazado_835421" data-name="Trazado 835421" d="M238.706,146.185a2.727,2.727,0,0,1-2.169-2.134c0-.035-.1-.035-.1,0a2.727,2.727,0,0,1-2.169,2.134c-.035,0-.035.07,0,.1a2.727,2.727,0,0,1,2.169,2.134c0,.035.1.035.1,0a2.727,2.727,0,0,1,2.169-2.134C238.741,146.255,238.741,146.185,238.706,146.185Z" transform="translate(-234.238 -144.025)" fill="#87d147"/>
    </g>
    <g id="Grupo_1093351" data-name="Grupo 1093351" transform="translate(0 35.769)">
      <path id="Trazado_835422" data-name="Trazado 835422" d="M1.121,138.762h.8v.8a1.1,1.1,0,0,0,1.119,1.119A1.12,1.12,0,0,0,4.164,139.6v-.839h.8a1.1,1.1,0,0,0,1.119-1.119A1.12,1.12,0,0,0,5,136.524H4.164v-.8A1.1,1.1,0,0,0,3.045,134.6a1.12,1.12,0,0,0-1.119,1.084v.839h-.8A1.1,1.1,0,0,0,0,137.643a1.083,1.083,0,0,0,1.119,1.119h0Z" transform="translate(0 -134.6)" fill="#f5c84c"/>
    </g>
    <g id="Grupo_1093352" data-name="Grupo 1093352" transform="translate(4.552 54.621)">
      <circle id="Elipse_11135" data-name="Elipse 11135" cx="1.189" cy="1.189" r="1.189" fill="#fc657e"/>
    </g>
    <g id="Grupo_1093355" data-name="Grupo 1093355" transform="translate(11.124 17.001)">
      <path id="Trazado_835424" data-name="Trazado 835424" d="M93.719,134.105H37.18a5.383,5.383,0,0,1-5.377-5.377V86.32a5.383,5.383,0,0,1,5.377-5.377H42.5a.874.874,0,0,1,0,1.749H37.18a3.633,3.633,0,0,0-3.629,3.629v42.408a3.632,3.632,0,0,0,3.629,3.628H93.719a3.632,3.632,0,0,0,3.629-3.628V86.32a3.633,3.633,0,0,0-3.629-3.629H88.4a.874.874,0,1,1,0-1.749h5.316A5.383,5.383,0,0,1,99.1,86.32v42.408A5.383,5.383,0,0,1,93.719,134.105Z" transform="translate(-31.803 -80.943)"/>
    </g>
    <g id="Grupo_1093356" data-name="Grupo 1093356" transform="translate(7.278 68.414)">
      <path id="Trazado_835425" data-name="Trazado 835425" d="M89.229,237.751H27.371a6.571,6.571,0,0,1-6.564-6.564,3.256,3.256,0,0,1,3.252-3.253H92.54a3.256,3.256,0,0,1,3.253,3.253A6.571,6.571,0,0,1,89.229,237.751Zm-65.17-8.067a1.505,1.505,0,0,0-1.5,1.5A4.82,4.82,0,0,0,27.371,236H89.229a4.82,4.82,0,0,0,4.815-4.815,1.505,1.505,0,0,0-1.5-1.5Z" transform="translate(-20.807 -227.935)"/>
    </g>
    <g id="Grupo_1093376" data-name="Grupo 1093376" transform="translate(21.792 40.456)">
      <g id="Grupo_1093357" data-name="Grupo 1093357" transform="translate(38.44)">
        <path id="Trazado_835426" data-name="Trazado 835426" d="M178.847,149.749h-5.768a.874.874,0,1,1,0-1.749h5.768a.874.874,0,0,1,0,1.749Z" transform="translate(-172.204 -148)"/>
      </g>
      <g id="Grupo_1093358" data-name="Grupo 1093358" transform="translate(29.715)">
        <path id="Trazado_835427" data-name="Trazado 835427" d="M151.812,149.749h-3.677a.874.874,0,0,1,0-1.749h3.677a.874.874,0,0,1,0,1.749Z" transform="translate(-147.26 -148)"/>
      </g>
      <g id="Grupo_1093359" data-name="Grupo 1093359" transform="translate(7.256)">
        <path id="Trazado_835428" data-name="Trazado 835428" d="M101.407,149.749H83.923a.874.874,0,1,1,0-1.749h17.484a.874.874,0,1,1,0,1.749Z" transform="translate(-83.049 -148)"/>
      </g>
      <g id="Grupo_1093360" data-name="Grupo 1093360">
        <path id="Trazado_835429" data-name="Trazado 835429" d="M66.54,149.749H63.178a.874.874,0,0,1,0-1.749H66.54a.874.874,0,1,1,0,1.749Z" transform="translate(-62.304 -148)"/>
      </g>
      <g id="Grupo_1093361" data-name="Grupo 1093361" transform="translate(27.656 4.606)">
        <path id="Trazado_835430" data-name="Trazado 835430" d="M158.8,162.917H142.247a.874.874,0,1,1,0-1.749H158.8a.874.874,0,1,1,0,1.749Z" transform="translate(-141.373 -161.168)"/>
      </g>
      <g id="Grupo_1093362" data-name="Grupo 1093362" transform="translate(7.256 4.606)">
        <path id="Trazado_835431" data-name="Trazado 835431" d="M99.341,162.917H83.923a.874.874,0,1,1,0-1.749H99.341a.874.874,0,0,1,0,1.749Z" transform="translate(-83.049 -161.168)"/>
      </g>
      <g id="Grupo_1093363" data-name="Grupo 1093363" transform="translate(0 4.606)">
        <path id="Trazado_835432" data-name="Trazado 835432" d="M66.54,162.917H63.178a.874.874,0,1,1,0-1.749H66.54a.874.874,0,1,1,0,1.749Z" transform="translate(-62.304 -161.168)"/>
      </g>
      <g id="Grupo_1093364" data-name="Grupo 1093364" transform="translate(38.44 9.212)">
        <path id="Trazado_835433" data-name="Trazado 835433" d="M178.847,176.086h-5.768a.874.874,0,1,1,0-1.749h5.768a.874.874,0,0,1,0,1.749Z" transform="translate(-172.204 -174.337)"/>
      </g>
      <g id="Grupo_1093365" data-name="Grupo 1093365" transform="translate(19.075 9.212)">
        <path id="Trazado_835434" data-name="Trazado 835434" d="M132.033,176.086H117.715a.874.874,0,1,1,0-1.749h14.317a.874.874,0,1,1,0,1.749Z" transform="translate(-116.841 -174.337)"/>
      </g>
      <g id="Grupo_1093366" data-name="Grupo 1093366" transform="translate(7.256 9.212)">
        <path id="Trazado_835435" data-name="Trazado 835435" d="M90.892,176.086H83.923a.874.874,0,1,1,0-1.749h6.968a.874.874,0,1,1,0,1.749Z" transform="translate(-83.049 -174.337)"/>
      </g>
      <g id="Grupo_1093367" data-name="Grupo 1093367" transform="translate(0 9.212)">
        <path id="Trazado_835436" data-name="Trazado 835436" d="M66.54,176.086H63.178a.874.874,0,0,1,0-1.749H66.54a.874.874,0,1,1,0,1.749Z" transform="translate(-62.304 -174.337)"/>
      </g>
      <g id="Grupo_1093368" data-name="Grupo 1093368" transform="translate(35.94 13.818)">
        <path id="Trazado_835437" data-name="Trazado 835437" d="M174.2,189.254h-8.268a.874.874,0,1,1,0-1.749H174.2a.874.874,0,1,1,0,1.749Z" transform="translate(-165.058 -187.505)"/>
      </g>
      <g id="Grupo_1093369" data-name="Grupo 1093369" transform="translate(22.144 13.818)">
        <path id="Trazado_835438" data-name="Trazado 835438" d="M135.442,189.254h-8.953a.874.874,0,1,1,0-1.749h8.953a.874.874,0,1,1,0,1.749Z" transform="translate(-125.615 -187.505)"/>
      </g>
      <g id="Grupo_1093370" data-name="Grupo 1093370" transform="translate(7.256 13.818)">
        <path id="Trazado_835439" data-name="Trazado 835439" d="M94.013,189.254H83.923a.874.874,0,1,1,0-1.749H94.013a.874.874,0,1,1,0,1.749Z" transform="translate(-83.049 -187.505)"/>
      </g>
      <g id="Grupo_1093371" data-name="Grupo 1093371" transform="translate(0 13.818)">
        <path id="Trazado_835440" data-name="Trazado 835440" d="M66.54,189.254H63.178a.874.874,0,1,1,0-1.749H66.54a.874.874,0,1,1,0,1.749Z" transform="translate(-62.304 -187.505)"/>
      </g>
      <g id="Grupo_1093372" data-name="Grupo 1093372" transform="translate(41.372 18.424)">
        <path id="Trazado_835441" data-name="Trazado 835441" d="M184.3,202.423h-2.836a.874.874,0,1,1,0-1.749H184.3a.874.874,0,0,1,0,1.749Z" transform="translate(-180.587 -200.674)"/>
      </g>
      <g id="Grupo_1093373" data-name="Grupo 1093373" transform="translate(29.715 18.424)">
        <path id="Trazado_835442" data-name="Trazado 835442" d="M154.361,202.423h-6.225a.874.874,0,1,1,0-1.749h6.225a.874.874,0,1,1,0,1.749Z" transform="translate(-147.261 -200.674)"/>
      </g>
      <g id="Grupo_1093374" data-name="Grupo 1093374" transform="translate(7.256 18.424)">
        <path id="Trazado_835443" data-name="Trazado 835443" d="M101.407,202.423H83.923a.874.874,0,1,1,0-1.749h17.484a.874.874,0,1,1,0,1.749Z" transform="translate(-83.049 -200.674)"/>
      </g>
      <g id="Grupo_1093375" data-name="Grupo 1093375" transform="translate(0 18.424)">
        <path id="Trazado_835444" data-name="Trazado 835444" d="M66.54,202.423H63.178a.874.874,0,1,1,0-1.749H66.54a.874.874,0,1,1,0,1.749Z" transform="translate(-62.304 -200.674)"/>
      </g>
    </g>
    <g id="Grupo_1093382" data-name="Grupo 1093382" transform="translate(14.621 20.499)">
      <path id="Trazado_835450" data-name="Trazado 835450" d="M100.221,137.11H43.683a1.882,1.882,0,0,1-1.88-1.88V92.823a1.882,1.882,0,0,1,1.88-1.88h5.185a.874.874,0,1,1,0,1.749H43.683a.146.146,0,0,0-.131.131V135.23a.146.146,0,0,0,.131.131h56.539a.145.145,0,0,0,.131-.131V92.823a.146.146,0,0,0-.131-.131h-5.25a.874.874,0,1,1,0-1.749h5.25a1.882,1.882,0,0,1,1.88,1.88V135.23A1.882,1.882,0,0,1,100.221,137.11Z" transform="translate(-41.803 -90.943)"/>
    </g>
    <g id="Grupo_1093383" data-name="Grupo 1093383" transform="translate(32.403 68.632)">
      <path id="Trazado_835451" data-name="Trazado 835451" d="M112.354,233.861H97.663a5.109,5.109,0,0,1-5.012-4.3.874.874,0,1,1,1.728-.269,3.348,3.348,0,0,0,3.284,2.815h14.69a3.323,3.323,0,0,0,3.271-2.736.874.874,0,1,1,1.721.31A5.069,5.069,0,0,1,112.354,233.861Z" transform="translate(-92.641 -228.557)"/>
    </g>
    <g id="Grupo_1093391" data-name="Grupo 1093391" transform="translate(21.267)">
      <g id="Grupo_1093343" data-name="Grupo 1093343" transform="translate(5.49 38.17)">
        <path id="Trazado_835414" data-name="Trazado 835414" d="M78.828,117.573H110.2a2.328,2.328,0,0,0,2.328-2.328v-5.837a2.333,2.333,0,0,0-.018-.277,5.248,5.248,0,0,1-.619.04h-9.8a3.746,3.746,0,0,0-3.368,2.105l-2.567,5.269a1.83,1.83,0,0,1-3.29,0L90.3,111.276a3.746,3.746,0,0,0-3.368-2.105h-9.8a5.248,5.248,0,0,1-.619-.04,2.33,2.33,0,0,0-.018.277v5.837a2.328,2.328,0,0,0,2.328,2.328Z" transform="translate(-76.5 -109.131)" fill="#fcdd86"/>
      </g>
      <g id="Grupo_1093344" data-name="Grupo 1093344" transform="translate(0.875 0.874)">
        <path id="Trazado_835415" data-name="Trazado 835415" d="M103.31,2.5H68.558a5.252,5.252,0,0,0-5.252,5.252V34.584a5.252,5.252,0,0,0,5.252,5.252h9.8a3.746,3.746,0,0,1,3.368,2.105l2.567,5.269a1.83,1.83,0,0,0,3.29,0l2.567-5.269a3.746,3.746,0,0,1,3.368-2.105h9.8a5.252,5.252,0,0,0,5.252-5.252V7.752A5.252,5.252,0,0,0,103.31,2.5Z" transform="translate(-63.306 -2.5)" fill="#fc3d5c"/>
      </g>
      <g id="Grupo_1093345" data-name="Grupo 1093345" transform="translate(15.364 11.821)">
        <path id="Trazado_835416" data-name="Trazado 835416" d="M121.008,41.1c0-3.794-3.644-7.3-8.139-7.3s-8.139,3.505-8.139,7.3a6.356,6.356,0,0,0,2.387,4.855,1.95,1.95,0,0,1,.665,1.5v.838a1.8,1.8,0,0,0,1.78,1.827h6.613a1.8,1.8,0,0,0,1.78-1.827v-.838a1.95,1.95,0,0,1,.665-1.5,6.356,6.356,0,0,0,2.387-4.855Z" transform="translate(-104.73 -33.798)" fill="#edf4fc"/>
      </g>
      <g id="Grupo_1093346" data-name="Grupo 1093346" transform="translate(28.04 6.404)">
        <path id="Trazado_835417" data-name="Trazado 835417" d="M142.757,23.242l-1.786,1.786a8.146,8.146,0,0,1,2.378,2.254l1.726-1.726a.766.766,0,0,1,1.011-.079,2.419,2.419,0,1,0,1.722-4.3.738.738,0,0,1-.665-.665,2.418,2.418,0,1,0-4.306,1.721A.768.768,0,0,1,142.757,23.242Z" transform="translate(-140.971 -18.31)" fill="#edf4fc"/>
      </g>
      <g id="Grupo_1093347" data-name="Grupo 1093347" transform="translate(9.932 6.404)">
        <path id="Trazado_835418" data-name="Trazado 835418" d="M93.119,25.476a.766.766,0,0,1,1.011.079l1.726,1.726a8.142,8.142,0,0,1,2.378-2.254l-1.786-1.786a.768.768,0,0,1-.08-1.014,2.419,2.419,0,1,0-4.306-1.721.738.738,0,0,1-.665.665,2.418,2.418,0,1,0,1.722,4.3Z" transform="translate(-89.2 -18.309)" fill="#edf4fc"/>
      </g>
      <g id="Grupo_1093348" data-name="Grupo 1093348" transform="translate(28.374 23.709)">
        <path id="Trazado_835419" data-name="Trazado 835419" d="M146.709,70.455a.766.766,0,0,1-1.011-.079l-2.591-2.591c-.1.091-.2.18-.3.266a1.95,1.95,0,0,0-.665,1.5v.838a1.846,1.846,0,0,1-.215.854l1.452,1.452a.768.768,0,0,1,.08,1.014,2.419,2.419,0,1,0,4.306,1.72.738.738,0,0,1,.665-.665,2.418,2.418,0,1,0-1.722-4.3Z" transform="translate(-141.928 -67.785)" fill="#edf4fc"/>
      </g>
      <g id="Grupo_1093349" data-name="Grupo 1093349" transform="translate(9.932 23.709)">
        <path id="Trazado_835420" data-name="Trazado 835420" d="M96.447,72.69,97.9,71.239a1.846,1.846,0,0,1-.215-.854v-.838a1.95,1.95,0,0,0-.665-1.5c-.1-.086-.2-.175-.3-.266l-2.591,2.591a.766.766,0,0,1-1.011.079,2.419,2.419,0,1,0-1.722,4.3.738.738,0,0,1,.665.665,2.418,2.418,0,1,0,4.306-1.72A.768.768,0,0,1,96.447,72.69Z" transform="translate(-89.199 -67.785)" fill="#edf4fc"/>
      </g>
      <g id="Grupo_1093377" data-name="Grupo 1093377" transform="translate(24.525 17.995)">
        <path id="Trazado_835445" data-name="Trazado 835445" d="M132.488,54.577a.874.874,0,0,1-.618-.256l-.69-.69a.874.874,0,0,1,.342-1.448l2.07-.69a.874.874,0,0,1,.9,1.448l-1.379,1.38A.874.874,0,0,1,132.488,54.577Z" transform="translate(-130.924 -51.448)"/>
      </g>
      <g id="Grupo_1093378" data-name="Grupo 1093378" transform="translate(18.661 17.995)">
        <path id="Trazado_835446" data-name="Trazado 835446" d="M116.412,54.577a.872.872,0,0,1-.618-.256l-1.38-1.38a.874.874,0,0,1,.895-1.448l2.07.69a.874.874,0,0,1,.342,1.448l-.69.69A.872.872,0,0,1,116.412,54.577Z" transform="translate(-114.157 -51.448)"/>
      </g>
      <g id="Grupo_1093379" data-name="Grupo 1093379" transform="translate(24.318 25.485)">
        <path id="Trazado_835447" data-name="Trazado 835447" d="M131.206,75.963a.874.874,0,0,1-.874-.874V73.736a.874.874,0,1,1,1.749,0v1.352A.875.875,0,0,1,131.206,75.963Z" transform="translate(-130.332 -72.862)"/>
      </g>
      <g id="Grupo_1093380" data-name="Grupo 1093380" transform="translate(21.926 21.399)">
        <path id="Trazado_835448" data-name="Trazado 835448" d="M125.771,63.687a.872.872,0,0,1-.646-.285l-.057-.063-.057.063a.874.874,0,1,1-1.291-1.179l.7-.77a.9.9,0,0,1,1.291,0l.7.77a.874.874,0,0,1-.645,1.464Z" transform="translate(-123.49 -61.181)"/>
      </g>
      <g id="Grupo_1093381" data-name="Grupo 1093381" transform="translate(20.938 25.485)">
        <path id="Trazado_835449" data-name="Trazado 835449" d="M121.542,75.963a.874.874,0,0,1-.874-.874V73.736a.874.874,0,1,1,1.749,0v1.352A.875.875,0,0,1,121.542,75.963Z" transform="translate(-120.668 -72.862)"/>
      </g>
      <g id="Grupo_1093384" data-name="Grupo 1093384" transform="translate(4.616 37.573)">
        <path id="Trazado_835452" data-name="Trazado 835452" d="M108.573,117.337H77.2a3.206,3.206,0,0,1-3.2-3.2V108.3a.874.874,0,0,1,1.749,0v5.837a1.455,1.455,0,0,0,1.454,1.454h31.37a1.455,1.455,0,0,0,1.453-1.454V108.3a.874.874,0,0,1,1.749,0v5.837A3.206,3.206,0,0,1,108.573,117.337Z" transform="translate(-74 -107.423)"/>
      </g>
      <g id="Grupo_1093385" data-name="Grupo 1093385">
        <path id="Trazado_835453" data-name="Trazado 835453" d="M84.308,47.487a2.686,2.686,0,0,1-2.431-1.52L79.31,40.7a2.888,2.888,0,0,0-2.581-1.614h-9.8a6.134,6.134,0,0,1-6.127-6.127V6.127A6.134,6.134,0,0,1,66.932,0h34.751a6.134,6.134,0,0,1,6.127,6.127V32.958a6.134,6.134,0,0,1-6.127,6.127h-9.8A2.889,2.889,0,0,0,89.306,40.7l-2.567,5.269A2.685,2.685,0,0,1,84.308,47.487ZM66.932,1.749a4.383,4.383,0,0,0-4.378,4.378V32.958a4.383,4.383,0,0,0,4.378,4.378h9.8a4.648,4.648,0,0,1,4.154,2.6L83.449,45.2a.955.955,0,0,0,1.718,0l2.567-5.269a4.648,4.648,0,0,1,4.153-2.6h9.8a4.383,4.383,0,0,0,4.378-4.378V6.127a4.383,4.383,0,0,0-4.378-4.378Z" transform="translate(-60.805 0)"/>
      </g>
      <g id="Grupo_1093386" data-name="Grupo 1093386" transform="translate(14.489 10.947)">
        <path id="Trazado_835454" data-name="Trazado 835454" d="M114.55,49.361h-6.613a2.682,2.682,0,0,1-2.655-2.7v-.839a1.082,1.082,0,0,0-.354-.826,7.191,7.191,0,0,1-2.7-5.524c0-4.431,4.128-8.173,9.014-8.173s9.014,3.743,9.014,8.173a7.19,7.19,0,0,1-2.7,5.524,1.083,1.083,0,0,0-.354.827v.838A2.682,2.682,0,0,1,114.55,49.361Zm-3.307-16.315c-3.87,0-7.265,3-7.265,6.424a5.472,5.472,0,0,0,2.077,4.187,2.811,2.811,0,0,1,.976,2.164v.838a.931.931,0,0,0,.906.953h6.613a.931.931,0,0,0,.906-.953v-.838a2.812,2.812,0,0,1,.975-2.164,5.473,5.473,0,0,0,2.077-4.187C118.508,36.049,115.113,33.046,111.244,33.046Z" transform="translate(-102.23 -31.298)"/>
      </g>
      <g id="Grupo_1093387" data-name="Grupo 1093387" transform="translate(27.385 5.526)">
        <path id="Trazado_835455" data-name="Trazado 835455" d="M142.37,26.287a.874.874,0,0,1-.618-1.493l1.489-1.489a1.633,1.633,0,0,1,2.175-.144,1.544,1.544,0,1,0,1.1-2.751,1.609,1.609,0,0,1-1.456-1.456,1.544,1.544,0,1,0-2.751,1.1,1.638,1.638,0,0,1-.145,2.178L140.592,23.8a.874.874,0,1,1-1.236-1.237l1.51-1.511a3.293,3.293,0,1,1,5.919-2.366,3.293,3.293,0,1,1-2.366,5.919l-1.431,1.43A.874.874,0,0,1,142.37,26.287Z" transform="translate(-139.099 -15.799)"/>
      </g>
      <g id="Grupo_1093388" data-name="Grupo 1093388" transform="translate(9.053 5.525)">
        <path id="Trazado_835456" data-name="Trazado 835456" d="M93.99,26.292a.872.872,0,0,1-.618-.256L91.935,24.6a3.293,3.293,0,1,1-2.367-5.919,3.293,3.293,0,1,1,5.919,2.366l1.526,1.526a.874.874,0,0,1-1.236,1.236l-1.583-1.583a1.637,1.637,0,0,1-.146-2.178,1.544,1.544,0,1,0-2.751-1.1,1.609,1.609,0,0,1-1.456,1.456,1.544,1.544,0,1,0,1.1,2.75,1.634,1.634,0,0,1,2.175.144l1.5,1.5a.875.875,0,0,1-.618,1.494Z" transform="translate(-86.686 -15.798)"/>
      </g>
      <g id="Grupo_1093389" data-name="Grupo 1093389" transform="translate(27.689 23.009)">
        <path id="Trazado_835457" data-name="Trazado 835457" d="M144.083,77.2a3.3,3.3,0,0,1-2.653-5.248l-1.207-1.207a.874.874,0,1,1,1.236-1.236l1.263,1.263a1.637,1.637,0,0,1,.146,2.178,1.544,1.544,0,1,0,2.751,1.1,1.611,1.611,0,0,1,1.456-1.457,1.544,1.544,0,1,0-1.1-2.751,1.635,1.635,0,0,1-2.175-.144l-2.417-2.418a.874.874,0,0,1,1.236-1.236l2.359,2.359a3.294,3.294,0,1,1,2.367,5.919,3.308,3.308,0,0,1-1.361,2.272A3.268,3.268,0,0,1,144.083,77.2Zm-2.6-5.192h0Z" transform="translate(-139.966 -65.782)"/>
      </g>
      <g id="Grupo_1093390" data-name="Grupo 1093390" transform="translate(9.053 22.973)">
        <path id="Trazado_835458" data-name="Trazado 835458" d="M92.836,77.133a3.266,3.266,0,0,1-1.9-.61A3.309,3.309,0,0,1,89.57,74.25,3.31,3.31,0,0,1,87.3,72.885a3.294,3.294,0,0,1,4.642-4.554l2.394-2.394a.875.875,0,0,1,1.237,1.237l-2.453,2.453a1.634,1.634,0,0,1-2.176.144,1.533,1.533,0,0,0-1.177-.314,1.544,1.544,0,0,0,.08,3.065A1.61,1.61,0,0,1,91.3,73.978a1.544,1.544,0,1,0,2.752-1.1A1.637,1.637,0,0,1,94.2,70.7l1.34-1.34A.874.874,0,0,1,96.773,70.6L95.49,71.884a3.3,3.3,0,0,1-2.654,5.249Z" transform="translate(-86.688 -65.681)"/>
      </g>
    </g>
  </g>
</svg>
