<svg xmlns="http://www.w3.org/2000/svg" width="85" height="82" viewBox="0 0 85 82">
  <g id="Grupo_1093678" data-name="Grupo 1093678" transform="translate(-602 -498)">
    <rect id="Rectángulo_381854" data-name="Rectángulo 381854" width="85" height="82" rx="4" transform="translate(602 498)" fill="#1e5af9"/>
    <g id="Grupo_1093673" data-name="Grupo 1093673" transform="translate(-890.1 18.064)">
      <g id="seguridad" transform="translate(1508.466 495)">
        <path id="Trazado_835932" data-name="Trazado 835932" d="M138.863,238.933H113.409a2.477,2.477,0,0,0-2.477,2.477h0v20.982a2.477,2.477,0,0,0,2.477,2.477h25.453a2.477,2.477,0,0,0,2.477-2.477h0V241.41a2.477,2.477,0,0,0-2.477-2.477Zm.689,18.781v4.472a.894.894,0,0,1-.894.894H127.406l-.635.635a.894.894,0,0,1-.635.259h-.09a.894.894,0,0,1-.653-.4l-.331-.492H115.69a2.96,2.96,0,0,1-2.969-2.951V241.616a.894.894,0,0,1,.894-.894h9.31a6.207,6.207,0,0,1,6.421,0H136.5a3.05,3.05,0,0,1,3.05,3.05v13.943Z" transform="translate(-99.306 -214.786)" fill="#ff7d00"/>
        <g id="Grupo_1093673-2" data-name="Grupo 1093673" transform="translate(42.034 9.838)">
          <rect id="Rectángulo_387096" data-name="Rectángulo 387096" width="1.789" height="4.472" transform="translate(9.838 29.514)" fill="#12263f"/>
          <rect id="Rectángulo_387097" data-name="Rectángulo 387097" width="1.789" height="4.472" transform="translate(9.838 15.204)" fill="#12263f"/>
          <path id="Trazado_835933" data-name="Trazado 835933" d="M472.015,318.416v-.894h-.894v.894Zm.894,1.789h-2.683a.894.894,0,0,1-.894-.894v-2.683a.894.894,0,0,1,.894-.894h2.683a.894.894,0,0,1,.894.894v2.683A.894.894,0,0,1,472.909,320.2Z" transform="translate(-462.177 -293.374)" fill="#12263f"/>
          <path id="Trazado_835934" data-name="Trazado 835934" d="M472.015,454.948v-.894h-.894v.894Zm.894,1.789h-2.683a.894.894,0,0,1-.894-.894v-2.683a.894.894,0,0,1,.894-.894h2.683a.894.894,0,0,1,.894.894v2.683A.894.894,0,0,1,472.909,456.737Z" transform="translate(-462.177 -415.597)" fill="#12263f"/>
          <rect id="Rectángulo_387098" data-name="Rectángulo 387098" width="1.789" height="4.472" transform="translate(6.261 0)" fill="#12263f"/>
          <path id="Trazado_835935" data-name="Trazado 835935" d="M453.16,170.666h2.683a.894.894,0,0,1,.894.894v2.683a.894.894,0,0,1-.894.894H453.16a.894.894,0,0,1-.894-.894V171.56A.894.894,0,0,1,453.16,170.666Zm1.789,2.683v-.894h-.894v.894Z" transform="translate(-446.9 -163.511)" fill="#12263f"/>
          <rect id="Rectángulo_387099" data-name="Rectángulo 387099" width="1.789" height="4.472" transform="translate(3.577 36.668)" fill="#12263f"/>
          <rect id="Rectángulo_387100" data-name="Rectángulo 387100" width="1.789" height="4.472" transform="translate(3.577 22.358)" fill="#12263f"/>
          <path id="Trazado_835936" data-name="Trazado 835936" d="M437.882,250.149v-.894h-.894v.894Zm.894,1.789h-2.683a.894.894,0,0,1-.894-.894V248.36a.894.894,0,0,1,.894-.894h2.683a.894.894,0,0,1,.894.894v2.683A.894.894,0,0,1,438.777,251.938Z" transform="translate(-431.621 -232.262)" fill="#12263f"/>
          <path id="Trazado_835937" data-name="Trazado 835937" d="M437.882,386.683v-.894h-.894v.894Zm.894,1.789h-2.683a.894.894,0,0,1-.894-.894v-2.683a.894.894,0,0,1,.894-.894h2.683a.894.894,0,0,1,.894.894v2.683A.894.894,0,0,1,438.777,388.472Z" transform="translate(-431.621 -354.486)" fill="#12263f"/>
          <rect id="Rectángulo_387101" data-name="Rectángulo 387101" width="1.789" height="4.472" transform="translate(1.789 7.155)" fill="#12263f"/>
          <path id="Trazado_835938" data-name="Trazado 835938" d="M403.748,105.083v-.894h-.894v.894Zm1.789-1.789v2.683a.894.894,0,0,1-.894.894h-2.683a.894.894,0,0,1-.894-.894v-2.683a.894.894,0,0,1,.894-.894h2.683A.894.894,0,0,1,405.537,103.294Z" transform="translate(-401.065 -102.4)" fill="#12263f"/>
        </g>
        <path id="Trazado_835939" data-name="Trazado 835939" d="M280.263,259.05v13.943h-1.789v3.577H274.9v1.789h-6.779l2.942-2.943a.894.894,0,0,0,.005-1.265l-.005-.005-1.163-1.154,1.163-1.154a.894.894,0,0,0,.005-1.265l-.005-.005-1.53-1.52v-2.03a6.26,6.26,0,0,0,3.577-5.652,4.932,4.932,0,0,0,0-.635,3.033,3.033,0,0,0-.081-.572v-.134l-.17-.447a6.81,6.81,0,0,0-.447-1.091,1.481,1.481,0,0,0-.125-.233l-.072-.1a3.307,3.307,0,0,0-.385-.563h0a3.474,3.474,0,0,0-.241-.3q-.125-.143-.268-.3a2.675,2.675,0,0,0-.286-.268,2.444,2.444,0,0,0-.3-.25h0a5.776,5.776,0,0,0-.671-.483h7.155A3.05,3.05,0,0,1,280.263,259.05Z" transform="translate(-240.017 -230.064)" fill="#f90"/>
        <path id="Trazado_835940" data-name="Trazado 835940" d="M337.272,423.5H332.8V421.71h3.577v-3.577h1.789V422.6A.894.894,0,0,1,337.272,423.5Z" transform="translate(-297.92 -375.204)" fill="#12263f"/>
        <g id="Grupo_1093674" data-name="Grupo 1093674" transform="translate(30.703 26.392)">
          <path id="Trazado_835941" data-name="Trazado 835941" d="M308.007,277.907c0-.08-.08-.152-.125-.233A1.476,1.476,0,0,1,308.007,277.907Z" transform="translate(-306.317 -275.859)" fill="#f90"/>
          <path id="Trazado_835942" data-name="Trazado 835942" d="M303.531,271.189a3.3,3.3,0,0,1,.385.563A3.919,3.919,0,0,0,303.531,271.189Z" transform="translate(-302.422 -270.053)" fill="#f90"/>
          <path id="Trazado_835943" data-name="Trazado 835943" d="M301.056,268.118a3.5,3.5,0,0,1,.241.3A3.468,3.468,0,0,0,301.056,268.118Z" transform="translate(-300.206 -267.304)" fill="#f90"/>
          <path id="Trazado_835944" data-name="Trazado 835944" d="M295.765,262.742a2.7,2.7,0,0,1,.286.268Z" transform="translate(-295.47 -262.492)" fill="#f90"/>
          <path id="Trazado_835945" data-name="Trazado 835945" d="M293.244,260.6l-.3-.25A2.42,2.42,0,0,1,293.244,260.6Z" transform="translate(-292.949 -260.353)" fill="#f90"/>
        </g>
        <rect id="Rectángulo_387102" data-name="Rectángulo 387102" width="1.789" height="4.472" transform="translate(28.62 9.838)" fill="#12263f"/>
        <path id="Trazado_835946" data-name="Trazado 835946" d="M287.337,256.419c-.2-.143-.4-.286-.617-.42A5.792,5.792,0,0,1,287.337,256.419Z" transform="translate(-256.67 -230.063)" fill="#f90"/>
        <path id="Trazado_835947" data-name="Trazado 835947" d="M258.682,173.349v-.894h-.894v.894Zm.894-2.683a.894.894,0,0,1,.894.894v2.683a.894.894,0,0,1-.894.894h-2.683a.894.894,0,0,1-.894-.894V171.56a.894.894,0,0,1,.894-.894Z" transform="translate(-229.169 -153.673)" fill="#12263f"/>
        <path id="Trazado_835948" data-name="Trazado 835948" d="M156.693,28.282a8.944,8.944,0,0,0-8.943,8.943v8.943h-2.683V37.226a11.627,11.627,0,1,1,23.253,0v8.943h-2.683V37.226A8.944,8.944,0,0,0,156.693,28.282Z" transform="translate(-129.862 -23.81)" fill="#fff8ef"/>
        <path id="Trazado_835949" data-name="Trazado 835949" d="M174.168,53.809V44.865a9.838,9.838,0,1,0-19.676,0v8.943H153.6V44.865a10.732,10.732,0,0,1,21.464,0v8.943Z" transform="translate(-137.5 -31.45)" fill="#e0cbb5"/>
        <g id="Grupo_1093675" data-name="Grupo 1093675" transform="translate(23.253 16.993)">
          <path id="Trazado_835950" data-name="Trazado 835950" d="M233.977,275.749a.894.894,0,1,0-.894.894A.894.894,0,0,0,233.977,275.749Zm-.894-2.683a2.683,2.683,0,1,1-2.683,2.683A2.683,2.683,0,0,1,233.082,273.066Z" transform="translate(-229.504 -262.334)" fill="#12263f"/>
          <rect id="Rectángulo_387103" data-name="Rectángulo 387103" width="1.789" height="4.472" fill="#12263f"/>
        </g>
        <path id="Trazado_835951" data-name="Trazado 835951" d="M217.8,270.771a2.683,2.683,0,1,0-2.683-2.683A2.683,2.683,0,0,0,217.8,270.771Zm-4.472-1.789a4.472,4.472,0,1,1,5.965,4.212.894.894,0,0,0-.6.841v3a.894.894,0,0,0,.259.635l1.163,1.154-1.163,1.154a.894.894,0,0,0-.005,1.265l.005.005,1.163,1.154-2.173,2.173-1.037-1.547v-8.988a.894.894,0,0,0-.6-.841A4.472,4.472,0,0,1,213.333,268.982Z" transform="translate(-190.974 -237.68)" fill="#fff8ef"/>
        <path id="Trazado_835952" data-name="Trazado 835952" d="M216.016,104.188h-.894v.894h.894Zm.894,2.683h-2.683a.894.894,0,0,1-.894-.894v-2.683a.894.894,0,0,1,.894-.894h2.683a.894.894,0,0,1,.894.894v2.683A.9.9,0,0,1,216.91,106.871Z" transform="translate(-190.974 -92.561)" fill="#12263f"/>
        <g id="Grupo_1093676" data-name="Grupo 1093676" transform="translate(13.415 25.936)">
          <path id="Trazado_835953" data-name="Trazado 835953" d="M219.477,256.419a4.618,4.618,0,0,1,.608-.42A6.15,6.15,0,0,0,219.477,256.419Z" transform="translate(-209.89 -255.999)" fill="#f90"/>
          <path id="Trazado_835954" data-name="Trazado 835954" d="M216.53,260.351l-.3.25A2.461,2.461,0,0,1,216.53,260.351Z" transform="translate(-206.987 -259.895)" fill="#f90"/>
          <path id="Trazado_835955" data-name="Trazado 835955" d="M213.79,262.742l-.286.268A2.662,2.662,0,0,1,213.79,262.742Z" transform="translate(-204.543 -262.035)" fill="#f90"/>
          <path id="Trazado_835956" data-name="Trazado 835956" d="M208.882,268.118a3.5,3.5,0,0,0-.241.3A1.781,1.781,0,0,1,208.882,268.118Z" transform="translate(-200.188 -266.848)" fill="#f90"/>
          <path id="Trazado_835957" data-name="Trazado 835957" d="M205.185,271.189a3.915,3.915,0,0,0-.385.563A3.309,3.309,0,0,1,205.185,271.189Z" transform="translate(-196.751 -269.597)" fill="#f90"/>
          <path id="Trazado_835958" data-name="Trazado 835958" d="M203.047,277.674c-.045.08-.09.152-.125.233A1.49,1.49,0,0,1,203.047,277.674Z" transform="translate(-195.07 -275.402)" fill="#f90"/>
          <path id="Trazado_835959" data-name="Trazado 835959" d="M133.366,257.788V256h4.83a4.594,4.594,0,0,0-.608.42h0a2.437,2.437,0,0,0-.3.25,2.681,2.681,0,0,0-.286.268q-.143.143-.268.3a1.792,1.792,0,0,0-.241.3h0a3.3,3.3,0,0,0-.385.563l-.072.116a1.48,1.48,0,0,0-.125.233,6.829,6.829,0,0,0-.447,1.091l-.107.429v.134c0,.188-.063.376-.08.572a4.949,4.949,0,0,0-.125.7,6.26,6.26,0,0,0,3.577,5.652v8.657a.894.894,0,0,0,.152.5l1.458,2.182h-9.373A2.96,2.96,0,0,1,128,275.406V261.365h1.789v-3.577h3.577Z" transform="translate(-128 -255.999)" fill="#f90"/>
        </g>
        <g id="Grupo_1093677" data-name="Grupo 1093677" transform="translate(0 0)">
          <path id="Trazado_835960" data-name="Trazado 835960" d="M133.366,256v1.789h-3.577v3.577H128v-4.472a.894.894,0,0,1,.894-.894h4.472Z" transform="translate(-114.585 -230.062)" fill="#12263f"/>
          <path id="Trazado_835961" data-name="Trazado 835961" d="M110.859,14.794a7.155,7.155,0,0,0-7.155,7.155v8.943h14.31V21.948A7.155,7.155,0,0,0,110.859,14.794ZM97.443,21.948a13.415,13.415,0,0,1,26.831,0v9.015a4.257,4.257,0,0,1,3.577,4.195V56.139a4.275,4.275,0,0,1-4.266,4.266H98.132a4.275,4.275,0,0,1-4.266-4.266V35.158a4.257,4.257,0,0,1,3.577-4.195V21.948Zm13.415-11.627A11.627,11.627,0,0,0,99.232,21.948v8.943h2.683V21.948a8.943,8.943,0,1,1,17.887,0v8.943h2.683V21.948A11.626,11.626,0,0,0,110.859,10.322Zm0,22.359H98.132a2.477,2.477,0,0,0-2.477,2.477h0V56.139a2.477,2.477,0,0,0,2.477,2.477h25.453a2.477,2.477,0,0,0,2.477-2.477h0V35.158a2.477,2.477,0,0,0-2.477-2.477H110.859Z" transform="translate(-84.028 -8.533)" fill="#12263f"/>
          <rect id="Rectángulo_387104" data-name="Rectángulo 387104" width="1.789" height="4.472" transform="translate(8.049 16.993)" fill="#12263f"/>
          <path id="Trazado_835962" data-name="Trazado 835962" d="M70.949,105.083v-.894h-.894v.894Zm1.789-1.789v2.683a.894.894,0,0,1-.894.894H69.16a.894.894,0,0,1-.894-.894v-2.683a.894.894,0,0,1,.894-.894h2.683A.894.894,0,0,1,72.738,103.294Z" transform="translate(-61.111 -92.562)" fill="#12263f"/>
          <rect id="Rectángulo_387105" data-name="Rectángulo 387105" width="1.789" height="4.472" transform="translate(6.261 46.506)" fill="#12263f"/>
          <rect id="Rectángulo_387106" data-name="Rectángulo 387106" width="1.789" height="4.472" transform="translate(6.261 32.196)" fill="#12263f"/>
          <rect id="Rectángulo_387107" data-name="Rectángulo 387107" width="1.789" height="4.472" transform="translate(3.577 9.838)" fill="#12263f"/>
          <path id="Trazado_835963" data-name="Trazado 835963" d="M36.816,250.149v-.894h-.894v.894Zm.894,1.789H35.027a.894.894,0,0,1-.894-.894V248.36a.894.894,0,0,1,.894-.894H37.71a.894.894,0,0,1,.894.894v2.683A.894.894,0,0,1,37.71,251.938Z" transform="translate(-30.556 -222.424)" fill="#12263f"/>
          <path id="Trazado_835964" data-name="Trazado 835964" d="M36.816,386.683v-.894h-.894v.894ZM35.027,384H37.71a.894.894,0,0,1,.894.894v2.683a.894.894,0,0,1-.894.894H35.027a.894.894,0,0,1-.894-.894v-2.683A.894.894,0,0,1,35.027,384Z" transform="translate(-30.556 -344.649)" fill="#12263f"/>
          <path id="Trazado_835965" data-name="Trazado 835965" d="M19.749,173.349v-.894h-.894v.894Zm-1.789-2.683h2.683a.894.894,0,0,1,.894.894v2.683a.894.894,0,0,1-.894.894H17.96a.894.894,0,0,1-.894-.894V171.56A.9.9,0,0,1,17.96,170.666Z" transform="translate(-15.277 -153.673)" fill="#12263f"/>
          <rect id="Rectángulo_387108" data-name="Rectángulo 387108" width="1.789" height="4.472" transform="translate(0 39.352)" fill="#12263f"/>
          <rect id="Rectángulo_387109" data-name="Rectángulo 387109" width="1.789" height="4.472" transform="translate(0 25.042)" fill="#12263f"/>
          <path id="Trazado_835966" data-name="Trazado 835966" d="M2.683,318.416v-.894H1.789v.894Zm1.789-1.789v2.683a.894.894,0,0,1-.894.894H.894A.894.894,0,0,1,0,319.31v-2.683a.894.894,0,0,1,.894-.894H3.577A.894.894,0,0,1,4.472,316.627Z" transform="translate(0 -283.536)" fill="#12263f"/>
          <path id="Trazado_835967" data-name="Trazado 835967" d="M2.683,454.949v-.894H1.789v.894Zm1.789-1.789v2.683a.894.894,0,0,1-.894.894H.894A.894.894,0,0,1,0,455.843V453.16a.894.894,0,0,1,.894-.894H3.577A.894.894,0,0,1,4.472,453.16Z" transform="translate(0 -405.76)" fill="#12263f"/>
          <path id="Trazado_835968" data-name="Trazado 835968" d="M197.056,251.727a4.546,4.546,0,0,0,3.028,4.283.909.909,0,0,1,.609.855V266l1.055,1.573,2.209-2.21-1.182-1.173a.909.909,0,0,1-.005-1.286l.005-.005,1.182-1.173-1.182-1.173a.909.909,0,0,1-.264-.645v-3.046a.909.909,0,0,1,.609-.855,4.546,4.546,0,1,0-6.065-4.282Zm1.819,5.747a6.365,6.365,0,0,1-3.637-5.747,5.018,5.018,0,0,1,0-.646c0-.2.082-.718.082-.718s.079-.328.109-.436a11.127,11.127,0,0,1,.582-1.346l.073-.118a3.978,3.978,0,0,1,.391-.573h0a3.528,3.528,0,0,1,.245-.3,3.961,3.961,0,0,1,.273-.3l.291-.273.3-.255h0a6.178,6.178,0,0,1,.746-.491h0a6.311,6.311,0,0,1,6.529,0h0c.218.136.427.282.627.427h0l.3.255.291.273a2.5,2.5,0,0,1,.273.3,3.6,3.6,0,0,1,.245.3h0a3.975,3.975,0,0,1,.391.573l.073.118c.045.082.091.154.127.236a6.923,6.923,0,0,1,.455,1.109,7.157,7.157,0,0,1,.327,1.864,6.365,6.365,0,0,1-3.637,5.746v2.064l1.555,1.546a.909.909,0,0,1,.005,1.286l-.005.005-1.182,1.173,1.182,1.173a.909.909,0,0,1,.005,1.286l-.005.005L202.893,269l-.646.645a.909.909,0,0,1-.646.264h-.091a.909.909,0,0,1-.664-.409l-.336-.5-1.482-2.228a.908.908,0,0,1-.154-.5v-8.8h0Z" transform="translate(-174.766 -220.54)" fill="#12263f"/>
        </g>
      </g>
    </g>
  </g>
</svg>
