<svg xmlns="http://www.w3.org/2000/svg" xmlns:xlink="http://www.w3.org/1999/xlink" width="220.378" height="288" viewBox="0 0 220.378 288">
  <defs>
    <clipPath id="clip-path">
      <rect id="Rectángulo_387069" data-name="Rectángulo 387069" width="220.378" height="237.262" fill="none"/>
    </clipPath>
    <clipPath id="clip-path-2">
      <rect id="Rectángulo_387068" data-name="Rectángulo 387068" width="220.377" height="237.262" fill="none"/>
    </clipPath>
    <clipPath id="clip-path-3">
      <rect id="Rectángulo_387065" data-name="Rectángulo 387065" width="159.32" height="92.295" fill="none"/>
    </clipPath>
    <clipPath id="clip-path-4">
      <rect id="Rectángulo_387076" data-name="Rectángulo 387076" width="26.661" height="34.082" fill="none"/>
    </clipPath>
  </defs>
  <g id="Grupo_1093631" data-name="Grupo 1093631" transform="translate(-1129 -895)">
    <g id="Grupo_1093601" data-name="Grupo 1093601" transform="translate(488 428.738)">
      <g id="Grupo_1093587" data-name="Grupo 1093587" transform="translate(801.446 466.042) rotate(90)">
        <rect id="Rectángulo_384024" data-name="Rectángulo 384024" width="288" height="99" rx="6" transform="translate(0.22 0.446)" fill="#1e5af9"/>
      </g>
    </g>
    <g id="Grupo_1093630" data-name="Grupo 1093630" transform="translate(1129.407 922.738)">
      <g id="Grupo_1093594" data-name="Grupo 1093594" transform="translate(-0.407)" clip-path="url(#clip-path)">
        <g id="Grupo_1093593" data-name="Grupo 1093593" transform="translate(0 0)">
          <g id="Grupo_1093592" data-name="Grupo 1093592" clip-path="url(#clip-path-2)">
            <path id="Trazado_835774" data-name="Trazado 835774" d="M188.115,763.821c-7.884-4.067-17.818-6.726-28.416-9.548h-.005c-3.931-1.044-7.96-2.109-12.006-3.279-.712-.207-6.835-.408-7.5-.593-2.735-.794-5.089-1.468-7.145-2.045-1.751-.489-3.284-.9-4.638-1.24-6.96-1.74-9.3-1.561-13.267,0-1.147.457-2.436,1.022-4.013,1.7-.31.13-.62.277-.93.43-.31-.152-.625-.294-.941-.43-1.577-.674-2.866-1.245-4.013-1.7-3.969-1.561-6.307-1.74-13.267,0-1.354.343-2.887.75-4.638,1.24-2.05.576-4.41,1.251-7.145,2.045-.669.185-6.791.386-7.5.593-5.1,1.473-10.162,2.784-15.056,4.089-9.45,2.534-18.248,5.062-25.376,8.738C17.538,771.417-2.314,831.962.22,842.114c4.035,16.165,31.874,34.277,60.807,34.946,14.877.348,83.442.348,98.325,0,28.927-.669,56.772-18.781,60.806-34.946,2.528-10.152-17.323-70.7-32.043-78.293" transform="translate(0.001 -641.029)" fill="#2c2c2b"/>
            <path id="Trazado_835775" data-name="Trazado 835775" d="M1267.616,1324.623a15.246,15.246,0,0,1,7.164-2.312c4.554-.561,10.362-.936,12.536-5.782a1.066,1.066,0,0,0-.605-1.772,24.221,24.221,0,0,0-2.809-.626,1.561,1.561,0,0,1-1.519-2.259c.383-1.773.851-3.55,1.128-5.344a.97.97,0,0,0-.02-.526c-.144-.335-.582-.4-.947-.42-1.97-.1-4.192,1.014-6.162.925Z" transform="translate(-1089.425 -1122.049)"/>
            <path id="Trazado_835776" data-name="Trazado 835776" d="M178.378,1324.623a15.247,15.247,0,0,0-7.164-2.312c-4.554-.561-10.363-.936-12.536-5.782a1.065,1.065,0,0,1,.6-1.772,24.23,24.23,0,0,1,2.809-.626,1.561,1.561,0,0,0,1.52-2.259c-.383-1.773-.851-3.55-1.128-5.344a.966.966,0,0,1,.019-.526c.144-.335.582-.4.947-.42,1.97-.1,4.192,1.014,6.162.925Z" transform="translate(-136.191 -1122.049)"/>
            <path id="Trazado_835777" data-name="Trazado 835777" d="M512.058,761.845c-20.76,11.875-41.792,36.474-47.333,59.594-.038.147-.076.3-.109.446h-8.542c-5.258-22.739-25.632-47.006-46.076-59.23,4.893-1.3,9.956-2.615,15.056-4.089.707-.206,6.829-.408,7.5-.593,2.735-.794,5.095-1.468,7.145-2.044,1.751-.49,3.284-.9,4.638-1.24h36.431c1.354.343,2.887.75,4.638,1.24,2.055.576,4.41,1.251,7.145,2.044.669.185,6.791.386,7.5.593,4.045,1.169,8.075,2.235,12.006,3.279" transform="translate(-352.364 -648.601)"/>
            <path id="Trazado_835778" data-name="Trazado 835778" d="M783.868,441.961v58.763c.068.005.063.01,0,.015v4.448c7.476-2.886,16.605-8.33,25.029-14.591,9.8-7.279,22.757-16.5,24.448-30.029a51.12,51.12,0,0,0,.067-11.552c-.294-2.864-.165-7.964-3.374-8.97a9.1,9.1,0,0,0-3.436-.171L805.681,441.5c-6.8.528-13.637,1.333-20.455.733-.139-.016-1.358,0-1.358-.27" transform="translate(-673.678 -377.971)" fill="#0b0b0b"/>
            <path id="Trazado_835779" data-name="Trazado 835779" d="M470.368,68.106C468.775,56.531,458.71,49.04,452.61,37.8c-7.5-13.845-16.513-30.131-31.646-35.766A32.939,32.939,0,0,0,409.263,0,33.419,33.419,0,0,0,403.4.474c-18.743,3.171-29.057,21.79-37.48,37.323-6.1,11.242-16.165,18.733-17.759,30.309-1.512,10.978,7.27,34.313,28.932,46.675,11.516,6.572,25.991,12.041,30,11.283l1.185-4.6h1.979l1.185,4.6c4.007.758,18.482-4.711,30-11.283,21.663-12.363,30.444-35.7,28.932-46.675" transform="translate(-299.074 0.003)" fill="#2c2c2b"/>
            <path id="Trazado_835780" data-name="Trazado 835780" d="M528.715,449.011c-.294-2.867-.163-7.968-3.377-8.973a9.172,9.172,0,0,0-3.431-.172c-1.6.126-3.2.253-4.807.373l-3.3.258c-.625.046-1.245.1-1.865.144q-5.481.431-10.956.85c-6.8.529-13.637,1.333-20.456.735-.142-.017-1.359,0-1.359-.27,0,.27-1.218.253-1.359.27-6.813.6-13.653-.207-20.455-.735q-5.473-.422-10.956-.85c-.625-.046-1.245-.1-1.87-.149-1.093-.08-2.191-.166-3.284-.253-1.6-.121-3.2-.247-4.807-.373a9.2,9.2,0,0,0-3.436.172c-3.208,1.005-3.083,6.107-3.377,8.973a51.3,51.3,0,0,0,.071,11.552c1.691,13.523,14.643,22.749,24.446,30.027.555.414,1.109.822,1.669,1.224,1.6,1.155,3.219,2.281,4.839,3.355a100.982,100.982,0,0,0,18.52,10.013,81.259,81.259,0,0,0,10.081-4.837c1.773-.994,3.573-2.062,5.383-3.2q.808-.508,1.615-1.034c1.9-1.223,3.8-2.516,5.671-3.86.767-.546,1.523-1.1,2.278-1.66,9.8-7.278,22.761-16.5,24.452-30.027a50.984,50.984,0,0,0,.065-11.552m-49.546,51.725c-.06-.006-.065-.012,0-.017s.065.012,0,.017" transform="translate(-368.98 -377.967)"/>
            <path id="Trazado_835781" data-name="Trazado 835781" d="M687.715,799.244q-.807.526-1.615,1.034c-1.811,1.138-3.61,2.206-5.383,3.2a81.245,81.245,0,0,1-10.081,4.837,101,101,0,0,1-18.52-10.013c.511-1.1.957-2.171,1.348-3.205.272-.713.511-1.4.734-2.074,1.142-.075,2.278-.144,3.42-.207q6.508-.345,13.017-.31c3.708.012,7.427.115,11.136.31,1.136.063,2.278.132,3.415.207.169.5.343,1.017.538,1.545a49.617,49.617,0,0,0,1.99,4.676" transform="translate(-560.447 -681.099)" fill="#ff9b53"/>
            <path id="Trazado_835782" data-name="Trazado 835782" d="M695.959,799.244q-.807.526-1.615,1.034c-1.811,1.138-3.61,2.206-5.383,3.2-3.11-.942-6.732-.551-10.081-1.028-.321-.046-.636-.1-.951-.161a41.444,41.444,0,0,1-13.572-5.825,16.874,16.874,0,0,0-2.648-1.367c.272-.713.511-1.4.734-2.074,1.142-.075,2.278-.144,3.42-.207q6.509-.345,13.017-.31c3.708.012,7.428.115,11.136.31,1.136.063,2.278.132,3.414.207.169.5.343,1.017.538,1.545a49.684,49.684,0,0,0,1.99,4.676" transform="translate(-568.692 -681.099)" fill="#ce7941"/>
            <path id="Trazado_835783" data-name="Trazado 835783" d="M506.768,430.084q-.046,4.547-.165,9.116-.116,4.661-.294,9.344c-.067,1.426-.594,2.538-1.188,2.424h-.01a1.969,1.969,0,0,1-.8-.445c-1.663-1.421-3.394-5.851-4.158-10.965l-.062-.456c-.553-4.469.537-8.639,2.7-10.488.413-.179.831-.358,1.26-.537.356-.146.723-.293,1.09-.434.945.049,1.653,1.128,1.627,2.44" transform="translate(-429.673 -367.529)" fill="#ce7941"/>
            <path id="Trazado_835784" data-name="Trazado 835784" d="M1005.875,430.03c-.025-1.411.8-2.554,1.847-2.441l.02,0c3.6.46,5.626,5.988,4.743,11.912s-3.071,10.958-4.952,11.411l-.011,0c-.595.111-1.121-1-1.185-2.427q-.357-9.286-.462-18.459" transform="translate(-864.478 -367.475)" fill="#ce7941"/>
            <path id="Trazado_835785" data-name="Trazado 835785" d="M598.851,349.321v30.021a7.93,7.93,0,0,1-.263,1.931c-.635,2.56-2.257,5.244-2.815,7.522-2.1,8.59-1.756,12.559-8.59,17.478a61.51,61.51,0,0,1-8.652,5.13c-4.8,2.348-10.155,4.214-14.55,4.279-4.4-.065-9.752-1.931-14.55-4.279a61.9,61.9,0,0,1-8.657-5.13c-6.828-4.919-6.487-8.888-8.59-17.478-.553-2.278-2.174-4.956-2.81-7.516a7.968,7.968,0,0,1-.263-1.936v-20.51c.356-.146.723-.293,1.09-.434,6.229-2.435,13.724-4.241,20.769-5.943,2.836-.683,5.6-1.35,8.3-1.979.01,0,.021-.005.036-.005,16.027-3.216,29.545-5.146,39.544-1.15" transform="translate(-454.733 -298.284)" fill="#ff9b53"/>
            <path id="Trazado_835786" data-name="Trazado 835786" d="M518.108,346.211s-.832-7.4-9.847-10a22.091,22.091,0,0,0-3.757-.724,4.395,4.395,0,0,0-.468-.04,21.6,21.6,0,0,0-2.724-.063,31.583,31.583,0,0,0-7.069,1.109c-7.917,2.1-14.969,6.244-22.549,9.145-5.062,1.936-10.01,3.4-15.377,1.4-3.42-1.281-6.231-3.613-9.2-5.647-3.774-2.568-7.422-3.475-11.93-4.165-.576-.086-1.207-.178-1.881-.253-.848-.1-1.756-.2-2.686-.241a21.423,21.423,0,0,0-4.165.138c-2.289.322-4.344,1.143-5.557,2.878-3.2,4.573-2.468,12.885-2.468,12.885a30.931,30.931,0,0,1-1.321-15.3c1.006-5.055,5.742-8.709,12.185-11.575.435-.189.875-.379,1.327-.569.375-.155.761-.31,1.147-.46,6.558-2.579,14.447-4.492,21.864-6.3,2.985-.724,5.9-1.431,8.738-2.1.011,0,.022-.006.038-.006,16.872-3.947,31.1-6.325,41.629-1.413a23.608,23.608,0,0,1,5.046,3.165c10.788,8.812,9.026,28.126,9.026,28.126" transform="translate(-358.081 -268.277)" fill="#2c2c2b"/>
            <path id="Trazado_835787" data-name="Trazado 835787" d="M680.782,479.174c.716.1,1.389.238,2.042.358s1.28.231,1.882.3a11.559,11.559,0,0,0,3.269-.03c.255-.035.509-.083.765-.141s.511-.1.769-.172c.514-.137,1.036-.289,1.572-.459,1.069-.342,2.186-.747,3.348-1.162l1.765-.621c.591-.2,1.186-.407,1.788-.6s1.21-.389,1.828-.57c.309-.091.615-.19.928-.276l.942-.258a39.564,39.564,0,0,1,3.9-.845c.672-.1,1.347-.195,2.036-.252a17.214,17.214,0,0,1,2.1-.077l.133.308-3.528,1.673L702.788,478c-2.364,1.1-4.768,2.129-7.228,3.024a32.036,32.036,0,0,1-3.781,1.123,13.9,13.9,0,0,1-3.962.357,10.775,10.775,0,0,1-3.852-1.011,22.793,22.793,0,0,1-3.37-2.04Z" transform="translate(-584.922 -407.677)"/>
            <path id="Trazado_835788" data-name="Trazado 835788" d="M389.662,1649.139v.255c0,2.415-2.654,4.371-5.932,4.371H241.423c-3.277,0-5.932-1.956-5.932-4.371v-.255c0-.523.577-.948,1.291-.948H388.375c.709,0,1.286.425,1.286.948" transform="translate(-202.388 -1416.502)" fill="#d9d9d9"/>
            <path id="Trazado_835789" data-name="Trazado 835789" d="M389.662,1653.116v.256c0,2.415-2.654,4.37-5.932,4.37H241.423c-3.277,0-5.932-1.956-5.932-4.37v-.256a.744.744,0,0,1,.061-.3c.429,2.1,2.889,3.719,5.871,3.719H383.73c2.981,0,5.442-1.617,5.871-3.719a.745.745,0,0,1,.061.3" transform="translate(-202.388 -1420.479)" fill="#c7c7c7"/>
            <path id="Trazado_835790" data-name="Trazado 835790" d="M344.581,991.521l-12.366,81.115a5.875,5.875,0,0,1-5.776,4.667H191.115a5.875,5.875,0,0,1-5.776-4.667l-12.366-81.115c-.546-3.581,1.713-6.514,5.051-6.514H339.53c3.338,0,5.6,2.932,5.051,6.514" transform="translate(-148.299 -846.543)" fill="#f0f0f0"/>
            <g id="Grupo_1093591" data-name="Grupo 1093591" transform="translate(36.754 138.464)" style="mix-blend-mode: multiply;isolation: isolate">
              <g id="Grupo_1093590" data-name="Grupo 1093590">
                <g id="Grupo_1093589" data-name="Grupo 1093589" clip-path="url(#clip-path-3)">
                  <path id="Trazado_835791" data-name="Trazado 835791" d="M420.7,991.521l-12.366,81.115a5.875,5.875,0,0,1-5.776,4.666H267.235a5.878,5.878,0,0,1-5.772-4.645c68.057-2.126,125.585-37.929,148.475-87.65h5.712c3.337,0,5.6,2.932,5.051,6.514" transform="translate(-261.463 -985.008)" fill="#ededed"/>
                </g>
              </g>
            </g>
            <rect id="Rectángulo_387066" data-name="Rectángulo 387066" width="48.468" height="3.138" transform="translate(48.22 229.655)" fill="#f0f0f0"/>
            <rect id="Rectángulo_387067" data-name="Rectángulo 387067" width="48.468" height="3.138" transform="translate(123.689 229.655)" fill="#f0f0f0"/>
            <g id="Grupo_1093637" data-name="Grupo 1093637" transform="translate(96.767 170.9)">
              <g id="Grupo_1093636" data-name="Grupo 1093636" transform="translate(-0.079)" clip-path="url(#clip-path-4)">
                <path id="Trazado_835793" data-name="Trazado 835793" d="M35.807,11.771c1.19-1.3.82-3.364.242-4.845a11.985,11.985,0,0,0-2.953-4.279A10.9,10.9,0,0,0,25.088.008,10.9,10.9,0,0,0,17.08,2.647a12.023,12.023,0,0,0-2.953,4.279c-.579,1.481-.948,3.548.242,4.845a4.871,4.871,0,0,1,1.19,1.536,1.466,1.466,0,0,1,.108.889,5.483,5.483,0,0,0-.146,1.223,2.2,2.2,0,0,0,.58,1.513c.971.963,2.587-.032,3.494,1.188a9.459,9.459,0,0,1,.779,2.055,2.535,2.535,0,0,0,1.494,1.354,9.907,9.907,0,0,0,3.22.275,9.9,9.9,0,0,0,3.22-.275A2.526,2.526,0,0,0,29.8,20.177a9.463,9.463,0,0,1,.78-2.055c.905-1.22,2.523-.225,3.494-1.188a2.206,2.206,0,0,0,.58-1.513,5.392,5.392,0,0,0-.147-1.223,1.466,1.466,0,0,1,.108-.889,4.914,4.914,0,0,1,1.19-1.536M20.352,15.809c-1.84.033-3.166-1.03-2.853-3.044s1.229-2.28,2.937-2.346,3.512.644,3.49,2.492-1.732,2.865-3.574,2.9M26.559,18.7h0a6.913,6.913,0,0,0-2.721-.045h0a.491.491,0,0,1-.36-.742,17.213,17.213,0,0,1,1.359-2.1.5.5,0,0,1,.823,0,12.085,12.085,0,0,1,1.329,2.2.47.47,0,0,1-.428.688m3.264-2.887c-1.84-.033-3.551-1.062-3.574-2.9s1.782-2.559,3.49-2.492,2.62.322,2.937,2.346-1.011,3.077-2.853,3.044" transform="translate(-11.757 -0.001)"/>
                <path id="Trazado_835794" data-name="Trazado 835794" d="M26.313,149.719a2.04,2.04,0,0,0-1.063-2.743,2.2,2.2,0,0,0-2.751.934L5.213,140.661a2.185,2.185,0,0,0-4.095-1.5c-.18.435.213,1.07.319,1.5-.376.225-1.1.391-1.279.823a2.154,2.154,0,0,0,1.193,2.8,2.155,2.155,0,0,0,2.767-1l17.224,7.191a2.038,2.038,0,0,0,1.144,2.606,2.19,2.19,0,0,0,2.82-1.094c.191-.419-.174-1.034-.264-1.448-.005-.024.781-.328.853-.379a1.538,1.538,0,0,0,.417-.435" transform="translate(0 -119.305)"/>
                <path id="Trazado_835795" data-name="Trazado 835795" d="M27.292,142.617a2.164,2.164,0,0,1-3.907,1.842l-17.228,7.19a2.037,2.037,0,0,1-1.165,2.545,2.19,2.19,0,0,1-2.82-1.094c-.191-.419.174-1.034.264-1.448-.378-.218-1.1-.38-1.291-.8A2.049,2.049,0,0,1,2.228,148.1a2.2,2.2,0,0,1,2.781.99l17.271-7.24a2.184,2.184,0,0,1,4.073-1.561c.18.434-.213,1.069-.319,1.5-.006.024.78.337.851.39a1.486,1.486,0,0,1,.406.446" transform="translate(-0.827 -120.279)"/>
              </g>
            </g>
          </g>
        </g>
      </g>
    </g>
  </g>
</svg>
