<svg xmlns="http://www.w3.org/2000/svg" width="77.974" height="77.975" viewBox="0 0 77.974 77.975">
  <g id="Grupo_1096433" data-name="Grupo 1096433" transform="translate(3571 10085.768)">
    <path id="Trazado_836140" data-name="Trazado 836140" d="M77.974,38.987A38.987,38.987,0,1,1,38.987,0,38.988,38.988,0,0,1,77.974,38.987" transform="translate(-3571 -10085.768)" fill="#a88ef9"/>
    <g id="Layer_1" data-name="Layer 1" transform="translate(-3559.712 -10082.923)">
      <path id="Trazado_836145" data-name="Trazado 836145" d="M8.857,441.488H57.615v3.166a2.063,2.063,0,0,1-2.057,2.057H10.914a2.063,2.063,0,0,1-2.057-2.057Z" transform="translate(-5.537 -388.048)" fill="#393939"/>
      <path id="Trazado_836146" data-name="Trazado 836146" d="M13.514,446.71h-2.6a2.063,2.063,0,0,1-2.057-2.057v-3.166h2.6v3.166A2.063,2.063,0,0,0,13.514,446.71Z" transform="translate(-5.537 -388.046)" fill="#343434"/>
      <path id="Trazado_836147" data-name="Trazado 836147" d="M56.246,404.575l1.369,3.641H8.857l1.369-3.641Z" transform="translate(-5.537 -354.776)" fill="#bfbfbf"/>
      <path id="Trazado_836148" data-name="Trazado 836148" d="M12.564,404.575l-1.111,3.641h-2.6l1.369-3.641Z" transform="translate(-5.537 -354.776)" fill="#8c8c8c"/>
      <path id="Trazado_836149" data-name="Trazado 836149" d="M210.444,444.17h-11.2v-2.612h11.2Z" transform="translate(-177.146 -388.111)" fill="#f5f5f5"/>
      <path id="Trazado_836150" data-name="Trazado 836150" d="M68.752,168.03H22.732V144.885a2.742,2.742,0,0,1,2.742-2.742H66.011a2.742,2.742,0,0,1,2.742,2.742Z" transform="translate(-18.043 -118.231)" fill="#6cf"/>
      <path id="Trazado_836151" data-name="Trazado 836151" d="M25.078,144.885V168.03H22.732V144.885a2.742,2.742,0,0,1,2.742-2.742H27.82a2.742,2.742,0,0,0-2.742,2.742Z" transform="translate(-18.043 -118.231)" fill="#4da6ff"/>
      <path id="Trazado_836152" data-name="Trazado 836152" d="M115.69,173.99H87.342a2.732,2.732,0,0,1-2.732-2.732V154.486a2.732,2.732,0,0,1,2.732-2.732H115.69a2.732,2.732,0,0,1,2.732,2.732v16.771a2.732,2.732,0,0,1-2.732,2.732Z" transform="translate(-73.818 -126.894)" fill="#89a5ee"/>
      <path id="Trazado_836153" data-name="Trazado 836153" d="M126.322,41.768l.011.009-14.1,12.016a2.835,2.835,0,0,1-3.679,0L94.558,41.843c-.031-.024-.063-.046-.093-.071l.005,0-.005,0c.03-.025.062-.047.093-.071L108.6,29.706a2.766,2.766,0,0,1,3.589,0l14.146,12.054Z" transform="translate(-82.7 -16.288)" fill="#4da6ff"/>
      <path id="Trazado_836154" data-name="Trazado 836154" d="M152.358,34.177l-12.736,10.85-12.736-10.85V19.517a1.959,1.959,0,0,1,1.959-1.959H150.4a1.959,1.959,0,0,1,1.959,1.959Z" transform="translate(-111.923 -5.935)" fill="#f5f5f5"/>
      <path id="Trazado_836155" data-name="Trazado 836155" d="M204.209,53.025a3.053,3.053,0,0,1-1.936,2.466l-9.065-9.569-1.275-1.755a7.564,7.564,0,0,1,4.663-1.787,7.1,7.1,0,0,1,5.626,2.237,9.848,9.848,0,0,1,1.772,4.554A14.009,14.009,0,0,1,204.209,53.025Z" transform="translate(-170.553 -28.303)" fill="#e48e66"/>
      <path id="Trazado_836156" data-name="Trazado 836156" d="M175.739,71.549a16.634,16.634,0,0,1-4.294,2.994,1.234,1.234,0,0,1-1.371-.261l-.757-.765a.792.792,0,0,1-.058-1.049,32.05,32.05,0,0,0,2.541-3.53,13.711,13.711,0,0,0,.723-2.329c.678-1.587,3.217-1.494,3.217-1.494s5.455.21,5.525,5.525a30.785,30.785,0,0,0,1.049,8.323h-9.355a4.632,4.632,0,0,0,1.663-3.24A10.624,10.624,0,0,1,175.739,71.549Z" transform="translate(-149.962 -48.8)" fill="#eabd8c"/>
      <path id="Trazado_836157" data-name="Trazado 836157" d="M209.219,206.567a1.072,1.072,0,0,1-1.072,1.072h-9.629a1.072,1.072,0,1,1,0-2.145h9.629A1.072,1.072,0,0,1,209.219,206.567Z" transform="translate(-175.522 -175.333)" fill="#393939"/>
      <path id="Trazado_836158" data-name="Trazado 836158" d="M94.811,271.035a2.681,2.681,0,0,1-1.8-.691l11.808-10.924,2.4,2.054a2.874,2.874,0,0,0,3.739,0l2.4-2.053,11.812,10.8a2.683,2.683,0,0,1-1.926.812Z" transform="translate(-81.389 -223.939)" fill="#b0c5fd"/>
      <path id="Trazado_836159" data-name="Trazado 836159" d="M19.62,26.008a1.912,1.912,0,0,0,2.139.408,13.009,13.009,0,0,0,2.476-1.464,7.184,7.184,0,0,0-.267,2.036,3.75,3.75,0,0,1-1.269,2.55,1.762,1.762,0,0,0,.3,3.5h9.63a1.762,1.762,0,0,0,.255-3.5c-.1-.393-.25-1.034-.4-1.906a3.737,3.737,0,0,0,1.852-2.74.7.7,0,0,0,.01-.083,14.61,14.61,0,0,0-.232-4.038l-.042-.2a10.032,10.032,0,0,0-1.881-4.663,7.818,7.818,0,0,0-6.178-2.478,8.276,8.276,0,0,0-5.072,1.943.691.691,0,0,0-.121.94l1.052,1.448a12.7,12.7,0,0,1-.662,2.131,29.093,29.093,0,0,1-2.456,3.391,1.485,1.485,0,0,0,.109,1.963Zm13,5.648H23a.382.382,0,1,1,0-.764h9.63a.382.382,0,1,1,0,.764ZM26.069,14.808a6.413,6.413,0,0,1,5.073,2,8.845,8.845,0,0,1,1.579,4.052l.042.2a13.266,13.266,0,0,1,.206,3.627,2.527,2.527,0,0,1-.707,1.407,40.038,40.038,0,0,1-.271-4.216,5.753,5.753,0,0,0-3.159-5.358,7.868,7.868,0,0,0-3.031-.847,5.25,5.25,0,0,0-3.094.894l-.373-.513a6.77,6.77,0,0,1,3.733-1.239Zm-6.231,9.329a30.028,30.028,0,0,0,2.627-3.669,13.886,13.886,0,0,0,.755-2.4c.515-1.057,2.514-1.023,2.53-1.023.2.009,4.8.262,4.863,4.844a35.574,35.574,0,0,0,.84,7.622h-6.93a4.338,4.338,0,0,0,.827-2.576A9.972,9.972,0,0,1,26.394,23.1a.691.691,0,0,0-1.079-.824,15.771,15.771,0,0,1-4.107,2.873.539.539,0,0,1-.6-.113l-.757-.766a.1.1,0,0,1-.008-.135Zm32.806,29.05L51.4,49.67V26.644a3.436,3.436,0,0,0-3.433-3.433H41.962l-.836-.715V13.623a2.653,2.653,0,0,0-2.65-2.65H16.922a2.653,2.653,0,0,0-2.65,2.65v8.869l-.842.72h-6A3.436,3.436,0,0,0,4,26.645V49.67L2.754,53.187a.687.687,0,0,0-.04.23v3.155a2.744,2.744,0,0,0,2.741,2.741H49.943a2.744,2.744,0,0,0,2.741-2.741V53.417a.687.687,0,0,0-.04-.23Zm-29.765.921h9.641v1.254H22.878Zm-18.5-1.381.8-2.248H50.221l.8,2.248Zm7.1-8.322V27.633a2.044,2.044,0,0,1,.354-1.147l10.578,9.032L11.741,45.394a2.028,2.028,0,0,1-.257-.989Zm11.99-7.984L25.4,38.069a3.51,3.51,0,0,0,4.576,0l1.941-1.654L42.7,46.271a2.027,2.027,0,0,1-.823.175H13.525a2.028,2.028,0,0,1-.737-.14Zm9.507-.906,10.586-9.021a2.022,2.022,0,0,1,.348,1.14V44.4a2.025,2.025,0,0,1-.217.911Zm9.578-9.976-1.432,1.22V24.314ZM16.922,12.354H38.476a1.27,1.27,0,0,1,1.269,1.269V27.936L29.084,37.02a2.135,2.135,0,0,1-2.783,0L15.653,27.928V13.623a1.27,1.27,0,0,1,1.269-1.269Zm-2.65,14.395L12.845,25.53l1.428-1.221Zm-8.893-.1a2.054,2.054,0,0,1,2.052-2.052h4.385l-.569.487-.014.012a3.429,3.429,0,0,0-1.13,2.541V44.4a3.426,3.426,0,0,0,3.423,3.422H41.873A3.426,3.426,0,0,0,45.3,44.4V27.633a3.392,3.392,0,0,0-1.063-2.479l-.027-.025-.628-.537h4.39a2.054,2.054,0,0,1,2.052,2.052V49.1H5.379ZM51.3,56.572a1.361,1.361,0,0,1-1.36,1.36H5.455a1.361,1.361,0,0,1-1.36-1.36V54.108H21.5v1.945a.691.691,0,0,0,.691.69H33.21a.691.691,0,0,0,.691-.69V54.108H51.3Z"/>
    </g>
  </g>
</svg>
