<svg xmlns="http://www.w3.org/2000/svg" width="77.974" height="77.975" viewBox="0 0 77.974 77.975">
  <g id="Grupo_1096434" data-name="Grupo 1096434" transform="translate(3265 10085.768)">
    <g id="Grupo_1093752" data-name="Grupo 1093752" transform="translate(0 1)">
      <path id="Trazado_836141" data-name="Trazado 836141" d="M77.974,38.987A38.987,38.987,0,1,1,38.987,0,38.988,38.988,0,0,1,77.974,38.987" transform="translate(-3265 -10086.768)" fill="#a88ef9"/>
      <g id="spyware_1_" data-name="spyware (1)" transform="translate(-3247.864 -10067.933)">
        <g id="Grupo_1093732" data-name="Grupo 1093732" transform="translate(14.953 33.405)">
          <path id="Trazado_836194" data-name="Trazado 836194" d="M176.049,391.362H188.12l.862,7.07h-13.8Z" transform="translate(-175.187 -391.362)" fill="#808b95"/>
        </g>
        <g id="Grupo_1093733" data-name="Grupo 1093733" transform="translate(15.616 33.405)">
          <path id="Trazado_836195" data-name="Trazado 836195" d="M195.419,393l-.2-1.638H183.148l-.2,1.638Z" transform="translate(-182.948 -391.362)" fill="#5e6b75"/>
        </g>
        <g id="Grupo_1093734" data-name="Grupo 1093734" transform="translate(12.711 40.475)">
          <path id="Trazado_836196" data-name="Trazado 836196" d="M0,0H18.107V2.587H0Z" transform="translate(18.107 2.587) rotate(180)" fill="#a0aab7"/>
        </g>
        <g id="Grupo_1093735" data-name="Grupo 1093735" transform="translate(28.921 40.475)">
          <path id="Trazado_836197" data-name="Trazado 836197" d="M338.833,474.2h1.9v2.587h-1.9Z" transform="translate(-338.833 -474.195)" fill="#808b95"/>
        </g>
        <g id="Grupo_1093736" data-name="Grupo 1093736" transform="translate(0.64 0.64)">
          <path id="Trazado_836198" data-name="Trazado 836198" d="M49.922,35.091H7.5v-25A2.587,2.587,0,0,1,10.087,7.5H47.335a2.587,2.587,0,0,1,2.587,2.587Z" transform="translate(-7.5 -7.5)" fill="#dde6fe"/>
        </g>
        <g id="Grupo_1093737" data-name="Grupo 1093737" transform="translate(38.32 0.64)">
          <path id="Trazado_836199" data-name="Trazado 836199" d="M451.1,7.5h-2.156a2.587,2.587,0,0,1,2.587,2.587v25h2.156v-25A2.587,2.587,0,0,0,451.1,7.5Z" transform="translate(-448.941 -7.5)" fill="#b0c5fd"/>
        </g>
        <g id="Grupo_1093738" data-name="Grupo 1093738" transform="translate(0.64 28.232)">
          <path id="Trazado_836200" data-name="Trazado 836200" d="M7.5,330.752H49.922v2.587a2.587,2.587,0,0,1-2.587,2.587H10.087A2.587,2.587,0,0,1,7.5,333.339Z" transform="translate(-7.5 -330.752)" fill="#a0aab7"/>
        </g>
        <g id="Grupo_1093739" data-name="Grupo 1093739" transform="translate(38.32 28.232)">
          <path id="Trazado_836201" data-name="Trazado 836201" d="M451.528,330.752v2.587a2.587,2.587,0,0,1-2.587,2.587H451.1a2.587,2.587,0,0,0,2.587-2.587v-2.587Z" transform="translate(-448.941 -330.752)" fill="#808b95"/>
        </g>
        <g id="Grupo_1093740" data-name="Grupo 1093740" transform="translate(12.798 4.262)">
          <path id="Trazado_836202" data-name="Trazado 836202" d="M158.986,61.481h9.053l-1.113-7.848a4.311,4.311,0,0,0-4.268-3.706h-1.12a1.518,1.518,0,0,0-1.276.7,1.518,1.518,0,0,1-2.552,0,1.518,1.518,0,0,0-1.276-.7h-1.12a4.311,4.311,0,0,0-4.268,3.706l-1.113,7.848h9.053Z" transform="translate(-149.933 -49.927)" fill="#01c3fd"/>
        </g>
        <g id="Grupo_1093741" data-name="Grupo 1093741" transform="translate(23.924 4.262)">
          <path id="Trazado_836203" data-name="Trazado 836203" d="M286.154,53.633a4.311,4.311,0,0,0-4.268-3.706h-1.12a1.519,1.519,0,0,0-.479.078,4.312,4.312,0,0,1,3.453,3.628l1.113,7.848h2.414Z" transform="translate(-280.286 -49.927)" fill="#04b5ea"/>
        </g>
        <g id="Grupo_1093742" data-name="Grupo 1093742" transform="translate(12.798 12.367)">
          <path id="Trazado_836204" data-name="Trazado 836204" d="M150.422,144.882l-.489,3.449H168.04l-.489-3.449Z" transform="translate(-149.933 -144.882)" fill="#01c3fd"/>
        </g>
        <g id="Grupo_1093743" data-name="Grupo 1093743" transform="translate(28.001 12.367)">
          <path id="Trazado_836205" data-name="Trazado 836205" d="M330.467,144.882h-2.414l.489,3.449h2.414Z" transform="translate(-328.053 -144.882)" fill="#04b5ea"/>
        </g>
        <g id="Grupo_1093744" data-name="Grupo 1093744" transform="translate(10.642 15.815)">
          <path id="Trazado_836206" data-name="Trazado 836206" d="M124.679,185.289H147.1v2.587H124.679Z" transform="translate(-124.679 -185.289)" fill="#01c3fd"/>
        </g>
        <g id="Grupo_1093745" data-name="Grupo 1093745" transform="translate(12.711 18.402)">
          <path id="Trazado_836207" data-name="Trazado 836207" d="M154.786,221.112h-4.139a1.724,1.724,0,0,1-1.724-1.724v-3.794h7.588v3.794A1.724,1.724,0,0,1,154.786,221.112Z" transform="translate(-148.923 -215.594)" fill="#808b95"/>
        </g>
        <g id="Grupo_1093746" data-name="Grupo 1093746" transform="translate(23.403 18.402)">
          <path id="Trazado_836208" data-name="Trazado 836208" d="M275.907,221.112h4.139a1.724,1.724,0,0,0,1.724-1.724v-3.794h-7.588v3.794A1.724,1.724,0,0,0,275.907,221.112Z" transform="translate(-274.183 -215.594)" fill="#808b95"/>
        </g>
        <g id="Grupo_1093747" data-name="Grupo 1093747" transform="translate(27.714 18.402)">
          <path id="Trazado_836209" data-name="Trazado 836209" d="M326.415,215.593v3.794a1.724,1.724,0,0,1-1.724,1.724h1.552a1.724,1.724,0,0,0,1.724-1.724v-3.794Z" transform="translate(-324.691 -215.593)" fill="#5e6b75"/>
        </g>
        <g id="Grupo_1093748" data-name="Grupo 1093748" transform="translate(17.023 18.402)">
          <path id="Trazado_836210" data-name="Trazado 836210" d="M201.155,215.593v3.794a1.724,1.724,0,0,1-1.724,1.724h1.552a1.724,1.724,0,0,0,1.724-1.724v-3.794Z" transform="translate(-199.431 -215.593)" fill="#5e6b75"/>
        </g>
        <g id="Grupo_1093749" data-name="Grupo 1093749" transform="translate(0 0)">
          <path id="Trazado_836211" data-name="Trazado 836211" d="M118.163,59.15a.64.64,0,1,0,0,1.28h1.084V61a2.367,2.367,0,0,0,2.365,2.365h4.139A2.367,2.367,0,0,0,128.115,61v-.57h1.824V61a2.367,2.367,0,0,0,2.365,2.365h4.139A2.367,2.367,0,0,0,138.807,61v-.57h1.084a.64.64,0,0,0,0-1.28h-1.084v-1.3h1.429a.64.64,0,0,0,.64-.64V54.62a.64.64,0,0,0-.64-.64h-1.6l-1.035-7.3a4.975,4.975,0,0,0-4.9-4.256h-1.12a2.15,2.15,0,0,0-1.814.988.878.878,0,0,1-1.476,0,2.15,2.15,0,0,0-1.814-.988h-1.12a4.975,4.975,0,0,0-4.9,4.256l-1.035,7.3h-1.6a.64.64,0,0,0-.64.64v2.587a.64.64,0,0,0,.64.64h1.429v1.3Zm9.952,0v-1.3h1.824v1.3ZM137.527,61a1.086,1.086,0,0,1-1.084,1.084H132.3A1.086,1.086,0,0,1,131.219,61V57.847h6.307V61ZM125.355,43.706h1.12a.875.875,0,0,1,.738.4,2.159,2.159,0,0,0,3.628,0,.875.875,0,0,1,.738-.4h1.12a3.688,3.688,0,0,1,3.635,3.156l.52,3.669H121.2l.52-3.669A3.688,3.688,0,0,1,125.355,43.706Zm-4.336,8.1h16.017l.308,2.169H120.711Zm-2.56,3.449H139.6v1.306H118.458Zm8.377,2.587V61a1.086,1.086,0,0,1-1.084,1.084h-4.139A1.086,1.086,0,0,1,120.528,61V57.847Z" transform="translate(-107.176 -38.805)"/>
          <path id="Trazado_836212" data-name="Trazado 836212" d="M40.475,0H3.227A3.231,3.231,0,0,0,0,3.227V30.818a3.231,3.231,0,0,0,3.227,3.227H15.093l-.706,5.79H12.712a.64.64,0,0,0-.64.64v2.587a.64.64,0,0,0,.64.64H30.818a.64.64,0,0,0,.64-.64V40.475a.64.64,0,0,0-.64-.64h-1.5l-.706-5.79h3.259a.64.64,0,1,0,0-1.28H3.227A1.949,1.949,0,0,1,1.28,30.818V28.872H8.62a.64.64,0,1,0,0-1.28H1.28V3.227A1.949,1.949,0,0,1,3.227,1.28H40.475a1.949,1.949,0,0,1,1.946,1.947V27.591h-30.8a.64.64,0,1,0,0,1.28h30.8v1.947a1.949,1.949,0,0,1-1.947,1.947H34.857a.64.64,0,0,0,0,1.28h5.618A3.231,3.231,0,0,0,43.7,30.818V3.227A3.231,3.231,0,0,0,40.475,0Zm-10.3,42.422H13.352V41.115H30.178v1.306Zm-2.152-2.587H15.676l.706-5.79H27.32Z" transform="translate(0 0)"/>
        </g>
      </g>
    </g>
  </g>
</svg>
