<svg xmlns="http://www.w3.org/2000/svg" xmlns:xlink="http://www.w3.org/1999/xlink" width="127" height="105" viewBox="0 0 127 105">
  <defs>
    <linearGradient id="linear-gradient" x1="0.5" x2="0.5" y2="1" gradientUnits="objectBoundingBox">
      <stop offset="0" stop-color="#5cd5fa"/>
      <stop offset="1" stop-color="#7d5ce5"/>
    </linearGradient>
  </defs>
  <g id="Grupo_1094126" data-name="Grupo 1094126" transform="translate(-1174 -5944)">
    <rect id="Rectángulo_386880" data-name="Rectángulo 386880" width="127" height="105" rx="15" transform="translate(1174 5944)" fill="url(#linear-gradient)"/>
    <g id="permiso" transform="translate(1164.334 5948.875)">
      <g id="Grupo_1094160" data-name="Grupo 1094160" transform="translate(45.946 7.5)">
        <path id="Trazado_836606" data-name="Trazado 836606" d="M90.437,404.883H48.307a2.358,2.358,0,0,1-2.358-2.358v-12.78a2.358,2.358,0,0,1,2.358-2.358h42.13a2.358,2.358,0,0,1,2.358,2.358v12.78A2.358,2.358,0,0,1,90.437,404.883Z" transform="translate(-45.949 -330.634)" fill="#a8d3d8"/>
        <path id="Trazado_836607" data-name="Trazado 836607" d="M314.58,387.388h-5.121a2.358,2.358,0,0,1,2.358,2.358v12.78a2.358,2.358,0,0,1-2.358,2.358h5.121a2.358,2.358,0,0,0,2.358-2.358v-12.78A2.358,2.358,0,0,0,314.58,387.388Z" transform="translate(-270.092 -330.635)" fill="#8ebac5"/>
        <g id="Grupo_1094157" data-name="Grupo 1094157" transform="translate(6.24 63.305)">
          <path id="Trazado_836608" data-name="Trazado 836608" d="M104.789,435.637H89.914a2.2,2.2,0,0,1-2.2-2.2h0a2.2,2.2,0,0,1,2.2-2.2h14.875a2.2,2.2,0,0,1,2.2,2.2h0A2.2,2.2,0,0,1,104.789,435.637Z" transform="translate(-87.718 -431.245)" fill="#eaf6ff"/>
          <path id="Trazado_836609" data-name="Trazado 836609" d="M264.4,435.637h0a2.2,2.2,0,0,1-2.2-2.2h0a2.2,2.2,0,0,1,2.2-2.2h0a2.2,2.2,0,0,1,2.2,2.2h0A2.2,2.2,0,0,1,264.4,435.637Z" transform="translate(-236.137 -431.245)" fill="#bbec6c"/>
        </g>
        <path id="Trazado_836610" data-name="Trazado 836610" d="M90.437,287.772H48.307a2.358,2.358,0,0,1-2.358-2.358v-12.78a2.358,2.358,0,0,1,2.358-2.358h42.13a2.358,2.358,0,0,1,2.358,2.358v12.78A2.358,2.358,0,0,1,90.437,287.772Z" transform="translate(-45.949 -231.019)" fill="#8ebac5"/>
        <path id="Trazado_836611" data-name="Trazado 836611" d="M314.58,270.277h-5.121a2.358,2.358,0,0,1,2.358,2.358v12.78a2.358,2.358,0,0,1-2.358,2.358h5.121a2.358,2.358,0,0,0,2.358-2.358v-12.78A2.358,2.358,0,0,0,314.58,270.277Z" transform="translate(-270.092 -231.02)" fill="#7ca1b1"/>
        <path id="Trazado_836612" data-name="Trazado 836612" d="M130.706,239.738H100.014v-3.23a2.134,2.134,0,0,1,2.134-2.134h26.424a2.134,2.134,0,0,1,2.134,2.134Z" transform="translate(-91.937 -200.48)" fill="#7ca1b1"/>
        <path id="Trazado_836613" data-name="Trazado 836613" d="M262.017,234.374H256.9a2.134,2.134,0,0,1,2.134,2.134v3.23h5.121v-3.23A2.134,2.134,0,0,0,262.017,234.374Z" transform="translate(-225.382 -200.48)" fill="#678d98"/>
        <g id="Grupo_1094158" data-name="Grupo 1094158" transform="translate(6.24 45.809)">
          <path id="Trazado_836614" data-name="Trazado 836614" d="M104.789,318.525H89.914a2.2,2.2,0,0,1-2.2-2.2h0a2.2,2.2,0,0,1,2.2-2.2h14.875a2.2,2.2,0,0,1,2.2,2.2h0A2.2,2.2,0,0,1,104.789,318.525Z" transform="translate(-87.718 -314.133)" fill="#eaf6ff"/>
          <path id="Trazado_836615" data-name="Trazado 836615" d="M264.4,318.525h0a2.2,2.2,0,0,1-2.2-2.2h0a2.2,2.2,0,0,1,2.2-2.2h0a2.2,2.2,0,0,1,2.2,2.2h0A2.2,2.2,0,0,1,264.4,318.525Z" transform="translate(-236.137 -314.133)" fill="#bbec6c"/>
        </g>
        <path id="Trazado_836616" data-name="Trazado 836616" d="M274.98,7.5a15.542,15.542,0,0,0-4.9,30.29V61.132a3.156,3.156,0,0,0,.72,2.007l3.033,3.684a1.514,1.514,0,0,0,2.337,0l3.033-3.684a3.157,3.157,0,0,0,.72-2.007V51.685l-3.433-2.214,3.433-1.816V37.778A15.542,15.542,0,0,0,274.98,7.5Zm0,11.393a3.65,3.65,0,1,1,3.65-3.65A3.65,3.65,0,0,1,274.98,18.893Z" transform="translate(-227.546 -7.5)" fill="#ffe177"/>
        <g id="Grupo_1094159" data-name="Grupo 1094159" transform="translate(45.319 0)">
          <path id="Trazado_836617" data-name="Trazado 836617" d="M351.418,7.5a15.677,15.677,0,0,0-2.115.144,15.544,15.544,0,0,1,3.788,29.772,1.563,1.563,0,0,0-.971,1.445v8.794l-1.844.976a1.052,1.052,0,0,0-.078,1.815l1.922,1.24v9.448a3.157,3.157,0,0,1-.72,2.007l-2.083,2.529.95,1.154a1.514,1.514,0,0,0,2.337,0l3.033-3.684a3.157,3.157,0,0,0,.72-2.007V51.685l-3.433-2.214,3.433-1.816V37.778A15.542,15.542,0,0,0,351.418,7.5Z" transform="translate(-349.303 -7.5)" fill="#ffd15b"/>
        </g>
      </g>
      <g id="Grupo_1094167" data-name="Grupo 1094167" transform="translate(45.945 7.5)">
        <path id="Trazado_836618" data-name="Trazado 836618" d="M92.792,390.382v12.143a2.359,2.359,0,0,1-2.359,2.358H48.3a2.359,2.359,0,0,1-2.359-2.358V389.745a2.359,2.359,0,0,1,2.359-2.358h41.81" transform="translate(-45.945 -330.634)" fill="none" stroke="#000" stroke-linecap="round" stroke-linejoin="round" stroke-miterlimit="10" stroke-width="1.2"/>
        <g id="Grupo_1094161" data-name="Grupo 1094161" transform="translate(6.24 63.305)">
          <path id="Trazado_836619" data-name="Trazado 836619" d="M96.829,431.245h7.959a2.2,2.2,0,0,1,2.2,2.2h0a2.2,2.2,0,0,1-2.2,2.2H89.913a2.2,2.2,0,0,1-2.2-2.2h0a2.2,2.2,0,0,1,2.2-2.2h1.761" transform="translate(-87.717 -431.245)" fill="none" stroke="#000" stroke-linecap="round" stroke-linejoin="round" stroke-miterlimit="10" stroke-width="1.2"/>
          <path id="Trazado_836620" data-name="Trazado 836620" d="M264.4,435.637h0a2.2,2.2,0,0,1-2.2-2.2h0a2.2,2.2,0,0,1,2.2-2.2h0a2.2,2.2,0,0,1,2.2,2.2h0A2.2,2.2,0,0,1,264.4,435.637Z" transform="translate(-236.137 -431.245)" fill="none" stroke="#000" stroke-linecap="round" stroke-linejoin="round" stroke-miterlimit="10" stroke-width="1.2"/>
          <line id="Línea_3985" data-name="Línea 3985" x2="3.907" transform="translate(30.459 2.196)" fill="none" stroke="#000" stroke-linecap="round" stroke-linejoin="round" stroke-miterlimit="10" stroke-width="1.2"/>
        </g>
        <path id="Trazado_836621" data-name="Trazado 836621" d="M88.477,270.275H48.3a2.36,2.36,0,0,0-2.359,2.358v12.781a2.359,2.359,0,0,0,2.359,2.358h41.81" transform="translate(-45.945 -231.018)" fill="none" stroke="#000" stroke-linecap="round" stroke-linejoin="round" stroke-miterlimit="10" stroke-width="1.2"/>
        <path id="Trazado_836622" data-name="Trazado 836622" d="M130.706,239.738H100.014v-3.23a2.134,2.134,0,0,1,2.134-2.134h26.424a2.134,2.134,0,0,1,2.134,2.134Z" transform="translate(-91.936 -200.48)" fill="none" stroke="#000" stroke-linecap="round" stroke-linejoin="round" stroke-miterlimit="10" stroke-width="1.2"/>
        <g id="Grupo_1094164" data-name="Grupo 1094164" transform="translate(14.204 16.316)">
          <g id="Grupo_1094162" data-name="Grupo 1094162" transform="translate(4.842)">
            <line id="Línea_3986" data-name="Línea 3986" y2="2.076" fill="none" stroke="#000" stroke-linecap="round" stroke-linejoin="round" stroke-miterlimit="10" stroke-width="1.2"/>
            <line id="Línea_3987" data-name="Línea 3987" y2="2.076" transform="translate(0 7.608)" fill="none" stroke="#000" stroke-linecap="round" stroke-linejoin="round" stroke-miterlimit="10" stroke-width="1.2"/>
          </g>
          <g id="Grupo_1094163" data-name="Grupo 1094163" transform="translate(0 4.842)">
            <line id="Línea_3988" data-name="Línea 3988" x1="2.076" transform="translate(7.608)" fill="none" stroke="#000" stroke-linecap="round" stroke-linejoin="round" stroke-miterlimit="10" stroke-width="1.2"/>
            <line id="Línea_3989" data-name="Línea 3989" x1="2.076" fill="none" stroke="#000" stroke-linecap="round" stroke-linejoin="round" stroke-miterlimit="10" stroke-width="1.2"/>
          </g>
        </g>
        <line id="Línea_3990" data-name="Línea 3990" transform="translate(26.589 27.944)" fill="none" stroke="#000" stroke-linecap="round" stroke-linejoin="round" stroke-miterlimit="10" stroke-width="1.2"/>
        <g id="Grupo_1094165" data-name="Grupo 1094165" transform="translate(6.241 45.809)">
          <path id="Trazado_836623" data-name="Trazado 836623" d="M104.789,318.525H89.914a2.2,2.2,0,0,1-2.2-2.2h0a2.2,2.2,0,0,1,2.2-2.2h14.875a2.2,2.2,0,0,1,2.2,2.2h0A2.2,2.2,0,0,1,104.789,318.525Z" transform="translate(-87.718 -314.133)" fill="none" stroke="#000" stroke-linecap="round" stroke-linejoin="round" stroke-miterlimit="10" stroke-width="1.2"/>
          <path id="Trazado_836624" data-name="Trazado 836624" d="M264.4,318.525h0a2.2,2.2,0,0,1-2.2-2.2h0a2.2,2.2,0,0,1,2.2-2.2h0a2.2,2.2,0,0,1,2.2,2.2h0A2.2,2.2,0,0,1,264.4,318.525Z" transform="translate(-236.137 -314.133)" fill="none" stroke="#000" stroke-linecap="round" stroke-linejoin="round" stroke-miterlimit="10" stroke-width="1.2"/>
          <line id="Línea_3991" data-name="Línea 3991" x2="3.907" transform="translate(30.459 2.196)" fill="none" stroke="#000" stroke-linecap="round" stroke-linejoin="round" stroke-miterlimit="10" stroke-width="1.2"/>
        </g>
        <g id="Grupo_1094166" data-name="Grupo 1094166" transform="translate(31.895 0)">
          <circle id="Elipse_11150" data-name="Elipse 11150" cx="3.65" cy="3.65" r="3.65" transform="translate(11.89 4.092)" fill="none" stroke="#000" stroke-linecap="round" stroke-linejoin="round" stroke-miterlimit="10" stroke-width="1.2"/>
          <path id="Trazado_836625" data-name="Trazado 836625" d="M290.306,20.457A15.541,15.541,0,1,0,270.077,37.79V61.132a3.156,3.156,0,0,0,.72,2.007l3.033,3.684a1.514,1.514,0,0,0,2.337,0l3.033-3.684a3.157,3.157,0,0,0,.72-2.007V51.685l-3.433-2.214,3.433-1.816V37.778a15.561,15.561,0,0,0,10.387-12.159" transform="translate(-259.44 -7.5)" fill="none" stroke="#000" stroke-linecap="round" stroke-linejoin="round" stroke-miterlimit="10" stroke-width="1.2"/>
        </g>
        <line id="Línea_3992" data-name="Línea 3992" x2="10.13" transform="translate(42.37 16.076)" fill="none" stroke="#000" stroke-linecap="round" stroke-linejoin="round" stroke-miterlimit="10" stroke-width="1.2"/>
      </g>
    </g>
  </g>
</svg>
