<svg xmlns="http://www.w3.org/2000/svg" xmlns:xlink="http://www.w3.org/1999/xlink" width="127" height="105" viewBox="0 0 127 105">
  <defs>
    <linearGradient id="linear-gradient" x1="0.5" x2="0.5" y2="1" gradientUnits="objectBoundingBox">
      <stop offset="0" stop-color="#5cd5fa"/>
      <stop offset="1" stop-color="#7d5ce5"/>
    </linearGradient>
  </defs>
  <g id="Grupo_1094129" data-name="Grupo 1094129" transform="translate(-1174 -5944)">
    <rect id="Rectángulo_386880" data-name="Rectángulo 386880" width="127" height="105" rx="15" transform="translate(1174 5944)" fill="url(#linear-gradient)"/>
    <g id="folder-files-document-paper-transfer" transform="translate(1200.24 5959.098)">
      <path id="Trazado_836626" data-name="Trazado 836626" d="M44.961,10.052V17.1H5V5.351A2.358,2.358,0,0,1,7.351,3H17.928a2.187,2.187,0,0,1,.881.176,2.351,2.351,0,0,1,1.469,2.174V7.7H42.61A2.358,2.358,0,0,1,44.961,10.052Z" transform="translate(0.526 0.175)" fill="#ebb909"/>
      <path id="Trazado_836627" data-name="Trazado 836627" d="M9,11H39.558v4.7H9Z" transform="translate(1.227 1.578)" fill="#a4e276"/>
      <path id="Trazado_836628" data-name="Trazado 836628" d="M47.662,15,41.116,36.826a2.351,2.351,0,0,1-2.257,1.681H11.8a2.351,2.351,0,0,1-2.257-1.681L3,15Z" transform="translate(0.175 2.279)" fill="#ffc808"/>
      <path id="Trazado_836629" data-name="Trazado 836629" d="M42.184,15l-2.978,9.929A14.1,14.1,0,0,1,25.7,34.98H8.1l.554,1.845a2.351,2.351,0,0,0,2.255,1.681H37.965a2.351,2.351,0,0,0,2.257-1.681L46.768,15Z" transform="translate(1.07 2.279)" fill="#ffae08"/>
      <path id="Trazado_836630" data-name="Trazado 836630" d="M64.961,36.052V43.1H25V31.351A2.358,2.358,0,0,1,27.351,29H37.928a2.187,2.187,0,0,1,.881.176,2.351,2.351,0,0,1,1.469,2.174V33.7H62.61A2.358,2.358,0,0,1,64.961,36.052Z" transform="translate(4.032 4.734)" fill="#ebb909"/>
      <path id="Trazado_836631" data-name="Trazado 836631" d="M29,37H59.558v4.7H29Z" transform="translate(4.734 6.136)" fill="#a4e276"/>
      <path id="Trazado_836632" data-name="Trazado 836632" d="M67.662,41,61.116,62.826a2.351,2.351,0,0,1-2.257,1.681H31.8a2.351,2.351,0,0,1-2.257-1.681L23,41Z" transform="translate(3.682 6.837)" fill="#ffc808"/>
      <path id="Trazado_836633" data-name="Trazado 836633" d="M62.184,41l-2.978,9.929A14.1,14.1,0,0,1,45.7,60.98H28.1l.554,1.845a2.351,2.351,0,0,0,2.255,1.681H57.965a2.351,2.351,0,0,0,2.257-1.681L66.768,41Z" transform="translate(4.576 6.837)" fill="#ffae08"/>
      <g id="Grupo_1094168" data-name="Grupo 1094168" transform="translate(1.999 2)">
        <path id="Trazado_836634" data-name="Trazado 836634" d="M20.649,54.338A1.175,1.175,0,1,0,18.987,56l2.981,2.98H9.526a1.175,1.175,0,0,1-1.175-1.175V40.175a1.175,1.175,0,1,0-2.351,0v17.63a3.526,3.526,0,0,0,3.526,3.526H21.968l-2.981,2.981a1.175,1.175,0,1,0,1.662,1.662l4.987-4.987a1.175,1.175,0,0,0,0-1.662Z" transform="translate(-1.298 4.487)" fill="#231f20"/>
        <path id="Trazado_836635" data-name="Trazado 836635" d="M72.284,47.132a1.175,1.175,0,0,0-.94-.47H70.169V40.785a3.537,3.537,0,0,0-3.526-3.526H45.487V36.084a3.47,3.47,0,0,0-1.269-2.68L48.966,17.62a1.189,1.189,0,0,0-.188-1.046,1.175,1.175,0,0,0-.94-.47H46.662V10.227A3.537,3.537,0,0,0,43.136,6.7H21.981V5.526A3.537,3.537,0,0,0,18.455,2H7.877A3.537,3.537,0,0,0,4.351,5.526V16.1H3.175a1.175,1.175,0,0,0-.94.47,1.189,1.189,0,0,0-.188,1.046L8.594,39.446a3.526,3.526,0,0,0,3.385,2.515H27.857v4.7H26.682a1.175,1.175,0,0,0-.94.47,1.189,1.189,0,0,0-.188,1.046L32.1,70a3.515,3.515,0,0,0,3.385,2.515H62.541A3.515,3.515,0,0,0,65.926,70l6.547-21.826a1.189,1.189,0,0,0-.188-1.046ZM44.312,39.61H66.643a1.175,1.175,0,0,1,1.175,1.175v5.877H65.467V43.136a1.175,1.175,0,0,0-1.175-1.175H33.734a1.175,1.175,0,0,0-1.175,1.175v3.526H30.208V36.084a1.175,1.175,0,0,1,1.175-1.175H41.961a1.175,1.175,0,0,1,1.175,1.175v2.351A1.175,1.175,0,0,0,44.312,39.61Zm18.805,4.7v2.351H34.909V44.311ZM6.7,5.526A1.175,1.175,0,0,1,7.877,4.351H18.455A1.175,1.175,0,0,1,19.63,5.526V7.877a1.175,1.175,0,0,0,1.175,1.175H43.136a1.175,1.175,0,0,1,1.175,1.175V16.1H41.961V12.578A1.175,1.175,0,0,0,40.786,11.4H10.227a1.175,1.175,0,0,0-1.175,1.175V16.1H6.7ZM39.61,13.753V16.1H11.4V13.753ZM27.857,39.61H11.979a1.175,1.175,0,0,1-1.128-.846L4.75,18.454H46.263L42.02,32.57a.106.106,0,0,0-.059-.012H31.383a3.537,3.537,0,0,0-3.526,3.526ZM63.669,69.334a1.175,1.175,0,0,1-1.128.834H35.485a1.175,1.175,0,0,1-1.128-.834l-6.1-20.321H69.769Z" transform="translate(-1.999 -2)" fill="#231f20"/>
        <path id="Trazado_836636" data-name="Trazado 836636" d="M36.973,56.678H33.229l-1.112-3.707a1.176,1.176,0,1,0-2.252.676l1.363,4.545a1.175,1.175,0,0,0,1.126.837h4.618a1.175,1.175,0,0,0,0-2.351Z" transform="translate(2.878 6.789)" fill="#231f20"/>
        <path id="Trazado_836637" data-name="Trazado 836637" d="M49.331,14.737a1.175,1.175,0,1,0,1.662-1.662l-2.981-2.98h8.916A1.175,1.175,0,0,1,58.1,11.27V31.25a1.175,1.175,0,0,0,2.351,0V11.27a3.526,3.526,0,0,0-3.526-3.526H48.012l2.981-2.981A1.175,1.175,0,1,0,49.331,3.1L44.344,8.088a1.175,1.175,0,0,0,0,1.662Z" transform="translate(5.364 -1.867)" fill="#231f20"/>
        <path id="Trazado_836638" data-name="Trazado 836638" d="M16.973,30.678H13.229l-1.112-3.707a1.176,1.176,0,1,0-2.252.676l1.363,4.545a1.175,1.175,0,0,0,1.126.837h4.618a1.175,1.175,0,1,0,0-2.351Z" transform="translate(-0.629 2.231)" fill="#231f20"/>
        <path id="Trazado_836639" data-name="Trazado 836639" d="M56.877,44h-4.7a1.175,1.175,0,1,0,0,2.351h3.071l-.661,1.979a1.177,1.177,0,1,0,2.233.743l1.175-3.526A1.175,1.175,0,0,0,56.877,44Z" transform="translate(6.592 5.363)" fill="#231f20"/>
        <path id="Trazado_836640" data-name="Trazado 836640" d="M32.175,20.351h3.071l-.661,1.979a1.177,1.177,0,1,0,2.233.743l1.175-3.526A1.175,1.175,0,0,0,36.877,18h-4.7a1.175,1.175,0,1,0,0,2.351Z" transform="translate(3.085 0.805)" fill="#231f20"/>
      </g>
    </g>
  </g>
</svg>
