<svg xmlns="http://www.w3.org/2000/svg" xmlns:xlink="http://www.w3.org/1999/xlink" width="127" height="105" viewBox="0 0 127 105">
  <defs>
    <linearGradient id="linear-gradient" x1="0.5" x2="0.5" y2="1" gradientUnits="objectBoundingBox">
      <stop offset="0" stop-color="#5cd5fa"/>
      <stop offset="1" stop-color="#7d5ce5"/>
    </linearGradient>
  </defs>
  <g id="Grupo_1094135" data-name="Grupo 1094135" transform="translate(-1174 -5944)">
    <rect id="Rectángulo_386880" data-name="Rectángulo 386880" width="127" height="105" rx="15" transform="translate(1174 5944)" fill="url(#linear-gradient)"/>
    <g id="contrasena" transform="translate(1201.375 5960.375)">
      <g id="Grupo_1094171" data-name="Grupo 1094171" transform="translate(3.024 3.024)">
        <path id="Trazado_836688" data-name="Trazado 836688" d="M68.951,6.957V64.994a3.963,3.963,0,0,1-3.957,3.957H6.947A3.954,3.954,0,0,1,3,64.994V6.957A3.954,3.954,0,0,1,6.947,3H64.994a3.963,3.963,0,0,1,3.957,3.957" transform="translate(-3 -3)" fill="#fff"/>
      </g>
      <g id="Grupo_1094172" data-name="Grupo 1094172" transform="translate(2.625 2.625)">
        <path id="Trazado_836689" data-name="Trazado 836689" d="M65.018,69.374H6.97a4.355,4.355,0,0,1-4.345-4.356V6.981A4.355,4.355,0,0,1,6.97,2.625H65.018a4.361,4.361,0,0,1,4.356,4.356V65.018A4.361,4.361,0,0,1,65.018,69.374ZM6.97,3.423A3.556,3.556,0,0,0,3.423,6.981V65.018A3.556,3.556,0,0,0,6.97,68.576H65.018a3.562,3.562,0,0,0,3.558-3.558V6.981a3.562,3.562,0,0,0-3.558-3.558Z" transform="translate(-2.625 -2.625)"/>
      </g>
      <g id="Grupo_1094173" data-name="Grupo 1094173" transform="translate(3.024 3.024)">
        <path id="Trazado_836690" data-name="Trazado 836690" d="M68.951,6.957V18.2H3V6.957A3.954,3.954,0,0,1,6.947,3H64.994a3.963,3.963,0,0,1,3.957,3.957" transform="translate(-3 -3)" fill="#71d6a2"/>
      </g>
      <g id="Grupo_1094174" data-name="Grupo 1094174" transform="translate(2.625 2.625)">
        <path id="Trazado_836691" data-name="Trazado 836691" d="M68.975,18.623H3.024a.4.4,0,0,1-.4-.4V6.981A4.355,4.355,0,0,1,6.97,2.625H65.018a4.361,4.361,0,0,1,4.356,4.356V18.225a.4.4,0,0,1-.4.4Zm-65.552-.8H68.576V6.981a3.562,3.562,0,0,0-3.558-3.558H6.97A3.556,3.556,0,0,0,3.423,6.981Z" transform="translate(-2.625 -2.625)"/>
      </g>
      <g id="Grupo_1094175" data-name="Grupo 1094175" transform="translate(9.176 8.068)">
        <path id="Trazado_836692" data-name="Trazado 836692" d="M14.372,10.536a2.794,2.794,0,1,1-2.794-2.794,2.786,2.786,0,0,1,2.794,2.794" transform="translate(-8.783 -7.742)" fill="#fff"/>
      </g>
      <g id="Grupo_1094176" data-name="Grupo 1094176" transform="translate(8.777 7.669)">
        <path id="Trazado_836693" data-name="Trazado 836693" d="M11.6,13.744a3.189,3.189,0,1,1,3.193-3.184A3.192,3.192,0,0,1,11.6,13.744Zm0-5.579a2.391,2.391,0,1,0,2.4,2.4A2.4,2.4,0,0,0,11.6,8.165Z" transform="translate(-8.408 -7.367)"/>
      </g>
      <g id="Grupo_1094177" data-name="Grupo 1094177" transform="translate(19.668 8.068)">
        <path id="Trazado_836694" data-name="Trazado 836694" d="M24.236,10.536a2.794,2.794,0,1,1-2.794-2.794,2.786,2.786,0,0,1,2.794,2.794" transform="translate(-18.647 -7.742)" fill="#fff"/>
      </g>
      <g id="Grupo_1094178" data-name="Grupo 1094178" transform="translate(19.269 7.669)">
        <path id="Trazado_836695" data-name="Trazado 836695" d="M21.465,13.744a3.189,3.189,0,1,1,3.193-3.184A3.192,3.192,0,0,1,21.465,13.744Zm0-5.579a2.391,2.391,0,1,0,2.4,2.4A2.4,2.4,0,0,0,21.465,8.165Z" transform="translate(-18.272 -7.367)"/>
      </g>
      <g id="Grupo_1094179" data-name="Grupo 1094179" transform="translate(30.16 8.068)">
        <path id="Trazado_836696" data-name="Trazado 836696" d="M34.1,10.536a2.794,2.794,0,1,1-2.794-2.794A2.786,2.786,0,0,1,34.1,10.536" transform="translate(-28.511 -7.742)" fill="#fff"/>
      </g>
      <g id="Grupo_1094180" data-name="Grupo 1094180" transform="translate(29.761 7.669)">
        <path id="Trazado_836697" data-name="Trazado 836697" d="M31.329,13.744a3.189,3.189,0,1,1,3.193-3.184A3.192,3.192,0,0,1,31.329,13.744Zm0-5.579a2.391,2.391,0,1,0,2.4,2.4A2.4,2.4,0,0,0,31.329,8.165Z" transform="translate(-28.136 -7.367)"/>
      </g>
      <g id="Grupo_1094181" data-name="Grupo 1094181" transform="translate(8.581 25.678)">
        <path id="Trazado_836698" data-name="Trazado 836698" d="M63.061,26.417V39.6a2.119,2.119,0,0,1-2.12,2.12H10.325a2.115,2.115,0,0,1-2.1-2.12V26.417a2.115,2.115,0,0,1,2.1-2.12H60.941a2.119,2.119,0,0,1,2.12,2.12" transform="translate(-8.224 -24.297)" fill="#ffbd5a"/>
      </g>
      <g id="Grupo_1094182" data-name="Grupo 1094182" transform="translate(8.183 25.279)">
        <path id="Trazado_836699" data-name="Trazado 836699" d="M60.964,42.142H10.349a2.511,2.511,0,0,1-2.5-2.518V26.441a2.512,2.512,0,0,1,2.5-2.519H60.964a2.522,2.522,0,0,1,2.519,2.519V39.624A2.521,2.521,0,0,1,60.964,42.142ZM10.349,24.72a1.713,1.713,0,0,0-1.7,1.721V39.624a1.713,1.713,0,0,0,1.7,1.72H60.964a1.723,1.723,0,0,0,1.721-1.72V26.441a1.723,1.723,0,0,0-1.721-1.721Z" transform="translate(-7.85 -23.922)"/>
      </g>
      <g id="Grupo_1094183" data-name="Grupo 1094183" transform="translate(26.648 52.934)">
        <path id="Trazado_836700" data-name="Trazado 836700" d="M33.553,59.132a.892.892,0,0,1,.016.839.856.856,0,0,1-.723.411H31.53a.823.823,0,0,1-.724-.411L29.671,58.03c-.1-.164-.2-.329-.28-.477-.082.148-.181.313-.279.477l-1.053,1.924a.817.817,0,0,1-.724.428h-1.3a.859.859,0,0,1-.724-.411.85.85,0,0,1,.017-.839l2.435-4.03-2.336-3.93a.84.84,0,0,1,.707-1.251h1.316a.837.837,0,0,1,.723.428L29.342,52.4l.1.2c.033-.066.082-.132.115-.2l1.184-2.072a.86.86,0,0,1,.724-.412H32.78a.84.84,0,0,1,.724.428.811.811,0,0,1-.034.839l-2.4,3.849Z" transform="translate(-25.209 -49.92)" fill="#222123"/>
      </g>
      <g id="Grupo_1094184" data-name="Grupo 1094184" transform="translate(26.25 52.535)">
        <path id="Trazado_836701" data-name="Trazado 836701" d="M32.87,60.8H31.554a1.228,1.228,0,0,1-1.072-.613l-1.065-1.821-.985,1.8a1.216,1.216,0,0,1-1.074.635h-1.3A1.214,1.214,0,0,1,25,58.962l2.318-3.838L25.109,51.4a1.225,1.225,0,0,1,0-1.231,1.2,1.2,0,0,1,1.05-.622h1.316a1.233,1.233,0,0,1,1.071.632l.928,1.633.944-1.652a1.257,1.257,0,0,1,1.071-.613H32.8a1.235,1.235,0,0,1,1.072.631,1.206,1.206,0,0,1-.043,1.248l-2.271,3.64,2.357,3.886.007.011a1.292,1.292,0,0,1,.024,1.213,1.257,1.257,0,0,1-1.08.631Zm-3.455-3.626a.4.4,0,0,1,.348.2c.081.144.177.305.273.464l1.138,1.947a.426.426,0,0,0,.38.213H32.87a.46.46,0,0,0,.381-.216.487.487,0,0,0-.019-.434l-2.48-4.09a.4.4,0,0,1,0-.418L33.156,51a.415.415,0,0,0,.024-.433.442.442,0,0,0-.377-.224H31.488a.463.463,0,0,0-.383.219l-1.179,2.064c-.011.023-.037.066-.064.109a.464.464,0,0,1-.377.257h0a.4.4,0,0,1-.376-.187l-.1-.2-1.158-2.037a.44.44,0,0,0-.377-.226H26.159a.416.416,0,0,0-.359.224.421.421,0,0,0,0,.432l2.331,3.922a.4.4,0,0,1,0,.41l-2.435,4.031a.446.446,0,0,0-.01.437.458.458,0,0,0,.377.207h1.3a.417.417,0,0,0,.376-.222l1.051-1.922c.111-.185.2-.339.279-.478a.4.4,0,0,1,.348-.207h0Z" transform="translate(-24.835 -49.545)"/>
      </g>
      <g id="Grupo_1094185" data-name="Grupo 1094185" transform="translate(16.4 52.934)">
        <path id="Trazado_836702" data-name="Trazado 836702" d="M23.919,59.132a.816.816,0,0,1-.707,1.25H21.9a.8.8,0,0,1-.707-.411L20.037,58.03c-.1-.164-.2-.329-.28-.477-.082.148-.182.313-.28.477l-1.053,1.924a.815.815,0,0,1-.723.428H16.4a.817.817,0,0,1-.707-1.25l2.435-4.03-2.336-3.93A.84.84,0,0,1,16.5,49.92h1.332a.811.811,0,0,1,.707.428L19.709,52.4c.032.066.066.132.1.2a1.271,1.271,0,0,0,.116-.2l1.184-2.072a.857.857,0,0,1,.723-.412h1.316a.839.839,0,0,1,.724.428.811.811,0,0,1-.033.839l-2.4,3.849Z" transform="translate(-15.575 -49.92)" fill="#222123"/>
      </g>
      <g id="Grupo_1094186" data-name="Grupo 1094186" transform="translate(16.002 52.535)">
        <path id="Trazado_836703" data-name="Trazado 836703" d="M23.235,60.8H21.92a1.2,1.2,0,0,1-1.055-.614l-1.079-1.819-.987,1.8a1.215,1.215,0,0,1-1.073.635h-1.3a1.216,1.216,0,0,1-1.055-1.844l2.318-3.837L15.474,51.4a1.225,1.225,0,0,1,0-1.231,1.2,1.2,0,0,1,1.049-.622h1.332a1.2,1.2,0,0,1,1.055.632l.929,1.634.943-1.653a1.254,1.254,0,0,1,1.07-.613h1.316a1.235,1.235,0,0,1,1.072.631,1.206,1.206,0,0,1-.042,1.248l-2.272,3.64,2.357,3.886.007.011A1.215,1.215,0,0,1,23.235,60.8Zm-3.454-3.626a.4.4,0,0,1,.349.206c.08.144.176.305.272.463l1.153,1.945a.4.4,0,0,0,.364.215h1.316a.455.455,0,0,0,.383-.217.447.447,0,0,0-.02-.433l-2.48-4.09a.4.4,0,0,1,0-.418L23.522,51a.413.413,0,0,0,.023-.433.436.436,0,0,0-.377-.224H21.854a.46.46,0,0,0-.381.218l-1.18,2.065a1.54,1.54,0,0,1-.143.239.4.4,0,0,1-.678-.065l-.1-.2-1.157-2.032a.412.412,0,0,0-.36-.226H16.524a.415.415,0,0,0-.359.224.421.421,0,0,0,0,.432L18.5,54.922a.4.4,0,0,1,0,.41l-2.435,4.031a.444.444,0,0,0-.009.437.456.456,0,0,0,.376.207h1.3a.416.416,0,0,0,.375-.222l1.051-1.922c.129-.216.211-.353.28-.478a.4.4,0,0,1,.349-.207h0Z" transform="translate(-15.201 -49.545)"/>
      </g>
      <g id="Grupo_1094187" data-name="Grupo 1094187" transform="translate(36.896 52.934)">
        <path id="Trazado_836704" data-name="Trazado 836704" d="M43.187,59.132a.85.85,0,0,1,0,.839.809.809,0,0,1-.707.411H41.164a.823.823,0,0,1-.724-.411L39.305,58.03c-.1-.164-.2-.329-.281-.477-.082.148-.181.313-.279.477l-1.053,1.924a.835.835,0,0,1-.723.428h-1.3a.859.859,0,0,1-.724-.411.85.85,0,0,1,.017-.839L37.4,55.1l-2.336-3.93a.819.819,0,0,1,0-.823.792.792,0,0,1,.707-.428h1.316a.837.837,0,0,1,.723.428L38.976,52.4l.1.2c.033-.066.082-.132.115-.2l1.184-2.072a.86.86,0,0,1,.724-.412h1.316a.84.84,0,0,1,.724.428.854.854,0,0,1-.033.839l-2.4,3.849Z" transform="translate(-34.842 -49.92)" fill="#222123"/>
      </g>
      <g id="Grupo_1094188" data-name="Grupo 1094188" transform="translate(36.498 52.535)">
        <path id="Trazado_836705" data-name="Trazado 836705" d="M42.5,60.8H41.188a1.228,1.228,0,0,1-1.072-.613l-1.064-1.821-.985,1.8a1.232,1.232,0,0,1-1.073.635h-1.3a1.215,1.215,0,0,1-1.055-1.844l2.318-3.837L34.742,51.4a1.229,1.229,0,0,1,0-1.231,1.181,1.181,0,0,1,1.05-.622h1.316a1.232,1.232,0,0,1,1.071.632l.928,1.633.944-1.652a1.257,1.257,0,0,1,1.071-.613h1.316a1.235,1.235,0,0,1,1.072.631,1.258,1.258,0,0,1-.042,1.247L41.2,55.063l2.356,3.886.007.011a1.247,1.247,0,0,1,0,1.23A1.2,1.2,0,0,1,42.5,60.8Zm-3.455-3.626a.4.4,0,0,1,.348.2c.081.144.178.305.274.464l1.137,1.947a.426.426,0,0,0,.38.213H42.5a.412.412,0,0,0,.355-.2.451.451,0,0,0,.007-.451l-2.48-4.09a.4.4,0,0,1,0-.418L42.79,51a.453.453,0,0,0,.015-.451.437.437,0,0,0-.367-.207H41.122a.463.463,0,0,0-.383.219L39.56,52.626c-.011.023-.037.066-.064.109a.464.464,0,0,1-.377.257h0a.4.4,0,0,1-.376-.187l-.1-.2-1.158-2.037a.439.439,0,0,0-.376-.226H35.792a.4.4,0,0,0-.351.207.438.438,0,0,0-.009.451l2.331,3.921a.4.4,0,0,1,0,.41l-2.435,4.031a.444.444,0,0,0-.01.437.458.458,0,0,0,.377.207h1.3a.438.438,0,0,0,.375-.222l1.051-1.922c.111-.185.2-.339.279-.478a.4.4,0,0,1,.348-.207h0Z" transform="translate(-34.468 -49.545)"/>
      </g>
      <g id="Grupo_1094189" data-name="Grupo 1094189" transform="translate(47.138 52.935)">
        <path id="Trazado_836706" data-name="Trazado 836706" d="M52.821,59.971a.81.81,0,0,1-.707.412H50.782a.816.816,0,0,1-.708-.412L48.94,58.029c-.1-.164-.2-.329-.28-.477-.083.148-.182.313-.28.477l-1.053,1.925a.837.837,0,0,1-.723.428H45.3a.86.86,0,0,1-.724-.412.815.815,0,0,1,.017-.839L47.031,55.1,44.7,51.171a.862.862,0,0,1-.017-.822.84.84,0,0,1,.724-.428h1.316a.836.836,0,0,1,.723.428L48.611,52.4c.032.066.065.132.1.2.033-.065.082-.131.115-.2l1.185-2.073a.858.858,0,0,1,.723-.411h1.316a.839.839,0,0,1,.724.428.854.854,0,0,1-.033.839l-2.4,3.849,2.484,4.1a.85.85,0,0,1,0,.839" transform="translate(-44.471 -49.921)" fill="#222123"/>
      </g>
      <g id="Grupo_1094190" data-name="Grupo 1094190" transform="translate(46.74 52.536)">
        <path id="Trazado_836707" data-name="Trazado 836707" d="M52.137,60.805H50.806a1.213,1.213,0,0,1-1.056-.614l-1.063-1.82-.986,1.8a1.233,1.233,0,0,1-1.073.636h-1.3a1.255,1.255,0,0,1-1.066-.6,1.216,1.216,0,0,1,.019-1.256l2.309-3.822L44.376,51.4a1.26,1.26,0,0,1-.026-1.213,1.241,1.241,0,0,1,1.077-.639h1.316a1.232,1.232,0,0,1,1.07.63l.928,1.634.945-1.653a1.256,1.256,0,0,1,1.07-.611h1.316a1.238,1.238,0,0,1,1.071.628,1.261,1.261,0,0,1-.041,1.248L50.83,55.063l2.356,3.886a1.252,1.252,0,0,1,.008,1.238,1.209,1.209,0,0,1-1.057.618Zm-3.454-3.627h0a.4.4,0,0,1,.348.2c.08.144.177.305.273.465l1.136,1.946a.417.417,0,0,0,.364.214h1.332a.416.416,0,0,0,.356-.2l0-.007a.448.448,0,0,0,0-.449L50.02,55.267a.4.4,0,0,1,0-.418L52.424,51a.454.454,0,0,0,.015-.451.44.44,0,0,0-.368-.206H50.756a.463.463,0,0,0-.382.217l-1.18,2.066c-.012.025-.039.069-.065.111a.465.465,0,0,1-.374.252h0a.4.4,0,0,1-.373-.183l-.1-.2-1.158-2.036a.44.44,0,0,0-.376-.225H45.426a.442.442,0,0,0-.377.225.463.463,0,0,0,.018.431L47.4,54.923a.4.4,0,0,1,0,.41l-2.435,4.029a.42.42,0,0,0-.01.438.461.461,0,0,0,.376.207h1.3A.439.439,0,0,0,47,59.783l1.051-1.921c.129-.218.211-.355.282-.481a.4.4,0,0,1,.348-.2Z" transform="translate(-44.097 -49.546)"/>
      </g>
    </g>
  </g>
</svg>
