<svg xmlns="http://www.w3.org/2000/svg" xmlns:xlink="http://www.w3.org/1999/xlink" width="127" height="105" viewBox="0 0 127 105">
  <defs>
    <linearGradient id="linear-gradient" x1="0.5" x2="0.5" y2="1" gradientUnits="objectBoundingBox">
      <stop offset="0" stop-color="#5cd5fa"/>
      <stop offset="1" stop-color="#7d5ce5"/>
    </linearGradient>
  </defs>
  <g id="Grupo_1094192" data-name="Grupo 1094192" transform="translate(-1240 -2436)">
    <g id="Grupo_1094138" data-name="Grupo 1094138" transform="translate(66 -3508)">
      <rect id="Rectángulo_386880" data-name="Rectángulo 386880" width="127" height="105" rx="15" transform="translate(1174 5944)" fill="url(#linear-gradient)"/>
    </g>
    <g id="cifrado" transform="translate(1271.629 2458.949)">
      <path id="Trazado_836708" data-name="Trazado 836708" d="M64.8,67.578H10.282A2.781,2.781,0,0,1,7.5,64.8V10.282A2.781,2.781,0,0,1,10.282,7.5H64.8a2.781,2.781,0,0,1,2.781,2.782V64.8A2.781,2.781,0,0,1,64.8,67.578Zm0,0" transform="translate(-6.508 -6.509)" fill="#e9feff"/>
      <path id="Trazado_836709" data-name="Trazado 836709" d="M64.566,179.321V147.778a1.283,1.283,0,0,1,1.283-1.283h42.412a1.283,1.283,0,0,1,1.283,1.283v31.542a1.283,1.283,0,0,1-1.283,1.282H65.849A1.283,1.283,0,0,1,64.566,179.321Zm0,0" transform="translate(-56.024 -127.114)" fill="#71d6a2"/>
      <path id="Trazado_836710" data-name="Trazado 836710" d="M409.294,7.5h-4.766V67.578h4.766a2.781,2.781,0,0,0,2.781-2.781V10.282A2.781,2.781,0,0,0,409.294,7.5Zm0,0" transform="translate(-351.005 -6.508)" fill="#c4f2f2"/>
      <path id="Trazado_836711" data-name="Trazado 836711" d="M64.8,7.5H10.282A2.781,2.781,0,0,0,7.5,10.281v8.2H67.579v-8.2A2.782,2.782,0,0,0,64.8,7.5Zm0,0" transform="translate(-6.508 -6.508)" fill="#67dde0"/>
      <path id="Trazado_836712" data-name="Trazado 836712" d="M409.294,7.5h-4.766V18.48h7.547v-8.2A2.781,2.781,0,0,0,409.294,7.5Zm0,0" transform="translate(-351.005 -6.508)" fill="#20aba7"/>
      <path id="Trazado_836713" data-name="Trazado 836713" d="M346.555,317.326h-13.7a4.824,4.824,0,0,1-4.825-4.825V300.11a4.824,4.824,0,0,1,4.825-4.825h13.7a4.824,4.824,0,0,1,4.825,4.825V312.5A4.824,4.824,0,0,1,346.555,317.326Zm0,0" transform="translate(-284.63 -256.217)" fill="#ffbd5a"/>
      <path id="Trazado_836714" data-name="Trazado 836714" d="M452.783,295.285h-2.326v22.041h2.326a4.824,4.824,0,0,0,4.825-4.825V300.11A4.824,4.824,0,0,0,452.783,295.285Zm0,0" transform="translate(-390.857 -256.217)" fill="#f3a735"/>
      <path id="Trazado_836715" data-name="Trazado 836715" d="M387.156,380.719h-8.75a.731.731,0,0,1-.731-.731v-5.335a.731.731,0,0,1,.731-.731h8.75a.731.731,0,0,1,.731.731v5.335A.732.732,0,0,1,387.156,380.719Zm0,0" transform="translate(-327.706 -324.449)" fill="#ffeb7d"/>
      <g id="Grupo_1094191" data-name="Grupo 1094191" transform="translate(47.009 5.483)">
        <path id="Trazado_836716" data-name="Trazado 836716" d="M417.128,42.445a1,1,0,1,1-1-1A1,1,0,0,1,417.128,42.445Zm0,0" transform="translate(-407.218 -41.449)" fill="#e9feff"/>
        <path id="Trazado_836717" data-name="Trazado 836717" d="M387.207,42.445a1,1,0,1,1-1-1A1,1,0,0,1,387.207,42.445Zm0,0" transform="translate(-381.256 -41.449)" fill="#e9feff"/>
        <path id="Trazado_836718" data-name="Trazado 836718" d="M357.285,42.445a1,1,0,1,1-1-1A1,1,0,0,1,357.285,42.445Zm0,0" transform="translate(-355.293 -41.449)" fill="#e9feff"/>
      </g>
      <path id="Trazado_836719" data-name="Trazado 836719" d="M111.581,200.411l-.353.353a.4.4,0,0,1-.265.1.532.532,0,0,1-.464-.574.619.619,0,0,1,.276-.518l1.3-.993a.448.448,0,0,1,.3-.111c.3,0,.64.177.64.464v7.17c0,.3-.364.452-.717.452s-.717-.155-.717-.452Zm0,0" transform="translate(-95.88 -172.383)"/>
      <path id="Trazado_836720" data-name="Trazado 836720" d="M142.184,204.44v-3.078a2.587,2.587,0,0,1,5.174,0v3.078a2.587,2.587,0,0,1-5.174,0Zm3.739-3.078c0-.871-.441-1.269-1.158-1.269s-1.147.4-1.147,1.269v3.078c0,.871.419,1.268,1.147,1.268s1.158-.4,1.158-1.268Zm0,0" transform="translate(-123.372 -172.528)"/>
      <path id="Trazado_836721" data-name="Trazado 836721" d="M190.534,200.411l-.353.353a.4.4,0,0,1-.265.1.532.532,0,0,1-.464-.574.619.619,0,0,1,.276-.518l1.3-.993a.448.448,0,0,1,.3-.111c.3,0,.64.177.64.464v7.17c0,.3-.364.452-.717.452s-.717-.155-.717-.452Zm0,0" transform="translate(-164.387 -172.383)"/>
      <path id="Trazado_836722" data-name="Trazado 836722" d="M218.632,200.411l-.353.353a.4.4,0,0,1-.265.1.532.532,0,0,1-.463-.574.62.62,0,0,1,.275-.518l1.3-.993a.449.449,0,0,1,.3-.111c.3,0,.64.177.64.464v7.17c0,.3-.364.452-.717.452s-.717-.155-.717-.452Zm0,0" transform="translate(-188.767 -172.383)"/>
      <path id="Trazado_836723" data-name="Trazado 836723" d="M249.23,204.44v-3.078a2.587,2.587,0,0,1,5.174,0v3.078a2.588,2.588,0,0,1-5.174,0Zm3.739-3.078c0-.871-.441-1.269-1.158-1.269s-1.147.4-1.147,1.269v3.078c0,.871.419,1.268,1.147,1.268s1.158-.4,1.158-1.268Zm0,0" transform="translate(-216.255 -172.528)"/>
      <path id="Trazado_836724" data-name="Trazado 836724" d="M297.585,200.411l-.353.353a.4.4,0,0,1-.265.1.532.532,0,0,1-.463-.574.62.62,0,0,1,.275-.518l1.3-.993a.448.448,0,0,1,.3-.111c.3,0,.64.177.64.464v7.17c0,.3-.364.452-.717.452s-.717-.155-.717-.452Zm0,0" transform="translate(-257.274 -172.383)"/>
      <path id="Trazado_836725" data-name="Trazado 836725" d="M325.679,200.411l-.353.353a.4.4,0,0,1-.265.1.532.532,0,0,1-.464-.574.619.619,0,0,1,.276-.518l1.3-.993a.448.448,0,0,1,.3-.111c.3,0,.64.177.64.464v7.17c0,.3-.364.452-.717.452s-.717-.155-.717-.452Zm0,0" transform="translate(-281.651 -172.383)"/>
      <path id="Trazado_836726" data-name="Trazado 836726" d="M114.086,304.487v-3.078a2.587,2.587,0,0,1,5.174,0v3.078a2.587,2.587,0,0,1-5.174,0Zm3.74-3.078c0-.871-.441-1.269-1.158-1.269s-1.147.4-1.147,1.269v3.078c0,.871.419,1.268,1.147,1.268s1.158-.4,1.158-1.268Zm0,0" transform="translate(-98.991 -259.338)"/>
      <path id="Trazado_836727" data-name="Trazado 836727" d="M162.436,300.458l-.353.353a.4.4,0,0,1-.265.1.532.532,0,0,1-.464-.574.62.62,0,0,1,.276-.518l1.3-.993a.448.448,0,0,1,.3-.111c.3,0,.64.177.64.464v7.17c0,.3-.364.452-.717.452s-.717-.155-.717-.452Zm0,0" transform="translate(-140.006 -259.193)"/>
      <path id="Trazado_836728" data-name="Trazado 836728" d="M190.534,300.458l-.353.353a.4.4,0,0,1-.265.1.532.532,0,0,1-.464-.574.619.619,0,0,1,.276-.518l1.3-.993a.448.448,0,0,1,.3-.111c.3,0,.64.177.64.464v7.17c0,.3-.364.452-.717.452s-.717-.155-.717-.452Zm0,0" transform="translate(-164.387 -259.193)"/>
      <path id="Trazado_836729" data-name="Trazado 836729" d="M221.137,304.487v-3.078a2.587,2.587,0,0,1,5.174,0v3.078a2.588,2.588,0,0,1-5.174,0Zm3.739-3.078c0-.871-.441-1.269-1.158-1.269s-1.147.4-1.147,1.269v3.078c0,.871.419,1.268,1.147,1.268s1.158-.4,1.158-1.268Zm0,0" transform="translate(-191.879 -259.338)"/>
      <path id="Trazado_836730" data-name="Trazado 836730" d="M269.487,300.458l-.353.353a.4.4,0,0,1-.265.1.532.532,0,0,1-.463-.574.619.619,0,0,1,.276-.518l1.3-.993a.449.449,0,0,1,.3-.111c.3,0,.64.177.64.464v7.17c0,.3-.364.452-.717.452s-.717-.155-.717-.452Zm0,0" transform="translate(-232.893 -259.193)"/>
      <path id="Trazado_836731" data-name="Trazado 836731" d="M45.785,43.477H71.673a.992.992,0,0,0,0-1.985H45.785a.992.992,0,0,0,0,1.985Zm0,0" transform="translate(-38.867 -36.003)"/>
      <path id="Trazado_836732" data-name="Trazado 836732" d="M340.047,287.785h-13.7a5.824,5.824,0,0,0-5.817,5.817v12.392a5.824,5.824,0,0,0,5.817,5.817h13.7a5.824,5.824,0,0,0,5.817-5.817V293.6A5.824,5.824,0,0,0,340.047,287.785Zm3.832,18.209a3.836,3.836,0,0,1-3.832,3.832h-13.7a3.836,3.836,0,0,1-3.832-3.832V293.6a3.836,3.836,0,0,1,3.832-3.832h13.7a3.836,3.836,0,0,1,3.832,3.832Zm0,0" transform="translate(-278.122 -249.709)"/>
      <path id="Trazado_836733" data-name="Trazado 836733" d="M380.872,329.942v-.984a4.6,4.6,0,0,0-9.191,0v.984a1.725,1.725,0,0,0-1.5,1.709v5.335a1.725,1.725,0,0,0,1.723,1.724h8.749a1.726,1.726,0,0,0,1.724-1.724v-5.335a1.726,1.726,0,0,0-1.5-1.709Zm-4.6-3.595a2.614,2.614,0,0,1,2.611,2.611v.97h-5.222v-.97A2.614,2.614,0,0,1,376.277,326.348Zm4.113,10.378h-8.227v-4.813h8.227Zm0,0" transform="translate(-321.201 -281.447)"/>
      <path id="Trazado_836734" data-name="Trazado 836734" d="M41.958,60.077H3.774a1.791,1.791,0,0,1-1.789-1.789V12.964H60.078V35.1a.992.992,0,1,0,1.985,0V3.773A3.778,3.778,0,0,0,58.289,0H3.774A3.778,3.778,0,0,0,0,3.773V58.288a3.778,3.778,0,0,0,3.774,3.773H41.958a.992.992,0,1,0,0-1.985ZM3.774,1.984H58.289a1.791,1.791,0,0,1,1.789,1.789v7.206H1.984V3.773A1.791,1.791,0,0,1,3.774,1.984Zm0,0"/>
      <path id="Trazado_836735" data-name="Trazado 836735" d="M103.036,156.7a.992.992,0,0,0,.992-.992V141.274A2.277,2.277,0,0,0,101.754,139H59.341a2.277,2.277,0,0,0-2.275,2.275v31.542a2.277,2.277,0,0,0,2.275,2.275H88.949a.992.992,0,1,0,0-1.985H59.341a.29.29,0,0,1-.29-.29V141.274a.291.291,0,0,1,.29-.29h42.412a.291.291,0,0,1,.29.29v14.434A.992.992,0,0,0,103.036,156.7Zm0,0" transform="translate(-49.516 -120.609)"/>
    </g>
  </g>
</svg>
