<svg xmlns="http://www.w3.org/2000/svg" width="65.729" height="81.885" viewBox="0 0 65.729 81.885">
  <g id="Grupo_1094346" data-name="Grupo 1094346" transform="translate(-7.681 -2.581)">
    <g id="cortafuegos_2_" data-name="cortafuegos (2)" transform="translate(7.681 2.581)">
      <path id="Trazado_836794" data-name="Trazado 836794" d="M119.723,23.01h-60.1a1.616,1.616,0,0,1-1.616-1.616V9.116A1.616,1.616,0,0,1,59.624,7.5h60.1a1.616,1.616,0,0,1,1.616,1.616V21.394A1.616,1.616,0,0,1,119.723,23.01Z" transform="translate(-56.809 -6.301)" fill="#4172ca"/>
      <path id="Trazado_836795" data-name="Trazado 836795" d="M428.615,23.01h-2.908V7.5h2.908a1.616,1.616,0,0,1,1.616,1.616V21.394A1.616,1.616,0,0,1,428.615,23.01Z" transform="translate(-365.701 -6.301)" fill="#3a67c1"/>
      <path id="Trazado_836796" data-name="Trazado 836796" d="M78.211,104.476h56.868v5.17H78.211Z" transform="translate(-73.781 -87.767)" fill="#688ed5"/>
      <path id="Trazado_836797" data-name="Trazado 836797" d="M158.861,45h-2.585a1.292,1.292,0,0,1-1.292-1.292V41.118a1.292,1.292,0,0,1,1.292-1.292h2.585a1.292,1.292,0,0,1,1.292,1.292V43.7A1.292,1.292,0,0,1,158.861,45Z" transform="translate(-138.275 -33.457)" fill="#a2f5c3"/>
      <path id="Trazado_836798" data-name="Trazado 836798" d="M223.511,45h-2.585a1.292,1.292,0,0,1-1.292-1.292V41.118a1.292,1.292,0,0,1,1.292-1.292h2.585a1.292,1.292,0,0,1,1.292,1.292V43.7A1.292,1.292,0,0,1,223.511,45Z" transform="translate(-192.586 -33.457)" fill="#e279b3"/>
      <path id="Trazado_836799" data-name="Trazado 836799" d="M304.963,45H285.576a1.292,1.292,0,0,1-1.292-1.292V41.118a1.292,1.292,0,0,1,1.292-1.292h19.387a1.292,1.292,0,0,1,1.292,1.292V43.7A1.292,1.292,0,0,1,304.963,45Z" transform="translate(-246.896 -33.457)" fill="#26447e"/>
      <path id="Trazado_836800" data-name="Trazado 836800" d="M78.211,233.776h56.868v5.17H78.211Z" transform="translate(-73.781 -196.388)" fill="#688ed5"/>
      <path id="Trazado_836801" data-name="Trazado 836801" d="M94.211,45H91.626A1.292,1.292,0,0,1,90.334,43.7V41.118a1.292,1.292,0,0,1,1.292-1.292h2.585A1.292,1.292,0,0,1,95.5,41.118V43.7A1.293,1.293,0,0,1,94.211,45Z" transform="translate(-83.965 -33.457)" fill="#a2f5c3"/>
      <path id="Trazado_836802" data-name="Trazado 836802" d="M119.723,152.31h-60.1a1.616,1.616,0,0,1-1.616-1.616V138.416a1.616,1.616,0,0,1,1.616-1.616h60.1a1.616,1.616,0,0,1,1.616,1.616v12.278A1.616,1.616,0,0,1,119.723,152.31Z" transform="translate(-56.809 -114.921)" fill="#4172ca"/>
      <path id="Trazado_836803" data-name="Trazado 836803" d="M428.615,152.31h-2.908V136.8h2.908a1.616,1.616,0,0,1,1.616,1.616v12.278A1.616,1.616,0,0,1,428.615,152.31Z" transform="translate(-365.701 -114.921)" fill="#3a67c1"/>
      <path id="Trazado_836804" data-name="Trazado 836804" d="M158.861,174.3h-2.585A1.292,1.292,0,0,1,154.984,173v-2.585a1.292,1.292,0,0,1,1.292-1.292h2.585a1.292,1.292,0,0,1,1.292,1.292V173A1.292,1.292,0,0,1,158.861,174.3Z" transform="translate(-138.275 -142.077)" fill="#a2f5c3"/>
      <path id="Trazado_836805" data-name="Trazado 836805" d="M304.963,174.3H285.576A1.292,1.292,0,0,1,284.284,173v-2.585a1.292,1.292,0,0,1,1.292-1.292h19.387a1.292,1.292,0,0,1,1.292,1.292V173A1.292,1.292,0,0,1,304.963,174.3Z" transform="translate(-246.896 -142.077)" fill="#26447e"/>
      <path id="Trazado_836806" data-name="Trazado 836806" d="M94.211,174.3H91.626A1.292,1.292,0,0,1,90.334,173v-2.585a1.292,1.292,0,0,1,1.292-1.292h2.585a1.292,1.292,0,0,1,1.292,1.292V173A1.293,1.293,0,0,1,94.211,174.3Z" transform="translate(-83.965 -142.077)" fill="#a2f5c3"/>
      <path id="Trazado_836807" data-name="Trazado 836807" d="M119.723,281.611h-60.1a1.616,1.616,0,0,1-1.616-1.616V267.717a1.616,1.616,0,0,1,1.616-1.616h60.1a1.616,1.616,0,0,1,1.616,1.616v12.278A1.616,1.616,0,0,1,119.723,281.611Z" transform="translate(-56.809 -223.543)" fill="#4172ca"/>
      <path id="Trazado_836808" data-name="Trazado 836808" d="M428.615,281.611h-2.908V266.1h2.908a1.616,1.616,0,0,1,1.616,1.616v12.278A1.615,1.615,0,0,1,428.615,281.611Z" transform="translate(-365.701 -223.543)" fill="#3a67c1"/>
      <path id="Trazado_836809" data-name="Trazado 836809" d="M175.317,152.31l-3.048,2.19-10.523-17.7-10.523,17.7-3.048-2.19s-8.653,11.275-1.616,20.68h30.373C183.97,163.586,175.317,152.31,175.317,152.31Z" transform="translate(-128.881 -114.922)" fill="#ffe07d"/>
      <path id="Trazado_836810" data-name="Trazado 836810" d="M228.618,212.671l-3.048,2.19-3.691-6.208a48.651,48.651,0,0,1-4.558,11.785,45.681,45.681,0,0,1-10.071,12.913h22.983C237.271,223.946,228.618,212.671,228.618,212.671Z" transform="translate(-182.182 -175.283)" fill="#ffd064"/>
      <path id="Trazado_836811" data-name="Trazado 836811" d="M209.878,243.127s-11.781,14.2-8.05,19.185h16.1C221.66,257.326,209.878,243.127,209.878,243.127Z" transform="translate(-177.014 -204.243)" fill="#e69642"/>
      <path id="Trazado_836812" data-name="Trazado 836812" d="M218.3,270.353q-.468.959-.982,1.918a45.681,45.681,0,0,1-10.071,12.913H223.1C225.5,281.975,221.476,274.953,218.3,270.353Z" transform="translate(-182.182 -227.115)" fill="#e38523"/>
      <g id="Grupo_1094342" data-name="Grupo 1094342" transform="translate(10.085 50.475)">
        <path id="Trazado_836813" data-name="Trazado 836813" d="M113.567,315.6h45.559v30.21H113.567Z" transform="translate(-113.567 -315.604)" fill="#e279b3"/>
        <path id="Trazado_836814" data-name="Trazado 836814" d="M372.169,315.6h4.2v30.21h-4.2Z" transform="translate(-330.81 -315.604)" fill="#de5ca3"/>
      </g>
      <g id="Grupo_1094343" data-name="Grupo 1094343" transform="translate(0 0)">
        <path id="Trazado_836815" data-name="Trazado 836815" d="M152.561,32.325h-2.585a2.5,2.5,0,0,0-2.492,2.492V37.4a2.5,2.5,0,0,0,2.492,2.492h2.585a2.5,2.5,0,0,0,2.492-2.492V34.817A2.5,2.5,0,0,0,152.561,32.325Zm.093,5.077a.093.093,0,0,1-.093.093h-2.585a.093.093,0,0,1-.093-.093V34.817a.093.093,0,0,1,.093-.093h2.585a.093.093,0,0,1,.093.093Z" transform="translate(-131.975 -27.155)"/>
        <path id="Trazado_836816" data-name="Trazado 836816" d="M217.211,32.325h-2.585a2.5,2.5,0,0,0-2.492,2.492V37.4a2.5,2.5,0,0,0,2.492,2.492h2.585A2.5,2.5,0,0,0,219.7,37.4V34.817A2.5,2.5,0,0,0,217.211,32.325ZM217.3,37.4a.093.093,0,0,1-.093.093h-2.585a.093.093,0,0,1-.093-.093V34.817a.093.093,0,0,1,.093-.093h2.585a.093.093,0,0,1,.093.093Z" transform="translate(-186.285 -27.155)"/>
        <path id="Trazado_836817" data-name="Trazado 836817" d="M301.156,37.4V34.817a2.5,2.5,0,0,0-2.492-2.492H279.277a2.5,2.5,0,0,0-2.492,2.492V37.4a2.5,2.5,0,0,0,2.492,2.492h19.387A2.5,2.5,0,0,0,301.156,37.4Zm-21.972,0V34.817a.093.093,0,0,1,.093-.093h19.387a.093.093,0,0,1,.093.093V37.4a.093.093,0,0,1-.093.093H279.277A.093.093,0,0,1,279.184,37.4Z" transform="translate(-240.596 -27.155)"/>
        <path id="Trazado_836818" data-name="Trazado 836818" d="M113.424,17.909a2.819,2.819,0,0,0,2.815-2.816V2.815A2.818,2.818,0,0,0,113.424,0h-60.1A2.818,2.818,0,0,0,50.51,2.815V15.093a2.819,2.819,0,0,0,2.815,2.816h.416v2.77h-.416a2.818,2.818,0,0,0-2.815,2.815V35.772a2.819,2.819,0,0,0,2.815,2.816h.416v2.77h-.416a2.818,2.818,0,0,0-2.815,2.815v12.28a2.818,2.818,0,0,0,2.815,2.815H59.4V80.686a1.2,1.2,0,0,0,1.2,1.2h2.8a1.2,1.2,0,1,0,0-2.4h-1.6V74.454H74.582v5.032h-5.59a1.2,1.2,0,1,0,0,2.4h37.162a1.2,1.2,0,0,0,1.2-1.2V59.268h6.071a2.818,2.818,0,0,0,2.815-2.815V44.173a2.818,2.818,0,0,0-2.815-2.815h-.416v-2.77h.416a2.819,2.819,0,0,0,2.815-2.816V23.494a2.818,2.818,0,0,0-2.815-2.815h-.416v-2.77ZM52.909,35.772V23.494a.416.416,0,0,1,.416-.416H81.266l-7.8,13.111H53.325a.417.417,0,0,1-.416-.417ZM89.1,29.158v-.816a.093.093,0,0,1,.093-.093h19.387a.093.093,0,0,1,.093.093v2.585a.093.093,0,0,1-.093.093H90.2Zm3.77,11.035a1.2,1.2,0,0,0,1.731.361l2.049-1.473a21.549,21.549,0,0,1,3.461,10.2H91.59A62.336,62.336,0,0,0,84.3,38.119a1.2,1.2,0,0,0-1.846,0A62.31,62.31,0,0,0,75.16,49.275H66.642A21.544,21.544,0,0,1,70.1,39.08l2.049,1.473a1.2,1.2,0,0,0,1.731-.361l9.492-15.966ZM84.574,72.055V66.861H97.361v5.194H84.574ZM66.989,51.674v5.195H61.795V51.674Zm17.585,5.195V51.674H97.361v5.195Zm-7.593,7.593V59.268H89.768v5.194Zm.856-15.187a60.847,60.847,0,0,1,5.538-8.459,60.873,60.873,0,0,1,5.538,8.459Zm4.338,2.4v5.195H69.388V51.674Zm-20.38,7.594H74.582v5.194H61.795Zm20.38,7.593v5.194H69.388V66.861Zm17.585,0h5.194v5.194H99.76Zm-7.593-2.4V59.268h12.787v5.194Zm12.787-7.593H99.76V51.674h5.194Zm-51.629,0a.416.416,0,0,1-.416-.416V44.173a.416.416,0,0,1,.416-.416H57.8a1.2,1.2,0,0,0,0-2.4H56.14v-2.77H67.582a27.091,27.091,0,0,0-1.425,2.77H63.394a1.2,1.2,0,0,0,0,2.4h1.843a19.8,19.8,0,0,0-1,5.518H60.6a1.2,1.2,0,0,0-1.2,1.2v6.394H53.325Zm8.47,9.993h5.194v5.194H61.795Zm15.186,7.593H89.768v5.032H76.981Zm15.187,5.032V74.454h12.787v5.032ZM113.84,44.173v12.28a.416.416,0,0,1-.416.416h-6.071V50.475a1.2,1.2,0,0,0-1.2-1.2h-3.645a19.8,19.8,0,0,0-1-5.518h11.913A.416.416,0,0,1,113.84,44.173Zm-3.231-2.815H100.592a27.092,27.092,0,0,0-1.425-2.77h11.442Zm3.231-17.864V35.772a.417.417,0,0,1-.416.417H93.278l-1.648-2.771h16.947a2.5,2.5,0,0,0,2.492-2.492V28.341a2.5,2.5,0,0,0-2.492-2.492H89.19a2.479,2.479,0,0,0-1.673.651l-2.034-3.422h27.941a.416.416,0,0,1,.416.416Zm-3.231-2.815H56.14v-2.77H96.086a1.2,1.2,0,0,0,0-2.4H53.325a.417.417,0,0,1-.416-.417V2.815a.416.416,0,0,1,.416-.416h60.1a.416.416,0,0,1,.416.416V15.093a.417.417,0,0,1-.416.417H101.683a1.2,1.2,0,1,0,0,2.4h8.926Z" transform="translate(-50.51 0)"/>
        <path id="Trazado_836819" data-name="Trazado 836819" d="M87.911,32.325H85.326a2.5,2.5,0,0,0-2.492,2.492V37.4a2.5,2.5,0,0,0,2.492,2.492h2.585A2.5,2.5,0,0,0,90.4,37.4V34.817A2.5,2.5,0,0,0,87.911,32.325ZM88,37.4a.093.093,0,0,1-.093.093H85.326a.093.093,0,0,1-.093-.093V34.817a.093.093,0,0,1,.093-.093h2.585a.093.093,0,0,1,.093.093V37.4Z" transform="translate(-77.664 -27.155)"/>
        <path id="Trazado_836820" data-name="Trazado 836820" d="M155.052,166.7v-2.585a2.5,2.5,0,0,0-2.492-2.492h-2.585a2.5,2.5,0,0,0-2.492,2.492V166.7a2.5,2.5,0,0,0,2.492,2.492h2.585A2.5,2.5,0,0,0,155.052,166.7Zm-2.4,0a.093.093,0,0,1-.093.093h-2.585a.093.093,0,0,1-.093-.093v-2.585a.093.093,0,0,1,.093-.093h2.585a.093.093,0,0,1,.093.093Z" transform="translate(-131.974 -135.777)"/>
        <path id="Trazado_836821" data-name="Trazado 836821" d="M87.911,161.626H85.326a2.5,2.5,0,0,0-2.492,2.492V166.7a2.5,2.5,0,0,0,2.492,2.492h2.585A2.5,2.5,0,0,0,90.4,166.7v-2.585A2.5,2.5,0,0,0,87.911,161.626ZM88,166.7a.093.093,0,0,1-.093.093H85.326a.093.093,0,0,1-.093-.093v-2.585a.093.093,0,0,1,.093-.093h2.585a.093.093,0,0,1,.093.093V166.7Z" transform="translate(-77.664 -135.777)"/>
      </g>
    </g>
  </g>
</svg>
