<svg xmlns="http://www.w3.org/2000/svg" xmlns:xlink="http://www.w3.org/1999/xlink" width="42.41" height="42.41" viewBox="0 0 42.41 42.41">
  <defs>
    <clipPath id="clip-path">
      <path id="path4452" d="M0-682.665H42.41v42.41H0Z" transform="translate(0 682.665)"/>
    </clipPath>
  </defs>
  <g id="g4446" transform="translate(0 682.665)">
    <g id="g4448" transform="translate(0 -682.665)">
      <g id="g4450" clip-path="url(#clip-path)">
        <g id="g4456" transform="translate(9.039 0.621)">
          <path id="path4458" d="M-180.884,0c-2.416.011-12.026,6.114-11.982,15.773.005,1.183,4.538,12.643,12.113,12.608s12-11.536,12-12.72C-168.8,6-178.468-.011-180.884,0" transform="translate(192.866 0)" fill="#323e44"/>
        </g>
        <g id="g4460" transform="translate(9.039 0.621)">
          <path id="path4462" d="M-.04-238.786a34.588,34.588,0,0,1,24.1-.112h0c0-.015,0-.031,0-.044-.045-9.66-9.711-15.673-12.127-15.661S-.087-248.49-.042-238.83C-.042-238.817-.041-238.8-.04-238.786Z" transform="translate(0.042 254.604)" fill="#465058"/>
        </g>
        <g id="g4464" transform="translate(18.704 0.621)">
          <path id="path4466" d="M-34.988,0a5.874,5.874,0,0,0-2.318.79c3.51,1.812,9.027,6.651,9.694,13.553a34.581,34.581,0,0,1,4.749,1.363h0c0-.015,0-.031,0-.044C-22.905,6-32.571-.011-34.988,0" transform="translate(37.305 0)" fill="#323e44"/>
        </g>
        <g id="g4468" transform="translate(0.699 22.624)">
          <path id="path4470" d="M-597.93-286.659a1.412,1.412,0,0,0,1.385-1.656l-.926-5.271a6.168,6.168,0,0,0-4.446-4.882l-9.742-1.867a2.318,2.318,0,0,1-1.624-2.227l-.014-3.084-7.628.035.014,3.084a2.318,2.318,0,0,1-1.6,2.242l-9.724,1.958a6.167,6.167,0,0,0-4.4,4.923l-.877,5.279a1.412,1.412,0,0,0,1.4,1.644Z" transform="translate(637.536 305.647)" fill="#465058"/>
        </g>
        <g id="g4472" transform="translate(20.569 22.624)">
          <path id="path4474" d="M-318.857-261.652l-.926-5.271a6.167,6.167,0,0,0-4.446-4.882l-9.742-1.867a2.318,2.318,0,0,1-1.624-2.227l-.014-3.084-4.369.02.009,5.048a2.318,2.318,0,0,0,1.624,2.227l9.742,1.867a6.167,6.167,0,0,1,4.446,4.882l.871,4.958,3.045-.014a1.412,1.412,0,0,0,1.384-1.656" transform="translate(339.978 278.983)" fill="#323e44"/>
        </g>
        <g id="g4476" transform="translate(12.921 14.216)">
          <path id="path4478" d="M0-15.346l.183,3.019A7.248,7.248,0,0,0,1.444-8.659,22.376,22.376,0,0,0,6.128-4.37a5.33,5.33,0,0,0,4.182-.019,22.372,22.372,0,0,0,4.644-4.333A7.245,7.245,0,0,0,16.18-12.4l.155-3.021A34.588,34.588,0,0,0,0-15.346" transform="translate(0 16.363)" fill="#ffe1cc"/>
        </g>
        <g id="g4480" transform="translate(18.797 14.377)">
          <path id="path4482" d="M-87.242,0c-.045,1.25-.088,3.1-.125,3.8A7.246,7.246,0,0,1-88.593,7.48a23.957,23.957,0,0,1-4.428,4.211,1.8,1.8,0,0,0,.251.141,5.33,5.33,0,0,0,4.182-.019A22.369,22.369,0,0,0-83.944,7.48,7.245,7.245,0,0,0-82.717,3.8l.155-3.021A34.576,34.576,0,0,0-87.242,0" transform="translate(93.021)" fill="#f4d3bd"/>
        </g>
        <g id="g4484" transform="translate(7.605 21.98)">
          <path id="path4486" d="M-409.528-296.766l-27.041.125-.086-18.523a1.139,1.139,0,0,1,1.134-1.145l24.762-.115a1.139,1.139,0,0,1,1.145,1.134Z" transform="translate(436.655 316.423)" fill="#dae5ea"/>
        </g>
        <g id="g4488" transform="translate(7.691 21.98)">
          <path id="path4490" d="M-406.936-17.122a1.139,1.139,0,0,0-1.145-1.134l-4.448.021a1.139,1.139,0,0,1,.925,1.114l.086,18.523-22.373.1v.022L-406.85,1.4Z" transform="translate(433.891 18.256)" fill="#c3d5db"/>
        </g>
        <g id="g4492" transform="translate(5.16 38.896)">
          <path id="path4494" d="M-452-41.365l-27.777.129a2.153,2.153,0,0,1-2.163-2.143h0a.579.579,0,0,1,.577-.582l30.925-.143a.579.579,0,0,1,.582.577h0A2.153,2.153,0,0,1-452-41.365" transform="translate(481.944 44.105)" fill="#62dbfb"/>
        </g>
        <g id="g4496" transform="translate(18.157 28.474)">
          <path id="path4498" d="M-53.748-111.41h0a1.194,1.194,0,0,1-1.063,0h0a4.455,4.455,0,0,1-2.489-3.977l-.008-1.72a1.668,1.668,0,0,1,1.66-1.676l2.669-.012a1.668,1.668,0,0,1,1.676,1.66l.008,1.72a4.454,4.454,0,0,1-2.452,4" transform="translate(57.308 118.789)" fill="#f34545"/>
        </g>
        <g id="g4500" transform="translate(19.132 26.306)">
          <path id="path4502" d="M-42.106-49.37l-1.529.007a1.255,1.255,0,0,1-1.261-1.249h0a2.019,2.019,0,0,1,2.01-2.028h0a2.019,2.019,0,0,1,2.028,2.01h0a1.255,1.255,0,0,1-1.249,1.261" transform="translate(44.895 52.64)" fill="#323e44"/>
        </g>
        <g id="g4504" transform="translate(15.088 25.685)">
          <path id="path4506" d="M-58.551-58.423q.048.055.1.107a1.864,1.864,0,0,0,1.32.543h.152l.023,4.891A3.808,3.808,0,0,1-58.731-56.1l-.008-1.72a1.045,1.045,0,0,1,.188-.6m1.191-2.213a1.389,1.389,0,0,1,.987-.414h.007a1.388,1.388,0,0,1,.984.4,1.389,1.389,0,0,1,.414.987.63.63,0,0,1-.183.449.629.629,0,0,1-.447.188h0l-1.529.007h0a.63.63,0,0,1-.446-.183.63.63,0,0,1-.188-.447,1.389,1.389,0,0,1,.4-.99m3.09,2.3q.052-.052.1-.108a1.045,1.045,0,0,1,.194.6l.008,1.72a3.808,3.808,0,0,1-1.745,3.233l-.023-4.891h.143a1.864,1.864,0,0,0,1.324-.556m-7.538,3.416a.62.62,0,0,0,.441-.184l.93-.938.464,0a5.133,5.133,0,0,0,.143,1.136l-.8.377-.019.01a1.19,1.19,0,0,0-.651,1.07l.008,1.682a.621.621,0,0,0,.621.618h0a.621.621,0,0,0,.618-.624l-.008-1.652.671-.315a5.059,5.059,0,0,0,2.253,2.181,1.815,1.815,0,0,0,.8.185,1.815,1.815,0,0,0,.816-.193,5.059,5.059,0,0,0,2.232-2.2l.672.308.008,1.652a.621.621,0,0,0,.621.618h0a.621.621,0,0,0,.618-.624l-.008-1.682a1.19,1.19,0,0,0-.661-1.064l-.019-.009-.8-.368a5.138,5.138,0,0,0,.133-1.138l.462,0,.938.93a.619.619,0,0,0,.437.18.62.62,0,0,0,.441-.184.621.621,0,0,0,0-.879l-1.121-1.111a.622.622,0,0,0-.437-.18h0l-.719,0,0-.526q0-.117-.013-.231l.694-.356A1.19,1.19,0,0,0-51.4-59.5l-.008-1.682a.621.621,0,0,0-.621-.618h0a.621.621,0,0,0-.618.624l.008,1.653-.566.29a2.286,2.286,0,0,0-.516-.487,2.623,2.623,0,0,0-.781-1.805,2.623,2.623,0,0,0-1.858-.765h-.013a2.623,2.623,0,0,0-1.863.782,2.623,2.623,0,0,0-.764,1.812,2.283,2.283,0,0,0-.512.493l-.571-.286-.008-1.653a.621.621,0,0,0-.621-.618h0a.621.621,0,0,0-.618.624l.008,1.682a1.19,1.19,0,0,0,.661,1.064l.7.35a2.3,2.3,0,0,0-.01.23l0,.526-.721,0a.621.621,0,0,0-.438.184l-1.111,1.121a.621.621,0,0,0,0,.879.619.619,0,0,0,.437.18" transform="translate(62.429 62.293)"/>
        </g>
        <g id="g4508" transform="translate(0.078 0)">
          <path id="path4510" d="M-545.007-612.337a1.522,1.522,0,0,1-1.081.454l-27.777.129h-.007a1.522,1.522,0,0,1-1.078-.444,1.522,1.522,0,0,1-.453-1.039l30.84-.143a1.522,1.522,0,0,1-.443,1.044m-27.437-17.845,24.762-.115h0a.519.519,0,0,1,.518.516l.07,15.169-25.8.12-.07-15.17a.519.519,0,0,1,.516-.521m1.018-5.88q1.28-.46,2.587-.814l.138,2.267a7.88,7.88,0,0,0,.876,3.163l-1.454.007a23.029,23.029,0,0,1-2.146-4.623m18.85-1.192-.129,2.5a6.625,6.625,0,0,1-1.04,3.241l-12.646.059a6.628,6.628,0,0,1-1.07-3.232l-.152-2.5a33.989,33.989,0,0,1,15.037-.07m-14.06-10.318c2.588-2.622,5.471-4.079,6.474-4.084h.005c1.008,0,3.9,1.43,6.507,4.023a15.989,15.989,0,0,1,4.962,10.174,35.222,35.222,0,0,0-22.815.106,15.991,15.991,0,0,1,4.867-10.219m15.78,16.047-1.454.007a7.879,7.879,0,0,0,.847-3.17l.117-2.269q1.308.342,2.594.79a23,23,0,0,1-2.1,4.643m11.972,18.474-.926-5.271a6.771,6.771,0,0,0-3.972-5.049.621.621,0,0,0-.818.321.621.621,0,0,0,.321.818,5.532,5.532,0,0,1,3.245,4.125l.926,5.271a.789.789,0,0,1-.172.644.79.79,0,0,1-.6.284l-2.894.017a2.754,2.754,0,0,0,.456-1.538,1.193,1.193,0,0,0-.356-.847,1.184,1.184,0,0,0-.851-.348l-1.321.006-.07-15.169a1.763,1.763,0,0,0-1.76-1.752h-.008l-1.737.008a16.183,16.183,0,0,0,2.008-5.087,16.979,16.979,0,0,0-5.358-11.895c-2.763-2.748-5.921-4.385-7.385-4.385h-.009c-1.46.007-4.61,1.674-7.353,4.453a16.98,16.98,0,0,0-5.247,11.944,16.18,16.18,0,0,0,2.056,5.068l-1.737.008a1.763,1.763,0,0,0-1.752,1.769l.07,15.169-1.321.006a1.193,1.193,0,0,0-.847.356,1.193,1.193,0,0,0-.348.851,2.755,2.755,0,0,0,.464,1.524l-2.887.019h0a.79.79,0,0,1-.6-.278.79.79,0,0,1-.178-.643l.877-5.279a5.534,5.534,0,0,1,3.191-4.148.621.621,0,0,0,.311-.822.621.621,0,0,0-.822-.311,6.774,6.774,0,0,0-3.906,5.077l-.877,5.279a2.029,2.029,0,0,0,.458,1.651,2.029,2.029,0,0,0,1.548.715h.01l5.2-.024h0l27.777-.129h0l5.2-.024a2.03,2.03,0,0,0,1.551-.73,2.029,2.029,0,0,0,.443-1.656" transform="translate(581.107 652.898)"/>
        </g>
      </g>
    </g>
  </g>
</svg>
